%TF.GenerationSoftware,KiCad,Pcbnew,(6.0.2-0)*%
%TF.CreationDate,2022-08-31T15:30:49-04:00*%
%TF.ProjectId,LED Driver,4c454420-4472-4697-9665-722e6b696361,rev?*%
%TF.SameCoordinates,Original*%
%TF.FileFunction,Copper,L2,Bot*%
%TF.FilePolarity,Positive*%
%FSLAX46Y46*%
G04 Gerber Fmt 4.6, Leading zero omitted, Abs format (unit mm)*
G04 Created by KiCad (PCBNEW (6.0.2-0)) date 2022-08-31 15:30:49*
%MOMM*%
%LPD*%
G01*
G04 APERTURE LIST*
%TA.AperFunction,ComponentPad*%
%ADD10R,1.700000X1.700000*%
%TD*%
%TA.AperFunction,ComponentPad*%
%ADD11O,1.700000X1.700000*%
%TD*%
%TA.AperFunction,ComponentPad*%
%ADD12R,1.600000X1.600000*%
%TD*%
%TA.AperFunction,ComponentPad*%
%ADD13C,1.600000*%
%TD*%
%TA.AperFunction,ComponentPad*%
%ADD14O,1.600000X1.600000*%
%TD*%
%TA.AperFunction,ComponentPad*%
%ADD15C,0.500000*%
%TD*%
%TA.AperFunction,SMDPad,CuDef*%
%ADD16R,1.900000X2.500000*%
%TD*%
%TA.AperFunction,ViaPad*%
%ADD17C,1.600000*%
%TD*%
%TA.AperFunction,Conductor*%
%ADD18C,0.500000*%
%TD*%
G04 APERTURE END LIST*
D10*
%TO.P,J2,1,Pin_1*%
%TO.N,GND*%
X120279000Y-140589000D03*
D11*
%TO.P,J2,2,Pin_2*%
%TO.N,Net-(J2-Pad2)*%
X122819000Y-140589000D03*
%TO.P,J2,3,Pin_3*%
X125359000Y-140589000D03*
%TO.P,J2,4,Pin_4*%
%TO.N,Net-(C2-Pad1)*%
X127899000Y-140589000D03*
%TD*%
D10*
%TO.P,J1,1,Pin_1*%
%TO.N,/+20V*%
X98044000Y-112268000D03*
D11*
%TO.P,J1,2,Pin_2*%
%TO.N,/arduino*%
X98044000Y-114808000D03*
%TO.P,J1,3,Pin_3*%
%TO.N,/Control *%
X98044000Y-117348000D03*
%TO.P,J1,4,Pin_4*%
%TO.N,/-20V*%
X98044000Y-119888000D03*
%TO.P,J1,5,Pin_5*%
%TO.N,GND*%
X98044000Y-122428000D03*
%TD*%
D12*
%TO.P,C2,1*%
%TO.N,Net-(C2-Pad1)*%
X151384000Y-117348000D03*
D13*
%TO.P,C2,2*%
%TO.N,Net-(C1-Pad2)*%
X151384000Y-114848000D03*
%TD*%
%TO.P,R1,1*%
%TO.N,/+20V*%
X125984000Y-104648000D03*
D14*
%TO.P,R1,2*%
%TO.N,GND*%
X125984000Y-114808000D03*
%TD*%
D15*
%TO.P,U1,9,V-*%
%TO.N,/-20V*%
X113984000Y-117348000D03*
X112584000Y-116348000D03*
X112584000Y-118348000D03*
X113984000Y-118348000D03*
X113984000Y-116348000D03*
X112584000Y-117348000D03*
D16*
X113284000Y-117348000D03*
%TD*%
D12*
%TO.P,C1,1*%
%TO.N,Net-(C1-Pad1)*%
X136144000Y-112268000D03*
D13*
%TO.P,C1,2*%
%TO.N,Net-(C1-Pad2)*%
X138644000Y-112268000D03*
%TD*%
%TO.P,R5,1*%
%TO.N,Net-(J2-Pad2)*%
X136144000Y-130048000D03*
D14*
%TO.P,R5,2*%
%TO.N,Net-(C2-Pad1)*%
X136144000Y-140208000D03*
%TD*%
D13*
%TO.P,R3,1*%
%TO.N,Net-(C1-Pad2)*%
X143764000Y-119888000D03*
D14*
%TO.P,R3,2*%
%TO.N,Net-(C1-Pad1)*%
X133604000Y-119888000D03*
%TD*%
D13*
%TO.P,R6,1*%
%TO.N,/-20V*%
X110744000Y-130048000D03*
D14*
%TO.P,R6,2*%
%TO.N,GND*%
X110744000Y-140208000D03*
%TD*%
D13*
%TO.P,R4,1*%
%TO.N,Net-(C2-Pad1)*%
X161544000Y-122428000D03*
D14*
%TO.P,R4,2*%
%TO.N,Net-(C1-Pad2)*%
X161544000Y-112268000D03*
%TD*%
D17*
%TO.N,Net-(J2-Pad2)*%
X120904000Y-130048000D03*
%TO.N,/+20V*%
X121920000Y-115316000D03*
X145796000Y-128270000D03*
%TO.N,GND*%
X108458000Y-113792000D03*
%TO.N,Net-(J2-Pad2)*%
X108458000Y-116332000D03*
%TD*%
D18*
%TO.N,/+20V*%
X121920000Y-117856000D02*
X121920000Y-115316000D01*
X127508000Y-123444000D02*
X121920000Y-117856000D01*
X139192000Y-128270000D02*
X134366000Y-123444000D01*
X134366000Y-123444000D02*
X127508000Y-123444000D01*
X145796000Y-128270000D02*
X139192000Y-128270000D01*
%TO.N,GND*%
X107188000Y-140208000D02*
X110744000Y-140208000D01*
X98044000Y-122428000D02*
X99822000Y-122428000D01*
X108458000Y-113792000D02*
X108458000Y-112014000D01*
X98044000Y-122428000D02*
X106934000Y-131318000D01*
X109220000Y-111252000D02*
X122428000Y-111252000D01*
X108458000Y-112014000D02*
X109220000Y-111252000D01*
X106934000Y-140462000D02*
X107188000Y-140208000D01*
X106934000Y-131318000D02*
X106934000Y-140462000D01*
X122428000Y-111252000D02*
X125984000Y-114808000D01*
X99822000Y-122428000D02*
X108458000Y-113792000D01*
%TO.N,Net-(J2-Pad2)*%
X107442000Y-117348000D02*
X108458000Y-116332000D01*
X120904000Y-130048000D02*
X116078000Y-130048000D01*
X116078000Y-130048000D02*
X107442000Y-121412000D01*
X107442000Y-121412000D02*
X107442000Y-117348000D01*
%TD*%
%TA.AperFunction,NonConductor*%
G36*
X170884121Y-102128002D02*
G01*
X170930614Y-102181658D01*
X170942000Y-102234000D01*
X170942000Y-145416000D01*
X170921998Y-145484121D01*
X170868342Y-145530614D01*
X170816000Y-145542000D01*
X89534000Y-145542000D01*
X89465879Y-145521998D01*
X89419386Y-145468342D01*
X89408000Y-145416000D01*
X89408000Y-142921187D01*
X89870059Y-142921187D01*
X89895536Y-143212399D01*
X89959305Y-143497683D01*
X90060244Y-143772027D01*
X90062188Y-143775715D01*
X90062192Y-143775723D01*
X90194627Y-144026908D01*
X90196580Y-144030612D01*
X90365918Y-144268893D01*
X90565283Y-144482686D01*
X90791171Y-144668233D01*
X91039616Y-144822275D01*
X91306250Y-144942105D01*
X91392923Y-144967944D01*
X91582394Y-145024428D01*
X91582402Y-145024430D01*
X91586391Y-145025619D01*
X91590508Y-145026271D01*
X91590512Y-145026272D01*
X91871649Y-145070799D01*
X91871654Y-145070799D01*
X91875117Y-145071348D01*
X91924069Y-145073571D01*
X91965128Y-145075436D01*
X91965147Y-145075436D01*
X91966547Y-145075500D01*
X92149151Y-145075500D01*
X92151243Y-145075361D01*
X92151245Y-145075361D01*
X92362511Y-145061329D01*
X92366682Y-145061052D01*
X92370776Y-145060227D01*
X92370780Y-145060226D01*
X92508095Y-145032538D01*
X92653239Y-145003272D01*
X92929637Y-144908100D01*
X92933370Y-144906231D01*
X92933374Y-144906229D01*
X93187276Y-144779084D01*
X93187278Y-144779083D01*
X93191020Y-144777209D01*
X93348135Y-144670434D01*
X93429336Y-144615250D01*
X93429339Y-144615248D01*
X93432795Y-144612899D01*
X93650716Y-144418055D01*
X93840953Y-144196102D01*
X93843228Y-144192599D01*
X93997892Y-143954437D01*
X93997894Y-143954434D01*
X94000164Y-143950938D01*
X94125552Y-143686871D01*
X94214914Y-143408541D01*
X94266681Y-143120836D01*
X94275747Y-142921187D01*
X166070059Y-142921187D01*
X166095536Y-143212399D01*
X166159305Y-143497683D01*
X166260244Y-143772027D01*
X166262188Y-143775715D01*
X166262192Y-143775723D01*
X166394627Y-144026908D01*
X166396580Y-144030612D01*
X166565918Y-144268893D01*
X166765283Y-144482686D01*
X166991171Y-144668233D01*
X167239616Y-144822275D01*
X167506250Y-144942105D01*
X167592923Y-144967944D01*
X167782394Y-145024428D01*
X167782402Y-145024430D01*
X167786391Y-145025619D01*
X167790508Y-145026271D01*
X167790512Y-145026272D01*
X168071649Y-145070799D01*
X168071654Y-145070799D01*
X168075117Y-145071348D01*
X168124069Y-145073571D01*
X168165128Y-145075436D01*
X168165147Y-145075436D01*
X168166547Y-145075500D01*
X168349151Y-145075500D01*
X168351243Y-145075361D01*
X168351245Y-145075361D01*
X168562511Y-145061329D01*
X168566682Y-145061052D01*
X168570776Y-145060227D01*
X168570780Y-145060226D01*
X168708095Y-145032538D01*
X168853239Y-145003272D01*
X169129637Y-144908100D01*
X169133370Y-144906231D01*
X169133374Y-144906229D01*
X169387276Y-144779084D01*
X169387278Y-144779083D01*
X169391020Y-144777209D01*
X169548135Y-144670434D01*
X169629336Y-144615250D01*
X169629339Y-144615248D01*
X169632795Y-144612899D01*
X169850716Y-144418055D01*
X170040953Y-144196102D01*
X170043228Y-144192599D01*
X170197892Y-143954437D01*
X170197894Y-143954434D01*
X170200164Y-143950938D01*
X170325552Y-143686871D01*
X170414914Y-143408541D01*
X170466681Y-143120836D01*
X170479941Y-142828813D01*
X170454464Y-142537601D01*
X170390695Y-142252317D01*
X170289756Y-141977973D01*
X170287812Y-141974285D01*
X170287808Y-141974277D01*
X170155373Y-141723092D01*
X170155372Y-141723091D01*
X170153420Y-141719388D01*
X169984082Y-141481107D01*
X169829277Y-141315099D01*
X169787567Y-141270370D01*
X169787565Y-141270368D01*
X169784717Y-141267314D01*
X169558829Y-141081767D01*
X169310384Y-140927725D01*
X169043750Y-140807895D01*
X168918124Y-140770444D01*
X168767606Y-140725572D01*
X168767598Y-140725570D01*
X168763609Y-140724381D01*
X168759492Y-140723729D01*
X168759488Y-140723728D01*
X168478351Y-140679201D01*
X168478346Y-140679201D01*
X168474883Y-140678652D01*
X168425931Y-140676429D01*
X168384872Y-140674564D01*
X168384853Y-140674564D01*
X168383453Y-140674500D01*
X168200849Y-140674500D01*
X168198757Y-140674639D01*
X168198755Y-140674639D01*
X168045316Y-140684830D01*
X167983318Y-140688948D01*
X167979224Y-140689773D01*
X167979220Y-140689774D01*
X167868358Y-140712128D01*
X167696761Y-140746728D01*
X167420363Y-140841900D01*
X167416630Y-140843769D01*
X167416626Y-140843771D01*
X167162724Y-140970916D01*
X167158980Y-140972791D01*
X167155515Y-140975146D01*
X166930566Y-141128021D01*
X166917205Y-141137101D01*
X166699284Y-141331945D01*
X166509047Y-141553898D01*
X166506773Y-141557400D01*
X166506772Y-141557401D01*
X166386996Y-141741841D01*
X166349836Y-141799062D01*
X166224448Y-142063129D01*
X166135086Y-142341459D01*
X166083319Y-142629164D01*
X166070059Y-142921187D01*
X94275747Y-142921187D01*
X94279941Y-142828813D01*
X94254464Y-142537601D01*
X94190695Y-142252317D01*
X94089756Y-141977973D01*
X94087812Y-141974285D01*
X94087808Y-141974277D01*
X93955373Y-141723092D01*
X93955372Y-141723091D01*
X93953420Y-141719388D01*
X93784082Y-141481107D01*
X93629277Y-141315099D01*
X93587567Y-141270370D01*
X93587565Y-141270368D01*
X93584717Y-141267314D01*
X93358829Y-141081767D01*
X93110384Y-140927725D01*
X92843750Y-140807895D01*
X92718124Y-140770444D01*
X92567606Y-140725572D01*
X92567598Y-140725570D01*
X92563609Y-140724381D01*
X92559492Y-140723729D01*
X92559488Y-140723728D01*
X92278351Y-140679201D01*
X92278346Y-140679201D01*
X92274883Y-140678652D01*
X92225931Y-140676429D01*
X92184872Y-140674564D01*
X92184853Y-140674564D01*
X92183453Y-140674500D01*
X92000849Y-140674500D01*
X91998757Y-140674639D01*
X91998755Y-140674639D01*
X91845316Y-140684830D01*
X91783318Y-140688948D01*
X91779224Y-140689773D01*
X91779220Y-140689774D01*
X91668358Y-140712128D01*
X91496761Y-140746728D01*
X91220363Y-140841900D01*
X91216630Y-140843769D01*
X91216626Y-140843771D01*
X90962724Y-140970916D01*
X90958980Y-140972791D01*
X90955515Y-140975146D01*
X90730566Y-141128021D01*
X90717205Y-141137101D01*
X90499284Y-141331945D01*
X90309047Y-141553898D01*
X90306773Y-141557400D01*
X90306772Y-141557401D01*
X90186996Y-141741841D01*
X90149836Y-141799062D01*
X90024448Y-142063129D01*
X89935086Y-142341459D01*
X89883319Y-142629164D01*
X89870059Y-142921187D01*
X89408000Y-142921187D01*
X89408000Y-122392440D01*
X96588963Y-122392440D01*
X96589260Y-122397592D01*
X96589260Y-122397596D01*
X96602396Y-122625403D01*
X96602397Y-122625409D01*
X96602694Y-122630562D01*
X96613287Y-122677566D01*
X96652829Y-122853028D01*
X96655131Y-122863245D01*
X96657075Y-122868032D01*
X96657076Y-122868036D01*
X96703545Y-122982476D01*
X96744867Y-123084239D01*
X96747572Y-123088654D01*
X96747573Y-123088655D01*
X96750448Y-123093347D01*
X96869493Y-123287609D01*
X97025660Y-123467894D01*
X97209176Y-123620252D01*
X97415112Y-123740591D01*
X97637937Y-123825680D01*
X97643005Y-123826711D01*
X97643008Y-123826712D01*
X97758267Y-123850162D01*
X97871666Y-123873233D01*
X97876839Y-123873423D01*
X97876842Y-123873423D01*
X98104861Y-123881784D01*
X98104865Y-123881784D01*
X98110025Y-123881973D01*
X98212798Y-123868807D01*
X98282906Y-123879991D01*
X98317902Y-123904691D01*
X106046595Y-131633383D01*
X106080621Y-131695695D01*
X106083500Y-131722478D01*
X106083500Y-140447964D01*
X106083451Y-140451482D01*
X106081241Y-140530611D01*
X106082520Y-140537316D01*
X106091203Y-140582835D01*
X106092698Y-140592836D01*
X106098442Y-140645709D01*
X106100619Y-140652179D01*
X106100620Y-140652182D01*
X106106679Y-140670185D01*
X106111028Y-140686764D01*
X106115867Y-140712128D01*
X106118555Y-140718399D01*
X106118555Y-140718400D01*
X106136812Y-140760997D01*
X106140420Y-140770444D01*
X106155205Y-140814378D01*
X106155207Y-140814383D01*
X106157383Y-140820848D01*
X106160900Y-140826701D01*
X106170683Y-140842983D01*
X106178489Y-140858237D01*
X106188663Y-140881975D01*
X106192636Y-140887524D01*
X106219619Y-140925214D01*
X106225171Y-140933666D01*
X106248680Y-140972791D01*
X106252557Y-140979244D01*
X106270300Y-140998006D01*
X106281198Y-141011227D01*
X106296234Y-141032229D01*
X106335765Y-141067823D01*
X106342985Y-141074868D01*
X106379524Y-141113507D01*
X106385164Y-141117340D01*
X106385170Y-141117345D01*
X106400879Y-141128021D01*
X106414364Y-141138595D01*
X106428482Y-141151307D01*
X106428490Y-141151312D01*
X106433560Y-141155878D01*
X106439496Y-141159250D01*
X106479798Y-141182145D01*
X106488383Y-141187489D01*
X106526716Y-141213540D01*
X106526721Y-141213542D01*
X106532360Y-141217375D01*
X106538692Y-141219908D01*
X106538693Y-141219908D01*
X106556332Y-141226963D01*
X106571779Y-141234397D01*
X106594234Y-141247153D01*
X106645039Y-141262880D01*
X106654554Y-141266249D01*
X106703935Y-141286000D01*
X106729421Y-141290219D01*
X106746088Y-141294160D01*
X106764238Y-141299779D01*
X106764246Y-141299781D01*
X106770760Y-141301797D01*
X106777558Y-141302368D01*
X106777559Y-141302368D01*
X106793041Y-141303668D01*
X106823753Y-141306247D01*
X106833776Y-141307495D01*
X106886244Y-141316181D01*
X106893061Y-141315824D01*
X106893066Y-141315824D01*
X106912028Y-141314830D01*
X106929163Y-141315099D01*
X106948102Y-141316689D01*
X106954902Y-141317260D01*
X106961662Y-141316358D01*
X106961664Y-141316358D01*
X106991001Y-141312444D01*
X107007616Y-141310227D01*
X107017679Y-141309293D01*
X107070781Y-141306510D01*
X107095687Y-141299650D01*
X107112478Y-141296234D01*
X107118155Y-141295477D01*
X107131303Y-141293723D01*
X107131305Y-141293722D01*
X107138069Y-141292820D01*
X107188050Y-141274628D01*
X107197669Y-141271559D01*
X107242355Y-141259251D01*
X107242358Y-141259250D01*
X107248936Y-141257438D01*
X107254968Y-141254258D01*
X107254975Y-141254255D01*
X107271785Y-141245392D01*
X107287449Y-141238450D01*
X107311715Y-141229618D01*
X107317472Y-141225965D01*
X107317479Y-141225961D01*
X107356615Y-141201123D01*
X107365341Y-141196064D01*
X107412398Y-141171254D01*
X107432126Y-141154583D01*
X107445936Y-141144439D01*
X107463374Y-141133372D01*
X107463378Y-141133369D01*
X107467738Y-141130602D01*
X107471972Y-141126817D01*
X107503384Y-141095405D01*
X107565696Y-141061379D01*
X107592479Y-141058500D01*
X109570201Y-141058500D01*
X109638322Y-141078502D01*
X109665439Y-141102003D01*
X109695842Y-141137101D01*
X109760763Y-141212048D01*
X109937953Y-141359154D01*
X110136790Y-141475345D01*
X110351934Y-141557501D01*
X110357000Y-141558532D01*
X110357001Y-141558532D01*
X110457697Y-141579018D01*
X110577607Y-141603414D01*
X110707352Y-141608172D01*
X110802585Y-141611664D01*
X110802589Y-141611664D01*
X110807749Y-141611853D01*
X110812869Y-141611197D01*
X110812871Y-141611197D01*
X110882272Y-141602307D01*
X111036178Y-141582591D01*
X111041126Y-141581106D01*
X111041133Y-141581105D01*
X111251811Y-141517898D01*
X111251810Y-141517898D01*
X111256761Y-141516413D01*
X111463574Y-141415096D01*
X111651062Y-141281363D01*
X111814190Y-141118803D01*
X111872269Y-141037978D01*
X111945559Y-140935983D01*
X111948577Y-140931783D01*
X111963534Y-140901521D01*
X112040037Y-140746728D01*
X112050615Y-140725325D01*
X112107737Y-140537316D01*
X112116059Y-140509927D01*
X112116060Y-140509921D01*
X112117563Y-140504975D01*
X112147622Y-140276649D01*
X112149300Y-140208000D01*
X112130430Y-139978478D01*
X112074326Y-139755120D01*
X112050202Y-139699639D01*
X118828500Y-139699639D01*
X118828501Y-141478360D01*
X118829039Y-141482444D01*
X118829039Y-141482450D01*
X118842878Y-141587575D01*
X118843956Y-141595762D01*
X118904464Y-141741841D01*
X119000718Y-141867282D01*
X119126159Y-141963536D01*
X119272238Y-142024044D01*
X119280426Y-142025122D01*
X119385545Y-142038961D01*
X119389639Y-142039500D01*
X120278892Y-142039500D01*
X121168360Y-142039499D01*
X121172444Y-142038961D01*
X121172450Y-142038961D01*
X121277575Y-142025122D01*
X121277577Y-142025122D01*
X121285762Y-142024044D01*
X121431841Y-141963536D01*
X121557282Y-141867282D01*
X121653536Y-141741841D01*
X121656695Y-141734213D01*
X121656698Y-141734209D01*
X121660596Y-141724798D01*
X121705145Y-141669518D01*
X121772509Y-141647098D01*
X121841300Y-141664657D01*
X121857486Y-141676072D01*
X121984176Y-141781252D01*
X122190112Y-141901591D01*
X122412937Y-141986680D01*
X122418005Y-141987711D01*
X122418008Y-141987712D01*
X122533267Y-142011162D01*
X122646666Y-142034233D01*
X122651839Y-142034423D01*
X122651842Y-142034423D01*
X122879861Y-142042784D01*
X122879865Y-142042784D01*
X122885025Y-142042973D01*
X122890146Y-142042317D01*
X123116489Y-142013321D01*
X123116490Y-142013321D01*
X123121609Y-142012665D01*
X123350068Y-141944125D01*
X123564264Y-141839191D01*
X123645492Y-141781252D01*
X123754242Y-141703681D01*
X123758445Y-141700683D01*
X123812218Y-141647098D01*
X123903979Y-141555656D01*
X123927397Y-141532320D01*
X123983991Y-141453561D01*
X124039986Y-141409913D01*
X124110689Y-141403467D01*
X124173654Y-141436270D01*
X124184463Y-141448635D01*
X124184493Y-141448609D01*
X124340660Y-141628894D01*
X124524176Y-141781252D01*
X124730112Y-141901591D01*
X124952937Y-141986680D01*
X124958005Y-141987711D01*
X124958008Y-141987712D01*
X125073267Y-142011162D01*
X125186666Y-142034233D01*
X125191839Y-142034423D01*
X125191842Y-142034423D01*
X125419861Y-142042784D01*
X125419865Y-142042784D01*
X125425025Y-142042973D01*
X125430146Y-142042317D01*
X125656489Y-142013321D01*
X125656490Y-142013321D01*
X125661609Y-142012665D01*
X125890068Y-141944125D01*
X126104264Y-141839191D01*
X126185492Y-141781252D01*
X126294242Y-141703681D01*
X126298445Y-141700683D01*
X126352218Y-141647098D01*
X126443979Y-141555656D01*
X126467397Y-141532320D01*
X126523991Y-141453561D01*
X126579986Y-141409913D01*
X126650689Y-141403467D01*
X126713654Y-141436270D01*
X126724463Y-141448635D01*
X126724493Y-141448609D01*
X126880660Y-141628894D01*
X127064176Y-141781252D01*
X127270112Y-141901591D01*
X127492937Y-141986680D01*
X127498005Y-141987711D01*
X127498008Y-141987712D01*
X127613267Y-142011162D01*
X127726666Y-142034233D01*
X127731839Y-142034423D01*
X127731842Y-142034423D01*
X127959861Y-142042784D01*
X127959865Y-142042784D01*
X127965025Y-142042973D01*
X127970146Y-142042317D01*
X128196489Y-142013321D01*
X128196490Y-142013321D01*
X128201609Y-142012665D01*
X128430068Y-141944125D01*
X128644264Y-141839191D01*
X128725492Y-141781252D01*
X128834242Y-141703681D01*
X128838445Y-141700683D01*
X128892218Y-141647098D01*
X128983979Y-141555656D01*
X129007397Y-141532320D01*
X129146582Y-141338623D01*
X129149883Y-141331945D01*
X129249969Y-141129437D01*
X129249970Y-141129435D01*
X129252263Y-141124795D01*
X129321600Y-140896577D01*
X129322792Y-140887524D01*
X129352296Y-140663421D01*
X129352297Y-140663414D01*
X129352733Y-140660099D01*
X129354471Y-140589000D01*
X129338802Y-140398411D01*
X129335351Y-140356435D01*
X129335350Y-140356429D01*
X129334927Y-140351284D01*
X129298937Y-140208000D01*
X129290313Y-140173665D01*
X134739119Y-140173665D01*
X134739416Y-140178817D01*
X134739416Y-140178821D01*
X134744864Y-140273296D01*
X134752376Y-140403580D01*
X134753513Y-140408626D01*
X134753514Y-140408632D01*
X134775226Y-140504975D01*
X134803006Y-140628242D01*
X134804948Y-140633024D01*
X134804949Y-140633028D01*
X134876652Y-140809611D01*
X134889649Y-140841618D01*
X135009979Y-141037978D01*
X135160763Y-141212048D01*
X135337953Y-141359154D01*
X135536790Y-141475345D01*
X135751934Y-141557501D01*
X135757000Y-141558532D01*
X135757001Y-141558532D01*
X135857697Y-141579018D01*
X135977607Y-141603414D01*
X136107352Y-141608172D01*
X136202585Y-141611664D01*
X136202589Y-141611664D01*
X136207749Y-141611853D01*
X136212869Y-141611197D01*
X136212871Y-141611197D01*
X136282272Y-141602307D01*
X136436178Y-141582591D01*
X136441126Y-141581106D01*
X136441133Y-141581105D01*
X136651811Y-141517898D01*
X136651810Y-141517898D01*
X136656761Y-141516413D01*
X136863574Y-141415096D01*
X137051062Y-141281363D01*
X137214190Y-141118803D01*
X137272269Y-141037978D01*
X137345559Y-140935983D01*
X137348577Y-140931783D01*
X137363534Y-140901521D01*
X137440037Y-140746728D01*
X137450615Y-140725325D01*
X137507737Y-140537316D01*
X137516059Y-140509927D01*
X137516060Y-140509921D01*
X137517563Y-140504975D01*
X137547622Y-140276649D01*
X137549300Y-140208000D01*
X137530430Y-139978478D01*
X137474326Y-139755120D01*
X137382496Y-139543924D01*
X137276390Y-139379909D01*
X137260215Y-139354906D01*
X137260213Y-139354903D01*
X137257405Y-139350563D01*
X137236774Y-139327889D01*
X137105890Y-139184051D01*
X137105889Y-139184050D01*
X137102412Y-139180229D01*
X137098361Y-139177030D01*
X137098357Y-139177026D01*
X136925735Y-139040697D01*
X136925730Y-139040693D01*
X136921681Y-139037496D01*
X136917165Y-139035003D01*
X136917162Y-139035001D01*
X136724589Y-138928695D01*
X136724585Y-138928693D01*
X136720065Y-138926198D01*
X136715196Y-138924474D01*
X136715192Y-138924472D01*
X136507853Y-138851049D01*
X136507849Y-138851048D01*
X136502978Y-138849323D01*
X136497885Y-138848416D01*
X136497882Y-138848415D01*
X136401707Y-138831284D01*
X136276250Y-138808937D01*
X136189802Y-138807881D01*
X136051141Y-138806186D01*
X136051139Y-138806186D01*
X136045971Y-138806123D01*
X135818325Y-138840958D01*
X135599424Y-138912506D01*
X135395149Y-139018845D01*
X135210984Y-139157119D01*
X135051877Y-139323616D01*
X135048963Y-139327888D01*
X135048962Y-139327889D01*
X135028838Y-139357390D01*
X134922099Y-139513863D01*
X134919923Y-139518552D01*
X134919919Y-139518558D01*
X134833239Y-139705295D01*
X134825136Y-139722752D01*
X134763592Y-139944673D01*
X134763043Y-139949810D01*
X134745366Y-140115216D01*
X134739119Y-140173665D01*
X129290313Y-140173665D01*
X129278080Y-140124963D01*
X129278079Y-140124959D01*
X129276821Y-140119952D01*
X129274762Y-140115216D01*
X129183772Y-139905953D01*
X129183770Y-139905950D01*
X129181712Y-139901216D01*
X129052155Y-139700951D01*
X129047243Y-139695552D01*
X128895107Y-139528358D01*
X128895105Y-139528357D01*
X128891629Y-139524536D01*
X128887578Y-139521337D01*
X128887574Y-139521333D01*
X128708500Y-139379909D01*
X128708496Y-139379907D01*
X128704445Y-139376707D01*
X128669652Y-139357500D01*
X128608270Y-139323616D01*
X128495631Y-139261436D01*
X128490762Y-139259712D01*
X128490758Y-139259710D01*
X128275663Y-139183541D01*
X128275661Y-139183540D01*
X128270794Y-139181817D01*
X128132126Y-139157116D01*
X128041060Y-139140894D01*
X128041056Y-139140894D01*
X128035972Y-139139988D01*
X127952140Y-139138964D01*
X127802640Y-139137137D01*
X127802638Y-139137137D01*
X127797471Y-139137074D01*
X127561698Y-139173153D01*
X127334982Y-139247255D01*
X127330394Y-139249643D01*
X127330390Y-139249645D01*
X127128003Y-139355001D01*
X127123414Y-139357390D01*
X127119281Y-139360493D01*
X127119278Y-139360495D01*
X126936810Y-139497497D01*
X126932675Y-139500602D01*
X126917507Y-139516474D01*
X126801384Y-139637990D01*
X126767887Y-139673042D01*
X126764973Y-139677314D01*
X126764972Y-139677315D01*
X126734235Y-139722374D01*
X126679324Y-139767377D01*
X126608799Y-139775548D01*
X126545052Y-139744294D01*
X126524354Y-139719808D01*
X126514966Y-139705295D01*
X126514961Y-139705289D01*
X126512155Y-139700951D01*
X126507243Y-139695552D01*
X126355107Y-139528358D01*
X126355105Y-139528357D01*
X126351629Y-139524536D01*
X126347578Y-139521337D01*
X126347574Y-139521333D01*
X126168500Y-139379909D01*
X126168496Y-139379907D01*
X126164445Y-139376707D01*
X126129652Y-139357500D01*
X126068270Y-139323616D01*
X125955631Y-139261436D01*
X125950762Y-139259712D01*
X125950758Y-139259710D01*
X125735663Y-139183541D01*
X125735661Y-139183540D01*
X125730794Y-139181817D01*
X125592126Y-139157116D01*
X125501060Y-139140894D01*
X125501056Y-139140894D01*
X125495972Y-139139988D01*
X125412140Y-139138964D01*
X125262640Y-139137137D01*
X125262638Y-139137137D01*
X125257471Y-139137074D01*
X125021698Y-139173153D01*
X124794982Y-139247255D01*
X124790394Y-139249643D01*
X124790390Y-139249645D01*
X124588003Y-139355001D01*
X124583414Y-139357390D01*
X124579281Y-139360493D01*
X124579278Y-139360495D01*
X124396810Y-139497497D01*
X124392675Y-139500602D01*
X124377507Y-139516474D01*
X124261384Y-139637990D01*
X124227887Y-139673042D01*
X124224973Y-139677314D01*
X124224972Y-139677315D01*
X124194235Y-139722374D01*
X124139324Y-139767377D01*
X124068799Y-139775548D01*
X124005052Y-139744294D01*
X123984354Y-139719808D01*
X123974966Y-139705295D01*
X123974961Y-139705289D01*
X123972155Y-139700951D01*
X123967243Y-139695552D01*
X123815107Y-139528358D01*
X123815105Y-139528357D01*
X123811629Y-139524536D01*
X123807578Y-139521337D01*
X123807574Y-139521333D01*
X123628500Y-139379909D01*
X123628496Y-139379907D01*
X123624445Y-139376707D01*
X123589652Y-139357500D01*
X123528270Y-139323616D01*
X123415631Y-139261436D01*
X123410762Y-139259712D01*
X123410758Y-139259710D01*
X123195663Y-139183541D01*
X123195661Y-139183540D01*
X123190794Y-139181817D01*
X123052126Y-139157116D01*
X122961060Y-139140894D01*
X122961056Y-139140894D01*
X122955972Y-139139988D01*
X122872140Y-139138964D01*
X122722640Y-139137137D01*
X122722638Y-139137137D01*
X122717471Y-139137074D01*
X122481698Y-139173153D01*
X122254982Y-139247255D01*
X122250394Y-139249643D01*
X122250390Y-139249645D01*
X122048003Y-139355001D01*
X122043414Y-139357390D01*
X122039281Y-139360493D01*
X122039278Y-139360495D01*
X121852675Y-139500602D01*
X121851503Y-139499042D01*
X121794890Y-139525728D01*
X121724499Y-139516474D01*
X121670285Y-139470633D01*
X121659043Y-139449454D01*
X121656696Y-139443789D01*
X121653536Y-139436159D01*
X121567179Y-139323616D01*
X121562305Y-139317264D01*
X121557282Y-139310718D01*
X121431841Y-139214464D01*
X121285762Y-139153956D01*
X121277574Y-139152878D01*
X121172448Y-139139038D01*
X121172447Y-139139038D01*
X121168361Y-139138500D01*
X120279108Y-139138500D01*
X119389640Y-139138501D01*
X119385556Y-139139039D01*
X119385550Y-139139039D01*
X119280425Y-139152878D01*
X119280423Y-139152878D01*
X119272238Y-139153956D01*
X119126159Y-139214464D01*
X119000718Y-139310718D01*
X118995695Y-139317264D01*
X118990821Y-139323616D01*
X118904464Y-139436159D01*
X118843956Y-139582238D01*
X118842878Y-139590426D01*
X118832002Y-139673042D01*
X118828500Y-139699639D01*
X112050202Y-139699639D01*
X111982496Y-139543924D01*
X111876390Y-139379909D01*
X111860215Y-139354906D01*
X111860213Y-139354903D01*
X111857405Y-139350563D01*
X111836774Y-139327889D01*
X111705890Y-139184051D01*
X111705889Y-139184050D01*
X111702412Y-139180229D01*
X111698361Y-139177030D01*
X111698357Y-139177026D01*
X111525735Y-139040697D01*
X111525730Y-139040693D01*
X111521681Y-139037496D01*
X111517165Y-139035003D01*
X111517162Y-139035001D01*
X111324589Y-138928695D01*
X111324585Y-138928693D01*
X111320065Y-138926198D01*
X111315196Y-138924474D01*
X111315192Y-138924472D01*
X111107853Y-138851049D01*
X111107849Y-138851048D01*
X111102978Y-138849323D01*
X111097885Y-138848416D01*
X111097882Y-138848415D01*
X111001707Y-138831284D01*
X110876250Y-138808937D01*
X110789802Y-138807881D01*
X110651141Y-138806186D01*
X110651139Y-138806186D01*
X110645971Y-138806123D01*
X110418325Y-138840958D01*
X110199424Y-138912506D01*
X109995149Y-139018845D01*
X109810984Y-139157119D01*
X109807410Y-139160859D01*
X109656717Y-139318551D01*
X109595193Y-139353981D01*
X109565623Y-139357500D01*
X107910500Y-139357500D01*
X107842379Y-139337498D01*
X107795886Y-139283842D01*
X107784500Y-139231500D01*
X107784500Y-131359062D01*
X107784942Y-131348518D01*
X107787728Y-131315345D01*
X107789260Y-131297098D01*
X107783656Y-131255096D01*
X107778619Y-131217341D01*
X107778249Y-131214287D01*
X107770295Y-131141072D01*
X107770294Y-131141069D01*
X107769558Y-131134291D01*
X107767384Y-131127831D01*
X107766714Y-131124783D01*
X107766633Y-131124322D01*
X107766597Y-131124171D01*
X107766464Y-131123712D01*
X107765722Y-131120693D01*
X107764820Y-131113931D01*
X107762487Y-131107521D01*
X107762486Y-131107517D01*
X107737303Y-131038329D01*
X107736285Y-131035423D01*
X107712795Y-130965623D01*
X107712794Y-130965621D01*
X107710617Y-130959152D01*
X107707100Y-130953298D01*
X107705800Y-130950486D01*
X107705618Y-130950043D01*
X107705542Y-130949884D01*
X107705314Y-130949466D01*
X107703951Y-130946697D01*
X107701618Y-130940285D01*
X107697964Y-130934527D01*
X107697961Y-130934521D01*
X107658510Y-130872356D01*
X107656892Y-130869737D01*
X107618959Y-130806607D01*
X107618958Y-130806605D01*
X107615443Y-130800756D01*
X107610754Y-130795797D01*
X107608872Y-130793318D01*
X107608335Y-130792546D01*
X107605378Y-130788636D01*
X107602602Y-130784262D01*
X107598817Y-130780029D01*
X107545328Y-130726540D01*
X107542875Y-130724018D01*
X107493165Y-130671451D01*
X107493163Y-130671449D01*
X107488476Y-130666493D01*
X107482835Y-130662659D01*
X107477634Y-130658233D01*
X107477978Y-130657828D01*
X107470079Y-130651291D01*
X106832453Y-130013665D01*
X109339119Y-130013665D01*
X109339416Y-130018817D01*
X109339416Y-130018821D01*
X109344864Y-130113296D01*
X109352376Y-130243580D01*
X109353513Y-130248626D01*
X109353514Y-130248632D01*
X109375226Y-130344975D01*
X109403006Y-130468242D01*
X109404948Y-130473024D01*
X109404949Y-130473028D01*
X109485615Y-130671684D01*
X109489649Y-130681618D01*
X109609979Y-130877978D01*
X109760763Y-131052048D01*
X109937953Y-131199154D01*
X110136790Y-131315345D01*
X110351934Y-131397501D01*
X110357000Y-131398532D01*
X110357001Y-131398532D01*
X110457697Y-131419018D01*
X110577607Y-131443414D01*
X110707352Y-131448172D01*
X110802585Y-131451664D01*
X110802589Y-131451664D01*
X110807749Y-131451853D01*
X110812869Y-131451197D01*
X110812871Y-131451197D01*
X110882272Y-131442307D01*
X111036178Y-131422591D01*
X111041126Y-131421106D01*
X111041133Y-131421105D01*
X111251811Y-131357898D01*
X111251810Y-131357898D01*
X111256761Y-131356413D01*
X111463574Y-131255096D01*
X111651062Y-131121363D01*
X111814190Y-130958803D01*
X111820167Y-130950486D01*
X111945559Y-130775983D01*
X111948577Y-130771783D01*
X112050615Y-130565325D01*
X112081643Y-130463200D01*
X112116059Y-130349927D01*
X112116060Y-130349921D01*
X112117563Y-130344975D01*
X112147622Y-130116649D01*
X112149300Y-130048000D01*
X112130430Y-129818478D01*
X112074326Y-129595120D01*
X111982496Y-129383924D01*
X111857405Y-129190563D01*
X111851844Y-129184451D01*
X111705890Y-129024051D01*
X111705889Y-129024050D01*
X111702412Y-129020229D01*
X111698361Y-129017030D01*
X111698357Y-129017026D01*
X111525735Y-128880697D01*
X111525730Y-128880693D01*
X111521681Y-128877496D01*
X111517165Y-128875003D01*
X111517162Y-128875001D01*
X111324589Y-128768695D01*
X111324585Y-128768693D01*
X111320065Y-128766198D01*
X111315196Y-128764474D01*
X111315192Y-128764472D01*
X111107853Y-128691049D01*
X111107849Y-128691048D01*
X111102978Y-128689323D01*
X111097885Y-128688416D01*
X111097882Y-128688415D01*
X111001707Y-128671284D01*
X110876250Y-128648937D01*
X110789802Y-128647881D01*
X110651141Y-128646186D01*
X110651139Y-128646186D01*
X110645971Y-128646123D01*
X110418325Y-128680958D01*
X110199424Y-128752506D01*
X110194832Y-128754896D01*
X110194833Y-128754896D01*
X110026836Y-128842350D01*
X109995149Y-128858845D01*
X109810984Y-128997119D01*
X109651877Y-129163616D01*
X109522099Y-129353863D01*
X109519923Y-129358552D01*
X109519919Y-129358558D01*
X109436074Y-129539188D01*
X109425136Y-129562752D01*
X109363592Y-129784673D01*
X109339119Y-130013665D01*
X106832453Y-130013665D01*
X100197559Y-123378771D01*
X100163533Y-123316459D01*
X100168598Y-123245644D01*
X100211145Y-123188808D01*
X100219141Y-123183290D01*
X100267645Y-123152509D01*
X100270263Y-123150892D01*
X100333393Y-123112959D01*
X100333395Y-123112958D01*
X100339244Y-123109443D01*
X100344203Y-123104754D01*
X100346682Y-123102872D01*
X100347459Y-123102332D01*
X100351369Y-123099375D01*
X100355738Y-123096602D01*
X100359972Y-123092817D01*
X100413478Y-123039311D01*
X100416000Y-123036858D01*
X100468549Y-122987165D01*
X100468551Y-122987163D01*
X100473507Y-122982476D01*
X100477341Y-122976834D01*
X100481767Y-122971634D01*
X100482171Y-122971978D01*
X100488707Y-122964082D01*
X106397189Y-117055600D01*
X106459501Y-117021574D01*
X106530316Y-117026639D01*
X106587152Y-117069186D01*
X106611963Y-117135706D01*
X106608541Y-117175177D01*
X106594400Y-117231894D01*
X106594210Y-117238714D01*
X106593788Y-117241792D01*
X106593623Y-117242709D01*
X106592946Y-117247585D01*
X106591817Y-117252637D01*
X106591500Y-117258307D01*
X106591500Y-117333964D01*
X106591451Y-117337482D01*
X106589241Y-117416611D01*
X106590520Y-117423317D01*
X106591067Y-117430114D01*
X106590538Y-117430157D01*
X106591500Y-117440363D01*
X106591500Y-121370938D01*
X106591058Y-121381479D01*
X106586740Y-121432902D01*
X106587642Y-121439662D01*
X106587642Y-121439666D01*
X106597381Y-121512659D01*
X106597751Y-121515713D01*
X106605705Y-121588928D01*
X106606442Y-121595709D01*
X106608616Y-121602169D01*
X106609286Y-121605217D01*
X106609367Y-121605678D01*
X106609403Y-121605829D01*
X106609536Y-121606288D01*
X106610278Y-121609307D01*
X106611180Y-121616069D01*
X106613513Y-121622479D01*
X106613514Y-121622483D01*
X106638697Y-121691671D01*
X106639714Y-121694575D01*
X106665383Y-121770848D01*
X106668900Y-121776702D01*
X106670200Y-121779514D01*
X106670382Y-121779957D01*
X106670458Y-121780116D01*
X106670686Y-121780534D01*
X106672049Y-121783303D01*
X106674382Y-121789715D01*
X106678036Y-121795473D01*
X106678039Y-121795479D01*
X106717490Y-121857644D01*
X106719108Y-121860263D01*
X106760557Y-121929244D01*
X106765246Y-121934203D01*
X106767128Y-121936682D01*
X106767668Y-121937459D01*
X106770625Y-121941369D01*
X106773398Y-121945738D01*
X106777183Y-121949972D01*
X106830689Y-122003478D01*
X106833142Y-122006000D01*
X106887524Y-122063507D01*
X106893166Y-122067341D01*
X106898366Y-122071767D01*
X106898022Y-122072171D01*
X106905918Y-122078707D01*
X115447567Y-130620356D01*
X115454710Y-130628123D01*
X115488020Y-130667540D01*
X115493439Y-130671683D01*
X115493440Y-130671684D01*
X115551948Y-130716416D01*
X115554371Y-130718317D01*
X115611754Y-130764455D01*
X115611764Y-130764461D01*
X115617073Y-130768730D01*
X115623177Y-130771760D01*
X115625790Y-130773431D01*
X115626176Y-130773701D01*
X115626339Y-130773802D01*
X115626738Y-130774022D01*
X115629408Y-130775639D01*
X115634820Y-130779777D01*
X115640997Y-130782658D01*
X115641003Y-130782661D01*
X115707752Y-130813787D01*
X115710525Y-130815121D01*
X115776484Y-130847863D01*
X115782592Y-130850895D01*
X115789208Y-130852545D01*
X115792126Y-130853618D01*
X115792553Y-130853796D01*
X115792730Y-130853858D01*
X115793185Y-130853992D01*
X115796110Y-130854988D01*
X115802297Y-130857873D01*
X115855375Y-130869737D01*
X115880858Y-130875433D01*
X115883857Y-130876142D01*
X115961894Y-130895599D01*
X115968716Y-130895789D01*
X115971786Y-130896210D01*
X115972715Y-130896378D01*
X115977584Y-130897054D01*
X115982637Y-130898183D01*
X115988307Y-130898500D01*
X116063980Y-130898500D01*
X116067498Y-130898549D01*
X116146611Y-130900759D01*
X116153317Y-130899480D01*
X116160114Y-130898933D01*
X116160157Y-130899462D01*
X116170363Y-130898500D01*
X119730201Y-130898500D01*
X119798322Y-130918502D01*
X119825439Y-130942003D01*
X119872414Y-130996232D01*
X119920763Y-131052048D01*
X120097953Y-131199154D01*
X120296790Y-131315345D01*
X120511934Y-131397501D01*
X120517000Y-131398532D01*
X120517001Y-131398532D01*
X120617697Y-131419018D01*
X120737607Y-131443414D01*
X120867352Y-131448172D01*
X120962585Y-131451664D01*
X120962589Y-131451664D01*
X120967749Y-131451853D01*
X120972869Y-131451197D01*
X120972871Y-131451197D01*
X121042272Y-131442307D01*
X121196178Y-131422591D01*
X121201126Y-131421106D01*
X121201133Y-131421105D01*
X121411811Y-131357898D01*
X121411810Y-131357898D01*
X121416761Y-131356413D01*
X121623574Y-131255096D01*
X121811062Y-131121363D01*
X121974190Y-130958803D01*
X121980167Y-130950486D01*
X122105559Y-130775983D01*
X122108577Y-130771783D01*
X122210615Y-130565325D01*
X122241643Y-130463200D01*
X122276059Y-130349927D01*
X122276060Y-130349921D01*
X122277563Y-130344975D01*
X122307622Y-130116649D01*
X122309300Y-130048000D01*
X122306477Y-130013665D01*
X134739119Y-130013665D01*
X134739416Y-130018817D01*
X134739416Y-130018821D01*
X134744864Y-130113296D01*
X134752376Y-130243580D01*
X134753513Y-130248626D01*
X134753514Y-130248632D01*
X134775226Y-130344975D01*
X134803006Y-130468242D01*
X134804948Y-130473024D01*
X134804949Y-130473028D01*
X134885615Y-130671684D01*
X134889649Y-130681618D01*
X135009979Y-130877978D01*
X135160763Y-131052048D01*
X135337953Y-131199154D01*
X135536790Y-131315345D01*
X135751934Y-131397501D01*
X135757000Y-131398532D01*
X135757001Y-131398532D01*
X135857697Y-131419018D01*
X135977607Y-131443414D01*
X136107352Y-131448172D01*
X136202585Y-131451664D01*
X136202589Y-131451664D01*
X136207749Y-131451853D01*
X136212869Y-131451197D01*
X136212871Y-131451197D01*
X136282272Y-131442307D01*
X136436178Y-131422591D01*
X136441126Y-131421106D01*
X136441133Y-131421105D01*
X136651811Y-131357898D01*
X136651810Y-131357898D01*
X136656761Y-131356413D01*
X136863574Y-131255096D01*
X137051062Y-131121363D01*
X137214190Y-130958803D01*
X137220167Y-130950486D01*
X137345559Y-130775983D01*
X137348577Y-130771783D01*
X137450615Y-130565325D01*
X137481643Y-130463200D01*
X137516059Y-130349927D01*
X137516060Y-130349921D01*
X137517563Y-130344975D01*
X137547622Y-130116649D01*
X137549300Y-130048000D01*
X137530430Y-129818478D01*
X137474326Y-129595120D01*
X137382496Y-129383924D01*
X137257405Y-129190563D01*
X137251844Y-129184451D01*
X137105890Y-129024051D01*
X137105889Y-129024050D01*
X137102412Y-129020229D01*
X137098361Y-129017030D01*
X137098357Y-129017026D01*
X136925735Y-128880697D01*
X136925730Y-128880693D01*
X136921681Y-128877496D01*
X136917165Y-128875003D01*
X136917162Y-128875001D01*
X136724589Y-128768695D01*
X136724585Y-128768693D01*
X136720065Y-128766198D01*
X136715196Y-128764474D01*
X136715192Y-128764472D01*
X136507853Y-128691049D01*
X136507849Y-128691048D01*
X136502978Y-128689323D01*
X136497885Y-128688416D01*
X136497882Y-128688415D01*
X136401707Y-128671284D01*
X136276250Y-128648937D01*
X136189802Y-128647881D01*
X136051141Y-128646186D01*
X136051139Y-128646186D01*
X136045971Y-128646123D01*
X135818325Y-128680958D01*
X135599424Y-128752506D01*
X135594832Y-128754896D01*
X135594833Y-128754896D01*
X135426836Y-128842350D01*
X135395149Y-128858845D01*
X135210984Y-128997119D01*
X135051877Y-129163616D01*
X134922099Y-129353863D01*
X134919923Y-129358552D01*
X134919919Y-129358558D01*
X134836074Y-129539188D01*
X134825136Y-129562752D01*
X134763592Y-129784673D01*
X134739119Y-130013665D01*
X122306477Y-130013665D01*
X122290430Y-129818478D01*
X122234326Y-129595120D01*
X122142496Y-129383924D01*
X122017405Y-129190563D01*
X122011844Y-129184451D01*
X121865890Y-129024051D01*
X121865889Y-129024050D01*
X121862412Y-129020229D01*
X121858361Y-129017030D01*
X121858357Y-129017026D01*
X121685735Y-128880697D01*
X121685730Y-128880693D01*
X121681681Y-128877496D01*
X121677165Y-128875003D01*
X121677162Y-128875001D01*
X121484589Y-128768695D01*
X121484585Y-128768693D01*
X121480065Y-128766198D01*
X121475196Y-128764474D01*
X121475192Y-128764472D01*
X121267853Y-128691049D01*
X121267849Y-128691048D01*
X121262978Y-128689323D01*
X121257885Y-128688416D01*
X121257882Y-128688415D01*
X121161707Y-128671284D01*
X121036250Y-128648937D01*
X120949802Y-128647881D01*
X120811141Y-128646186D01*
X120811139Y-128646186D01*
X120805971Y-128646123D01*
X120578325Y-128680958D01*
X120359424Y-128752506D01*
X120354832Y-128754896D01*
X120354833Y-128754896D01*
X120186836Y-128842350D01*
X120155149Y-128858845D01*
X119970984Y-128997119D01*
X119967410Y-129000859D01*
X119816717Y-129158551D01*
X119755193Y-129193981D01*
X119725623Y-129197500D01*
X116482479Y-129197500D01*
X116414358Y-129177498D01*
X116393384Y-129160595D01*
X108329405Y-121096617D01*
X108295379Y-121034305D01*
X108292500Y-121007522D01*
X108292500Y-118348000D01*
X111728815Y-118348000D01*
X111732598Y-118383987D01*
X111732811Y-118386018D01*
X111733501Y-118399181D01*
X111733501Y-118637360D01*
X111734039Y-118641444D01*
X111734039Y-118641450D01*
X111745681Y-118729884D01*
X111748956Y-118754762D01*
X111809464Y-118900841D01*
X111905718Y-119026282D01*
X112031159Y-119122536D01*
X112177238Y-119183044D01*
X112185426Y-119184122D01*
X112290545Y-119197961D01*
X112294639Y-119198500D01*
X112673392Y-119198500D01*
X113894601Y-119198499D01*
X113894606Y-119198499D01*
X113894609Y-119198500D01*
X114073391Y-119198500D01*
X114073394Y-119198499D01*
X114273360Y-119198499D01*
X114277444Y-119197961D01*
X114277450Y-119197961D01*
X114382575Y-119184122D01*
X114382577Y-119184122D01*
X114390762Y-119183044D01*
X114536841Y-119122536D01*
X114662282Y-119026282D01*
X114758536Y-118900841D01*
X114819044Y-118754762D01*
X114834500Y-118637361D01*
X114834500Y-118399181D01*
X114835190Y-118386010D01*
X114838495Y-118354565D01*
X114839185Y-118348000D01*
X114835190Y-118309989D01*
X114834500Y-118296819D01*
X114834500Y-117399182D01*
X114835190Y-117386012D01*
X114838495Y-117354564D01*
X114839185Y-117348000D01*
X114835189Y-117309985D01*
X114834499Y-117296813D01*
X114834499Y-116399189D01*
X114835189Y-116386018D01*
X114838495Y-116354565D01*
X114839185Y-116348000D01*
X114835189Y-116309981D01*
X114834499Y-116296811D01*
X114834499Y-116058640D01*
X114830531Y-116028491D01*
X114820122Y-115949425D01*
X114820122Y-115949423D01*
X114819044Y-115941238D01*
X114758536Y-115795159D01*
X114662282Y-115669718D01*
X114536841Y-115573464D01*
X114390762Y-115512956D01*
X114380310Y-115511580D01*
X114277448Y-115498038D01*
X114277447Y-115498038D01*
X114273361Y-115497500D01*
X113894608Y-115497500D01*
X112673399Y-115497501D01*
X112673394Y-115497501D01*
X112673391Y-115497500D01*
X112494609Y-115497500D01*
X112494606Y-115497501D01*
X112294640Y-115497501D01*
X112290556Y-115498039D01*
X112290550Y-115498039D01*
X112185425Y-115511878D01*
X112185423Y-115511878D01*
X112177238Y-115512956D01*
X112031159Y-115573464D01*
X111905718Y-115669718D01*
X111809464Y-115795159D01*
X111748956Y-115941238D01*
X111733500Y-116058639D01*
X111733500Y-116296819D01*
X111732810Y-116309990D01*
X111728815Y-116348000D01*
X111729505Y-116354565D01*
X111732810Y-116386011D01*
X111733500Y-116399181D01*
X111733500Y-117296818D01*
X111732810Y-117309985D01*
X111728815Y-117348000D01*
X111729505Y-117354564D01*
X111732811Y-117386015D01*
X111733501Y-117399187D01*
X111733501Y-118296811D01*
X111732811Y-118309981D01*
X111728815Y-118348000D01*
X108292500Y-118348000D01*
X108292500Y-117858151D01*
X108312502Y-117790030D01*
X108366158Y-117743537D01*
X108423116Y-117732236D01*
X108475225Y-117734147D01*
X108516585Y-117735664D01*
X108516589Y-117735664D01*
X108521749Y-117735853D01*
X108526869Y-117735197D01*
X108526871Y-117735197D01*
X108596272Y-117726307D01*
X108750178Y-117706591D01*
X108755126Y-117705106D01*
X108755133Y-117705105D01*
X108965811Y-117641898D01*
X108965810Y-117641898D01*
X108970761Y-117640413D01*
X109177574Y-117539096D01*
X109365062Y-117405363D01*
X109528190Y-117242803D01*
X109644882Y-117080409D01*
X109659559Y-117059983D01*
X109662577Y-117055783D01*
X109764615Y-116849325D01*
X109820632Y-116664953D01*
X109830059Y-116633927D01*
X109830060Y-116633921D01*
X109831563Y-116628975D01*
X109847943Y-116504552D01*
X109861185Y-116403971D01*
X109861185Y-116403965D01*
X109861622Y-116400649D01*
X109861987Y-116385719D01*
X109863218Y-116335364D01*
X109863218Y-116335360D01*
X109863300Y-116332000D01*
X109844430Y-116102478D01*
X109792714Y-115896591D01*
X109789585Y-115884132D01*
X109789585Y-115884131D01*
X109788326Y-115879120D01*
X109760598Y-115815350D01*
X109698556Y-115672661D01*
X109698554Y-115672658D01*
X109696496Y-115667924D01*
X109619964Y-115549624D01*
X109574215Y-115478906D01*
X109574213Y-115478903D01*
X109571405Y-115474563D01*
X109566030Y-115468655D01*
X109419890Y-115308051D01*
X109419889Y-115308050D01*
X109416412Y-115304229D01*
X109412361Y-115301030D01*
X109412357Y-115301026D01*
X109387842Y-115281665D01*
X120515119Y-115281665D01*
X120515416Y-115286817D01*
X120515416Y-115286821D01*
X120517351Y-115320371D01*
X120528376Y-115511580D01*
X120529513Y-115516626D01*
X120529514Y-115516632D01*
X120551226Y-115612975D01*
X120579006Y-115736242D01*
X120580948Y-115741024D01*
X120580949Y-115741028D01*
X120663705Y-115944831D01*
X120665649Y-115949618D01*
X120785979Y-116145978D01*
X120936763Y-116320048D01*
X120978339Y-116354565D01*
X121023985Y-116392461D01*
X121063620Y-116451363D01*
X121069500Y-116489405D01*
X121069500Y-117814938D01*
X121069058Y-117825479D01*
X121064740Y-117876902D01*
X121065642Y-117883662D01*
X121065642Y-117883666D01*
X121075381Y-117956659D01*
X121075751Y-117959713D01*
X121081068Y-118008655D01*
X121084442Y-118039709D01*
X121086616Y-118046169D01*
X121087286Y-118049217D01*
X121087367Y-118049678D01*
X121087403Y-118049829D01*
X121087536Y-118050288D01*
X121088278Y-118053307D01*
X121089180Y-118060069D01*
X121091513Y-118066479D01*
X121091514Y-118066483D01*
X121116697Y-118135671D01*
X121117715Y-118138577D01*
X121134133Y-118187361D01*
X121143383Y-118214848D01*
X121146900Y-118220702D01*
X121148200Y-118223514D01*
X121148382Y-118223957D01*
X121148458Y-118224116D01*
X121148686Y-118224534D01*
X121150049Y-118227303D01*
X121152382Y-118233715D01*
X121156036Y-118239473D01*
X121156039Y-118239479D01*
X121195490Y-118301644D01*
X121197108Y-118304263D01*
X121227333Y-118354565D01*
X121238557Y-118373244D01*
X121243246Y-118378203D01*
X121245128Y-118380682D01*
X121245668Y-118381459D01*
X121248625Y-118385369D01*
X121251398Y-118389738D01*
X121255183Y-118393972D01*
X121308689Y-118447478D01*
X121311142Y-118450000D01*
X121347904Y-118488874D01*
X121365524Y-118507507D01*
X121371166Y-118511341D01*
X121376366Y-118515767D01*
X121376022Y-118516171D01*
X121383918Y-118522707D01*
X126877567Y-124016356D01*
X126884710Y-124024123D01*
X126918020Y-124063540D01*
X126923439Y-124067683D01*
X126923440Y-124067684D01*
X126981948Y-124112416D01*
X126984371Y-124114317D01*
X127041754Y-124160455D01*
X127041764Y-124160461D01*
X127047073Y-124164730D01*
X127053177Y-124167760D01*
X127055790Y-124169431D01*
X127056176Y-124169701D01*
X127056339Y-124169802D01*
X127056738Y-124170022D01*
X127059408Y-124171639D01*
X127064820Y-124175777D01*
X127070997Y-124178658D01*
X127071003Y-124178661D01*
X127137752Y-124209787D01*
X127140525Y-124211121D01*
X127206484Y-124243863D01*
X127212592Y-124246895D01*
X127219208Y-124248545D01*
X127222126Y-124249618D01*
X127222553Y-124249796D01*
X127222730Y-124249858D01*
X127223185Y-124249992D01*
X127226110Y-124250988D01*
X127232297Y-124253873D01*
X127300457Y-124269108D01*
X127310858Y-124271433D01*
X127313857Y-124272142D01*
X127391894Y-124291599D01*
X127398716Y-124291789D01*
X127401786Y-124292210D01*
X127402715Y-124292378D01*
X127407584Y-124293054D01*
X127412637Y-124294183D01*
X127418307Y-124294500D01*
X127494000Y-124294500D01*
X127497519Y-124294549D01*
X127576611Y-124296758D01*
X127583317Y-124295479D01*
X127590114Y-124294932D01*
X127590157Y-124295466D01*
X127600357Y-124294500D01*
X133961521Y-124294500D01*
X134029642Y-124314502D01*
X134050616Y-124331405D01*
X138561562Y-128842350D01*
X138568705Y-128850117D01*
X138602020Y-128889540D01*
X138607444Y-128893687D01*
X138607445Y-128893688D01*
X138665929Y-128938402D01*
X138668353Y-128940302D01*
X138725753Y-128986454D01*
X138725756Y-128986456D01*
X138731073Y-128990731D01*
X138737190Y-128993768D01*
X138739802Y-128995438D01*
X138740196Y-128995714D01*
X138740320Y-128995791D01*
X138740742Y-128996023D01*
X138743395Y-128997630D01*
X138748820Y-129001777D01*
X138821730Y-129035775D01*
X138824505Y-129037110D01*
X138890480Y-129069861D01*
X138890484Y-129069863D01*
X138896593Y-129072895D01*
X138903218Y-129074547D01*
X138906121Y-129075615D01*
X138906573Y-129075803D01*
X138906708Y-129075851D01*
X138907167Y-129075986D01*
X138910108Y-129076987D01*
X138916297Y-129079873D01*
X138922960Y-129081362D01*
X138922959Y-129081362D01*
X138994831Y-129097427D01*
X138997828Y-129098136D01*
X139069272Y-129115949D01*
X139075894Y-129117600D01*
X139082714Y-129117790D01*
X139085792Y-129118212D01*
X139086709Y-129118377D01*
X139091585Y-129119054D01*
X139096637Y-129120183D01*
X139102307Y-129120500D01*
X139177965Y-129120500D01*
X139181484Y-129120549D01*
X139260612Y-129122759D01*
X139267318Y-129121480D01*
X139274115Y-129120933D01*
X139274158Y-129121462D01*
X139284364Y-129120500D01*
X144622201Y-129120500D01*
X144690322Y-129140502D01*
X144717439Y-129164003D01*
X144728356Y-129176606D01*
X144812763Y-129274048D01*
X144989953Y-129421154D01*
X145188790Y-129537345D01*
X145403934Y-129619501D01*
X145409000Y-129620532D01*
X145409001Y-129620532D01*
X145509697Y-129641018D01*
X145629607Y-129665414D01*
X145759352Y-129670172D01*
X145854585Y-129673664D01*
X145854589Y-129673664D01*
X145859749Y-129673853D01*
X145864869Y-129673197D01*
X145864871Y-129673197D01*
X145934272Y-129664307D01*
X146088178Y-129644591D01*
X146093126Y-129643106D01*
X146093133Y-129643105D01*
X146303811Y-129579898D01*
X146303810Y-129579898D01*
X146308761Y-129578413D01*
X146515574Y-129477096D01*
X146703062Y-129343363D01*
X146866190Y-129180803D01*
X146881226Y-129159879D01*
X146997559Y-128997983D01*
X147000577Y-128993783D01*
X147102615Y-128787325D01*
X147132391Y-128689323D01*
X147168059Y-128571927D01*
X147168060Y-128571921D01*
X147169563Y-128566975D01*
X147199622Y-128338649D01*
X147201300Y-128270000D01*
X147182430Y-128040478D01*
X147126326Y-127817120D01*
X147034496Y-127605924D01*
X146909405Y-127412563D01*
X146880277Y-127380551D01*
X146757890Y-127246051D01*
X146757889Y-127246050D01*
X146754412Y-127242229D01*
X146750361Y-127239030D01*
X146750357Y-127239026D01*
X146577735Y-127102697D01*
X146577730Y-127102693D01*
X146573681Y-127099496D01*
X146569165Y-127097003D01*
X146569162Y-127097001D01*
X146376589Y-126990695D01*
X146376585Y-126990693D01*
X146372065Y-126988198D01*
X146367196Y-126986474D01*
X146367192Y-126986472D01*
X146159853Y-126913049D01*
X146159849Y-126913048D01*
X146154978Y-126911323D01*
X146149885Y-126910416D01*
X146149882Y-126910415D01*
X146053707Y-126893284D01*
X145928250Y-126870937D01*
X145841802Y-126869881D01*
X145703141Y-126868186D01*
X145703139Y-126868186D01*
X145697971Y-126868123D01*
X145470325Y-126902958D01*
X145251424Y-126974506D01*
X145047149Y-127080845D01*
X144862984Y-127219119D01*
X144859410Y-127222859D01*
X144708717Y-127380551D01*
X144647193Y-127415981D01*
X144617623Y-127419500D01*
X139596479Y-127419500D01*
X139528358Y-127399498D01*
X139507384Y-127382595D01*
X134996438Y-122871650D01*
X134989295Y-122863883D01*
X134960386Y-122829674D01*
X134955980Y-122824460D01*
X134892062Y-122775591D01*
X134889647Y-122773698D01*
X134832247Y-122727546D01*
X134832244Y-122727544D01*
X134826927Y-122723269D01*
X134820810Y-122720232D01*
X134818198Y-122718562D01*
X134817804Y-122718286D01*
X134817680Y-122718209D01*
X134817258Y-122717977D01*
X134814605Y-122716370D01*
X134809180Y-122712223D01*
X134736262Y-122678221D01*
X134733495Y-122676890D01*
X134667520Y-122644139D01*
X134667516Y-122644137D01*
X134661407Y-122641105D01*
X134654782Y-122639453D01*
X134651879Y-122638385D01*
X134651427Y-122638197D01*
X134651292Y-122638149D01*
X134650833Y-122638014D01*
X134647892Y-122637013D01*
X134641703Y-122634127D01*
X134594517Y-122623580D01*
X134563169Y-122616573D01*
X134560172Y-122615864D01*
X134488728Y-122598051D01*
X134488727Y-122598051D01*
X134482106Y-122596400D01*
X134475286Y-122596210D01*
X134472208Y-122595788D01*
X134471291Y-122595623D01*
X134466415Y-122594946D01*
X134461363Y-122593817D01*
X134455693Y-122593500D01*
X134380036Y-122593500D01*
X134376518Y-122593451D01*
X134374788Y-122593403D01*
X134297389Y-122591241D01*
X134290683Y-122592520D01*
X134283886Y-122593067D01*
X134283843Y-122592538D01*
X134273637Y-122593500D01*
X127912479Y-122593500D01*
X127844358Y-122573498D01*
X127823384Y-122556595D01*
X127660454Y-122393665D01*
X160139119Y-122393665D01*
X160139416Y-122398817D01*
X160139416Y-122398821D01*
X160144864Y-122493296D01*
X160152376Y-122623580D01*
X160153513Y-122628626D01*
X160153514Y-122628632D01*
X160174842Y-122723269D01*
X160203006Y-122848242D01*
X160204948Y-122853024D01*
X160204949Y-122853028D01*
X160280591Y-123039311D01*
X160289649Y-123061618D01*
X160409979Y-123257978D01*
X160560763Y-123432048D01*
X160737953Y-123579154D01*
X160936790Y-123695345D01*
X161151934Y-123777501D01*
X161157000Y-123778532D01*
X161157001Y-123778532D01*
X161257697Y-123799018D01*
X161377607Y-123823414D01*
X161507352Y-123828172D01*
X161602585Y-123831664D01*
X161602589Y-123831664D01*
X161607749Y-123831853D01*
X161612869Y-123831197D01*
X161612871Y-123831197D01*
X161682272Y-123822307D01*
X161836178Y-123802591D01*
X161841126Y-123801106D01*
X161841133Y-123801105D01*
X162042835Y-123740591D01*
X162056761Y-123736413D01*
X162263574Y-123635096D01*
X162451062Y-123501363D01*
X162614190Y-123338803D01*
X162648171Y-123291514D01*
X162745559Y-123155983D01*
X162748577Y-123151783D01*
X162850615Y-122945325D01*
X162888597Y-122820312D01*
X162916059Y-122729927D01*
X162916060Y-122729921D01*
X162917563Y-122724975D01*
X162931927Y-122615864D01*
X162947185Y-122499971D01*
X162947185Y-122499965D01*
X162947622Y-122496649D01*
X162949300Y-122428000D01*
X162930430Y-122198478D01*
X162874326Y-121975120D01*
X162820750Y-121851903D01*
X162784556Y-121768661D01*
X162784554Y-121768658D01*
X162782496Y-121763924D01*
X162657405Y-121570563D01*
X162636774Y-121547889D01*
X162505890Y-121404051D01*
X162505889Y-121404050D01*
X162502412Y-121400229D01*
X162498361Y-121397030D01*
X162498357Y-121397026D01*
X162325735Y-121260697D01*
X162325730Y-121260693D01*
X162321681Y-121257496D01*
X162317165Y-121255003D01*
X162317162Y-121255001D01*
X162124589Y-121148695D01*
X162124585Y-121148693D01*
X162120065Y-121146198D01*
X162115196Y-121144474D01*
X162115192Y-121144472D01*
X161907853Y-121071049D01*
X161907849Y-121071048D01*
X161902978Y-121069323D01*
X161897885Y-121068416D01*
X161897882Y-121068415D01*
X161801707Y-121051284D01*
X161676250Y-121028937D01*
X161589802Y-121027881D01*
X161451141Y-121026186D01*
X161451139Y-121026186D01*
X161445971Y-121026123D01*
X161218325Y-121060958D01*
X160999424Y-121132506D01*
X160795149Y-121238845D01*
X160610984Y-121377119D01*
X160451877Y-121543616D01*
X160448963Y-121547888D01*
X160448962Y-121547889D01*
X160409553Y-121605661D01*
X160322099Y-121733863D01*
X160319923Y-121738552D01*
X160319919Y-121738558D01*
X160227864Y-121936875D01*
X160225136Y-121942752D01*
X160163592Y-122164673D01*
X160139119Y-122393665D01*
X127660454Y-122393665D01*
X125120453Y-119853665D01*
X132199119Y-119853665D01*
X132199416Y-119858817D01*
X132199416Y-119858821D01*
X132204864Y-119953296D01*
X132212376Y-120083580D01*
X132213513Y-120088626D01*
X132213514Y-120088632D01*
X132237616Y-120195577D01*
X132263006Y-120308242D01*
X132264948Y-120313024D01*
X132264949Y-120313028D01*
X132302427Y-120405325D01*
X132349649Y-120521618D01*
X132469979Y-120717978D01*
X132620763Y-120892048D01*
X132797953Y-121039154D01*
X132996790Y-121155345D01*
X133001615Y-121157187D01*
X133001616Y-121157188D01*
X133075962Y-121185578D01*
X133211934Y-121237501D01*
X133217000Y-121238532D01*
X133217001Y-121238532D01*
X133304984Y-121256432D01*
X133437607Y-121283414D01*
X133567352Y-121288172D01*
X133662585Y-121291664D01*
X133662589Y-121291664D01*
X133667749Y-121291853D01*
X133672869Y-121291197D01*
X133672871Y-121291197D01*
X133742272Y-121282307D01*
X133896178Y-121262591D01*
X133901126Y-121261106D01*
X133901133Y-121261105D01*
X134088882Y-121204777D01*
X134116761Y-121196413D01*
X134323574Y-121095096D01*
X134511062Y-120961363D01*
X134674190Y-120798803D01*
X134708171Y-120751514D01*
X134805559Y-120615983D01*
X134808577Y-120611783D01*
X134910615Y-120405325D01*
X134974342Y-120195577D01*
X134976059Y-120189927D01*
X134976060Y-120189921D01*
X134977563Y-120184975D01*
X135007622Y-119956649D01*
X135009300Y-119888000D01*
X135006477Y-119853665D01*
X142359119Y-119853665D01*
X142359416Y-119858817D01*
X142359416Y-119858821D01*
X142364864Y-119953296D01*
X142372376Y-120083580D01*
X142373513Y-120088626D01*
X142373514Y-120088632D01*
X142397616Y-120195577D01*
X142423006Y-120308242D01*
X142424948Y-120313024D01*
X142424949Y-120313028D01*
X142462427Y-120405325D01*
X142509649Y-120521618D01*
X142629979Y-120717978D01*
X142780763Y-120892048D01*
X142957953Y-121039154D01*
X143156790Y-121155345D01*
X143161615Y-121157187D01*
X143161616Y-121157188D01*
X143235962Y-121185578D01*
X143371934Y-121237501D01*
X143377000Y-121238532D01*
X143377001Y-121238532D01*
X143464984Y-121256432D01*
X143597607Y-121283414D01*
X143727352Y-121288172D01*
X143822585Y-121291664D01*
X143822589Y-121291664D01*
X143827749Y-121291853D01*
X143832869Y-121291197D01*
X143832871Y-121291197D01*
X143902272Y-121282307D01*
X144056178Y-121262591D01*
X144061126Y-121261106D01*
X144061133Y-121261105D01*
X144248882Y-121204777D01*
X144276761Y-121196413D01*
X144483574Y-121095096D01*
X144671062Y-120961363D01*
X144834190Y-120798803D01*
X144868171Y-120751514D01*
X144965559Y-120615983D01*
X144968577Y-120611783D01*
X145070615Y-120405325D01*
X145134342Y-120195577D01*
X145136059Y-120189927D01*
X145136060Y-120189921D01*
X145137563Y-120184975D01*
X145167622Y-119956649D01*
X145169300Y-119888000D01*
X145150430Y-119658478D01*
X145094326Y-119435120D01*
X145002496Y-119223924D01*
X144877405Y-119030563D01*
X144867554Y-119019736D01*
X144725890Y-118864051D01*
X144725889Y-118864050D01*
X144722412Y-118860229D01*
X144718361Y-118857030D01*
X144718357Y-118857026D01*
X144545735Y-118720697D01*
X144545730Y-118720693D01*
X144541681Y-118717496D01*
X144537165Y-118715003D01*
X144537162Y-118715001D01*
X144344589Y-118608695D01*
X144344585Y-118608693D01*
X144340065Y-118606198D01*
X144335196Y-118604474D01*
X144335192Y-118604472D01*
X144127853Y-118531049D01*
X144127849Y-118531048D01*
X144122978Y-118529323D01*
X144117885Y-118528416D01*
X144117882Y-118528415D01*
X144000502Y-118507507D01*
X143896250Y-118488937D01*
X143809802Y-118487881D01*
X143671141Y-118486186D01*
X143671139Y-118486186D01*
X143665971Y-118486123D01*
X143438325Y-118520958D01*
X143219424Y-118592506D01*
X143015149Y-118698845D01*
X142830984Y-118837119D01*
X142671877Y-119003616D01*
X142542099Y-119193863D01*
X142539923Y-119198552D01*
X142539919Y-119198558D01*
X142450860Y-119390420D01*
X142445136Y-119402752D01*
X142383592Y-119624673D01*
X142359119Y-119853665D01*
X135006477Y-119853665D01*
X134990430Y-119658478D01*
X134934326Y-119435120D01*
X134842496Y-119223924D01*
X134717405Y-119030563D01*
X134707554Y-119019736D01*
X134565890Y-118864051D01*
X134565889Y-118864050D01*
X134562412Y-118860229D01*
X134558361Y-118857030D01*
X134558357Y-118857026D01*
X134385735Y-118720697D01*
X134385730Y-118720693D01*
X134381681Y-118717496D01*
X134377165Y-118715003D01*
X134377162Y-118715001D01*
X134184589Y-118608695D01*
X134184585Y-118608693D01*
X134180065Y-118606198D01*
X134175196Y-118604474D01*
X134175192Y-118604472D01*
X133967853Y-118531049D01*
X133967849Y-118531048D01*
X133962978Y-118529323D01*
X133957885Y-118528416D01*
X133957882Y-118528415D01*
X133840502Y-118507507D01*
X133736250Y-118488937D01*
X133649802Y-118487881D01*
X133511141Y-118486186D01*
X133511139Y-118486186D01*
X133505971Y-118486123D01*
X133278325Y-118520958D01*
X133059424Y-118592506D01*
X132855149Y-118698845D01*
X132670984Y-118837119D01*
X132511877Y-119003616D01*
X132382099Y-119193863D01*
X132379923Y-119198552D01*
X132379919Y-119198558D01*
X132290860Y-119390420D01*
X132285136Y-119402752D01*
X132223592Y-119624673D01*
X132199119Y-119853665D01*
X125120453Y-119853665D01*
X122807405Y-117540617D01*
X122773379Y-117478305D01*
X122770500Y-117451522D01*
X122770500Y-116494603D01*
X122790502Y-116426482D01*
X122819337Y-116396215D01*
X122818904Y-116395703D01*
X122822857Y-116392363D01*
X122827062Y-116389363D01*
X122990190Y-116226803D01*
X123001069Y-116211664D01*
X123121559Y-116043983D01*
X123124577Y-116039783D01*
X123132643Y-116023464D01*
X123177051Y-115933610D01*
X123226615Y-115833325D01*
X123251530Y-115751320D01*
X123292059Y-115617927D01*
X123292060Y-115617921D01*
X123293563Y-115612975D01*
X123323622Y-115384649D01*
X123324094Y-115365325D01*
X123325218Y-115319364D01*
X123325218Y-115319360D01*
X123325300Y-115316000D01*
X123306430Y-115086478D01*
X123253724Y-114876649D01*
X123251585Y-114868132D01*
X123251585Y-114868131D01*
X123250326Y-114863120D01*
X123248263Y-114858375D01*
X123160556Y-114656661D01*
X123160554Y-114656658D01*
X123158496Y-114651924D01*
X123079807Y-114530289D01*
X123036215Y-114462906D01*
X123036213Y-114462903D01*
X123033405Y-114458563D01*
X123012774Y-114435889D01*
X122881890Y-114292051D01*
X122881889Y-114292050D01*
X122878412Y-114288229D01*
X122874361Y-114285030D01*
X122874357Y-114285026D01*
X122701735Y-114148697D01*
X122701730Y-114148693D01*
X122697681Y-114145496D01*
X122693165Y-114143003D01*
X122693162Y-114143001D01*
X122500589Y-114036695D01*
X122500585Y-114036693D01*
X122496065Y-114034198D01*
X122491196Y-114032474D01*
X122491192Y-114032472D01*
X122283853Y-113959049D01*
X122283849Y-113959048D01*
X122278978Y-113957323D01*
X122273885Y-113956416D01*
X122273882Y-113956415D01*
X122177707Y-113939284D01*
X122052250Y-113916937D01*
X121965802Y-113915881D01*
X121827141Y-113914186D01*
X121827139Y-113914186D01*
X121821971Y-113914123D01*
X121594325Y-113948958D01*
X121375424Y-114020506D01*
X121171149Y-114126845D01*
X120986984Y-114265119D01*
X120827877Y-114431616D01*
X120824963Y-114435888D01*
X120824962Y-114435889D01*
X120753663Y-114540409D01*
X120698099Y-114621863D01*
X120695923Y-114626552D01*
X120695919Y-114626558D01*
X120606674Y-114818821D01*
X120601136Y-114830752D01*
X120566072Y-114957190D01*
X120549872Y-115015606D01*
X120539592Y-115052673D01*
X120539043Y-115057810D01*
X120516554Y-115268242D01*
X120515119Y-115281665D01*
X109387842Y-115281665D01*
X109235681Y-115161496D01*
X109236346Y-115160653D01*
X109194089Y-115110346D01*
X109185064Y-115039925D01*
X109215545Y-114975805D01*
X109236324Y-114957190D01*
X109365062Y-114865363D01*
X109528190Y-114702803D01*
X109586177Y-114622106D01*
X109659559Y-114519983D01*
X109662577Y-114515783D01*
X109688711Y-114462906D01*
X109724555Y-114390381D01*
X109764615Y-114309325D01*
X109810422Y-114158558D01*
X109830059Y-114093927D01*
X109830060Y-114093921D01*
X109831563Y-114088975D01*
X109847504Y-113967889D01*
X109861185Y-113863971D01*
X109861185Y-113863965D01*
X109861622Y-113860649D01*
X109862688Y-113817026D01*
X109863218Y-113795364D01*
X109863218Y-113795360D01*
X109863300Y-113792000D01*
X109844430Y-113562478D01*
X109794377Y-113363209D01*
X109789585Y-113344132D01*
X109789585Y-113344131D01*
X109788326Y-113339120D01*
X109772211Y-113302057D01*
X109698556Y-113132661D01*
X109698554Y-113132658D01*
X109696496Y-113127924D01*
X109619964Y-113009624D01*
X109574215Y-112938906D01*
X109574213Y-112938903D01*
X109571405Y-112934563D01*
X109550774Y-112911889D01*
X109419890Y-112768051D01*
X109419889Y-112768050D01*
X109416412Y-112764229D01*
X109412361Y-112761030D01*
X109412357Y-112761026D01*
X109356568Y-112716967D01*
X109356407Y-112716840D01*
X109315345Y-112658924D01*
X109308500Y-112617959D01*
X109308500Y-112418480D01*
X109328502Y-112350359D01*
X109345404Y-112329385D01*
X109535383Y-112139405D01*
X109597695Y-112105380D01*
X109624479Y-112102500D01*
X122023521Y-112102500D01*
X122091642Y-112122502D01*
X122112616Y-112139405D01*
X124552725Y-114579514D01*
X124586751Y-114641826D01*
X124588916Y-114681998D01*
X124579119Y-114773665D01*
X124592376Y-115003580D01*
X124593513Y-115008626D01*
X124593514Y-115008632D01*
X124617616Y-115115577D01*
X124643006Y-115228242D01*
X124644948Y-115233024D01*
X124644949Y-115233028D01*
X124700554Y-115369966D01*
X124729649Y-115441618D01*
X124849979Y-115637978D01*
X125000763Y-115812048D01*
X125177953Y-115959154D01*
X125376790Y-116075345D01*
X125381615Y-116077187D01*
X125381616Y-116077188D01*
X125434700Y-116097459D01*
X125591934Y-116157501D01*
X125597000Y-116158532D01*
X125597001Y-116158532D01*
X125668548Y-116173088D01*
X125817607Y-116203414D01*
X125947352Y-116208172D01*
X126042585Y-116211664D01*
X126042589Y-116211664D01*
X126047749Y-116211853D01*
X126052869Y-116211197D01*
X126052871Y-116211197D01*
X126122272Y-116202307D01*
X126276178Y-116182591D01*
X126281126Y-116181106D01*
X126281133Y-116181105D01*
X126485745Y-116119718D01*
X126496761Y-116116413D01*
X126703574Y-116015096D01*
X126891062Y-115881363D01*
X127054190Y-115718803D01*
X127088171Y-115671514D01*
X127185559Y-115535983D01*
X127188577Y-115531783D01*
X127205255Y-115498039D01*
X127279192Y-115348437D01*
X127290615Y-115325325D01*
X127321643Y-115223200D01*
X127356059Y-115109927D01*
X127356060Y-115109921D01*
X127357563Y-115104975D01*
X127382356Y-114916649D01*
X127387185Y-114879971D01*
X127387185Y-114879965D01*
X127387622Y-114876649D01*
X127389162Y-114813665D01*
X149979119Y-114813665D01*
X149979416Y-114818817D01*
X149979416Y-114818821D01*
X149984864Y-114913296D01*
X149992376Y-115043580D01*
X149993513Y-115048626D01*
X149993514Y-115048632D01*
X150015226Y-115144975D01*
X150043006Y-115268242D01*
X150044948Y-115273024D01*
X150044949Y-115273028D01*
X150126784Y-115474563D01*
X150129649Y-115481618D01*
X150160390Y-115531783D01*
X150241160Y-115663586D01*
X150249979Y-115677978D01*
X150253360Y-115681881D01*
X150364072Y-115809691D01*
X150393554Y-115874276D01*
X150383439Y-115944549D01*
X150336938Y-115998197D01*
X150317051Y-116008597D01*
X150288791Y-116020302D01*
X150288788Y-116020304D01*
X150281159Y-116023464D01*
X150155718Y-116119718D01*
X150059464Y-116245159D01*
X149998956Y-116391238D01*
X149997878Y-116399425D01*
X149997878Y-116399426D01*
X149990414Y-116456125D01*
X149983500Y-116508639D01*
X149983501Y-118187360D01*
X149984039Y-118191444D01*
X149984039Y-118191450D01*
X149997878Y-118296574D01*
X149998956Y-118304762D01*
X150059464Y-118450841D01*
X150155718Y-118576282D01*
X150162264Y-118581305D01*
X150174767Y-118590899D01*
X150281159Y-118672536D01*
X150427238Y-118733044D01*
X150435426Y-118734122D01*
X150540545Y-118747961D01*
X150544639Y-118748500D01*
X151383898Y-118748500D01*
X152223360Y-118748499D01*
X152227444Y-118747961D01*
X152227450Y-118747961D01*
X152332575Y-118734122D01*
X152332577Y-118734122D01*
X152340762Y-118733044D01*
X152486841Y-118672536D01*
X152593233Y-118590899D01*
X152605736Y-118581305D01*
X152612282Y-118576282D01*
X152708536Y-118450841D01*
X152769044Y-118304762D01*
X152784500Y-118187361D01*
X152784499Y-116508640D01*
X152782652Y-116494603D01*
X152770122Y-116399425D01*
X152770122Y-116399423D01*
X152769044Y-116391238D01*
X152708536Y-116245159D01*
X152612282Y-116119718D01*
X152486841Y-116023464D01*
X152450718Y-116008501D01*
X152395438Y-115963954D01*
X152373017Y-115896591D01*
X152390575Y-115827800D01*
X152409997Y-115802842D01*
X152450529Y-115762451D01*
X152454190Y-115758803D01*
X152480312Y-115722451D01*
X152585559Y-115575983D01*
X152588577Y-115571783D01*
X152595576Y-115557623D01*
X152655274Y-115436831D01*
X152690615Y-115365325D01*
X152721643Y-115263200D01*
X152756059Y-115149927D01*
X152756060Y-115149921D01*
X152757563Y-115144975D01*
X152774594Y-115015606D01*
X152787185Y-114919971D01*
X152787185Y-114919965D01*
X152787622Y-114916649D01*
X152788876Y-114865363D01*
X152789218Y-114851364D01*
X152789218Y-114851360D01*
X152789300Y-114848000D01*
X152770430Y-114618478D01*
X152714326Y-114395120D01*
X152622496Y-114183924D01*
X152518322Y-114022896D01*
X152500215Y-113994906D01*
X152500213Y-113994903D01*
X152497405Y-113990563D01*
X152476774Y-113967889D01*
X152345890Y-113824051D01*
X152345889Y-113824050D01*
X152342412Y-113820229D01*
X152338361Y-113817030D01*
X152338357Y-113817026D01*
X152165735Y-113680697D01*
X152165730Y-113680693D01*
X152161681Y-113677496D01*
X152157165Y-113675003D01*
X152157162Y-113675001D01*
X151964589Y-113568695D01*
X151964585Y-113568693D01*
X151960065Y-113566198D01*
X151955196Y-113564474D01*
X151955192Y-113564472D01*
X151747853Y-113491049D01*
X151747849Y-113491048D01*
X151742978Y-113489323D01*
X151737885Y-113488416D01*
X151737882Y-113488415D01*
X151641707Y-113471284D01*
X151516250Y-113448937D01*
X151429802Y-113447881D01*
X151291141Y-113446186D01*
X151291139Y-113446186D01*
X151285971Y-113446123D01*
X151058325Y-113480958D01*
X150839424Y-113552506D01*
X150772184Y-113587509D01*
X150646293Y-113653044D01*
X150635149Y-113658845D01*
X150450984Y-113797119D01*
X150291877Y-113963616D01*
X150288963Y-113967888D01*
X150288962Y-113967889D01*
X150243729Y-114034198D01*
X150162099Y-114153863D01*
X150159923Y-114158552D01*
X150159919Y-114158558D01*
X150067315Y-114358057D01*
X150065136Y-114362752D01*
X150003592Y-114584673D01*
X150003043Y-114589810D01*
X149980083Y-114804647D01*
X149979119Y-114813665D01*
X127389162Y-114813665D01*
X127389300Y-114808000D01*
X127370430Y-114578478D01*
X127314326Y-114355120D01*
X127241948Y-114188661D01*
X127224556Y-114148661D01*
X127224554Y-114148658D01*
X127222496Y-114143924D01*
X127144199Y-114022896D01*
X127100215Y-113954906D01*
X127100213Y-113954903D01*
X127097405Y-113950563D01*
X127066808Y-113916937D01*
X126945890Y-113784051D01*
X126945889Y-113784050D01*
X126942412Y-113780229D01*
X126938361Y-113777030D01*
X126938357Y-113777026D01*
X126765735Y-113640697D01*
X126765730Y-113640693D01*
X126761681Y-113637496D01*
X126757165Y-113635003D01*
X126757162Y-113635001D01*
X126564589Y-113528695D01*
X126564585Y-113528693D01*
X126560065Y-113526198D01*
X126555196Y-113524474D01*
X126555192Y-113524472D01*
X126347853Y-113451049D01*
X126347849Y-113451048D01*
X126342978Y-113449323D01*
X126337885Y-113448416D01*
X126337882Y-113448415D01*
X126241707Y-113431284D01*
X126116250Y-113408937D01*
X126029802Y-113407881D01*
X125891141Y-113406186D01*
X125891139Y-113406186D01*
X125885971Y-113406123D01*
X125880862Y-113406905D01*
X125880859Y-113406905D01*
X125873322Y-113408059D01*
X125861375Y-113409887D01*
X125791014Y-113400420D01*
X125753221Y-113374432D01*
X123807427Y-111428639D01*
X134743500Y-111428639D01*
X134743501Y-113107360D01*
X134744039Y-113111444D01*
X134744039Y-113111450D01*
X134752353Y-113174606D01*
X134758956Y-113224762D01*
X134819464Y-113370841D01*
X134862857Y-113427392D01*
X134903960Y-113480958D01*
X134915718Y-113496282D01*
X135041159Y-113592536D01*
X135187238Y-113653044D01*
X135195426Y-113654122D01*
X135300545Y-113667961D01*
X135304639Y-113668500D01*
X136143898Y-113668500D01*
X136983360Y-113668499D01*
X136987444Y-113667961D01*
X136987450Y-113667961D01*
X137092575Y-113654122D01*
X137092577Y-113654122D01*
X137100762Y-113653044D01*
X137246841Y-113592536D01*
X137372282Y-113496282D01*
X137384041Y-113480958D01*
X137425143Y-113427392D01*
X137468536Y-113370841D01*
X137471695Y-113363213D01*
X137471698Y-113363209D01*
X137482773Y-113336470D01*
X137527320Y-113281189D01*
X137594684Y-113258767D01*
X137663475Y-113276325D01*
X137679664Y-113287740D01*
X137837953Y-113419154D01*
X138036790Y-113535345D01*
X138041615Y-113537187D01*
X138041616Y-113537188D01*
X138078585Y-113551305D01*
X138251934Y-113617501D01*
X138257000Y-113618532D01*
X138257001Y-113618532D01*
X138350214Y-113637496D01*
X138477607Y-113663414D01*
X138601637Y-113667962D01*
X138702585Y-113671664D01*
X138702589Y-113671664D01*
X138707749Y-113671853D01*
X138712869Y-113671197D01*
X138712871Y-113671197D01*
X138785695Y-113661868D01*
X138936178Y-113642591D01*
X138941126Y-113641106D01*
X138941133Y-113641105D01*
X139151811Y-113577898D01*
X139151810Y-113577898D01*
X139156761Y-113576413D01*
X139363574Y-113475096D01*
X139551062Y-113341363D01*
X139714190Y-113178803D01*
X139768490Y-113103237D01*
X139845559Y-112995983D01*
X139848577Y-112991783D01*
X139874711Y-112938906D01*
X139948321Y-112789966D01*
X139950615Y-112785325D01*
X140001998Y-112616206D01*
X140016059Y-112569927D01*
X140016060Y-112569921D01*
X140017563Y-112564975D01*
X140047622Y-112336649D01*
X140049300Y-112268000D01*
X140046477Y-112233665D01*
X160139119Y-112233665D01*
X160139416Y-112238817D01*
X160139416Y-112238821D01*
X160150355Y-112428532D01*
X160152376Y-112463580D01*
X160153513Y-112468626D01*
X160153514Y-112468632D01*
X160175226Y-112564975D01*
X160203006Y-112688242D01*
X160204948Y-112693024D01*
X160204949Y-112693028D01*
X160242427Y-112785325D01*
X160289649Y-112901618D01*
X160409979Y-113097978D01*
X160560763Y-113272048D01*
X160737953Y-113419154D01*
X160936790Y-113535345D01*
X160941615Y-113537187D01*
X160941616Y-113537188D01*
X160978585Y-113551305D01*
X161151934Y-113617501D01*
X161157000Y-113618532D01*
X161157001Y-113618532D01*
X161250214Y-113637496D01*
X161377607Y-113663414D01*
X161501637Y-113667962D01*
X161602585Y-113671664D01*
X161602589Y-113671664D01*
X161607749Y-113671853D01*
X161612869Y-113671197D01*
X161612871Y-113671197D01*
X161685695Y-113661868D01*
X161836178Y-113642591D01*
X161841126Y-113641106D01*
X161841133Y-113641105D01*
X162051811Y-113577898D01*
X162051810Y-113577898D01*
X162056761Y-113576413D01*
X162263574Y-113475096D01*
X162451062Y-113341363D01*
X162614190Y-113178803D01*
X162668490Y-113103237D01*
X162745559Y-112995983D01*
X162748577Y-112991783D01*
X162774711Y-112938906D01*
X162848321Y-112789966D01*
X162850615Y-112785325D01*
X162901998Y-112616206D01*
X162916059Y-112569927D01*
X162916060Y-112569921D01*
X162917563Y-112564975D01*
X162947622Y-112336649D01*
X162949300Y-112268000D01*
X162930430Y-112038478D01*
X162874326Y-111815120D01*
X162801011Y-111646505D01*
X162784556Y-111608661D01*
X162784554Y-111608658D01*
X162782496Y-111603924D01*
X162671766Y-111432761D01*
X162660215Y-111414906D01*
X162660213Y-111414903D01*
X162657405Y-111410563D01*
X162636774Y-111387889D01*
X162505890Y-111244051D01*
X162505889Y-111244050D01*
X162502412Y-111240229D01*
X162498361Y-111237030D01*
X162498357Y-111237026D01*
X162325735Y-111100697D01*
X162325730Y-111100693D01*
X162321681Y-111097496D01*
X162317165Y-111095003D01*
X162317162Y-111095001D01*
X162124589Y-110988695D01*
X162124585Y-110988693D01*
X162120065Y-110986198D01*
X162115196Y-110984474D01*
X162115192Y-110984472D01*
X161907853Y-110911049D01*
X161907849Y-110911048D01*
X161902978Y-110909323D01*
X161897885Y-110908416D01*
X161897882Y-110908415D01*
X161772693Y-110886116D01*
X161676250Y-110868937D01*
X161589802Y-110867881D01*
X161451141Y-110866186D01*
X161451139Y-110866186D01*
X161445971Y-110866123D01*
X161218325Y-110900958D01*
X160999424Y-110972506D01*
X160795149Y-111078845D01*
X160610984Y-111217119D01*
X160451877Y-111383616D01*
X160448963Y-111387888D01*
X160448962Y-111387889D01*
X160418352Y-111432761D01*
X160322099Y-111573863D01*
X160319923Y-111578552D01*
X160319919Y-111578558D01*
X160250285Y-111728573D01*
X160225136Y-111782752D01*
X160163592Y-112004673D01*
X160163043Y-112009810D01*
X160155263Y-112082611D01*
X160139119Y-112233665D01*
X140046477Y-112233665D01*
X140030430Y-112038478D01*
X139974326Y-111815120D01*
X139901011Y-111646505D01*
X139884556Y-111608661D01*
X139884554Y-111608658D01*
X139882496Y-111603924D01*
X139771766Y-111432761D01*
X139760215Y-111414906D01*
X139760213Y-111414903D01*
X139757405Y-111410563D01*
X139736774Y-111387889D01*
X139605890Y-111244051D01*
X139605889Y-111244050D01*
X139602412Y-111240229D01*
X139598361Y-111237030D01*
X139598357Y-111237026D01*
X139425735Y-111100697D01*
X139425730Y-111100693D01*
X139421681Y-111097496D01*
X139417165Y-111095003D01*
X139417162Y-111095001D01*
X139224589Y-110988695D01*
X139224585Y-110988693D01*
X139220065Y-110986198D01*
X139215196Y-110984474D01*
X139215192Y-110984472D01*
X139007853Y-110911049D01*
X139007849Y-110911048D01*
X139002978Y-110909323D01*
X138997885Y-110908416D01*
X138997882Y-110908415D01*
X138872693Y-110886116D01*
X138776250Y-110868937D01*
X138689802Y-110867881D01*
X138551141Y-110866186D01*
X138551139Y-110866186D01*
X138545971Y-110866123D01*
X138318325Y-110900958D01*
X138099424Y-110972506D01*
X137895149Y-111078845D01*
X137710984Y-111217119D01*
X137707410Y-111220859D01*
X137690399Y-111238660D01*
X137628875Y-111274090D01*
X137557962Y-111270633D01*
X137500176Y-111229387D01*
X137482896Y-111199827D01*
X137471696Y-111172789D01*
X137468536Y-111165159D01*
X137372282Y-111039718D01*
X137246841Y-110943464D01*
X137100762Y-110882956D01*
X137001166Y-110869844D01*
X136987448Y-110868038D01*
X136987447Y-110868038D01*
X136983361Y-110867500D01*
X136144102Y-110867500D01*
X135304640Y-110867501D01*
X135300556Y-110868039D01*
X135300550Y-110868039D01*
X135195425Y-110881878D01*
X135195423Y-110881878D01*
X135187238Y-110882956D01*
X135041159Y-110943464D01*
X134915718Y-111039718D01*
X134819464Y-111165159D01*
X134758956Y-111311238D01*
X134743500Y-111428639D01*
X123807427Y-111428639D01*
X123058438Y-110679650D01*
X123051295Y-110671883D01*
X123022386Y-110637674D01*
X123017980Y-110632460D01*
X122954062Y-110583591D01*
X122951647Y-110581698D01*
X122946766Y-110577773D01*
X122933418Y-110567041D01*
X122894247Y-110535546D01*
X122894244Y-110535544D01*
X122888927Y-110531269D01*
X122882810Y-110528232D01*
X122880198Y-110526562D01*
X122879804Y-110526286D01*
X122879680Y-110526209D01*
X122879258Y-110525977D01*
X122876605Y-110524370D01*
X122871180Y-110520223D01*
X122798262Y-110486221D01*
X122795495Y-110484890D01*
X122729520Y-110452139D01*
X122729516Y-110452137D01*
X122723407Y-110449105D01*
X122716782Y-110447453D01*
X122713879Y-110446385D01*
X122713427Y-110446197D01*
X122713292Y-110446149D01*
X122712833Y-110446014D01*
X122709892Y-110445013D01*
X122703703Y-110442127D01*
X122681246Y-110437107D01*
X122625169Y-110424573D01*
X122622172Y-110423864D01*
X122550728Y-110406051D01*
X122550727Y-110406051D01*
X122544106Y-110404400D01*
X122537286Y-110404210D01*
X122534208Y-110403788D01*
X122533291Y-110403623D01*
X122528415Y-110402946D01*
X122523363Y-110401817D01*
X122517693Y-110401500D01*
X122442036Y-110401500D01*
X122438518Y-110401451D01*
X122436788Y-110401403D01*
X122359389Y-110399241D01*
X122352683Y-110400520D01*
X122345886Y-110401067D01*
X122345843Y-110400538D01*
X122335637Y-110401500D01*
X109261062Y-110401500D01*
X109250521Y-110401058D01*
X109199098Y-110396740D01*
X109192338Y-110397642D01*
X109192334Y-110397642D01*
X109119341Y-110407381D01*
X109116287Y-110407751D01*
X109043072Y-110415705D01*
X109043069Y-110415706D01*
X109036291Y-110416442D01*
X109029831Y-110418616D01*
X109026783Y-110419286D01*
X109026322Y-110419367D01*
X109026171Y-110419403D01*
X109025712Y-110419536D01*
X109022693Y-110420278D01*
X109015931Y-110421180D01*
X109009521Y-110423513D01*
X109009517Y-110423514D01*
X108940329Y-110448697D01*
X108937423Y-110449715D01*
X108867623Y-110473205D01*
X108867621Y-110473206D01*
X108861152Y-110475383D01*
X108855298Y-110478900D01*
X108852486Y-110480200D01*
X108852043Y-110480382D01*
X108851884Y-110480458D01*
X108851466Y-110480686D01*
X108848697Y-110482049D01*
X108842285Y-110484382D01*
X108836527Y-110488036D01*
X108836521Y-110488039D01*
X108774356Y-110527490D01*
X108771737Y-110529108D01*
X108708607Y-110567041D01*
X108708605Y-110567042D01*
X108702756Y-110570557D01*
X108697797Y-110575246D01*
X108695318Y-110577128D01*
X108694541Y-110577668D01*
X108690631Y-110580625D01*
X108686262Y-110583398D01*
X108682028Y-110587183D01*
X108628523Y-110640688D01*
X108626001Y-110643141D01*
X108568493Y-110697524D01*
X108564659Y-110703166D01*
X108560233Y-110708366D01*
X108559830Y-110708023D01*
X108553296Y-110715915D01*
X107885644Y-111383568D01*
X107877876Y-111390711D01*
X107838460Y-111424020D01*
X107834313Y-111429444D01*
X107834312Y-111429445D01*
X107789598Y-111487929D01*
X107787705Y-111490345D01*
X107737269Y-111553073D01*
X107734232Y-111559190D01*
X107732562Y-111561802D01*
X107732286Y-111562196D01*
X107732209Y-111562320D01*
X107731977Y-111562742D01*
X107730370Y-111565395D01*
X107726223Y-111570820D01*
X107710787Y-111603924D01*
X107692225Y-111643730D01*
X107690890Y-111646505D01*
X107658139Y-111712480D01*
X107658137Y-111712484D01*
X107655105Y-111718593D01*
X107653453Y-111725218D01*
X107652385Y-111728121D01*
X107652197Y-111728573D01*
X107652149Y-111728708D01*
X107652014Y-111729167D01*
X107651013Y-111732108D01*
X107648127Y-111738297D01*
X107646638Y-111744959D01*
X107630573Y-111816831D01*
X107629864Y-111819828D01*
X107612051Y-111891272D01*
X107610400Y-111897894D01*
X107610210Y-111904714D01*
X107609788Y-111907792D01*
X107609623Y-111908709D01*
X107608946Y-111913585D01*
X107607817Y-111918637D01*
X107607500Y-111924307D01*
X107607500Y-111999964D01*
X107607451Y-112003482D01*
X107605241Y-112082611D01*
X107606520Y-112089317D01*
X107607067Y-112096114D01*
X107606538Y-112096157D01*
X107607500Y-112106363D01*
X107607500Y-112616206D01*
X107587498Y-112684327D01*
X107557152Y-112716967D01*
X107529124Y-112738010D01*
X107529119Y-112738014D01*
X107524984Y-112741119D01*
X107365877Y-112907616D01*
X107362963Y-112911888D01*
X107362962Y-112911889D01*
X107308462Y-112991783D01*
X107236099Y-113097863D01*
X107233923Y-113102552D01*
X107233919Y-113102558D01*
X107151002Y-113281189D01*
X107139136Y-113306752D01*
X107105680Y-113427392D01*
X107088757Y-113488415D01*
X107077592Y-113528673D01*
X107077043Y-113533810D01*
X107057187Y-113719602D01*
X107053119Y-113757665D01*
X107053416Y-113762817D01*
X107053416Y-113762821D01*
X107062756Y-113924803D01*
X107046708Y-113993962D01*
X107026060Y-114021151D01*
X99506617Y-121540595D01*
X99444305Y-121574621D01*
X99417522Y-121577500D01*
X99287026Y-121577500D01*
X99218905Y-121557498D01*
X99193833Y-121536300D01*
X99040107Y-121367358D01*
X99040105Y-121367357D01*
X99036629Y-121363536D01*
X99032578Y-121360337D01*
X99032574Y-121360333D01*
X98971069Y-121311760D01*
X98901010Y-121256431D01*
X98859948Y-121198515D01*
X98856716Y-121127592D01*
X98892341Y-121066181D01*
X98905934Y-121054971D01*
X98979242Y-121002681D01*
X98983445Y-120999683D01*
X99152397Y-120831320D01*
X99173142Y-120802451D01*
X99288564Y-120641823D01*
X99291582Y-120637623D01*
X99340106Y-120539444D01*
X99394969Y-120428437D01*
X99394970Y-120428435D01*
X99397263Y-120423795D01*
X99466600Y-120195577D01*
X99468671Y-120179846D01*
X99497296Y-119962421D01*
X99497297Y-119962414D01*
X99497733Y-119959099D01*
X99499471Y-119888000D01*
X99480601Y-119658478D01*
X99480351Y-119655435D01*
X99480350Y-119655429D01*
X99479927Y-119650284D01*
X99421821Y-119418952D01*
X99409415Y-119390420D01*
X99328772Y-119204953D01*
X99328770Y-119204950D01*
X99326712Y-119200216D01*
X99197155Y-118999951D01*
X99168360Y-118968305D01*
X99040107Y-118827358D01*
X99040105Y-118827357D01*
X99036629Y-118823536D01*
X99032578Y-118820337D01*
X99032574Y-118820333D01*
X98941617Y-118748500D01*
X98901010Y-118716431D01*
X98859948Y-118658515D01*
X98856716Y-118587592D01*
X98892341Y-118526181D01*
X98905934Y-118514971D01*
X98979242Y-118462681D01*
X98983445Y-118459683D01*
X98994437Y-118448730D01*
X99131253Y-118312390D01*
X99152397Y-118291320D01*
X99189649Y-118239479D01*
X99288564Y-118101823D01*
X99291582Y-118097623D01*
X99306973Y-118066483D01*
X99394969Y-117888437D01*
X99394970Y-117888435D01*
X99397263Y-117883795D01*
X99466600Y-117655577D01*
X99468401Y-117641898D01*
X99497296Y-117422421D01*
X99497297Y-117422414D01*
X99497733Y-117419099D01*
X99497961Y-117409790D01*
X99499389Y-117351364D01*
X99499389Y-117351360D01*
X99499471Y-117348000D01*
X99489381Y-117225272D01*
X99480351Y-117115435D01*
X99480350Y-117115429D01*
X99479927Y-117110284D01*
X99421821Y-116878952D01*
X99408939Y-116849325D01*
X99328772Y-116664953D01*
X99328770Y-116664950D01*
X99326712Y-116660216D01*
X99197155Y-116459951D01*
X99189341Y-116451363D01*
X99040107Y-116287358D01*
X99040105Y-116287357D01*
X99036629Y-116283536D01*
X99032578Y-116280337D01*
X99032574Y-116280333D01*
X98969412Y-116230451D01*
X98901010Y-116176431D01*
X98859948Y-116118515D01*
X98856716Y-116047592D01*
X98892341Y-115986181D01*
X98905934Y-115974971D01*
X98922779Y-115962956D01*
X98983445Y-115919683D01*
X99019121Y-115884132D01*
X99088143Y-115815350D01*
X99152397Y-115751320D01*
X99173142Y-115722451D01*
X99288564Y-115561823D01*
X99291582Y-115557623D01*
X99321031Y-115498039D01*
X99394969Y-115348437D01*
X99394970Y-115348435D01*
X99397263Y-115343795D01*
X99466600Y-115115577D01*
X99474205Y-115057810D01*
X99497296Y-114882421D01*
X99497297Y-114882414D01*
X99497733Y-114879099D01*
X99497875Y-114873296D01*
X99499389Y-114811364D01*
X99499389Y-114811360D01*
X99499471Y-114808000D01*
X99486639Y-114651924D01*
X99480351Y-114575435D01*
X99480350Y-114575429D01*
X99479927Y-114570284D01*
X99421821Y-114338952D01*
X99408939Y-114309325D01*
X99328772Y-114124953D01*
X99328770Y-114124950D01*
X99326712Y-114120216D01*
X99197155Y-113919951D01*
X99192565Y-113914906D01*
X99134397Y-113850981D01*
X99103345Y-113787135D01*
X99111740Y-113716636D01*
X99156916Y-113661868D01*
X99179368Y-113649773D01*
X99196841Y-113642536D01*
X99322282Y-113546282D01*
X99418536Y-113420841D01*
X99471468Y-113293053D01*
X99475884Y-113282391D01*
X99475884Y-113282390D01*
X99479044Y-113274762D01*
X99494500Y-113157361D01*
X99494499Y-111378640D01*
X99479044Y-111261238D01*
X99418536Y-111115159D01*
X99322282Y-110989718D01*
X99196841Y-110893464D01*
X99050762Y-110832956D01*
X99042574Y-110831878D01*
X98937448Y-110818038D01*
X98937447Y-110818038D01*
X98933361Y-110817500D01*
X98044108Y-110817500D01*
X97154640Y-110817501D01*
X97150556Y-110818039D01*
X97150550Y-110818039D01*
X97045425Y-110831878D01*
X97045423Y-110831878D01*
X97037238Y-110832956D01*
X96891159Y-110893464D01*
X96765718Y-110989718D01*
X96669464Y-111115159D01*
X96608956Y-111261238D01*
X96593500Y-111378639D01*
X96593501Y-113157360D01*
X96594039Y-113161444D01*
X96594039Y-113161450D01*
X96596804Y-113182451D01*
X96608956Y-113274762D01*
X96669464Y-113420841D01*
X96765718Y-113546282D01*
X96891159Y-113642536D01*
X96907532Y-113649318D01*
X96962813Y-113693865D01*
X96985235Y-113761228D01*
X96967678Y-113830019D01*
X96950409Y-113852778D01*
X96912887Y-113892042D01*
X96909973Y-113896314D01*
X96909972Y-113896315D01*
X96852065Y-113981203D01*
X96778475Y-114089082D01*
X96736465Y-114179586D01*
X96695026Y-114268859D01*
X96678051Y-114305428D01*
X96614309Y-114535272D01*
X96613760Y-114540409D01*
X96596854Y-114698606D01*
X96588963Y-114772440D01*
X96589260Y-114777592D01*
X96589260Y-114777596D01*
X96602396Y-115005403D01*
X96602397Y-115005409D01*
X96602694Y-115010562D01*
X96612184Y-115052673D01*
X96652829Y-115233028D01*
X96655131Y-115243245D01*
X96657075Y-115248032D01*
X96657076Y-115248036D01*
X96695960Y-115343795D01*
X96744867Y-115464239D01*
X96747572Y-115468654D01*
X96747573Y-115468655D01*
X96752583Y-115476831D01*
X96869493Y-115667609D01*
X97025660Y-115847894D01*
X97029635Y-115851194D01*
X97029638Y-115851197D01*
X97188012Y-115982682D01*
X97227647Y-116041585D01*
X97229145Y-116112566D01*
X97192030Y-116173088D01*
X97183180Y-116180386D01*
X97126949Y-116222606D01*
X97077675Y-116259602D01*
X97035804Y-116303417D01*
X96950712Y-116392461D01*
X96912887Y-116432042D01*
X96778475Y-116629082D01*
X96735668Y-116721302D01*
X96688383Y-116823170D01*
X96678051Y-116845428D01*
X96614309Y-117075272D01*
X96613760Y-117080409D01*
X96589927Y-117303421D01*
X96588963Y-117312440D01*
X96589260Y-117317592D01*
X96589260Y-117317596D01*
X96602396Y-117545403D01*
X96602397Y-117545409D01*
X96602694Y-117550562D01*
X96655131Y-117783245D01*
X96657075Y-117788032D01*
X96657076Y-117788036D01*
X96695960Y-117883795D01*
X96744867Y-118004239D01*
X96869493Y-118207609D01*
X97025660Y-118387894D01*
X97029635Y-118391194D01*
X97029638Y-118391197D01*
X97188012Y-118522682D01*
X97227647Y-118581585D01*
X97229145Y-118652566D01*
X97192030Y-118713088D01*
X97183180Y-118720386D01*
X97077675Y-118799602D01*
X96912887Y-118972042D01*
X96909973Y-118976314D01*
X96909972Y-118976315D01*
X96872460Y-119031305D01*
X96778475Y-119169082D01*
X96678051Y-119385428D01*
X96614309Y-119615272D01*
X96588963Y-119852440D01*
X96589260Y-119857592D01*
X96589260Y-119857596D01*
X96602396Y-120085403D01*
X96602397Y-120085409D01*
X96602694Y-120090562D01*
X96603831Y-120095606D01*
X96652829Y-120313028D01*
X96655131Y-120323245D01*
X96657075Y-120328032D01*
X96657076Y-120328036D01*
X96695960Y-120423795D01*
X96744867Y-120544239D01*
X96869493Y-120747609D01*
X97025660Y-120927894D01*
X97029635Y-120931194D01*
X97029638Y-120931197D01*
X97188012Y-121062682D01*
X97227647Y-121121585D01*
X97229145Y-121192566D01*
X97192030Y-121253088D01*
X97183180Y-121260386D01*
X97077675Y-121339602D01*
X96912887Y-121512042D01*
X96909973Y-121516314D01*
X96909972Y-121516315D01*
X96841924Y-121616069D01*
X96778475Y-121709082D01*
X96678051Y-121925428D01*
X96614309Y-122155272D01*
X96588963Y-122392440D01*
X89408000Y-122392440D01*
X89408000Y-104821187D01*
X89870059Y-104821187D01*
X89895536Y-105112399D01*
X89908404Y-105169966D01*
X89953516Y-105371783D01*
X89959305Y-105397683D01*
X89960749Y-105401608D01*
X89960750Y-105401611D01*
X89988848Y-105477978D01*
X90060244Y-105672027D01*
X90062188Y-105675715D01*
X90062192Y-105675723D01*
X90187156Y-105912738D01*
X90196580Y-105930612D01*
X90365918Y-106168893D01*
X90565283Y-106382686D01*
X90791171Y-106568233D01*
X91039616Y-106722275D01*
X91306250Y-106842105D01*
X91392923Y-106867944D01*
X91582394Y-106924428D01*
X91582402Y-106924430D01*
X91586391Y-106925619D01*
X91590508Y-106926271D01*
X91590512Y-106926272D01*
X91871649Y-106970799D01*
X91871654Y-106970799D01*
X91875117Y-106971348D01*
X91924069Y-106973571D01*
X91965128Y-106975436D01*
X91965147Y-106975436D01*
X91966547Y-106975500D01*
X92149151Y-106975500D01*
X92151243Y-106975361D01*
X92151245Y-106975361D01*
X92362511Y-106961329D01*
X92366682Y-106961052D01*
X92370776Y-106960227D01*
X92370780Y-106960226D01*
X92508095Y-106932538D01*
X92653239Y-106903272D01*
X92929637Y-106808100D01*
X92933370Y-106806231D01*
X92933374Y-106806229D01*
X93187276Y-106679084D01*
X93187278Y-106679083D01*
X93191020Y-106677209D01*
X93348135Y-106570434D01*
X93429336Y-106515250D01*
X93429339Y-106515248D01*
X93432795Y-106512899D01*
X93650716Y-106318055D01*
X93840953Y-106096102D01*
X93888265Y-106023248D01*
X93997892Y-105854437D01*
X93997894Y-105854434D01*
X94000164Y-105850938D01*
X94125552Y-105586871D01*
X94133393Y-105562451D01*
X94213636Y-105312521D01*
X94214914Y-105308541D01*
X94257290Y-105073028D01*
X94265943Y-105024940D01*
X94265944Y-105024934D01*
X94266681Y-105020836D01*
X94279941Y-104728813D01*
X94279168Y-104719971D01*
X94269867Y-104613665D01*
X124579119Y-104613665D01*
X124579416Y-104618817D01*
X124579416Y-104618821D01*
X124584864Y-104713296D01*
X124592376Y-104843580D01*
X124593513Y-104848626D01*
X124593514Y-104848632D01*
X124615226Y-104944975D01*
X124643006Y-105068242D01*
X124644948Y-105073024D01*
X124644949Y-105073028D01*
X124682427Y-105165325D01*
X124729649Y-105281618D01*
X124849979Y-105477978D01*
X125000763Y-105652048D01*
X125177953Y-105799154D01*
X125376790Y-105915345D01*
X125591934Y-105997501D01*
X125597000Y-105998532D01*
X125597001Y-105998532D01*
X125697697Y-106019018D01*
X125817607Y-106043414D01*
X125947352Y-106048172D01*
X126042585Y-106051664D01*
X126042589Y-106051664D01*
X126047749Y-106051853D01*
X126052869Y-106051197D01*
X126052871Y-106051197D01*
X126122272Y-106042307D01*
X126276178Y-106022591D01*
X126281126Y-106021106D01*
X126281133Y-106021105D01*
X126491811Y-105957898D01*
X126491810Y-105957898D01*
X126496761Y-105956413D01*
X126703574Y-105855096D01*
X126891062Y-105721363D01*
X127054190Y-105558803D01*
X127112269Y-105477978D01*
X127185559Y-105375983D01*
X127188577Y-105371783D01*
X127290615Y-105165325D01*
X127333268Y-105024940D01*
X127356059Y-104949927D01*
X127356060Y-104949921D01*
X127357563Y-104944975D01*
X127373860Y-104821187D01*
X166070059Y-104821187D01*
X166095536Y-105112399D01*
X166108404Y-105169966D01*
X166153516Y-105371783D01*
X166159305Y-105397683D01*
X166160749Y-105401608D01*
X166160750Y-105401611D01*
X166188848Y-105477978D01*
X166260244Y-105672027D01*
X166262188Y-105675715D01*
X166262192Y-105675723D01*
X166387156Y-105912738D01*
X166396580Y-105930612D01*
X166565918Y-106168893D01*
X166765283Y-106382686D01*
X166991171Y-106568233D01*
X167239616Y-106722275D01*
X167506250Y-106842105D01*
X167592923Y-106867944D01*
X167782394Y-106924428D01*
X167782402Y-106924430D01*
X167786391Y-106925619D01*
X167790508Y-106926271D01*
X167790512Y-106926272D01*
X168071649Y-106970799D01*
X168071654Y-106970799D01*
X168075117Y-106971348D01*
X168124069Y-106973571D01*
X168165128Y-106975436D01*
X168165147Y-106975436D01*
X168166547Y-106975500D01*
X168349151Y-106975500D01*
X168351243Y-106975361D01*
X168351245Y-106975361D01*
X168562511Y-106961329D01*
X168566682Y-106961052D01*
X168570776Y-106960227D01*
X168570780Y-106960226D01*
X168708095Y-106932538D01*
X168853239Y-106903272D01*
X169129637Y-106808100D01*
X169133370Y-106806231D01*
X169133374Y-106806229D01*
X169387276Y-106679084D01*
X169387278Y-106679083D01*
X169391020Y-106677209D01*
X169548135Y-106570434D01*
X169629336Y-106515250D01*
X169629339Y-106515248D01*
X169632795Y-106512899D01*
X169850716Y-106318055D01*
X170040953Y-106096102D01*
X170088265Y-106023248D01*
X170197892Y-105854437D01*
X170197894Y-105854434D01*
X170200164Y-105850938D01*
X170325552Y-105586871D01*
X170333393Y-105562451D01*
X170413636Y-105312521D01*
X170414914Y-105308541D01*
X170457290Y-105073028D01*
X170465943Y-105024940D01*
X170465944Y-105024934D01*
X170466681Y-105020836D01*
X170479941Y-104728813D01*
X170479168Y-104719971D01*
X170454828Y-104441767D01*
X170454464Y-104437601D01*
X170400263Y-104195120D01*
X170391609Y-104156405D01*
X170391608Y-104156402D01*
X170390695Y-104152317D01*
X170289756Y-103877973D01*
X170287812Y-103874285D01*
X170287808Y-103874277D01*
X170155373Y-103623092D01*
X170155372Y-103623091D01*
X170153420Y-103619388D01*
X169984082Y-103381107D01*
X169784717Y-103167314D01*
X169558829Y-102981767D01*
X169310384Y-102827725D01*
X169043750Y-102707895D01*
X168957077Y-102682056D01*
X168767606Y-102625572D01*
X168767598Y-102625570D01*
X168763609Y-102624381D01*
X168759492Y-102623729D01*
X168759488Y-102623728D01*
X168478351Y-102579201D01*
X168478346Y-102579201D01*
X168474883Y-102578652D01*
X168425931Y-102576429D01*
X168384872Y-102574564D01*
X168384853Y-102574564D01*
X168383453Y-102574500D01*
X168200849Y-102574500D01*
X168198757Y-102574639D01*
X168198755Y-102574639D01*
X168045316Y-102584830D01*
X167983318Y-102588948D01*
X167979224Y-102589773D01*
X167979220Y-102589774D01*
X167841905Y-102617462D01*
X167696761Y-102646728D01*
X167420363Y-102741900D01*
X167416630Y-102743769D01*
X167416626Y-102743771D01*
X167244581Y-102829925D01*
X167158980Y-102872791D01*
X167155515Y-102875146D01*
X166998627Y-102981767D01*
X166917205Y-103037101D01*
X166699284Y-103231945D01*
X166509047Y-103453898D01*
X166506773Y-103457400D01*
X166506772Y-103457401D01*
X166398549Y-103624051D01*
X166349836Y-103699062D01*
X166224448Y-103963129D01*
X166223169Y-103967112D01*
X166223168Y-103967115D01*
X166171715Y-104127373D01*
X166135086Y-104241459D01*
X166083319Y-104529164D01*
X166070059Y-104821187D01*
X127373860Y-104821187D01*
X127386021Y-104728813D01*
X127387185Y-104719971D01*
X127387185Y-104719965D01*
X127387622Y-104716649D01*
X127389300Y-104648000D01*
X127370430Y-104418478D01*
X127314326Y-104195120D01*
X127222496Y-103983924D01*
X127097405Y-103790563D01*
X127076774Y-103767889D01*
X126945890Y-103624051D01*
X126945889Y-103624050D01*
X126942412Y-103620229D01*
X126938361Y-103617030D01*
X126938357Y-103617026D01*
X126765735Y-103480697D01*
X126765730Y-103480693D01*
X126761681Y-103477496D01*
X126757165Y-103475003D01*
X126757162Y-103475001D01*
X126564589Y-103368695D01*
X126564585Y-103368693D01*
X126560065Y-103366198D01*
X126555196Y-103364474D01*
X126555192Y-103364472D01*
X126347853Y-103291049D01*
X126347849Y-103291048D01*
X126342978Y-103289323D01*
X126337885Y-103288416D01*
X126337882Y-103288415D01*
X126241707Y-103271284D01*
X126116250Y-103248937D01*
X126029802Y-103247881D01*
X125891141Y-103246186D01*
X125891139Y-103246186D01*
X125885971Y-103246123D01*
X125658325Y-103280958D01*
X125439424Y-103352506D01*
X125434832Y-103354896D01*
X125434833Y-103354896D01*
X125250744Y-103450727D01*
X125235149Y-103458845D01*
X125050984Y-103597119D01*
X124891877Y-103763616D01*
X124762099Y-103953863D01*
X124759923Y-103958552D01*
X124759919Y-103958558D01*
X124668082Y-104156405D01*
X124665136Y-104162752D01*
X124603592Y-104384673D01*
X124579119Y-104613665D01*
X94269867Y-104613665D01*
X94254828Y-104441767D01*
X94254464Y-104437601D01*
X94200263Y-104195120D01*
X94191609Y-104156405D01*
X94191608Y-104156402D01*
X94190695Y-104152317D01*
X94089756Y-103877973D01*
X94087812Y-103874285D01*
X94087808Y-103874277D01*
X93955373Y-103623092D01*
X93955372Y-103623091D01*
X93953420Y-103619388D01*
X93784082Y-103381107D01*
X93584717Y-103167314D01*
X93358829Y-102981767D01*
X93110384Y-102827725D01*
X92843750Y-102707895D01*
X92757077Y-102682056D01*
X92567606Y-102625572D01*
X92567598Y-102625570D01*
X92563609Y-102624381D01*
X92559492Y-102623729D01*
X92559488Y-102623728D01*
X92278351Y-102579201D01*
X92278346Y-102579201D01*
X92274883Y-102578652D01*
X92225931Y-102576429D01*
X92184872Y-102574564D01*
X92184853Y-102574564D01*
X92183453Y-102574500D01*
X92000849Y-102574500D01*
X91998757Y-102574639D01*
X91998755Y-102574639D01*
X91845316Y-102584830D01*
X91783318Y-102588948D01*
X91779224Y-102589773D01*
X91779220Y-102589774D01*
X91641905Y-102617462D01*
X91496761Y-102646728D01*
X91220363Y-102741900D01*
X91216630Y-102743769D01*
X91216626Y-102743771D01*
X91044581Y-102829925D01*
X90958980Y-102872791D01*
X90955515Y-102875146D01*
X90798627Y-102981767D01*
X90717205Y-103037101D01*
X90499284Y-103231945D01*
X90309047Y-103453898D01*
X90306773Y-103457400D01*
X90306772Y-103457401D01*
X90198549Y-103624051D01*
X90149836Y-103699062D01*
X90024448Y-103963129D01*
X90023169Y-103967112D01*
X90023168Y-103967115D01*
X89971715Y-104127373D01*
X89935086Y-104241459D01*
X89883319Y-104529164D01*
X89870059Y-104821187D01*
X89408000Y-104821187D01*
X89408000Y-102234000D01*
X89428002Y-102165879D01*
X89481658Y-102119386D01*
X89534000Y-102108000D01*
X170816000Y-102108000D01*
X170884121Y-102128002D01*
G37*
%TD.AperFunction*%
M02*
