%TF.GenerationSoftware,KiCad,Pcbnew,7.0.2*%
%TF.CreationDate,2023-05-19T14:46:58-05:00*%
%TF.ProjectId,LED Driver,4c454420-4472-4697-9665-722e6b696361,v1a*%
%TF.SameCoordinates,Original*%
%TF.FileFunction,Soldermask,Top*%
%TF.FilePolarity,Negative*%
%FSLAX46Y46*%
G04 Gerber Fmt 4.6, Leading zero omitted, Abs format (unit mm)*
G04 Created by KiCad (PCBNEW 7.0.2) date 2023-05-19 14:46:58*
%MOMM*%
%LPD*%
G01*
G04 APERTURE LIST*
G04 Aperture macros list*
%AMRoundRect*
0 Rectangle with rounded corners*
0 $1 Rounding radius*
0 $2 $3 $4 $5 $6 $7 $8 $9 X,Y pos of 4 corners*
0 Add a 4 corners polygon primitive as box body*
4,1,4,$2,$3,$4,$5,$6,$7,$8,$9,$2,$3,0*
0 Add four circle primitives for the rounded corners*
1,1,$1+$1,$2,$3*
1,1,$1+$1,$4,$5*
1,1,$1+$1,$6,$7*
1,1,$1+$1,$8,$9*
0 Add four rect primitives between the rounded corners*
20,1,$1+$1,$2,$3,$4,$5,0*
20,1,$1+$1,$4,$5,$6,$7,0*
20,1,$1+$1,$6,$7,$8,$9,0*
20,1,$1+$1,$8,$9,$2,$3,0*%
G04 Aperture macros list end*
%ADD10C,1.600000*%
%ADD11O,1.600000X1.600000*%
%ADD12C,5.600000*%
%ADD13R,1.600000X1.600000*%
%ADD14R,2.000000X2.000000*%
%ADD15RoundRect,0.300000X-0.300000X-0.400000X0.300000X-0.400000X0.300000X0.400000X-0.300000X0.400000X0*%
%ADD16RoundRect,0.350000X-2.200000X-0.350000X2.200000X-0.350000X2.200000X0.350000X-2.200000X0.350000X0*%
%ADD17C,1.700000*%
%ADD18RoundRect,1.375000X-2.275000X-1.375000X2.275000X-1.375000X2.275000X1.375000X-2.275000X1.375000X0*%
%ADD19C,1.800000*%
%ADD20R,1.700000X1.700000*%
%ADD21O,1.700000X1.700000*%
G04 APERTURE END LIST*
D10*
%TO.C,C2*%
X122936000Y-71120000D03*
X122936000Y-66120000D03*
%TD*%
%TO.C,R1*%
X95250000Y-46482000D03*
D11*
X105410000Y-46482000D03*
%TD*%
D12*
%TO.C,J3*%
X62738000Y-37846000D03*
%TD*%
%TO.C,J4*%
X136652000Y-37846000D03*
%TD*%
D13*
%TO.C,U1*%
X86106000Y-58674000D03*
D11*
X86106000Y-61214000D03*
X86106000Y-63754000D03*
X86106000Y-66294000D03*
X93726000Y-66294000D03*
X93726000Y-63754000D03*
X93726000Y-61214000D03*
X93726000Y-58674000D03*
%TD*%
D10*
%TO.C,C1*%
X105410000Y-60960000D03*
X110410000Y-60960000D03*
%TD*%
D14*
%TO.C,J2*%
X96520000Y-69088000D03*
%TD*%
D12*
%TO.C,J5*%
X136652000Y-73660000D03*
%TD*%
D10*
%TO.C,R5*%
X86106000Y-46482000D03*
D11*
X75946000Y-46482000D03*
%TD*%
D15*
%TO.C,U2*%
X126540000Y-54372000D03*
D16*
X130540000Y-54372000D03*
D17*
X129540000Y-49022000D03*
D18*
X129540000Y-49022000D03*
%TD*%
D10*
%TO.C,R3*%
X115570000Y-54356000D03*
D11*
X105410000Y-54356000D03*
%TD*%
D19*
%TO.C,J1*%
X61584000Y-53674000D03*
X61584000Y-63674000D03*
D20*
X68834000Y-53674000D03*
D21*
X68834000Y-56174000D03*
X68834000Y-58674000D03*
X68834000Y-61174000D03*
X68834000Y-63674000D03*
X71334000Y-63674000D03*
X71334000Y-61174000D03*
X71334000Y-58674000D03*
X71334000Y-56174000D03*
X71334000Y-53674000D03*
%TD*%
D12*
%TO.C,J6*%
X62738000Y-73660000D03*
%TD*%
D10*
%TO.C,R6*%
X86106000Y-42926000D03*
D11*
X75946000Y-42926000D03*
%TD*%
D10*
%TO.C,R4*%
X115570000Y-71120000D03*
D11*
X115570000Y-60960000D03*
%TD*%
M02*
