%TF.GenerationSoftware,KiCad,Pcbnew,7.0.2*%
%TF.CreationDate,2023-05-19T14:46:58-05:00*%
%TF.ProjectId,LED Driver,4c454420-4472-4697-9665-722e6b696361,v1a*%
%TF.SameCoordinates,Original*%
%TF.FileFunction,Copper,L1,Top*%
%TF.FilePolarity,Positive*%
%FSLAX46Y46*%
G04 Gerber Fmt 4.6, Leading zero omitted, Abs format (unit mm)*
G04 Created by KiCad (PCBNEW 7.0.2) date 2023-05-19 14:46:58*
%MOMM*%
%LPD*%
G01*
G04 APERTURE LIST*
G04 Aperture macros list*
%AMRoundRect*
0 Rectangle with rounded corners*
0 $1 Rounding radius*
0 $2 $3 $4 $5 $6 $7 $8 $9 X,Y pos of 4 corners*
0 Add a 4 corners polygon primitive as box body*
4,1,4,$2,$3,$4,$5,$6,$7,$8,$9,$2,$3,0*
0 Add four circle primitives for the rounded corners*
1,1,$1+$1,$2,$3*
1,1,$1+$1,$4,$5*
1,1,$1+$1,$6,$7*
1,1,$1+$1,$8,$9*
0 Add four rect primitives between the rounded corners*
20,1,$1+$1,$2,$3,$4,$5,0*
20,1,$1+$1,$4,$5,$6,$7,0*
20,1,$1+$1,$6,$7,$8,$9,0*
20,1,$1+$1,$8,$9,$2,$3,0*%
G04 Aperture macros list end*
%TA.AperFunction,ComponentPad*%
%ADD10C,1.600000*%
%TD*%
%TA.AperFunction,ComponentPad*%
%ADD11O,1.600000X1.600000*%
%TD*%
%TA.AperFunction,ComponentPad*%
%ADD12C,5.600000*%
%TD*%
%TA.AperFunction,ComponentPad*%
%ADD13R,1.600000X1.600000*%
%TD*%
%TA.AperFunction,SMDPad,CuDef*%
%ADD14R,2.000000X2.000000*%
%TD*%
%TA.AperFunction,SMDPad,CuDef*%
%ADD15RoundRect,0.300000X-0.300000X-0.400000X0.300000X-0.400000X0.300000X0.400000X-0.300000X0.400000X0*%
%TD*%
%TA.AperFunction,SMDPad,CuDef*%
%ADD16RoundRect,0.350000X-2.200000X-0.350000X2.200000X-0.350000X2.200000X0.350000X-2.200000X0.350000X0*%
%TD*%
%TA.AperFunction,ComponentPad*%
%ADD17C,1.700000*%
%TD*%
%TA.AperFunction,SMDPad,CuDef*%
%ADD18RoundRect,1.375000X-2.275000X-1.375000X2.275000X-1.375000X2.275000X1.375000X-2.275000X1.375000X0*%
%TD*%
%TA.AperFunction,ComponentPad*%
%ADD19R,1.700000X1.700000*%
%TD*%
%TA.AperFunction,ComponentPad*%
%ADD20O,1.700000X1.700000*%
%TD*%
%TA.AperFunction,Conductor*%
%ADD21C,0.500000*%
%TD*%
G04 APERTURE END LIST*
D10*
%TO.P,C2,1*%
%TO.N,/LED+*%
X122936000Y-71120000D03*
%TO.P,C2,2*%
%TO.N,/GATE*%
X122936000Y-66120000D03*
%TD*%
%TO.P,R1,1*%
%TO.N,GND*%
X95250000Y-46482000D03*
D11*
%TO.P,R1,2*%
%TO.N,/V+*%
X105410000Y-46482000D03*
%TD*%
D12*
%TO.P,J3,1,Pin_1*%
%TO.N,GND*%
X62738000Y-37846000D03*
%TD*%
%TO.P,J4,1,Pin_1*%
%TO.N,GND*%
X136652000Y-37846000D03*
%TD*%
D13*
%TO.P,U1,1,COM*%
%TO.N,GND*%
X86106000Y-58674000D03*
D11*
%TO.P,U1,2,-IN*%
%TO.N,/LED-*%
X86106000Y-61214000D03*
%TO.P,U1,3,+IN*%
%TO.N,/CTRL*%
X86106000Y-63754000D03*
%TO.P,U1,4,V-*%
%TO.N,/V-*%
X86106000Y-66294000D03*
%TO.P,U1,5,Status*%
%TO.N,/STATUS*%
X93726000Y-66294000D03*
%TO.P,U1,6,OUT*%
%TO.N,/OUT*%
X93726000Y-63754000D03*
%TO.P,U1,7,V+*%
%TO.N,/V+*%
X93726000Y-61214000D03*
%TO.P,U1,8,E/D*%
%TO.N,/ENBL*%
X93726000Y-58674000D03*
%TD*%
D10*
%TO.P,C1,1*%
%TO.N,/OUT*%
X105410000Y-60960000D03*
%TO.P,C1,2*%
%TO.N,/GATE*%
X110410000Y-60960000D03*
%TD*%
D14*
%TO.P,J2,1,Pin_1*%
%TO.N,/STATUS*%
X96520000Y-69088000D03*
%TD*%
D12*
%TO.P,J5,1,Pin_1*%
%TO.N,GND*%
X136652000Y-73660000D03*
%TD*%
D10*
%TO.P,R5,1*%
%TO.N,/LED-*%
X86106000Y-46482000D03*
D11*
%TO.P,R5,2*%
%TO.N,/LED+*%
X75946000Y-46482000D03*
%TD*%
D15*
%TO.P,U2,1,Gate*%
%TO.N,/GATE*%
X126540000Y-54372000D03*
D16*
%TO.P,U2,2,Source*%
%TO.N,/LED+*%
X130540000Y-54372000D03*
D17*
%TO.P,U2,3,Drain*%
%TO.N,/V+*%
X129540000Y-49022000D03*
D18*
X129540000Y-49022000D03*
%TD*%
D10*
%TO.P,R3,1*%
%TO.N,/GATE*%
X115570000Y-54356000D03*
D11*
%TO.P,R3,2*%
%TO.N,/OUT*%
X105410000Y-54356000D03*
%TD*%
D19*
%TO.P,J1,1,SNS+*%
%TO.N,/LED-*%
X68834000Y-53674000D03*
D20*
%TO.P,J1,2,SNS-*%
%TO.N,GND*%
X68834000Y-56174000D03*
%TO.P,J1,3,GND*%
X68834000Y-58674000D03*
%TO.P,J1,4,ENBL*%
%TO.N,/ENBL*%
X68834000Y-61174000D03*
%TO.P,J1,5,V+*%
%TO.N,/V+*%
X68834000Y-63674000D03*
%TO.P,J1,6,V-*%
%TO.N,/V-*%
X71334000Y-63674000D03*
%TO.P,J1,7,CTRL*%
%TO.N,/CTRL*%
X71334000Y-61174000D03*
%TO.P,J1,8,GND*%
%TO.N,GND*%
X71334000Y-58674000D03*
%TO.P,J1,9,LED+*%
%TO.N,/LED+*%
X71334000Y-56174000D03*
%TO.P,J1,10,LED-*%
%TO.N,/LED-*%
X71334000Y-53674000D03*
%TD*%
D12*
%TO.P,J6,1,Pin_1*%
%TO.N,GND*%
X62738000Y-73660000D03*
%TD*%
D10*
%TO.P,R6,1*%
%TO.N,/V-*%
X86106000Y-42926000D03*
D11*
%TO.P,R6,2*%
%TO.N,GND*%
X75946000Y-42926000D03*
%TD*%
D10*
%TO.P,R4,1*%
%TO.N,/LED+*%
X115570000Y-71120000D03*
D11*
%TO.P,R4,2*%
%TO.N,/GATE*%
X115570000Y-60960000D03*
%TD*%
D21*
%TO.N,/OUT*%
X93726000Y-63754000D02*
X102616000Y-63754000D01*
X102616000Y-63754000D02*
X105410000Y-60960000D01*
X105410000Y-54356000D02*
X105410000Y-60960000D01*
%TO.N,/GATE*%
X110410000Y-60960000D02*
X115570000Y-60960000D01*
X115570000Y-60960000D02*
X115570000Y-54356000D01*
X117776000Y-60960000D02*
X122936000Y-66120000D01*
X115570000Y-54356000D02*
X126524000Y-54356000D01*
X115570000Y-60960000D02*
X117776000Y-60960000D01*
%TO.N,/LED+*%
X130540000Y-63516000D02*
X130540000Y-54372000D01*
X75946000Y-51562000D02*
X75946000Y-46482000D01*
X71334000Y-56174000D02*
X75946000Y-51562000D01*
X128556000Y-54356000D02*
X128572000Y-54372000D01*
X122936000Y-71120000D02*
X130540000Y-63516000D01*
%TO.N,/V-*%
X88856000Y-63544000D02*
X86106000Y-66294000D01*
X86106000Y-42926000D02*
X88856000Y-45676000D01*
X88856000Y-45676000D02*
X88856000Y-63544000D01*
X71334000Y-63674000D02*
X83486000Y-63674000D01*
X83486000Y-63674000D02*
X86106000Y-66294000D01*
%TO.N,/LED-*%
X87756000Y-60695370D02*
X87237370Y-61214000D01*
X87756000Y-48132000D02*
X87756000Y-60695370D01*
X86106000Y-46482000D02*
X87756000Y-48132000D01*
X87237370Y-61214000D02*
X86106000Y-61214000D01*
%TO.N,/STATUS*%
X93726000Y-66294000D02*
X96520000Y-69088000D01*
%TO.N,/CTRL*%
X84926000Y-62574000D02*
X86106000Y-63754000D01*
X72734000Y-62574000D02*
X84926000Y-62574000D01*
X71334000Y-61174000D02*
X71668000Y-60840000D01*
X71334000Y-61174000D02*
X72734000Y-62574000D01*
%TD*%
%TA.AperFunction,Conductor*%
%TO.N,GND*%
G36*
X70874507Y-58464156D02*
G01*
X70834000Y-58602111D01*
X70834000Y-58745889D01*
X70874507Y-58883844D01*
X70902884Y-58928000D01*
X69265116Y-58928000D01*
X69293493Y-58883844D01*
X69334000Y-58745889D01*
X69334000Y-58602111D01*
X69293493Y-58464156D01*
X69265116Y-58420000D01*
X70902884Y-58420000D01*
X70874507Y-58464156D01*
G37*
%TD.AperFunction*%
%TA.AperFunction,Conductor*%
G36*
X69088000Y-58240325D02*
G01*
X68976315Y-58189320D01*
X68869763Y-58174000D01*
X68798237Y-58174000D01*
X68691685Y-58189320D01*
X68580000Y-58240325D01*
X68580000Y-56607674D01*
X68691685Y-56658680D01*
X68798237Y-56674000D01*
X68869763Y-56674000D01*
X68976315Y-56658680D01*
X69088000Y-56607674D01*
X69088000Y-58240325D01*
G37*
%TD.AperFunction*%
%TA.AperFunction,Conductor*%
G36*
X140901621Y-33558502D02*
G01*
X140948114Y-33612158D01*
X140959500Y-33664500D01*
X140959500Y-77841500D01*
X140939498Y-77909621D01*
X140885842Y-77956114D01*
X140833500Y-77967500D01*
X58556500Y-77967500D01*
X58488379Y-77947498D01*
X58441886Y-77893842D01*
X58430500Y-77841500D01*
X58430500Y-73663412D01*
X59425326Y-73663412D01*
X59444375Y-74014763D01*
X59445114Y-74021560D01*
X59502040Y-74368793D01*
X59503508Y-74375461D01*
X59597646Y-74714514D01*
X59599821Y-74720970D01*
X59730069Y-75047865D01*
X59732925Y-75054041D01*
X59897756Y-75364946D01*
X59901264Y-75370776D01*
X60098738Y-75662029D01*
X60102862Y-75667453D01*
X60226168Y-75812620D01*
X61437994Y-74600794D01*
X61439570Y-74603365D01*
X61603130Y-74794870D01*
X61794635Y-74958430D01*
X61797204Y-74960004D01*
X60582502Y-76174706D01*
X60590816Y-76182581D01*
X60596020Y-76187002D01*
X60876142Y-76399946D01*
X60881798Y-76403781D01*
X61183302Y-76585189D01*
X61189333Y-76588387D01*
X61508685Y-76736135D01*
X61515017Y-76738658D01*
X61848479Y-76851014D01*
X61855051Y-76852839D01*
X62198707Y-76928483D01*
X62205431Y-76929585D01*
X62555246Y-76967630D01*
X62562060Y-76968000D01*
X62913940Y-76968000D01*
X62920753Y-76967630D01*
X63270568Y-76929585D01*
X63277292Y-76928483D01*
X63620948Y-76852839D01*
X63627520Y-76851014D01*
X63960982Y-76738658D01*
X63967314Y-76736135D01*
X64286666Y-76588387D01*
X64292697Y-76585189D01*
X64594201Y-76403781D01*
X64599857Y-76399946D01*
X64879987Y-76186996D01*
X64885171Y-76182592D01*
X64893496Y-76174706D01*
X63678795Y-74960004D01*
X63681365Y-74958430D01*
X63872870Y-74794870D01*
X64036430Y-74603365D01*
X64038005Y-74600794D01*
X65249831Y-75812620D01*
X65373139Y-75667451D01*
X65377259Y-75662031D01*
X65574735Y-75370776D01*
X65578243Y-75364946D01*
X65743074Y-75054041D01*
X65745930Y-75047865D01*
X65876178Y-74720970D01*
X65878353Y-74714514D01*
X65972491Y-74375461D01*
X65973959Y-74368793D01*
X66030885Y-74021560D01*
X66031624Y-74014763D01*
X66050674Y-73663412D01*
X133339326Y-73663412D01*
X133358375Y-74014763D01*
X133359114Y-74021560D01*
X133416040Y-74368793D01*
X133417508Y-74375461D01*
X133511646Y-74714514D01*
X133513821Y-74720970D01*
X133644069Y-75047865D01*
X133646925Y-75054041D01*
X133811756Y-75364946D01*
X133815264Y-75370776D01*
X134012738Y-75662029D01*
X134016862Y-75667453D01*
X134140168Y-75812620D01*
X135351994Y-74600794D01*
X135353570Y-74603365D01*
X135517130Y-74794870D01*
X135708635Y-74958430D01*
X135711204Y-74960004D01*
X134496502Y-76174706D01*
X134504816Y-76182581D01*
X134510020Y-76187002D01*
X134790142Y-76399946D01*
X134795798Y-76403781D01*
X135097302Y-76585189D01*
X135103333Y-76588387D01*
X135422685Y-76736135D01*
X135429017Y-76738658D01*
X135762479Y-76851014D01*
X135769051Y-76852839D01*
X136112707Y-76928483D01*
X136119431Y-76929585D01*
X136469246Y-76967630D01*
X136476060Y-76968000D01*
X136827940Y-76968000D01*
X136834753Y-76967630D01*
X137184568Y-76929585D01*
X137191292Y-76928483D01*
X137534948Y-76852839D01*
X137541520Y-76851014D01*
X137874982Y-76738658D01*
X137881314Y-76736135D01*
X138200666Y-76588387D01*
X138206697Y-76585189D01*
X138508201Y-76403781D01*
X138513857Y-76399946D01*
X138793987Y-76186996D01*
X138799171Y-76182592D01*
X138807496Y-76174706D01*
X137592795Y-74960004D01*
X137595365Y-74958430D01*
X137786870Y-74794870D01*
X137950430Y-74603365D01*
X137952005Y-74600794D01*
X139163831Y-75812620D01*
X139287139Y-75667451D01*
X139291259Y-75662031D01*
X139488735Y-75370776D01*
X139492243Y-75364946D01*
X139657074Y-75054041D01*
X139659930Y-75047865D01*
X139790178Y-74720970D01*
X139792353Y-74714514D01*
X139886491Y-74375461D01*
X139887959Y-74368793D01*
X139944885Y-74021560D01*
X139945624Y-74014763D01*
X139964674Y-73663412D01*
X139964674Y-73656587D01*
X139945624Y-73305236D01*
X139944885Y-73298439D01*
X139887959Y-72951206D01*
X139886491Y-72944538D01*
X139792353Y-72605485D01*
X139790178Y-72599029D01*
X139659930Y-72272134D01*
X139657074Y-72265958D01*
X139492243Y-71955053D01*
X139488735Y-71949223D01*
X139291261Y-71657970D01*
X139287130Y-71652536D01*
X139163831Y-71507377D01*
X137952004Y-72719204D01*
X137950430Y-72716635D01*
X137786870Y-72525130D01*
X137595365Y-72361570D01*
X137592794Y-72359994D01*
X138807496Y-71145292D01*
X138799183Y-71137418D01*
X138793979Y-71132997D01*
X138513857Y-70920053D01*
X138508201Y-70916218D01*
X138206697Y-70734810D01*
X138200666Y-70731612D01*
X137881314Y-70583864D01*
X137874982Y-70581341D01*
X137541520Y-70468985D01*
X137534948Y-70467160D01*
X137191292Y-70391516D01*
X137184568Y-70390414D01*
X136834753Y-70352369D01*
X136827940Y-70352000D01*
X136476060Y-70352000D01*
X136469246Y-70352369D01*
X136119431Y-70390414D01*
X136112707Y-70391516D01*
X135769051Y-70467160D01*
X135762479Y-70468985D01*
X135429017Y-70581341D01*
X135422685Y-70583864D01*
X135103333Y-70731612D01*
X135097302Y-70734810D01*
X134795798Y-70916218D01*
X134790142Y-70920053D01*
X134510014Y-71133001D01*
X134504823Y-71137411D01*
X134496502Y-71145292D01*
X135711205Y-72359995D01*
X135708635Y-72361570D01*
X135517130Y-72525130D01*
X135353570Y-72716635D01*
X135351995Y-72719205D01*
X134140167Y-71507377D01*
X134140166Y-71507378D01*
X134016869Y-71652536D01*
X134012738Y-71657970D01*
X133815264Y-71949223D01*
X133811756Y-71955053D01*
X133646925Y-72265958D01*
X133644069Y-72272134D01*
X133513821Y-72599029D01*
X133511646Y-72605485D01*
X133417508Y-72944538D01*
X133416040Y-72951206D01*
X133359114Y-73298439D01*
X133358375Y-73305236D01*
X133339326Y-73656587D01*
X133339326Y-73663412D01*
X66050674Y-73663412D01*
X66050674Y-73656587D01*
X66031624Y-73305236D01*
X66030885Y-73298439D01*
X65973959Y-72951206D01*
X65972491Y-72944538D01*
X65878353Y-72605485D01*
X65876178Y-72599029D01*
X65745930Y-72272134D01*
X65743074Y-72265958D01*
X65578243Y-71955053D01*
X65574735Y-71949223D01*
X65377261Y-71657970D01*
X65373130Y-71652536D01*
X65249831Y-71507377D01*
X64038004Y-72719204D01*
X64036430Y-72716635D01*
X63872870Y-72525130D01*
X63681365Y-72361570D01*
X63678794Y-72359994D01*
X64893496Y-71145292D01*
X64885183Y-71137418D01*
X64879979Y-71132997D01*
X64862882Y-71120000D01*
X114164700Y-71120000D01*
X114183866Y-71351305D01*
X114183866Y-71351308D01*
X114183867Y-71351309D01*
X114240842Y-71576299D01*
X114334076Y-71788849D01*
X114461021Y-71983154D01*
X114599520Y-72133604D01*
X114618216Y-72153913D01*
X114715949Y-72229981D01*
X114801375Y-72296471D01*
X114921668Y-72361570D01*
X115005497Y-72406936D01*
X115225019Y-72482298D01*
X115453951Y-72520500D01*
X115453954Y-72520500D01*
X115686046Y-72520500D01*
X115686049Y-72520500D01*
X115914981Y-72482298D01*
X116134503Y-72406936D01*
X116338626Y-72296470D01*
X116521784Y-72153913D01*
X116678979Y-71983153D01*
X116805924Y-71788849D01*
X116899157Y-71576300D01*
X116956134Y-71351305D01*
X116975300Y-71120000D01*
X116956134Y-70888695D01*
X116899157Y-70663700D01*
X116805924Y-70451151D01*
X116678979Y-70256847D01*
X116678978Y-70256845D01*
X116521787Y-70086090D01*
X116521786Y-70086089D01*
X116521784Y-70086087D01*
X116411889Y-70000552D01*
X116338624Y-69943528D01*
X116134502Y-69833063D01*
X115985900Y-69782048D01*
X115914981Y-69757702D01*
X115686049Y-69719500D01*
X115453951Y-69719500D01*
X115225019Y-69757702D01*
X115225016Y-69757702D01*
X115225016Y-69757703D01*
X115005497Y-69833063D01*
X114801375Y-69943528D01*
X114618212Y-70086090D01*
X114461021Y-70256845D01*
X114334076Y-70451150D01*
X114240842Y-70663700D01*
X114222835Y-70734810D01*
X114183866Y-70888695D01*
X114164700Y-71120000D01*
X64862882Y-71120000D01*
X64599857Y-70920053D01*
X64594201Y-70916218D01*
X64292697Y-70734810D01*
X64286666Y-70731612D01*
X63967314Y-70583864D01*
X63960982Y-70581341D01*
X63627520Y-70468985D01*
X63620948Y-70467160D01*
X63277292Y-70391516D01*
X63270568Y-70390414D01*
X62920753Y-70352369D01*
X62913940Y-70352000D01*
X62562060Y-70352000D01*
X62555246Y-70352369D01*
X62205431Y-70390414D01*
X62198707Y-70391516D01*
X61855051Y-70467160D01*
X61848479Y-70468985D01*
X61515017Y-70581341D01*
X61508685Y-70583864D01*
X61189333Y-70731612D01*
X61183302Y-70734810D01*
X60881798Y-70916218D01*
X60876142Y-70920053D01*
X60596014Y-71133001D01*
X60590823Y-71137411D01*
X60582502Y-71145292D01*
X61797205Y-72359995D01*
X61794635Y-72361570D01*
X61603130Y-72525130D01*
X61439570Y-72716635D01*
X61437995Y-72719205D01*
X60226167Y-71507377D01*
X60226166Y-71507378D01*
X60102869Y-71652536D01*
X60098738Y-71657970D01*
X59901264Y-71949223D01*
X59897756Y-71955053D01*
X59732925Y-72265958D01*
X59730069Y-72272134D01*
X59599821Y-72599029D01*
X59597646Y-72605485D01*
X59503508Y-72944538D01*
X59502040Y-72951206D01*
X59445114Y-73298439D01*
X59444375Y-73305236D01*
X59425326Y-73656587D01*
X59425326Y-73663412D01*
X58430500Y-73663412D01*
X58430500Y-63780610D01*
X60433500Y-63780610D01*
X60466485Y-63957064D01*
X60472679Y-63990198D01*
X60549702Y-64189021D01*
X60659735Y-64366728D01*
X60661948Y-64370302D01*
X60805593Y-64527872D01*
X60975745Y-64656366D01*
X61166611Y-64751405D01*
X61371690Y-64809756D01*
X61447481Y-64816778D01*
X61527889Y-64824230D01*
X61527895Y-64824230D01*
X61530806Y-64824500D01*
X61533719Y-64824500D01*
X61634281Y-64824500D01*
X61637194Y-64824500D01*
X61640105Y-64824230D01*
X61640110Y-64824230D01*
X61695254Y-64819119D01*
X61796310Y-64809756D01*
X62001389Y-64751405D01*
X62192255Y-64656366D01*
X62362407Y-64527872D01*
X62506052Y-64370302D01*
X62618298Y-64189019D01*
X62695321Y-63990198D01*
X62734500Y-63780610D01*
X62734500Y-63674000D01*
X67378529Y-63674000D01*
X67398380Y-63913563D01*
X67457390Y-64146591D01*
X67469174Y-64173456D01*
X67553084Y-64364753D01*
X67553951Y-64366728D01*
X67685429Y-64567969D01*
X67848236Y-64744825D01*
X68037933Y-64892472D01*
X68249344Y-65006882D01*
X68476703Y-65084934D01*
X68713808Y-65124500D01*
X68713811Y-65124500D01*
X68954189Y-65124500D01*
X68954192Y-65124500D01*
X69191297Y-65084934D01*
X69418656Y-65006882D01*
X69630067Y-64892472D01*
X69819764Y-64744825D01*
X69957452Y-64595254D01*
X69989642Y-64560288D01*
X69992118Y-64562567D01*
X70032505Y-64528091D01*
X70102851Y-64518506D01*
X70167213Y-64548475D01*
X70177852Y-64560753D01*
X70178358Y-64560288D01*
X70324922Y-64719500D01*
X70348236Y-64744825D01*
X70537933Y-64892472D01*
X70749344Y-65006882D01*
X70976703Y-65084934D01*
X71213808Y-65124500D01*
X71213811Y-65124500D01*
X71454189Y-65124500D01*
X71454192Y-65124500D01*
X71691297Y-65084934D01*
X71918656Y-65006882D01*
X72130067Y-64892472D01*
X72319764Y-64744825D01*
X72482571Y-64567969D01*
X72482573Y-64567964D01*
X72485153Y-64565163D01*
X72546006Y-64528592D01*
X72577855Y-64524500D01*
X83081521Y-64524500D01*
X83149642Y-64544502D01*
X83170616Y-64561405D01*
X84674898Y-66065686D01*
X84708923Y-66127998D01*
X84711373Y-66165185D01*
X84711373Y-66165188D01*
X84700700Y-66294000D01*
X84719866Y-66525305D01*
X84719866Y-66525308D01*
X84719867Y-66525309D01*
X84776842Y-66750299D01*
X84870076Y-66962849D01*
X84997021Y-67157154D01*
X85154212Y-67327909D01*
X85154216Y-67327913D01*
X85300742Y-67441958D01*
X85337375Y-67470471D01*
X85541496Y-67580935D01*
X85541497Y-67580936D01*
X85761019Y-67656298D01*
X85989951Y-67694500D01*
X85989954Y-67694500D01*
X86222046Y-67694500D01*
X86222049Y-67694500D01*
X86450981Y-67656298D01*
X86670503Y-67580936D01*
X86874626Y-67470470D01*
X87057784Y-67327913D01*
X87214979Y-67157153D01*
X87341924Y-66962849D01*
X87435157Y-66750300D01*
X87492134Y-66525305D01*
X87511300Y-66294000D01*
X92320700Y-66294000D01*
X92339866Y-66525305D01*
X92339866Y-66525308D01*
X92339867Y-66525309D01*
X92396842Y-66750299D01*
X92490076Y-66962849D01*
X92617021Y-67157154D01*
X92774212Y-67327909D01*
X92774216Y-67327913D01*
X92920742Y-67441958D01*
X92957375Y-67470471D01*
X93161496Y-67580935D01*
X93161497Y-67580936D01*
X93381019Y-67656298D01*
X93609951Y-67694500D01*
X93609954Y-67694500D01*
X93842049Y-67694500D01*
X93848059Y-67693497D01*
X93918543Y-67702012D01*
X93957895Y-67728683D01*
X94882595Y-68653383D01*
X94916621Y-68715695D01*
X94919500Y-68742478D01*
X94919500Y-70123236D01*
X94919500Y-70123251D01*
X94919501Y-70127360D01*
X94920038Y-70131444D01*
X94920039Y-70131449D01*
X94934955Y-70244760D01*
X94995464Y-70390843D01*
X95091717Y-70516282D01*
X95217157Y-70612535D01*
X95217158Y-70612535D01*
X95217159Y-70612536D01*
X95363238Y-70673044D01*
X95480639Y-70688500D01*
X97559360Y-70688499D01*
X97676762Y-70673044D01*
X97822841Y-70612536D01*
X97822841Y-70612535D01*
X97822843Y-70612535D01*
X97948282Y-70516282D01*
X97984574Y-70468985D01*
X98044536Y-70390841D01*
X98105044Y-70244762D01*
X98120500Y-70127361D01*
X98120499Y-68048640D01*
X98105044Y-67931238D01*
X98044536Y-67785159D01*
X98044535Y-67785156D01*
X97948282Y-67659717D01*
X97822842Y-67563464D01*
X97676761Y-67502955D01*
X97563448Y-67488038D01*
X97563447Y-67488037D01*
X97559361Y-67487500D01*
X97555239Y-67487500D01*
X96174479Y-67487500D01*
X96106358Y-67467498D01*
X96085384Y-67450595D01*
X95157100Y-66522311D01*
X95123074Y-66459999D01*
X95120625Y-66422817D01*
X95131300Y-66294000D01*
X95112134Y-66062695D01*
X95055157Y-65837700D01*
X94961924Y-65625151D01*
X94834979Y-65430847D01*
X94834978Y-65430845D01*
X94677785Y-65260087D01*
X94502209Y-65123432D01*
X94460737Y-65065807D01*
X94457003Y-64994909D01*
X94492193Y-64933247D01*
X94502209Y-64924568D01*
X94677785Y-64787912D01*
X94809195Y-64645163D01*
X94870048Y-64608592D01*
X94901896Y-64604500D01*
X102576317Y-64604500D01*
X102586543Y-64604915D01*
X102639167Y-64609201D01*
X102717678Y-64598503D01*
X102721056Y-64598089D01*
X102799910Y-64589514D01*
X102799912Y-64589513D01*
X102800181Y-64589484D01*
X102822214Y-64584320D01*
X102822466Y-64584227D01*
X102822468Y-64584227D01*
X102896928Y-64556871D01*
X102900022Y-64555781D01*
X102975221Y-64530444D01*
X102975225Y-64530441D01*
X102975482Y-64530355D01*
X102995885Y-64520578D01*
X102996109Y-64520434D01*
X102996116Y-64520432D01*
X103062988Y-64477687D01*
X103065774Y-64475959D01*
X103133736Y-64435070D01*
X103133739Y-64435066D01*
X103133965Y-64434931D01*
X103151794Y-64420994D01*
X103151986Y-64420801D01*
X103151989Y-64420800D01*
X103208072Y-64364715D01*
X103210441Y-64362409D01*
X103268041Y-64307849D01*
X103268043Y-64307845D01*
X103268236Y-64307663D01*
X103283043Y-64289743D01*
X105178106Y-62394680D01*
X105240416Y-62360656D01*
X105287941Y-62359497D01*
X105293951Y-62360500D01*
X105293955Y-62360500D01*
X105526046Y-62360500D01*
X105526049Y-62360500D01*
X105754981Y-62322298D01*
X105974503Y-62246936D01*
X106178626Y-62136470D01*
X106361784Y-61993913D01*
X106518979Y-61823153D01*
X106645924Y-61628849D01*
X106739157Y-61416300D01*
X106796134Y-61191305D01*
X106815300Y-60960000D01*
X109004700Y-60960000D01*
X109023866Y-61191305D01*
X109023866Y-61191308D01*
X109023867Y-61191309D01*
X109080842Y-61416299D01*
X109174076Y-61628849D01*
X109301021Y-61823154D01*
X109458212Y-61993909D01*
X109458216Y-61993913D01*
X109604742Y-62107958D01*
X109641375Y-62136471D01*
X109841589Y-62244821D01*
X109845497Y-62246936D01*
X110065019Y-62322298D01*
X110293951Y-62360500D01*
X110293954Y-62360500D01*
X110526046Y-62360500D01*
X110526049Y-62360500D01*
X110754981Y-62322298D01*
X110974503Y-62246936D01*
X111178626Y-62136470D01*
X111361784Y-61993913D01*
X111452903Y-61894931D01*
X111493195Y-61851163D01*
X111554048Y-61814592D01*
X111585896Y-61810500D01*
X114394104Y-61810500D01*
X114462225Y-61830502D01*
X114486805Y-61851163D01*
X114618212Y-61993909D01*
X114618216Y-61993913D01*
X114764742Y-62107958D01*
X114801375Y-62136471D01*
X115001589Y-62244821D01*
X115005497Y-62246936D01*
X115225019Y-62322298D01*
X115453951Y-62360500D01*
X115453954Y-62360500D01*
X115686046Y-62360500D01*
X115686049Y-62360500D01*
X115914981Y-62322298D01*
X116134503Y-62246936D01*
X116338626Y-62136470D01*
X116521784Y-61993913D01*
X116612903Y-61894931D01*
X116653195Y-61851163D01*
X116714048Y-61814592D01*
X116745896Y-61810500D01*
X117371521Y-61810500D01*
X117439642Y-61830502D01*
X117460616Y-61847405D01*
X121504898Y-65891686D01*
X121538924Y-65953998D01*
X121541373Y-65991185D01*
X121535448Y-66062695D01*
X121530700Y-66120000D01*
X121549866Y-66351305D01*
X121549866Y-66351308D01*
X121549867Y-66351309D01*
X121606842Y-66576299D01*
X121700076Y-66788849D01*
X121827021Y-66983154D01*
X121984212Y-67153909D01*
X121984216Y-67153913D01*
X122130742Y-67267958D01*
X122167375Y-67296471D01*
X122225475Y-67327913D01*
X122371497Y-67406936D01*
X122591019Y-67482298D01*
X122819951Y-67520500D01*
X122819954Y-67520500D01*
X123052046Y-67520500D01*
X123052049Y-67520500D01*
X123280981Y-67482298D01*
X123500503Y-67406936D01*
X123704626Y-67296470D01*
X123887784Y-67153913D01*
X124044979Y-66983153D01*
X124171924Y-66788849D01*
X124265157Y-66576300D01*
X124322134Y-66351305D01*
X124341300Y-66120000D01*
X124322134Y-65888695D01*
X124265157Y-65663700D01*
X124171924Y-65451151D01*
X124044979Y-65256847D01*
X124044978Y-65256845D01*
X123887787Y-65086090D01*
X123887786Y-65086089D01*
X123887784Y-65086087D01*
X123754302Y-64982194D01*
X123704624Y-64943528D01*
X123500502Y-64833063D01*
X123351900Y-64782048D01*
X123280981Y-64757702D01*
X123052049Y-64719500D01*
X122819951Y-64719500D01*
X122813933Y-64720504D01*
X122743449Y-64711983D01*
X122704105Y-64685316D01*
X118405466Y-60386677D01*
X118398529Y-60379153D01*
X118364338Y-60338901D01*
X118351957Y-60329489D01*
X118301220Y-60290919D01*
X118298570Y-60288847D01*
X118236552Y-60238995D01*
X118217305Y-60227057D01*
X118145122Y-60193661D01*
X118142048Y-60192188D01*
X118070780Y-60156844D01*
X118049422Y-60149324D01*
X117971731Y-60132223D01*
X117968408Y-60131444D01*
X117891245Y-60112253D01*
X117868761Y-60109500D01*
X117868497Y-60109500D01*
X117789245Y-60109500D01*
X117785833Y-60109454D01*
X117706302Y-60107299D01*
X117683158Y-60109500D01*
X116745896Y-60109500D01*
X116677775Y-60089498D01*
X116653195Y-60068837D01*
X116521786Y-59926089D01*
X116521785Y-59926088D01*
X116521784Y-59926087D01*
X116492867Y-59903580D01*
X116469108Y-59885087D01*
X116427638Y-59827462D01*
X116420500Y-59785656D01*
X116420500Y-55530342D01*
X116440502Y-55462221D01*
X116469105Y-55430914D01*
X116521784Y-55389913D01*
X116550807Y-55358386D01*
X116653195Y-55247163D01*
X116714048Y-55210592D01*
X116745896Y-55206500D01*
X125373521Y-55206500D01*
X125441642Y-55226502D01*
X125469401Y-55257188D01*
X125472282Y-55254856D01*
X125480616Y-55265148D01*
X125480617Y-55265149D01*
X125599743Y-55412257D01*
X125661443Y-55462221D01*
X125746851Y-55531384D01*
X125861473Y-55589785D01*
X125915512Y-55617320D01*
X126098355Y-55666312D01*
X126146298Y-55670085D01*
X126174499Y-55672305D01*
X126174503Y-55672305D01*
X126176979Y-55672500D01*
X126903020Y-55672499D01*
X126981645Y-55666312D01*
X127164488Y-55617320D01*
X127276928Y-55560028D01*
X127333148Y-55531384D01*
X127410500Y-55468745D01*
X127480257Y-55412257D01*
X127481098Y-55411217D01*
X127484111Y-55409136D01*
X127490549Y-55403923D01*
X127490946Y-55404413D01*
X127539510Y-55370863D01*
X127610467Y-55368495D01*
X127658647Y-55392856D01*
X127664428Y-55397569D01*
X127664429Y-55397571D01*
X127681166Y-55411218D01*
X127814250Y-55519735D01*
X127985595Y-55609238D01*
X128171445Y-55662417D01*
X128273067Y-55671451D01*
X128284862Y-55672500D01*
X129563500Y-55672500D01*
X129631621Y-55692502D01*
X129678114Y-55746158D01*
X129689500Y-55798500D01*
X129689499Y-63111520D01*
X129669497Y-63179641D01*
X129652594Y-63200615D01*
X123167893Y-69685316D01*
X123105581Y-69719342D01*
X123058061Y-69720503D01*
X123052050Y-69719500D01*
X123052049Y-69719500D01*
X122819951Y-69719500D01*
X122591019Y-69757702D01*
X122591016Y-69757702D01*
X122591016Y-69757703D01*
X122371497Y-69833063D01*
X122167375Y-69943528D01*
X121984212Y-70086090D01*
X121827021Y-70256845D01*
X121700076Y-70451150D01*
X121606842Y-70663700D01*
X121588835Y-70734810D01*
X121549866Y-70888695D01*
X121530700Y-71120000D01*
X121549866Y-71351305D01*
X121549866Y-71351308D01*
X121549867Y-71351309D01*
X121606842Y-71576299D01*
X121700076Y-71788849D01*
X121827021Y-71983154D01*
X121965520Y-72133604D01*
X121984216Y-72153913D01*
X122081949Y-72229981D01*
X122167375Y-72296471D01*
X122287668Y-72361570D01*
X122371497Y-72406936D01*
X122591019Y-72482298D01*
X122819951Y-72520500D01*
X122819954Y-72520500D01*
X123052046Y-72520500D01*
X123052049Y-72520500D01*
X123280981Y-72482298D01*
X123500503Y-72406936D01*
X123704626Y-72296470D01*
X123887784Y-72153913D01*
X124044979Y-71983153D01*
X124171924Y-71788849D01*
X124265157Y-71576300D01*
X124322134Y-71351305D01*
X124341300Y-71120000D01*
X124330625Y-70991184D01*
X124344933Y-70921648D01*
X124367097Y-70891690D01*
X131113331Y-64145455D01*
X131120830Y-64138541D01*
X131161100Y-64104337D01*
X131209095Y-64041198D01*
X131211124Y-64038603D01*
X131260842Y-63976754D01*
X131260844Y-63976748D01*
X131261010Y-63976543D01*
X131272939Y-63957311D01*
X131273052Y-63957066D01*
X131273054Y-63957064D01*
X131306352Y-63885089D01*
X131307796Y-63882075D01*
X131343036Y-63811021D01*
X131343036Y-63811017D01*
X131343163Y-63810763D01*
X131350671Y-63789438D01*
X131350729Y-63789172D01*
X131350732Y-63789167D01*
X131367787Y-63711680D01*
X131368549Y-63708432D01*
X131387684Y-63631495D01*
X131387684Y-63631493D01*
X131387748Y-63631236D01*
X131390500Y-63608765D01*
X131390500Y-63529244D01*
X131390546Y-63525832D01*
X131391304Y-63497834D01*
X131392693Y-63446568D01*
X131392692Y-63446567D01*
X131392700Y-63446302D01*
X131390500Y-63423158D01*
X131390500Y-55798500D01*
X131410502Y-55730379D01*
X131464158Y-55683886D01*
X131516500Y-55672500D01*
X132792349Y-55672500D01*
X132795138Y-55672500D01*
X132840805Y-55668439D01*
X132908554Y-55662417D01*
X133094404Y-55609238D01*
X133094406Y-55609237D01*
X133265751Y-55519734D01*
X133415571Y-55397571D01*
X133537734Y-55247751D01*
X133627237Y-55076406D01*
X133635212Y-55048535D01*
X133680417Y-54890554D01*
X133690253Y-54779915D01*
X133690500Y-54777138D01*
X133690500Y-53966862D01*
X133680417Y-53853448D01*
X133680417Y-53853445D01*
X133627238Y-53667595D01*
X133542566Y-53505500D01*
X133537734Y-53496249D01*
X133415571Y-53346429D01*
X133265751Y-53224266D01*
X133243446Y-53212615D01*
X133094404Y-53134761D01*
X132908554Y-53081582D01*
X132797915Y-53071746D01*
X132797895Y-53071745D01*
X132795138Y-53071500D01*
X128284862Y-53071500D01*
X128282105Y-53071745D01*
X128282084Y-53071746D01*
X128171445Y-53081582D01*
X127985595Y-53134761D01*
X127814249Y-53224265D01*
X127658646Y-53351143D01*
X127593211Y-53378689D01*
X127523271Y-53366486D01*
X127481102Y-53332786D01*
X127480257Y-53331743D01*
X127429893Y-53290959D01*
X127333148Y-53212615D01*
X127164490Y-53126681D01*
X127164489Y-53126680D01*
X127164488Y-53126680D01*
X126981645Y-53077688D01*
X126981643Y-53077687D01*
X126981640Y-53077687D01*
X126905500Y-53071694D01*
X126905471Y-53071692D01*
X126903021Y-53071500D01*
X126900551Y-53071500D01*
X126179451Y-53071500D01*
X126179425Y-53071500D01*
X126176980Y-53071501D01*
X126174532Y-53071693D01*
X126174522Y-53071694D01*
X126098368Y-53077687D01*
X126098355Y-53077688D01*
X125915512Y-53126680D01*
X125915511Y-53126680D01*
X125915509Y-53126681D01*
X125746851Y-53212615D01*
X125599743Y-53331743D01*
X125496858Y-53458795D01*
X125438444Y-53499147D01*
X125398938Y-53505500D01*
X116745896Y-53505500D01*
X116677775Y-53485498D01*
X116653195Y-53464837D01*
X116521787Y-53322090D01*
X116521786Y-53322089D01*
X116521784Y-53322087D01*
X116396102Y-53224265D01*
X116338624Y-53179528D01*
X116134502Y-53069063D01*
X115985900Y-53018048D01*
X115914981Y-52993702D01*
X115686049Y-52955500D01*
X115453951Y-52955500D01*
X115225019Y-52993702D01*
X115225016Y-52993702D01*
X115225016Y-52993703D01*
X115005497Y-53069063D01*
X114801375Y-53179528D01*
X114618212Y-53322090D01*
X114461021Y-53492845D01*
X114334076Y-53687150D01*
X114240842Y-53899700D01*
X114183867Y-54124690D01*
X114183866Y-54124695D01*
X114164700Y-54356000D01*
X114183866Y-54587305D01*
X114183866Y-54587308D01*
X114183867Y-54587309D01*
X114240842Y-54812299D01*
X114334076Y-55024849D01*
X114461021Y-55219154D01*
X114618210Y-55389908D01*
X114618214Y-55389911D01*
X114618216Y-55389913D01*
X114670892Y-55430912D01*
X114712362Y-55488534D01*
X114719500Y-55530342D01*
X114719500Y-59785656D01*
X114699498Y-59853777D01*
X114670892Y-59885087D01*
X114618213Y-59926089D01*
X114486805Y-60068837D01*
X114425952Y-60105408D01*
X114394104Y-60109500D01*
X111585896Y-60109500D01*
X111517775Y-60089498D01*
X111493195Y-60068837D01*
X111361787Y-59926090D01*
X111361786Y-59926089D01*
X111361784Y-59926087D01*
X111217132Y-59813500D01*
X111178624Y-59783528D01*
X110974502Y-59673063D01*
X110825900Y-59622048D01*
X110754981Y-59597702D01*
X110526049Y-59559500D01*
X110293951Y-59559500D01*
X110065019Y-59597702D01*
X110065016Y-59597702D01*
X110065016Y-59597703D01*
X109845497Y-59673063D01*
X109641375Y-59783528D01*
X109458212Y-59926090D01*
X109301021Y-60096845D01*
X109174076Y-60291150D01*
X109080842Y-60503700D01*
X109023867Y-60728690D01*
X109023866Y-60728695D01*
X109004700Y-60960000D01*
X106815300Y-60960000D01*
X106796134Y-60728695D01*
X106739157Y-60503700D01*
X106645924Y-60291151D01*
X106573362Y-60180087D01*
X106518978Y-60096845D01*
X106361786Y-59926089D01*
X106361785Y-59926088D01*
X106361784Y-59926087D01*
X106332867Y-59903580D01*
X106309108Y-59885087D01*
X106267638Y-59827462D01*
X106260500Y-59785656D01*
X106260500Y-55530342D01*
X106280502Y-55462221D01*
X106309105Y-55430914D01*
X106361784Y-55389913D01*
X106518979Y-55219153D01*
X106645924Y-55024849D01*
X106739157Y-54812300D01*
X106796134Y-54587305D01*
X106815300Y-54356000D01*
X106796134Y-54124695D01*
X106739157Y-53899700D01*
X106645924Y-53687151D01*
X106523095Y-53499147D01*
X106518978Y-53492845D01*
X106361787Y-53322090D01*
X106361786Y-53322089D01*
X106361784Y-53322087D01*
X106236102Y-53224265D01*
X106178624Y-53179528D01*
X105974502Y-53069063D01*
X105825900Y-53018048D01*
X105754981Y-52993702D01*
X105526049Y-52955500D01*
X105293951Y-52955500D01*
X105065019Y-52993702D01*
X105065016Y-52993702D01*
X105065016Y-52993703D01*
X104845497Y-53069063D01*
X104641375Y-53179528D01*
X104458212Y-53322090D01*
X104301021Y-53492845D01*
X104174076Y-53687150D01*
X104080842Y-53899700D01*
X104023867Y-54124690D01*
X104023866Y-54124695D01*
X104004700Y-54356000D01*
X104023866Y-54587305D01*
X104023866Y-54587308D01*
X104023867Y-54587309D01*
X104080842Y-54812299D01*
X104174076Y-55024849D01*
X104301021Y-55219154D01*
X104458210Y-55389908D01*
X104458214Y-55389911D01*
X104458216Y-55389913D01*
X104510892Y-55430912D01*
X104552362Y-55488534D01*
X104559500Y-55530342D01*
X104559500Y-59785656D01*
X104539498Y-59853777D01*
X104510892Y-59885087D01*
X104458213Y-59926089D01*
X104301021Y-60096845D01*
X104174076Y-60291150D01*
X104080842Y-60503700D01*
X104023867Y-60728690D01*
X104023866Y-60728695D01*
X104021463Y-60757700D01*
X104004700Y-60960000D01*
X104015373Y-61088812D01*
X104001064Y-61158351D01*
X103978898Y-61188311D01*
X102300614Y-62866596D01*
X102238304Y-62900620D01*
X102211521Y-62903500D01*
X94901896Y-62903500D01*
X94833775Y-62883498D01*
X94809195Y-62862837D01*
X94677785Y-62720087D01*
X94502209Y-62583432D01*
X94460737Y-62525807D01*
X94457003Y-62454909D01*
X94492193Y-62393247D01*
X94502209Y-62384568D01*
X94579297Y-62324568D01*
X94677784Y-62247913D01*
X94834979Y-62077153D01*
X94961924Y-61882849D01*
X95055157Y-61670300D01*
X95112134Y-61445305D01*
X95131300Y-61214000D01*
X95112134Y-60982695D01*
X95055157Y-60757700D01*
X94961924Y-60545151D01*
X94834979Y-60350847D01*
X94834978Y-60350845D01*
X94677787Y-60180090D01*
X94677786Y-60180089D01*
X94677784Y-60180087D01*
X94554608Y-60084216D01*
X94502208Y-60043431D01*
X94460737Y-59985806D01*
X94457003Y-59914907D01*
X94492193Y-59853245D01*
X94502198Y-59844576D01*
X94677784Y-59707913D01*
X94834979Y-59537153D01*
X94961924Y-59342849D01*
X95055157Y-59130300D01*
X95112134Y-58905305D01*
X95131300Y-58674000D01*
X95112134Y-58442695D01*
X95055157Y-58217700D01*
X94961924Y-58005151D01*
X94834979Y-57810847D01*
X94834978Y-57810845D01*
X94677787Y-57640090D01*
X94677786Y-57640089D01*
X94677784Y-57640087D01*
X94512832Y-57511700D01*
X94494624Y-57497528D01*
X94290502Y-57387063D01*
X94098589Y-57321180D01*
X94070981Y-57311702D01*
X93842049Y-57273500D01*
X93609951Y-57273500D01*
X93381019Y-57311702D01*
X93381016Y-57311702D01*
X93381016Y-57311703D01*
X93161497Y-57387063D01*
X92957375Y-57497528D01*
X92774212Y-57640090D01*
X92617021Y-57810845D01*
X92490076Y-58005150D01*
X92396842Y-58217700D01*
X92345613Y-58419999D01*
X92339866Y-58442695D01*
X92320700Y-58674000D01*
X92339866Y-58905305D01*
X92339866Y-58905308D01*
X92339867Y-58905309D01*
X92396842Y-59130299D01*
X92490076Y-59342849D01*
X92617021Y-59537154D01*
X92774212Y-59707909D01*
X92774216Y-59707913D01*
X92845077Y-59763066D01*
X92949790Y-59844568D01*
X92991261Y-59902194D01*
X92994995Y-59973092D01*
X92959805Y-60034754D01*
X92949790Y-60043432D01*
X92774212Y-60180090D01*
X92617021Y-60350845D01*
X92490076Y-60545150D01*
X92396842Y-60757700D01*
X92352086Y-60934438D01*
X92339866Y-60982695D01*
X92320700Y-61214000D01*
X92339866Y-61445305D01*
X92339866Y-61445308D01*
X92339867Y-61445309D01*
X92396842Y-61670299D01*
X92490076Y-61882849D01*
X92617021Y-62077154D01*
X92774212Y-62247909D01*
X92774216Y-62247913D01*
X92919069Y-62360656D01*
X92949791Y-62384568D01*
X92991262Y-62442193D01*
X92994996Y-62513092D01*
X92959806Y-62574754D01*
X92949791Y-62583432D01*
X92774212Y-62720090D01*
X92617021Y-62890845D01*
X92490076Y-63085150D01*
X92396842Y-63297700D01*
X92342721Y-63511420D01*
X92339866Y-63522695D01*
X92320700Y-63754000D01*
X92339866Y-63985305D01*
X92339866Y-63985308D01*
X92339867Y-63985309D01*
X92396842Y-64210299D01*
X92490076Y-64422849D01*
X92617021Y-64617154D01*
X92774212Y-64787909D01*
X92774216Y-64787913D01*
X92864397Y-64858103D01*
X92949790Y-64924568D01*
X92991261Y-64982194D01*
X92994995Y-65053092D01*
X92959805Y-65114754D01*
X92949790Y-65123432D01*
X92774212Y-65260090D01*
X92617021Y-65430845D01*
X92490076Y-65625150D01*
X92396842Y-65837700D01*
X92339867Y-66062690D01*
X92339866Y-66062695D01*
X92320700Y-66294000D01*
X87511300Y-66294000D01*
X87500625Y-66165184D01*
X87514933Y-66095648D01*
X87537097Y-66065690D01*
X89429343Y-64173444D01*
X89436830Y-64166541D01*
X89477100Y-64132337D01*
X89525096Y-64069197D01*
X89527150Y-64066570D01*
X89576841Y-64004754D01*
X89576841Y-64004752D01*
X89577011Y-64004542D01*
X89588936Y-63985317D01*
X89589051Y-63985067D01*
X89589054Y-63985064D01*
X89622368Y-63913055D01*
X89623793Y-63910080D01*
X89659036Y-63839021D01*
X89659035Y-63839021D01*
X89659160Y-63838771D01*
X89666671Y-63817438D01*
X89666729Y-63817172D01*
X89666732Y-63817167D01*
X89683787Y-63739680D01*
X89684549Y-63736432D01*
X89703748Y-63659236D01*
X89706500Y-63636765D01*
X89706500Y-63557244D01*
X89706546Y-63553832D01*
X89707389Y-63522695D01*
X89708693Y-63474568D01*
X89708692Y-63474567D01*
X89708700Y-63474302D01*
X89706500Y-63451158D01*
X89706500Y-50465321D01*
X125289500Y-50465321D01*
X125289501Y-50467552D01*
X125289662Y-50469803D01*
X125304612Y-50678857D01*
X125304613Y-50678861D01*
X125364680Y-50954984D01*
X125463432Y-51219749D01*
X125478102Y-51246615D01*
X125598860Y-51467766D01*
X125768204Y-51693984D01*
X125968015Y-51893795D01*
X126017859Y-51931107D01*
X126194236Y-52063141D01*
X126442251Y-52198568D01*
X126707016Y-52297320D01*
X126983139Y-52357387D01*
X127194447Y-52372500D01*
X131885552Y-52372499D01*
X132096861Y-52357387D01*
X132372984Y-52297320D01*
X132637749Y-52198568D01*
X132885764Y-52063141D01*
X133111982Y-51893797D01*
X133311797Y-51693982D01*
X133481141Y-51467764D01*
X133616568Y-51219749D01*
X133715320Y-50954984D01*
X133775387Y-50678861D01*
X133790500Y-50467553D01*
X133790499Y-47576448D01*
X133775387Y-47365139D01*
X133715320Y-47089016D01*
X133616568Y-46824251D01*
X133481141Y-46576236D01*
X133410597Y-46481999D01*
X133311795Y-46350015D01*
X133111984Y-46150204D01*
X132885766Y-45980860D01*
X132843939Y-45958020D01*
X132637749Y-45845432D01*
X132372984Y-45746680D01*
X132183472Y-45705454D01*
X132096857Y-45686612D01*
X131887803Y-45671660D01*
X131887777Y-45671659D01*
X131885553Y-45671500D01*
X131883296Y-45671500D01*
X127196705Y-45671500D01*
X127196677Y-45671500D01*
X127194448Y-45671501D01*
X127192197Y-45671661D01*
X127192196Y-45671662D01*
X126983142Y-45686612D01*
X126707015Y-45746679D01*
X126707016Y-45746680D01*
X126442251Y-45845432D01*
X126442249Y-45845432D01*
X126442249Y-45845433D01*
X126194233Y-45980860D01*
X125968015Y-46150204D01*
X125768204Y-46350015D01*
X125598860Y-46576233D01*
X125524013Y-46713305D01*
X125463432Y-46824251D01*
X125420894Y-46938300D01*
X125364680Y-47089016D01*
X125304612Y-47365142D01*
X125289660Y-47574196D01*
X125289659Y-47574223D01*
X125289500Y-47576447D01*
X125289500Y-47578702D01*
X125289500Y-47578703D01*
X125289500Y-50465294D01*
X125289500Y-50465321D01*
X89706500Y-50465321D01*
X89706500Y-46481999D01*
X93937004Y-46481999D01*
X93956951Y-46709999D01*
X94016186Y-46931070D01*
X94112912Y-47138497D01*
X94162899Y-47209887D01*
X94851272Y-46521516D01*
X94864835Y-46607148D01*
X94922359Y-46720045D01*
X95011955Y-46809641D01*
X95124852Y-46867165D01*
X95210482Y-46880727D01*
X94522110Y-47569098D01*
X94522110Y-47569100D01*
X94593497Y-47619085D01*
X94800929Y-47715813D01*
X95022000Y-47775048D01*
X95249999Y-47794995D01*
X95477999Y-47775048D01*
X95699070Y-47715813D01*
X95906498Y-47619087D01*
X95977888Y-47569099D01*
X95977888Y-47569097D01*
X95289518Y-46880727D01*
X95375148Y-46867165D01*
X95488045Y-46809641D01*
X95577641Y-46720045D01*
X95635165Y-46607148D01*
X95648727Y-46521518D01*
X96337097Y-47209888D01*
X96337099Y-47209888D01*
X96387087Y-47138498D01*
X96483813Y-46931070D01*
X96543048Y-46709999D01*
X96562995Y-46482000D01*
X104004700Y-46482000D01*
X104023866Y-46713305D01*
X104023866Y-46713308D01*
X104023867Y-46713309D01*
X104080842Y-46938299D01*
X104174076Y-47150849D01*
X104301021Y-47345154D01*
X104458211Y-47515908D01*
X104458216Y-47515913D01*
X104551118Y-47588221D01*
X104641375Y-47658471D01*
X104747334Y-47715813D01*
X104845497Y-47768936D01*
X105065019Y-47844298D01*
X105293951Y-47882500D01*
X105293954Y-47882500D01*
X105526046Y-47882500D01*
X105526049Y-47882500D01*
X105754981Y-47844298D01*
X105974503Y-47768936D01*
X106178626Y-47658470D01*
X106361784Y-47515913D01*
X106518979Y-47345153D01*
X106645924Y-47150849D01*
X106739157Y-46938300D01*
X106796134Y-46713305D01*
X106815300Y-46482000D01*
X106796134Y-46250695D01*
X106739157Y-46025700D01*
X106645924Y-45813151D01*
X106553485Y-45671662D01*
X106518978Y-45618845D01*
X106361787Y-45448090D01*
X106361786Y-45448089D01*
X106361784Y-45448087D01*
X106251889Y-45362552D01*
X106178624Y-45305528D01*
X105974502Y-45195063D01*
X105814139Y-45140011D01*
X105754981Y-45119702D01*
X105526049Y-45081500D01*
X105293951Y-45081500D01*
X105065019Y-45119702D01*
X105065016Y-45119702D01*
X105065016Y-45119703D01*
X104845497Y-45195063D01*
X104641375Y-45305528D01*
X104458212Y-45448090D01*
X104301021Y-45618845D01*
X104174076Y-45813150D01*
X104080842Y-46025700D01*
X104025573Y-46243955D01*
X104023866Y-46250695D01*
X104004700Y-46482000D01*
X96562995Y-46482000D01*
X96543048Y-46254000D01*
X96483813Y-46032929D01*
X96387085Y-45825497D01*
X96337100Y-45754110D01*
X96337098Y-45754110D01*
X95648727Y-46442481D01*
X95635165Y-46356852D01*
X95577641Y-46243955D01*
X95488045Y-46154359D01*
X95375148Y-46096835D01*
X95289517Y-46083272D01*
X95977888Y-45394899D01*
X95906497Y-45344912D01*
X95699070Y-45248186D01*
X95477999Y-45188951D01*
X95250000Y-45169004D01*
X95022000Y-45188951D01*
X94800929Y-45248186D01*
X94593499Y-45344913D01*
X94522109Y-45394900D01*
X95210481Y-46083272D01*
X95124852Y-46096835D01*
X95011955Y-46154359D01*
X94922359Y-46243955D01*
X94864835Y-46356852D01*
X94851272Y-46442481D01*
X94162900Y-45754109D01*
X94112913Y-45825499D01*
X94016186Y-46032929D01*
X93956951Y-46254000D01*
X93937004Y-46481999D01*
X89706500Y-46481999D01*
X89706500Y-45715682D01*
X89706916Y-45705454D01*
X89711201Y-45652832D01*
X89700505Y-45574332D01*
X89700090Y-45570942D01*
X89691486Y-45491831D01*
X89686322Y-45469792D01*
X89686227Y-45469534D01*
X89686227Y-45469532D01*
X89658855Y-45395028D01*
X89657781Y-45391977D01*
X89632444Y-45316779D01*
X89632443Y-45316777D01*
X89632357Y-45316522D01*
X89622575Y-45296108D01*
X89579751Y-45229111D01*
X89577952Y-45226210D01*
X89536936Y-45158040D01*
X89522990Y-45140202D01*
X89502490Y-45119702D01*
X89466732Y-45083944D01*
X89464388Y-45081535D01*
X89409672Y-45023771D01*
X89391741Y-45008953D01*
X87537100Y-43154312D01*
X87503074Y-43092000D01*
X87500625Y-43054818D01*
X87511300Y-42926000D01*
X87492134Y-42694695D01*
X87435157Y-42469700D01*
X87341924Y-42257151D01*
X87214979Y-42062847D01*
X87214978Y-42062845D01*
X87057787Y-41892090D01*
X87057786Y-41892089D01*
X87057784Y-41892087D01*
X86925224Y-41788912D01*
X86874624Y-41749528D01*
X86670502Y-41639063D01*
X86521900Y-41588048D01*
X86450981Y-41563702D01*
X86222049Y-41525500D01*
X85989951Y-41525500D01*
X85761019Y-41563702D01*
X85761016Y-41563702D01*
X85761016Y-41563703D01*
X85541497Y-41639063D01*
X85337375Y-41749528D01*
X85154212Y-41892090D01*
X84997021Y-42062845D01*
X84870076Y-42257150D01*
X84776842Y-42469700D01*
X84725613Y-42672000D01*
X84719866Y-42694695D01*
X84700700Y-42926000D01*
X84719866Y-43157305D01*
X84719866Y-43157308D01*
X84719867Y-43157309D01*
X84776842Y-43382299D01*
X84870076Y-43594849D01*
X84997021Y-43789154D01*
X85128345Y-43931810D01*
X85154216Y-43959913D01*
X85286775Y-44063087D01*
X85337375Y-44102471D01*
X85443334Y-44159813D01*
X85541497Y-44212936D01*
X85761019Y-44288298D01*
X85989951Y-44326500D01*
X85989954Y-44326500D01*
X86222046Y-44326500D01*
X86222049Y-44326500D01*
X86228057Y-44325497D01*
X86298540Y-44334012D01*
X86337894Y-44360683D01*
X87968595Y-45991384D01*
X88002621Y-46053696D01*
X88005500Y-46080479D01*
X88005500Y-46874520D01*
X87985498Y-46942641D01*
X87931842Y-46989134D01*
X87861568Y-46999238D01*
X87796988Y-46969744D01*
X87790405Y-46963616D01*
X87537100Y-46710312D01*
X87503075Y-46647999D01*
X87500625Y-46610817D01*
X87511300Y-46482000D01*
X87492134Y-46250695D01*
X87435157Y-46025700D01*
X87341924Y-45813151D01*
X87249485Y-45671662D01*
X87214978Y-45618845D01*
X87057787Y-45448090D01*
X87057786Y-45448089D01*
X87057784Y-45448087D01*
X86947889Y-45362552D01*
X86874624Y-45305528D01*
X86670502Y-45195063D01*
X86510139Y-45140011D01*
X86450981Y-45119702D01*
X86222049Y-45081500D01*
X85989951Y-45081500D01*
X85761019Y-45119702D01*
X85761016Y-45119702D01*
X85761016Y-45119703D01*
X85541497Y-45195063D01*
X85337375Y-45305528D01*
X85154212Y-45448090D01*
X84997021Y-45618845D01*
X84870076Y-45813150D01*
X84776842Y-46025700D01*
X84721573Y-46243955D01*
X84719866Y-46250695D01*
X84700700Y-46482000D01*
X84719866Y-46713305D01*
X84719866Y-46713308D01*
X84719867Y-46713309D01*
X84776842Y-46938299D01*
X84870076Y-47150849D01*
X84997021Y-47345154D01*
X85154211Y-47515908D01*
X85154216Y-47515913D01*
X85247118Y-47588221D01*
X85337375Y-47658471D01*
X85443334Y-47715813D01*
X85541497Y-47768936D01*
X85761019Y-47844298D01*
X85989951Y-47882500D01*
X85989954Y-47882500D01*
X86222046Y-47882500D01*
X86222049Y-47882500D01*
X86228057Y-47881497D01*
X86298540Y-47890012D01*
X86337894Y-47916683D01*
X86868595Y-48447384D01*
X86902621Y-48509696D01*
X86905500Y-48536479D01*
X86905500Y-57240000D01*
X86885498Y-57308121D01*
X86831842Y-57354614D01*
X86779500Y-57366000D01*
X86360000Y-57366000D01*
X86360000Y-58362314D01*
X86344045Y-58346359D01*
X86231148Y-58288835D01*
X86137481Y-58274000D01*
X86074519Y-58274000D01*
X85980852Y-58288835D01*
X85867955Y-58346359D01*
X85852000Y-58362314D01*
X85852000Y-57366000D01*
X85260777Y-57366000D01*
X85254063Y-57366359D01*
X85196906Y-57372505D01*
X85060037Y-57423554D01*
X84943095Y-57511095D01*
X84855554Y-57628037D01*
X84804505Y-57764906D01*
X84798359Y-57822063D01*
X84798000Y-57828777D01*
X84798000Y-58420000D01*
X85794314Y-58420000D01*
X85778359Y-58435955D01*
X85720835Y-58548852D01*
X85701014Y-58674000D01*
X85720835Y-58799148D01*
X85778359Y-58912045D01*
X85794314Y-58928000D01*
X84798000Y-58928000D01*
X84798000Y-59519222D01*
X84798359Y-59525936D01*
X84804505Y-59583093D01*
X84855554Y-59719962D01*
X84943095Y-59836904D01*
X85060037Y-59924445D01*
X85134293Y-59952141D01*
X85191129Y-59994687D01*
X85215940Y-60061207D01*
X85200849Y-60130582D01*
X85167654Y-60169627D01*
X85154214Y-60180087D01*
X84997021Y-60350845D01*
X84870076Y-60545150D01*
X84776842Y-60757700D01*
X84732086Y-60934438D01*
X84719866Y-60982695D01*
X84704014Y-61174000D01*
X84702581Y-61191305D01*
X84700700Y-61214000D01*
X84719866Y-61445305D01*
X84719866Y-61445308D01*
X84719867Y-61445309D01*
X84750574Y-61566569D01*
X84747907Y-61637515D01*
X84707306Y-61695757D01*
X84641663Y-61722803D01*
X84628430Y-61723500D01*
X73138479Y-61723500D01*
X73070358Y-61703498D01*
X73049384Y-61686595D01*
X72811432Y-61448643D01*
X72777406Y-61386331D01*
X72774957Y-61349148D01*
X72789471Y-61174000D01*
X72769620Y-60934437D01*
X72710610Y-60701409D01*
X72614049Y-60481272D01*
X72482571Y-60280031D01*
X72362247Y-60149324D01*
X72319767Y-60103178D01*
X72319766Y-60103177D01*
X72319764Y-60103175D01*
X72142008Y-59964822D01*
X72100538Y-59907198D01*
X72096804Y-59836299D01*
X72131994Y-59774637D01*
X72142010Y-59765959D01*
X72256901Y-59676536D01*
X72409321Y-59510962D01*
X72532419Y-59322548D01*
X72622822Y-59116451D01*
X72670544Y-58928000D01*
X71765116Y-58928000D01*
X71793493Y-58883844D01*
X71834000Y-58745889D01*
X71834000Y-58602111D01*
X71793493Y-58464156D01*
X71765116Y-58420000D01*
X72670544Y-58420000D01*
X72670544Y-58419999D01*
X72622822Y-58231548D01*
X72532419Y-58025451D01*
X72409321Y-57837037D01*
X72256903Y-57671466D01*
X72142009Y-57582040D01*
X72100538Y-57524415D01*
X72096804Y-57453516D01*
X72131994Y-57391854D01*
X72142005Y-57383179D01*
X72319764Y-57244825D01*
X72482571Y-57067969D01*
X72614049Y-56866728D01*
X72710610Y-56646591D01*
X72769620Y-56413563D01*
X72789471Y-56174000D01*
X72774957Y-55998852D01*
X72789265Y-55929316D01*
X72811429Y-55899358D01*
X76519331Y-52191455D01*
X76526830Y-52184541D01*
X76567100Y-52150337D01*
X76615095Y-52087198D01*
X76617124Y-52084603D01*
X76666842Y-52022754D01*
X76666844Y-52022748D01*
X76667010Y-52022543D01*
X76678939Y-52003311D01*
X76679052Y-52003066D01*
X76679054Y-52003064D01*
X76712352Y-51931089D01*
X76713796Y-51928075D01*
X76749036Y-51857021D01*
X76749036Y-51857017D01*
X76749163Y-51856763D01*
X76756671Y-51835438D01*
X76756729Y-51835172D01*
X76756732Y-51835167D01*
X76773787Y-51757680D01*
X76774549Y-51754432D01*
X76789583Y-51693984D01*
X76793684Y-51677495D01*
X76793684Y-51677493D01*
X76793748Y-51677236D01*
X76796500Y-51654765D01*
X76796500Y-51575244D01*
X76796546Y-51571832D01*
X76798700Y-51492302D01*
X76796500Y-51469158D01*
X76796500Y-47656342D01*
X76816502Y-47588221D01*
X76845105Y-47556914D01*
X76897784Y-47515913D01*
X77054979Y-47345153D01*
X77181924Y-47150849D01*
X77275157Y-46938300D01*
X77332134Y-46713305D01*
X77351300Y-46482000D01*
X77332134Y-46250695D01*
X77275157Y-46025700D01*
X77181924Y-45813151D01*
X77089485Y-45671662D01*
X77054978Y-45618845D01*
X76897787Y-45448090D01*
X76897786Y-45448089D01*
X76897784Y-45448087D01*
X76787889Y-45362552D01*
X76714624Y-45305528D01*
X76510502Y-45195063D01*
X76350139Y-45140011D01*
X76290981Y-45119702D01*
X76062049Y-45081500D01*
X75829951Y-45081500D01*
X75601019Y-45119702D01*
X75601016Y-45119702D01*
X75601016Y-45119703D01*
X75381497Y-45195063D01*
X75177375Y-45305528D01*
X74994212Y-45448090D01*
X74837021Y-45618845D01*
X74710076Y-45813150D01*
X74616842Y-46025700D01*
X74561573Y-46243955D01*
X74559866Y-46250695D01*
X74540700Y-46482000D01*
X74559866Y-46713305D01*
X74559866Y-46713308D01*
X74559867Y-46713309D01*
X74616842Y-46938299D01*
X74710076Y-47150849D01*
X74837021Y-47345154D01*
X74994210Y-47515908D01*
X74994214Y-47515911D01*
X74994216Y-47515913D01*
X75046892Y-47556912D01*
X75088362Y-47614534D01*
X75095500Y-47656342D01*
X75095500Y-51157520D01*
X75075498Y-51225641D01*
X75058595Y-51246615D01*
X72946862Y-53358347D01*
X72884550Y-53392373D01*
X72813734Y-53387308D01*
X72756899Y-53344761D01*
X72735623Y-53300183D01*
X72710610Y-53201410D01*
X72677830Y-53126680D01*
X72614049Y-52981272D01*
X72482571Y-52780031D01*
X72319764Y-52603175D01*
X72130067Y-52455528D01*
X71918656Y-52341118D01*
X71918655Y-52341117D01*
X71918652Y-52341116D01*
X71767083Y-52289083D01*
X71691297Y-52263066D01*
X71454192Y-52223500D01*
X71213808Y-52223500D01*
X70976703Y-52263066D01*
X70976700Y-52263066D01*
X70976700Y-52263067D01*
X70749347Y-52341116D01*
X70691357Y-52372499D01*
X70537933Y-52455528D01*
X70537931Y-52455528D01*
X70537928Y-52455531D01*
X70398794Y-52563823D01*
X70332752Y-52589879D01*
X70263107Y-52576093D01*
X70219245Y-52533850D01*
X70218635Y-52534319D01*
X70215527Y-52530269D01*
X70211970Y-52526843D01*
X70210329Y-52523495D01*
X70112282Y-52395717D01*
X69986842Y-52299464D01*
X69840761Y-52238955D01*
X69727448Y-52224038D01*
X69727447Y-52224037D01*
X69723361Y-52223500D01*
X69719239Y-52223500D01*
X67948763Y-52223500D01*
X67948747Y-52223500D01*
X67944640Y-52223501D01*
X67940556Y-52224038D01*
X67940550Y-52224039D01*
X67827239Y-52238955D01*
X67681156Y-52299464D01*
X67555717Y-52395717D01*
X67459464Y-52521157D01*
X67398955Y-52667238D01*
X67384038Y-52780551D01*
X67383500Y-52784639D01*
X67383500Y-52788759D01*
X67383500Y-52788760D01*
X67383500Y-54559236D01*
X67383500Y-54559251D01*
X67383501Y-54563360D01*
X67384038Y-54567444D01*
X67384039Y-54567449D01*
X67398955Y-54680760D01*
X67459464Y-54826843D01*
X67555717Y-54952282D01*
X67681157Y-55048535D01*
X67762892Y-55082391D01*
X67818173Y-55126939D01*
X67840594Y-55194303D01*
X67823036Y-55263094D01*
X67807376Y-55284136D01*
X67758678Y-55337036D01*
X67635580Y-55525451D01*
X67545177Y-55731548D01*
X67497455Y-55919999D01*
X67497456Y-55920000D01*
X68402884Y-55920000D01*
X68374507Y-55964156D01*
X68334000Y-56102111D01*
X68334000Y-56245889D01*
X68374507Y-56383844D01*
X68402884Y-56428000D01*
X67497455Y-56428000D01*
X67545177Y-56616451D01*
X67635580Y-56822548D01*
X67758678Y-57010962D01*
X67911096Y-57176533D01*
X68096938Y-57321180D01*
X68095584Y-57322919D01*
X68136169Y-57363203D01*
X68151519Y-57432520D01*
X68126956Y-57499133D01*
X68096158Y-57525818D01*
X68096938Y-57526820D01*
X67911096Y-57671466D01*
X67758678Y-57837037D01*
X67635580Y-58025451D01*
X67545177Y-58231548D01*
X67497455Y-58419999D01*
X67497456Y-58420000D01*
X68402884Y-58420000D01*
X68374507Y-58464156D01*
X68334000Y-58602111D01*
X68334000Y-58745889D01*
X68374507Y-58883844D01*
X68402884Y-58928000D01*
X67497455Y-58928000D01*
X67545177Y-59116451D01*
X67635580Y-59322548D01*
X67758678Y-59510962D01*
X67911096Y-59676533D01*
X68025990Y-59765959D01*
X68067461Y-59823584D01*
X68071195Y-59894483D01*
X68036005Y-59956145D01*
X68025990Y-59964822D01*
X67848235Y-60103174D01*
X67685432Y-60280027D01*
X67685430Y-60280029D01*
X67685429Y-60280031D01*
X67620669Y-60379153D01*
X67553949Y-60481275D01*
X67525931Y-60545151D01*
X67457390Y-60701409D01*
X67398380Y-60934437D01*
X67378529Y-61174000D01*
X67398380Y-61413563D01*
X67457390Y-61646591D01*
X67478956Y-61695757D01*
X67547123Y-61851163D01*
X67553951Y-61866728D01*
X67685429Y-62067969D01*
X67714874Y-62099955D01*
X67848234Y-62244824D01*
X67850948Y-62246936D01*
X67947773Y-62322298D01*
X67950689Y-62324567D01*
X67992161Y-62382192D01*
X67995895Y-62453090D01*
X67960705Y-62514752D01*
X67950690Y-62523430D01*
X67848235Y-62603174D01*
X67685432Y-62780027D01*
X67685430Y-62780029D01*
X67685429Y-62780031D01*
X67631329Y-62862837D01*
X67553949Y-62981275D01*
X67473926Y-63163710D01*
X67457390Y-63201409D01*
X67398380Y-63434437D01*
X67378529Y-63674000D01*
X62734500Y-63674000D01*
X62734500Y-63567390D01*
X62695321Y-63357802D01*
X62618298Y-63158981D01*
X62618297Y-63158978D01*
X62506052Y-62977698D01*
X62438411Y-62903500D01*
X62362407Y-62820128D01*
X62277331Y-62755881D01*
X62192257Y-62691635D01*
X62001387Y-62596594D01*
X61796306Y-62538243D01*
X61640110Y-62523769D01*
X61640084Y-62523767D01*
X61637194Y-62523500D01*
X61530806Y-62523500D01*
X61527916Y-62523767D01*
X61527889Y-62523769D01*
X61371693Y-62538243D01*
X61166612Y-62596594D01*
X60975742Y-62691635D01*
X60805594Y-62820127D01*
X60661947Y-62977698D01*
X60549702Y-63158978D01*
X60495962Y-63297700D01*
X60472679Y-63357802D01*
X60433500Y-63567390D01*
X60433500Y-63780610D01*
X58430500Y-63780610D01*
X58430500Y-53780610D01*
X60433500Y-53780610D01*
X60447116Y-53853448D01*
X60472679Y-53990198D01*
X60549702Y-54189021D01*
X60661947Y-54370301D01*
X60661948Y-54370302D01*
X60805593Y-54527872D01*
X60975745Y-54656366D01*
X61166611Y-54751405D01*
X61371690Y-54809756D01*
X61447481Y-54816778D01*
X61527889Y-54824230D01*
X61527895Y-54824230D01*
X61530806Y-54824500D01*
X61533719Y-54824500D01*
X61634281Y-54824500D01*
X61637194Y-54824500D01*
X61640105Y-54824230D01*
X61640110Y-54824230D01*
X61695254Y-54819119D01*
X61796310Y-54809756D01*
X62001389Y-54751405D01*
X62192255Y-54656366D01*
X62362407Y-54527872D01*
X62506052Y-54370302D01*
X62618298Y-54189019D01*
X62695321Y-53990198D01*
X62734500Y-53780610D01*
X62734500Y-53567390D01*
X62695321Y-53357802D01*
X62618298Y-53158981D01*
X62618297Y-53158978D01*
X62506052Y-52977698D01*
X62485816Y-52955500D01*
X62362407Y-52820128D01*
X62277331Y-52755880D01*
X62192257Y-52691635D01*
X62001387Y-52596594D01*
X61796306Y-52538243D01*
X61640110Y-52523769D01*
X61640084Y-52523767D01*
X61637194Y-52523500D01*
X61530806Y-52523500D01*
X61527916Y-52523767D01*
X61527889Y-52523769D01*
X61371693Y-52538243D01*
X61166612Y-52596594D01*
X60975742Y-52691635D01*
X60805594Y-52820127D01*
X60661947Y-52977698D01*
X60549702Y-53158978D01*
X60472679Y-53357801D01*
X60459619Y-53427664D01*
X60433500Y-53567390D01*
X60433500Y-53780610D01*
X58430500Y-53780610D01*
X58430500Y-42672000D01*
X74659917Y-42672000D01*
X75634314Y-42672000D01*
X75618359Y-42687955D01*
X75560835Y-42800852D01*
X75541014Y-42926000D01*
X75560835Y-43051148D01*
X75618359Y-43164045D01*
X75634314Y-43180000D01*
X74659918Y-43180000D01*
X74712186Y-43375070D01*
X74808912Y-43582498D01*
X74940189Y-43769981D01*
X75102018Y-43931810D01*
X75289501Y-44063087D01*
X75496929Y-44159813D01*
X75692000Y-44212082D01*
X75692000Y-43237686D01*
X75707955Y-43253641D01*
X75820852Y-43311165D01*
X75914519Y-43326000D01*
X75977481Y-43326000D01*
X76071148Y-43311165D01*
X76184045Y-43253641D01*
X76200000Y-43237686D01*
X76200000Y-44212081D01*
X76395070Y-44159813D01*
X76602498Y-44063087D01*
X76789981Y-43931810D01*
X76951810Y-43769981D01*
X77083087Y-43582498D01*
X77179813Y-43375070D01*
X77232082Y-43180000D01*
X76257686Y-43180000D01*
X76273641Y-43164045D01*
X76331165Y-43051148D01*
X76350986Y-42926000D01*
X76331165Y-42800852D01*
X76273641Y-42687955D01*
X76257686Y-42672000D01*
X77232082Y-42672000D01*
X77179813Y-42476929D01*
X77083087Y-42269501D01*
X76951810Y-42082018D01*
X76789981Y-41920189D01*
X76602499Y-41788912D01*
X76395067Y-41692185D01*
X76200001Y-41639916D01*
X76200000Y-41639917D01*
X76200000Y-42614313D01*
X76184045Y-42598359D01*
X76071148Y-42540835D01*
X75977481Y-42526000D01*
X75914519Y-42526000D01*
X75820852Y-42540835D01*
X75707955Y-42598359D01*
X75692000Y-42614314D01*
X75692000Y-41639917D01*
X75691998Y-41639916D01*
X75496932Y-41692185D01*
X75289500Y-41788912D01*
X75102018Y-41920189D01*
X74940189Y-42082018D01*
X74808912Y-42269501D01*
X74712186Y-42476929D01*
X74659917Y-42672000D01*
X58430500Y-42672000D01*
X58430500Y-37849412D01*
X59425326Y-37849412D01*
X59444375Y-38200763D01*
X59445114Y-38207560D01*
X59502040Y-38554793D01*
X59503508Y-38561461D01*
X59597646Y-38900514D01*
X59599821Y-38906970D01*
X59730069Y-39233865D01*
X59732925Y-39240041D01*
X59897756Y-39550946D01*
X59901264Y-39556776D01*
X60098738Y-39848029D01*
X60102862Y-39853453D01*
X60226168Y-39998620D01*
X61437994Y-38786794D01*
X61439570Y-38789365D01*
X61603130Y-38980870D01*
X61794635Y-39144430D01*
X61797204Y-39146004D01*
X60582502Y-40360706D01*
X60590816Y-40368581D01*
X60596020Y-40373002D01*
X60876142Y-40585946D01*
X60881798Y-40589781D01*
X61183302Y-40771189D01*
X61189333Y-40774387D01*
X61508685Y-40922135D01*
X61515017Y-40924658D01*
X61848479Y-41037014D01*
X61855051Y-41038839D01*
X62198707Y-41114483D01*
X62205431Y-41115585D01*
X62555246Y-41153630D01*
X62562060Y-41154000D01*
X62913940Y-41154000D01*
X62920753Y-41153630D01*
X63270568Y-41115585D01*
X63277292Y-41114483D01*
X63620948Y-41038839D01*
X63627520Y-41037014D01*
X63960982Y-40924658D01*
X63967314Y-40922135D01*
X64286666Y-40774387D01*
X64292697Y-40771189D01*
X64594201Y-40589781D01*
X64599857Y-40585946D01*
X64879987Y-40372996D01*
X64885171Y-40368592D01*
X64893496Y-40360706D01*
X63678795Y-39146004D01*
X63681365Y-39144430D01*
X63872870Y-38980870D01*
X64036430Y-38789365D01*
X64038005Y-38786794D01*
X65249831Y-39998620D01*
X65373139Y-39853451D01*
X65377259Y-39848031D01*
X65574735Y-39556776D01*
X65578243Y-39550946D01*
X65743074Y-39240041D01*
X65745930Y-39233865D01*
X65876178Y-38906970D01*
X65878353Y-38900514D01*
X65972491Y-38561461D01*
X65973959Y-38554793D01*
X66030885Y-38207560D01*
X66031624Y-38200763D01*
X66050674Y-37849412D01*
X133339326Y-37849412D01*
X133358375Y-38200763D01*
X133359114Y-38207560D01*
X133416040Y-38554793D01*
X133417508Y-38561461D01*
X133511646Y-38900514D01*
X133513821Y-38906970D01*
X133644069Y-39233865D01*
X133646925Y-39240041D01*
X133811756Y-39550946D01*
X133815264Y-39556776D01*
X134012738Y-39848029D01*
X134016862Y-39853453D01*
X134140168Y-39998620D01*
X135351994Y-38786794D01*
X135353570Y-38789365D01*
X135517130Y-38980870D01*
X135708635Y-39144430D01*
X135711204Y-39146004D01*
X134496502Y-40360706D01*
X134504816Y-40368581D01*
X134510020Y-40373002D01*
X134790142Y-40585946D01*
X134795798Y-40589781D01*
X135097302Y-40771189D01*
X135103333Y-40774387D01*
X135422685Y-40922135D01*
X135429017Y-40924658D01*
X135762479Y-41037014D01*
X135769051Y-41038839D01*
X136112707Y-41114483D01*
X136119431Y-41115585D01*
X136469246Y-41153630D01*
X136476060Y-41154000D01*
X136827940Y-41154000D01*
X136834753Y-41153630D01*
X137184568Y-41115585D01*
X137191292Y-41114483D01*
X137534948Y-41038839D01*
X137541520Y-41037014D01*
X137874982Y-40924658D01*
X137881314Y-40922135D01*
X138200666Y-40774387D01*
X138206697Y-40771189D01*
X138508201Y-40589781D01*
X138513857Y-40585946D01*
X138793987Y-40372996D01*
X138799171Y-40368592D01*
X138807496Y-40360706D01*
X137592795Y-39146004D01*
X137595365Y-39144430D01*
X137786870Y-38980870D01*
X137950430Y-38789365D01*
X137952005Y-38786794D01*
X139163831Y-39998620D01*
X139287139Y-39853451D01*
X139291259Y-39848031D01*
X139488735Y-39556776D01*
X139492243Y-39550946D01*
X139657074Y-39240041D01*
X139659930Y-39233865D01*
X139790178Y-38906970D01*
X139792353Y-38900514D01*
X139886491Y-38561461D01*
X139887959Y-38554793D01*
X139944885Y-38207560D01*
X139945624Y-38200763D01*
X139964674Y-37849412D01*
X139964674Y-37842587D01*
X139945624Y-37491236D01*
X139944885Y-37484439D01*
X139887959Y-37137206D01*
X139886491Y-37130538D01*
X139792353Y-36791485D01*
X139790178Y-36785029D01*
X139659930Y-36458134D01*
X139657074Y-36451958D01*
X139492243Y-36141053D01*
X139488735Y-36135223D01*
X139291261Y-35843970D01*
X139287130Y-35838536D01*
X139163831Y-35693377D01*
X137952004Y-36905204D01*
X137950430Y-36902635D01*
X137786870Y-36711130D01*
X137595365Y-36547570D01*
X137592794Y-36545994D01*
X138807496Y-35331292D01*
X138799183Y-35323418D01*
X138793979Y-35318997D01*
X138513857Y-35106053D01*
X138508201Y-35102218D01*
X138206697Y-34920810D01*
X138200666Y-34917612D01*
X137881314Y-34769864D01*
X137874982Y-34767341D01*
X137541520Y-34654985D01*
X137534948Y-34653160D01*
X137191292Y-34577516D01*
X137184568Y-34576414D01*
X136834753Y-34538369D01*
X136827940Y-34538000D01*
X136476060Y-34538000D01*
X136469246Y-34538369D01*
X136119431Y-34576414D01*
X136112707Y-34577516D01*
X135769051Y-34653160D01*
X135762479Y-34654985D01*
X135429017Y-34767341D01*
X135422685Y-34769864D01*
X135103333Y-34917612D01*
X135097302Y-34920810D01*
X134795798Y-35102218D01*
X134790142Y-35106053D01*
X134510014Y-35319001D01*
X134504823Y-35323411D01*
X134496502Y-35331292D01*
X135711205Y-36545995D01*
X135708635Y-36547570D01*
X135517130Y-36711130D01*
X135353570Y-36902635D01*
X135351995Y-36905205D01*
X134140167Y-35693377D01*
X134140166Y-35693378D01*
X134016869Y-35838536D01*
X134012738Y-35843970D01*
X133815264Y-36135223D01*
X133811756Y-36141053D01*
X133646925Y-36451958D01*
X133644069Y-36458134D01*
X133513821Y-36785029D01*
X133511646Y-36791485D01*
X133417508Y-37130538D01*
X133416040Y-37137206D01*
X133359114Y-37484439D01*
X133358375Y-37491236D01*
X133339326Y-37842587D01*
X133339326Y-37849412D01*
X66050674Y-37849412D01*
X66050674Y-37842587D01*
X66031624Y-37491236D01*
X66030885Y-37484439D01*
X65973959Y-37137206D01*
X65972491Y-37130538D01*
X65878353Y-36791485D01*
X65876178Y-36785029D01*
X65745930Y-36458134D01*
X65743074Y-36451958D01*
X65578243Y-36141053D01*
X65574735Y-36135223D01*
X65377261Y-35843970D01*
X65373130Y-35838536D01*
X65249831Y-35693377D01*
X64038004Y-36905203D01*
X64036430Y-36902635D01*
X63872870Y-36711130D01*
X63681365Y-36547570D01*
X63678794Y-36545994D01*
X64893496Y-35331292D01*
X64885183Y-35323418D01*
X64879979Y-35318997D01*
X64599857Y-35106053D01*
X64594201Y-35102218D01*
X64292697Y-34920810D01*
X64286666Y-34917612D01*
X63967314Y-34769864D01*
X63960982Y-34767341D01*
X63627520Y-34654985D01*
X63620948Y-34653160D01*
X63277292Y-34577516D01*
X63270568Y-34576414D01*
X62920753Y-34538369D01*
X62913940Y-34538000D01*
X62562060Y-34538000D01*
X62555246Y-34538369D01*
X62205431Y-34576414D01*
X62198707Y-34577516D01*
X61855051Y-34653160D01*
X61848479Y-34654985D01*
X61515017Y-34767341D01*
X61508685Y-34769864D01*
X61189333Y-34917612D01*
X61183302Y-34920810D01*
X60881798Y-35102218D01*
X60876142Y-35106053D01*
X60596014Y-35319001D01*
X60590823Y-35323411D01*
X60582502Y-35331292D01*
X61797205Y-36545995D01*
X61794635Y-36547570D01*
X61603130Y-36711130D01*
X61439570Y-36902635D01*
X61437995Y-36905205D01*
X60226167Y-35693377D01*
X60226166Y-35693378D01*
X60102869Y-35838536D01*
X60098738Y-35843970D01*
X59901264Y-36135223D01*
X59897756Y-36141053D01*
X59732925Y-36451958D01*
X59730069Y-36458134D01*
X59599821Y-36785029D01*
X59597646Y-36791485D01*
X59503508Y-37130538D01*
X59502040Y-37137206D01*
X59445114Y-37484439D01*
X59444375Y-37491236D01*
X59425326Y-37842587D01*
X59425326Y-37849412D01*
X58430500Y-37849412D01*
X58430500Y-33664500D01*
X58450502Y-33596379D01*
X58504158Y-33549886D01*
X58556500Y-33538500D01*
X140833500Y-33538500D01*
X140901621Y-33558502D01*
G37*
%TD.AperFunction*%
%TD*%
M02*
