%TF.GenerationSoftware,KiCad,Pcbnew,7.0.2*%
%TF.CreationDate,2023-05-19T14:46:58-05:00*%
%TF.ProjectId,LED Driver,4c454420-4472-4697-9665-722e6b696361,v1a*%
%TF.SameCoordinates,Original*%
%TF.FileFunction,Legend,Top*%
%TF.FilePolarity,Positive*%
%FSLAX46Y46*%
G04 Gerber Fmt 4.6, Leading zero omitted, Abs format (unit mm)*
G04 Created by KiCad (PCBNEW 7.0.2) date 2023-05-19 14:46:58*
%MOMM*%
%LPD*%
G01*
G04 APERTURE LIST*
%ADD10C,0.100000*%
%ADD11C,0.150000*%
%ADD12C,0.300000*%
%ADD13C,0.250000*%
%ADD14C,0.120000*%
G04 APERTURE END LIST*
D10*
X63436476Y-54197793D02*
X63579333Y-54245412D01*
X63579333Y-54245412D02*
X63817428Y-54245412D01*
X63817428Y-54245412D02*
X63912666Y-54197793D01*
X63912666Y-54197793D02*
X63960285Y-54150173D01*
X63960285Y-54150173D02*
X64007904Y-54054935D01*
X64007904Y-54054935D02*
X64007904Y-53959697D01*
X64007904Y-53959697D02*
X63960285Y-53864459D01*
X63960285Y-53864459D02*
X63912666Y-53816840D01*
X63912666Y-53816840D02*
X63817428Y-53769221D01*
X63817428Y-53769221D02*
X63626952Y-53721602D01*
X63626952Y-53721602D02*
X63531714Y-53673983D01*
X63531714Y-53673983D02*
X63484095Y-53626364D01*
X63484095Y-53626364D02*
X63436476Y-53531126D01*
X63436476Y-53531126D02*
X63436476Y-53435888D01*
X63436476Y-53435888D02*
X63484095Y-53340650D01*
X63484095Y-53340650D02*
X63531714Y-53293031D01*
X63531714Y-53293031D02*
X63626952Y-53245412D01*
X63626952Y-53245412D02*
X63865047Y-53245412D01*
X63865047Y-53245412D02*
X64007904Y-53293031D01*
X64436476Y-54245412D02*
X64436476Y-53245412D01*
X64436476Y-53245412D02*
X65007904Y-54245412D01*
X65007904Y-54245412D02*
X65007904Y-53245412D01*
X65436476Y-54197793D02*
X65579333Y-54245412D01*
X65579333Y-54245412D02*
X65817428Y-54245412D01*
X65817428Y-54245412D02*
X65912666Y-54197793D01*
X65912666Y-54197793D02*
X65960285Y-54150173D01*
X65960285Y-54150173D02*
X66007904Y-54054935D01*
X66007904Y-54054935D02*
X66007904Y-53959697D01*
X66007904Y-53959697D02*
X65960285Y-53864459D01*
X65960285Y-53864459D02*
X65912666Y-53816840D01*
X65912666Y-53816840D02*
X65817428Y-53769221D01*
X65817428Y-53769221D02*
X65626952Y-53721602D01*
X65626952Y-53721602D02*
X65531714Y-53673983D01*
X65531714Y-53673983D02*
X65484095Y-53626364D01*
X65484095Y-53626364D02*
X65436476Y-53531126D01*
X65436476Y-53531126D02*
X65436476Y-53435888D01*
X65436476Y-53435888D02*
X65484095Y-53340650D01*
X65484095Y-53340650D02*
X65531714Y-53293031D01*
X65531714Y-53293031D02*
X65626952Y-53245412D01*
X65626952Y-53245412D02*
X65865047Y-53245412D01*
X65865047Y-53245412D02*
X66007904Y-53293031D01*
X66436476Y-53864459D02*
X67198381Y-53864459D01*
X66817428Y-54245412D02*
X66817428Y-53483507D01*
D11*
X94932476Y-66886000D02*
X95075333Y-66933619D01*
X95075333Y-66933619D02*
X95313428Y-66933619D01*
X95313428Y-66933619D02*
X95408666Y-66886000D01*
X95408666Y-66886000D02*
X95456285Y-66838380D01*
X95456285Y-66838380D02*
X95503904Y-66743142D01*
X95503904Y-66743142D02*
X95503904Y-66647904D01*
X95503904Y-66647904D02*
X95456285Y-66552666D01*
X95456285Y-66552666D02*
X95408666Y-66505047D01*
X95408666Y-66505047D02*
X95313428Y-66457428D01*
X95313428Y-66457428D02*
X95122952Y-66409809D01*
X95122952Y-66409809D02*
X95027714Y-66362190D01*
X95027714Y-66362190D02*
X94980095Y-66314571D01*
X94980095Y-66314571D02*
X94932476Y-66219333D01*
X94932476Y-66219333D02*
X94932476Y-66124095D01*
X94932476Y-66124095D02*
X94980095Y-66028857D01*
X94980095Y-66028857D02*
X95027714Y-65981238D01*
X95027714Y-65981238D02*
X95122952Y-65933619D01*
X95122952Y-65933619D02*
X95361047Y-65933619D01*
X95361047Y-65933619D02*
X95503904Y-65981238D01*
X95789619Y-65933619D02*
X96361047Y-65933619D01*
X96075333Y-66933619D02*
X96075333Y-65933619D01*
X96646762Y-66647904D02*
X97122952Y-66647904D01*
X96551524Y-66933619D02*
X96884857Y-65933619D01*
X96884857Y-65933619D02*
X97218190Y-66933619D01*
D10*
X73707523Y-61838380D02*
X73659904Y-61886000D01*
X73659904Y-61886000D02*
X73517047Y-61933619D01*
X73517047Y-61933619D02*
X73421809Y-61933619D01*
X73421809Y-61933619D02*
X73278952Y-61886000D01*
X73278952Y-61886000D02*
X73183714Y-61790761D01*
X73183714Y-61790761D02*
X73136095Y-61695523D01*
X73136095Y-61695523D02*
X73088476Y-61505047D01*
X73088476Y-61505047D02*
X73088476Y-61362190D01*
X73088476Y-61362190D02*
X73136095Y-61171714D01*
X73136095Y-61171714D02*
X73183714Y-61076476D01*
X73183714Y-61076476D02*
X73278952Y-60981238D01*
X73278952Y-60981238D02*
X73421809Y-60933619D01*
X73421809Y-60933619D02*
X73517047Y-60933619D01*
X73517047Y-60933619D02*
X73659904Y-60981238D01*
X73659904Y-60981238D02*
X73707523Y-61028857D01*
X73993238Y-60933619D02*
X74564666Y-60933619D01*
X74278952Y-61933619D02*
X74278952Y-60933619D01*
X75469428Y-61933619D02*
X75136095Y-61457428D01*
X74898000Y-61933619D02*
X74898000Y-60933619D01*
X74898000Y-60933619D02*
X75278952Y-60933619D01*
X75278952Y-60933619D02*
X75374190Y-60981238D01*
X75374190Y-60981238D02*
X75421809Y-61028857D01*
X75421809Y-61028857D02*
X75469428Y-61124095D01*
X75469428Y-61124095D02*
X75469428Y-61266952D01*
X75469428Y-61266952D02*
X75421809Y-61362190D01*
X75421809Y-61362190D02*
X75374190Y-61409809D01*
X75374190Y-61409809D02*
X75278952Y-61457428D01*
X75278952Y-61457428D02*
X74898000Y-61457428D01*
X76374190Y-61933619D02*
X75898000Y-61933619D01*
X75898000Y-61933619D02*
X75898000Y-60933619D01*
D11*
X130238476Y-56218000D02*
X130381333Y-56265619D01*
X130381333Y-56265619D02*
X130619428Y-56265619D01*
X130619428Y-56265619D02*
X130714666Y-56218000D01*
X130714666Y-56218000D02*
X130762285Y-56170380D01*
X130762285Y-56170380D02*
X130809904Y-56075142D01*
X130809904Y-56075142D02*
X130809904Y-55979904D01*
X130809904Y-55979904D02*
X130762285Y-55884666D01*
X130762285Y-55884666D02*
X130714666Y-55837047D01*
X130714666Y-55837047D02*
X130619428Y-55789428D01*
X130619428Y-55789428D02*
X130428952Y-55741809D01*
X130428952Y-55741809D02*
X130333714Y-55694190D01*
X130333714Y-55694190D02*
X130286095Y-55646571D01*
X130286095Y-55646571D02*
X130238476Y-55551333D01*
X130238476Y-55551333D02*
X130238476Y-55456095D01*
X130238476Y-55456095D02*
X130286095Y-55360857D01*
X130286095Y-55360857D02*
X130333714Y-55313238D01*
X130333714Y-55313238D02*
X130428952Y-55265619D01*
X130428952Y-55265619D02*
X130667047Y-55265619D01*
X130667047Y-55265619D02*
X130809904Y-55313238D01*
D10*
X73612285Y-56608556D02*
X73136095Y-56608556D01*
X73136095Y-56608556D02*
X73136095Y-55608556D01*
X73945619Y-56084746D02*
X74278952Y-56084746D01*
X74421809Y-56608556D02*
X73945619Y-56608556D01*
X73945619Y-56608556D02*
X73945619Y-55608556D01*
X73945619Y-55608556D02*
X74421809Y-55608556D01*
X74850381Y-56608556D02*
X74850381Y-55608556D01*
X74850381Y-55608556D02*
X75088476Y-55608556D01*
X75088476Y-55608556D02*
X75231333Y-55656175D01*
X75231333Y-55656175D02*
X75326571Y-55751413D01*
X75326571Y-55751413D02*
X75374190Y-55846651D01*
X75374190Y-55846651D02*
X75421809Y-56037127D01*
X75421809Y-56037127D02*
X75421809Y-56179984D01*
X75421809Y-56179984D02*
X75374190Y-56370460D01*
X75374190Y-56370460D02*
X75326571Y-56465698D01*
X75326571Y-56465698D02*
X75231333Y-56560937D01*
X75231333Y-56560937D02*
X75088476Y-56608556D01*
X75088476Y-56608556D02*
X74850381Y-56608556D01*
X75850381Y-56227603D02*
X76612286Y-56227603D01*
X76231333Y-56608556D02*
X76231333Y-55846651D01*
D11*
X83153238Y-65933619D02*
X83486571Y-66933619D01*
X83486571Y-66933619D02*
X83819904Y-65933619D01*
X84153238Y-66552666D02*
X84915143Y-66552666D01*
D10*
X72993238Y-63473619D02*
X73326571Y-64473619D01*
X73326571Y-64473619D02*
X73659904Y-63473619D01*
X73993238Y-64092666D02*
X74755143Y-64092666D01*
D11*
X126745904Y-55313238D02*
X126650666Y-55265619D01*
X126650666Y-55265619D02*
X126507809Y-55265619D01*
X126507809Y-55265619D02*
X126364952Y-55313238D01*
X126364952Y-55313238D02*
X126269714Y-55408476D01*
X126269714Y-55408476D02*
X126222095Y-55503714D01*
X126222095Y-55503714D02*
X126174476Y-55694190D01*
X126174476Y-55694190D02*
X126174476Y-55837047D01*
X126174476Y-55837047D02*
X126222095Y-56027523D01*
X126222095Y-56027523D02*
X126269714Y-56122761D01*
X126269714Y-56122761D02*
X126364952Y-56218000D01*
X126364952Y-56218000D02*
X126507809Y-56265619D01*
X126507809Y-56265619D02*
X126603047Y-56265619D01*
X126603047Y-56265619D02*
X126745904Y-56218000D01*
X126745904Y-56218000D02*
X126793523Y-56170380D01*
X126793523Y-56170380D02*
X126793523Y-55837047D01*
X126793523Y-55837047D02*
X126603047Y-55837047D01*
D10*
X63522779Y-56671710D02*
X63665636Y-56719329D01*
X63665636Y-56719329D02*
X63903731Y-56719329D01*
X63903731Y-56719329D02*
X63998969Y-56671710D01*
X63998969Y-56671710D02*
X64046588Y-56624090D01*
X64046588Y-56624090D02*
X64094207Y-56528852D01*
X64094207Y-56528852D02*
X64094207Y-56433614D01*
X64094207Y-56433614D02*
X64046588Y-56338376D01*
X64046588Y-56338376D02*
X63998969Y-56290757D01*
X63998969Y-56290757D02*
X63903731Y-56243138D01*
X63903731Y-56243138D02*
X63713255Y-56195519D01*
X63713255Y-56195519D02*
X63618017Y-56147900D01*
X63618017Y-56147900D02*
X63570398Y-56100281D01*
X63570398Y-56100281D02*
X63522779Y-56005043D01*
X63522779Y-56005043D02*
X63522779Y-55909805D01*
X63522779Y-55909805D02*
X63570398Y-55814567D01*
X63570398Y-55814567D02*
X63618017Y-55766948D01*
X63618017Y-55766948D02*
X63713255Y-55719329D01*
X63713255Y-55719329D02*
X63951350Y-55719329D01*
X63951350Y-55719329D02*
X64094207Y-55766948D01*
X64522779Y-56719329D02*
X64522779Y-55719329D01*
X64522779Y-55719329D02*
X65094207Y-56719329D01*
X65094207Y-56719329D02*
X65094207Y-55719329D01*
X65522779Y-56671710D02*
X65665636Y-56719329D01*
X65665636Y-56719329D02*
X65903731Y-56719329D01*
X65903731Y-56719329D02*
X65998969Y-56671710D01*
X65998969Y-56671710D02*
X66046588Y-56624090D01*
X66046588Y-56624090D02*
X66094207Y-56528852D01*
X66094207Y-56528852D02*
X66094207Y-56433614D01*
X66094207Y-56433614D02*
X66046588Y-56338376D01*
X66046588Y-56338376D02*
X65998969Y-56290757D01*
X65998969Y-56290757D02*
X65903731Y-56243138D01*
X65903731Y-56243138D02*
X65713255Y-56195519D01*
X65713255Y-56195519D02*
X65618017Y-56147900D01*
X65618017Y-56147900D02*
X65570398Y-56100281D01*
X65570398Y-56100281D02*
X65522779Y-56005043D01*
X65522779Y-56005043D02*
X65522779Y-55909805D01*
X65522779Y-55909805D02*
X65570398Y-55814567D01*
X65570398Y-55814567D02*
X65618017Y-55766948D01*
X65618017Y-55766948D02*
X65713255Y-55719329D01*
X65713255Y-55719329D02*
X65951350Y-55719329D01*
X65951350Y-55719329D02*
X66094207Y-55766948D01*
X66522779Y-56338376D02*
X67284684Y-56338376D01*
D11*
X82803904Y-58107238D02*
X82708666Y-58059619D01*
X82708666Y-58059619D02*
X82565809Y-58059619D01*
X82565809Y-58059619D02*
X82422952Y-58107238D01*
X82422952Y-58107238D02*
X82327714Y-58202476D01*
X82327714Y-58202476D02*
X82280095Y-58297714D01*
X82280095Y-58297714D02*
X82232476Y-58488190D01*
X82232476Y-58488190D02*
X82232476Y-58631047D01*
X82232476Y-58631047D02*
X82280095Y-58821523D01*
X82280095Y-58821523D02*
X82327714Y-58916761D01*
X82327714Y-58916761D02*
X82422952Y-59012000D01*
X82422952Y-59012000D02*
X82565809Y-59059619D01*
X82565809Y-59059619D02*
X82661047Y-59059619D01*
X82661047Y-59059619D02*
X82803904Y-59012000D01*
X82803904Y-59012000D02*
X82851523Y-58964380D01*
X82851523Y-58964380D02*
X82851523Y-58631047D01*
X82851523Y-58631047D02*
X82661047Y-58631047D01*
X83280095Y-59059619D02*
X83280095Y-58059619D01*
X83280095Y-58059619D02*
X83851523Y-59059619D01*
X83851523Y-59059619D02*
X83851523Y-58059619D01*
X84327714Y-59059619D02*
X84327714Y-58059619D01*
X84327714Y-58059619D02*
X84565809Y-58059619D01*
X84565809Y-58059619D02*
X84708666Y-58107238D01*
X84708666Y-58107238D02*
X84803904Y-58202476D01*
X84803904Y-58202476D02*
X84851523Y-58297714D01*
X84851523Y-58297714D02*
X84899142Y-58488190D01*
X84899142Y-58488190D02*
X84899142Y-58631047D01*
X84899142Y-58631047D02*
X84851523Y-58821523D01*
X84851523Y-58821523D02*
X84803904Y-58916761D01*
X84803904Y-58916761D02*
X84708666Y-59012000D01*
X84708666Y-59012000D02*
X84565809Y-59059619D01*
X84565809Y-59059619D02*
X84327714Y-59059619D01*
X82534095Y-61472666D02*
X83296000Y-61472666D01*
X83772190Y-61853619D02*
X83772190Y-60853619D01*
X84248380Y-61853619D02*
X84248380Y-60853619D01*
X84248380Y-60853619D02*
X84819808Y-61853619D01*
X84819808Y-61853619D02*
X84819808Y-60853619D01*
X82534095Y-64012666D02*
X83296000Y-64012666D01*
X82915047Y-64393619D02*
X82915047Y-63631714D01*
X83772190Y-64393619D02*
X83772190Y-63393619D01*
X84248380Y-64393619D02*
X84248380Y-63393619D01*
X84248380Y-63393619D02*
X84819808Y-64393619D01*
X84819808Y-64393619D02*
X84819808Y-63393619D01*
D10*
X64769904Y-58361163D02*
X64674666Y-58313544D01*
X64674666Y-58313544D02*
X64531809Y-58313544D01*
X64531809Y-58313544D02*
X64388952Y-58361163D01*
X64388952Y-58361163D02*
X64293714Y-58456401D01*
X64293714Y-58456401D02*
X64246095Y-58551639D01*
X64246095Y-58551639D02*
X64198476Y-58742115D01*
X64198476Y-58742115D02*
X64198476Y-58884972D01*
X64198476Y-58884972D02*
X64246095Y-59075448D01*
X64246095Y-59075448D02*
X64293714Y-59170686D01*
X64293714Y-59170686D02*
X64388952Y-59265925D01*
X64388952Y-59265925D02*
X64531809Y-59313544D01*
X64531809Y-59313544D02*
X64627047Y-59313544D01*
X64627047Y-59313544D02*
X64769904Y-59265925D01*
X64769904Y-59265925D02*
X64817523Y-59218305D01*
X64817523Y-59218305D02*
X64817523Y-58884972D01*
X64817523Y-58884972D02*
X64627047Y-58884972D01*
X65246095Y-59313544D02*
X65246095Y-58313544D01*
X65246095Y-58313544D02*
X65817523Y-59313544D01*
X65817523Y-59313544D02*
X65817523Y-58313544D01*
X66293714Y-59313544D02*
X66293714Y-58313544D01*
X66293714Y-58313544D02*
X66531809Y-58313544D01*
X66531809Y-58313544D02*
X66674666Y-58361163D01*
X66674666Y-58361163D02*
X66769904Y-58456401D01*
X66769904Y-58456401D02*
X66817523Y-58551639D01*
X66817523Y-58551639D02*
X66865142Y-58742115D01*
X66865142Y-58742115D02*
X66865142Y-58884972D01*
X66865142Y-58884972D02*
X66817523Y-59075448D01*
X66817523Y-59075448D02*
X66769904Y-59170686D01*
X66769904Y-59170686D02*
X66674666Y-59265925D01*
X66674666Y-59265925D02*
X66531809Y-59313544D01*
X66531809Y-59313544D02*
X66293714Y-59313544D01*
D12*
X111784858Y-39539500D02*
X111999144Y-39610928D01*
X111999144Y-39610928D02*
X112356286Y-39610928D01*
X112356286Y-39610928D02*
X112499144Y-39539500D01*
X112499144Y-39539500D02*
X112570572Y-39468071D01*
X112570572Y-39468071D02*
X112642001Y-39325214D01*
X112642001Y-39325214D02*
X112642001Y-39182357D01*
X112642001Y-39182357D02*
X112570572Y-39039500D01*
X112570572Y-39039500D02*
X112499144Y-38968071D01*
X112499144Y-38968071D02*
X112356286Y-38896642D01*
X112356286Y-38896642D02*
X112070572Y-38825214D01*
X112070572Y-38825214D02*
X111927715Y-38753785D01*
X111927715Y-38753785D02*
X111856286Y-38682357D01*
X111856286Y-38682357D02*
X111784858Y-38539500D01*
X111784858Y-38539500D02*
X111784858Y-38396642D01*
X111784858Y-38396642D02*
X111856286Y-38253785D01*
X111856286Y-38253785D02*
X111927715Y-38182357D01*
X111927715Y-38182357D02*
X112070572Y-38110928D01*
X112070572Y-38110928D02*
X112427715Y-38110928D01*
X112427715Y-38110928D02*
X112642001Y-38182357D01*
X113784857Y-38825214D02*
X113999143Y-38896642D01*
X113999143Y-38896642D02*
X114070572Y-38968071D01*
X114070572Y-38968071D02*
X114142000Y-39110928D01*
X114142000Y-39110928D02*
X114142000Y-39325214D01*
X114142000Y-39325214D02*
X114070572Y-39468071D01*
X114070572Y-39468071D02*
X113999143Y-39539500D01*
X113999143Y-39539500D02*
X113856286Y-39610928D01*
X113856286Y-39610928D02*
X113284857Y-39610928D01*
X113284857Y-39610928D02*
X113284857Y-38110928D01*
X113284857Y-38110928D02*
X113784857Y-38110928D01*
X113784857Y-38110928D02*
X113927715Y-38182357D01*
X113927715Y-38182357D02*
X113999143Y-38253785D01*
X113999143Y-38253785D02*
X114070572Y-38396642D01*
X114070572Y-38396642D02*
X114070572Y-38539500D01*
X114070572Y-38539500D02*
X113999143Y-38682357D01*
X113999143Y-38682357D02*
X113927715Y-38753785D01*
X113927715Y-38753785D02*
X113784857Y-38825214D01*
X113784857Y-38825214D02*
X113284857Y-38825214D01*
X115642000Y-39468071D02*
X115570572Y-39539500D01*
X115570572Y-39539500D02*
X115356286Y-39610928D01*
X115356286Y-39610928D02*
X115213429Y-39610928D01*
X115213429Y-39610928D02*
X114999143Y-39539500D01*
X114999143Y-39539500D02*
X114856286Y-39396642D01*
X114856286Y-39396642D02*
X114784857Y-39253785D01*
X114784857Y-39253785D02*
X114713429Y-38968071D01*
X114713429Y-38968071D02*
X114713429Y-38753785D01*
X114713429Y-38753785D02*
X114784857Y-38468071D01*
X114784857Y-38468071D02*
X114856286Y-38325214D01*
X114856286Y-38325214D02*
X114999143Y-38182357D01*
X114999143Y-38182357D02*
X115213429Y-38110928D01*
X115213429Y-38110928D02*
X115356286Y-38110928D01*
X115356286Y-38110928D02*
X115570572Y-38182357D01*
X115570572Y-38182357D02*
X115642000Y-38253785D01*
X118142000Y-39610928D02*
X117427714Y-39610928D01*
X117427714Y-39610928D02*
X117427714Y-38110928D01*
X118642000Y-38825214D02*
X119142000Y-38825214D01*
X119356286Y-39610928D02*
X118642000Y-39610928D01*
X118642000Y-39610928D02*
X118642000Y-38110928D01*
X118642000Y-38110928D02*
X119356286Y-38110928D01*
X119999143Y-39610928D02*
X119999143Y-38110928D01*
X119999143Y-38110928D02*
X120356286Y-38110928D01*
X120356286Y-38110928D02*
X120570572Y-38182357D01*
X120570572Y-38182357D02*
X120713429Y-38325214D01*
X120713429Y-38325214D02*
X120784858Y-38468071D01*
X120784858Y-38468071D02*
X120856286Y-38753785D01*
X120856286Y-38753785D02*
X120856286Y-38968071D01*
X120856286Y-38968071D02*
X120784858Y-39253785D01*
X120784858Y-39253785D02*
X120713429Y-39396642D01*
X120713429Y-39396642D02*
X120570572Y-39539500D01*
X120570572Y-39539500D02*
X120356286Y-39610928D01*
X120356286Y-39610928D02*
X119999143Y-39610928D01*
X122642000Y-39610928D02*
X122642000Y-38110928D01*
X122642000Y-38110928D02*
X122999143Y-38110928D01*
X122999143Y-38110928D02*
X123213429Y-38182357D01*
X123213429Y-38182357D02*
X123356286Y-38325214D01*
X123356286Y-38325214D02*
X123427715Y-38468071D01*
X123427715Y-38468071D02*
X123499143Y-38753785D01*
X123499143Y-38753785D02*
X123499143Y-38968071D01*
X123499143Y-38968071D02*
X123427715Y-39253785D01*
X123427715Y-39253785D02*
X123356286Y-39396642D01*
X123356286Y-39396642D02*
X123213429Y-39539500D01*
X123213429Y-39539500D02*
X122999143Y-39610928D01*
X122999143Y-39610928D02*
X122642000Y-39610928D01*
X124142000Y-39610928D02*
X124142000Y-38610928D01*
X124142000Y-38896642D02*
X124213429Y-38753785D01*
X124213429Y-38753785D02*
X124284858Y-38682357D01*
X124284858Y-38682357D02*
X124427715Y-38610928D01*
X124427715Y-38610928D02*
X124570572Y-38610928D01*
X125070571Y-39610928D02*
X125070571Y-38610928D01*
X125070571Y-38110928D02*
X124999143Y-38182357D01*
X124999143Y-38182357D02*
X125070571Y-38253785D01*
X125070571Y-38253785D02*
X125142000Y-38182357D01*
X125142000Y-38182357D02*
X125070571Y-38110928D01*
X125070571Y-38110928D02*
X125070571Y-38253785D01*
X125642000Y-38610928D02*
X125999143Y-39610928D01*
X125999143Y-39610928D02*
X126356286Y-38610928D01*
X127499143Y-39539500D02*
X127356286Y-39610928D01*
X127356286Y-39610928D02*
X127070572Y-39610928D01*
X127070572Y-39610928D02*
X126927714Y-39539500D01*
X126927714Y-39539500D02*
X126856286Y-39396642D01*
X126856286Y-39396642D02*
X126856286Y-38825214D01*
X126856286Y-38825214D02*
X126927714Y-38682357D01*
X126927714Y-38682357D02*
X127070572Y-38610928D01*
X127070572Y-38610928D02*
X127356286Y-38610928D01*
X127356286Y-38610928D02*
X127499143Y-38682357D01*
X127499143Y-38682357D02*
X127570572Y-38825214D01*
X127570572Y-38825214D02*
X127570572Y-38968071D01*
X127570572Y-38968071D02*
X126856286Y-39110928D01*
X128213428Y-39610928D02*
X128213428Y-38610928D01*
X128213428Y-38896642D02*
X128284857Y-38753785D01*
X128284857Y-38753785D02*
X128356286Y-38682357D01*
X128356286Y-38682357D02*
X128499143Y-38610928D01*
X128499143Y-38610928D02*
X128642000Y-38610928D01*
X111784856Y-41255214D02*
X112284856Y-41255214D01*
X112499142Y-42040928D02*
X111784856Y-42040928D01*
X111784856Y-42040928D02*
X111784856Y-40540928D01*
X111784856Y-40540928D02*
X112499142Y-40540928D01*
X113141999Y-42040928D02*
X113141999Y-41040928D01*
X113141999Y-41326642D02*
X113213428Y-41183785D01*
X113213428Y-41183785D02*
X113284857Y-41112357D01*
X113284857Y-41112357D02*
X113427714Y-41040928D01*
X113427714Y-41040928D02*
X113570571Y-41040928D01*
X114070570Y-42040928D02*
X114070570Y-41040928D01*
X114070570Y-40540928D02*
X113999142Y-40612357D01*
X113999142Y-40612357D02*
X114070570Y-40683785D01*
X114070570Y-40683785D02*
X114141999Y-40612357D01*
X114141999Y-40612357D02*
X114070570Y-40540928D01*
X114070570Y-40540928D02*
X114070570Y-40683785D01*
X115427714Y-41969500D02*
X115284856Y-42040928D01*
X115284856Y-42040928D02*
X114999142Y-42040928D01*
X114999142Y-42040928D02*
X114856285Y-41969500D01*
X114856285Y-41969500D02*
X114784856Y-41898071D01*
X114784856Y-41898071D02*
X114713428Y-41755214D01*
X114713428Y-41755214D02*
X114713428Y-41326642D01*
X114713428Y-41326642D02*
X114784856Y-41183785D01*
X114784856Y-41183785D02*
X114856285Y-41112357D01*
X114856285Y-41112357D02*
X114999142Y-41040928D01*
X114999142Y-41040928D02*
X115284856Y-41040928D01*
X115284856Y-41040928D02*
X115427714Y-41112357D01*
X117213427Y-42040928D02*
X117213427Y-40540928D01*
X117213427Y-40540928D02*
X117570570Y-40540928D01*
X117570570Y-40540928D02*
X117784856Y-40612357D01*
X117784856Y-40612357D02*
X117927713Y-40755214D01*
X117927713Y-40755214D02*
X117999142Y-40898071D01*
X117999142Y-40898071D02*
X118070570Y-41183785D01*
X118070570Y-41183785D02*
X118070570Y-41398071D01*
X118070570Y-41398071D02*
X117999142Y-41683785D01*
X117999142Y-41683785D02*
X117927713Y-41826642D01*
X117927713Y-41826642D02*
X117784856Y-41969500D01*
X117784856Y-41969500D02*
X117570570Y-42040928D01*
X117570570Y-42040928D02*
X117213427Y-42040928D01*
X119356285Y-42040928D02*
X119356285Y-41255214D01*
X119356285Y-41255214D02*
X119284856Y-41112357D01*
X119284856Y-41112357D02*
X119141999Y-41040928D01*
X119141999Y-41040928D02*
X118856285Y-41040928D01*
X118856285Y-41040928D02*
X118713427Y-41112357D01*
X119356285Y-41969500D02*
X119213427Y-42040928D01*
X119213427Y-42040928D02*
X118856285Y-42040928D01*
X118856285Y-42040928D02*
X118713427Y-41969500D01*
X118713427Y-41969500D02*
X118641999Y-41826642D01*
X118641999Y-41826642D02*
X118641999Y-41683785D01*
X118641999Y-41683785D02*
X118713427Y-41540928D01*
X118713427Y-41540928D02*
X118856285Y-41469500D01*
X118856285Y-41469500D02*
X119213427Y-41469500D01*
X119213427Y-41469500D02*
X119356285Y-41398071D01*
X120070570Y-42040928D02*
X120070570Y-40540928D01*
X120713428Y-42040928D02*
X120713428Y-41255214D01*
X120713428Y-41255214D02*
X120641999Y-41112357D01*
X120641999Y-41112357D02*
X120499142Y-41040928D01*
X120499142Y-41040928D02*
X120284856Y-41040928D01*
X120284856Y-41040928D02*
X120141999Y-41112357D01*
X120141999Y-41112357D02*
X120070570Y-41183785D01*
X121641999Y-42040928D02*
X121499142Y-41969500D01*
X121499142Y-41969500D02*
X121427713Y-41826642D01*
X121427713Y-41826642D02*
X121427713Y-40540928D01*
X122284856Y-40540928D02*
X122141999Y-40826642D01*
X122856285Y-41969500D02*
X122999142Y-42040928D01*
X122999142Y-42040928D02*
X123284856Y-42040928D01*
X123284856Y-42040928D02*
X123427713Y-41969500D01*
X123427713Y-41969500D02*
X123499142Y-41826642D01*
X123499142Y-41826642D02*
X123499142Y-41755214D01*
X123499142Y-41755214D02*
X123427713Y-41612357D01*
X123427713Y-41612357D02*
X123284856Y-41540928D01*
X123284856Y-41540928D02*
X123070571Y-41540928D01*
X123070571Y-41540928D02*
X122927713Y-41469500D01*
X122927713Y-41469500D02*
X122856285Y-41326642D01*
X122856285Y-41326642D02*
X122856285Y-41255214D01*
X122856285Y-41255214D02*
X122927713Y-41112357D01*
X122927713Y-41112357D02*
X123070571Y-41040928D01*
X123070571Y-41040928D02*
X123284856Y-41040928D01*
X123284856Y-41040928D02*
X123427713Y-41112357D01*
X125999142Y-42040928D02*
X125284856Y-42040928D01*
X125284856Y-42040928D02*
X125284856Y-40540928D01*
X127142000Y-42040928D02*
X127142000Y-41255214D01*
X127142000Y-41255214D02*
X127070571Y-41112357D01*
X127070571Y-41112357D02*
X126927714Y-41040928D01*
X126927714Y-41040928D02*
X126642000Y-41040928D01*
X126642000Y-41040928D02*
X126499142Y-41112357D01*
X127142000Y-41969500D02*
X126999142Y-42040928D01*
X126999142Y-42040928D02*
X126642000Y-42040928D01*
X126642000Y-42040928D02*
X126499142Y-41969500D01*
X126499142Y-41969500D02*
X126427714Y-41826642D01*
X126427714Y-41826642D02*
X126427714Y-41683785D01*
X126427714Y-41683785D02*
X126499142Y-41540928D01*
X126499142Y-41540928D02*
X126642000Y-41469500D01*
X126642000Y-41469500D02*
X126999142Y-41469500D01*
X126999142Y-41469500D02*
X127142000Y-41398071D01*
X127856285Y-42040928D02*
X127856285Y-40540928D01*
X127856285Y-41112357D02*
X127999143Y-41040928D01*
X127999143Y-41040928D02*
X128284857Y-41040928D01*
X128284857Y-41040928D02*
X128427714Y-41112357D01*
X128427714Y-41112357D02*
X128499143Y-41183785D01*
X128499143Y-41183785D02*
X128570571Y-41326642D01*
X128570571Y-41326642D02*
X128570571Y-41755214D01*
X128570571Y-41755214D02*
X128499143Y-41898071D01*
X128499143Y-41898071D02*
X128427714Y-41969500D01*
X128427714Y-41969500D02*
X128284857Y-42040928D01*
X128284857Y-42040928D02*
X127999143Y-42040928D01*
X127999143Y-42040928D02*
X127856285Y-41969500D01*
D10*
X73659904Y-58187238D02*
X73564666Y-58139619D01*
X73564666Y-58139619D02*
X73421809Y-58139619D01*
X73421809Y-58139619D02*
X73278952Y-58187238D01*
X73278952Y-58187238D02*
X73183714Y-58282476D01*
X73183714Y-58282476D02*
X73136095Y-58377714D01*
X73136095Y-58377714D02*
X73088476Y-58568190D01*
X73088476Y-58568190D02*
X73088476Y-58711047D01*
X73088476Y-58711047D02*
X73136095Y-58901523D01*
X73136095Y-58901523D02*
X73183714Y-58996761D01*
X73183714Y-58996761D02*
X73278952Y-59092000D01*
X73278952Y-59092000D02*
X73421809Y-59139619D01*
X73421809Y-59139619D02*
X73517047Y-59139619D01*
X73517047Y-59139619D02*
X73659904Y-59092000D01*
X73659904Y-59092000D02*
X73707523Y-59044380D01*
X73707523Y-59044380D02*
X73707523Y-58711047D01*
X73707523Y-58711047D02*
X73517047Y-58711047D01*
X74136095Y-59139619D02*
X74136095Y-58139619D01*
X74136095Y-58139619D02*
X74707523Y-59139619D01*
X74707523Y-59139619D02*
X74707523Y-58139619D01*
X75183714Y-59139619D02*
X75183714Y-58139619D01*
X75183714Y-58139619D02*
X75421809Y-58139619D01*
X75421809Y-58139619D02*
X75564666Y-58187238D01*
X75564666Y-58187238D02*
X75659904Y-58282476D01*
X75659904Y-58282476D02*
X75707523Y-58377714D01*
X75707523Y-58377714D02*
X75755142Y-58568190D01*
X75755142Y-58568190D02*
X75755142Y-58711047D01*
X75755142Y-58711047D02*
X75707523Y-58901523D01*
X75707523Y-58901523D02*
X75659904Y-58996761D01*
X75659904Y-58996761D02*
X75564666Y-59092000D01*
X75564666Y-59092000D02*
X75421809Y-59139619D01*
X75421809Y-59139619D02*
X75183714Y-59139619D01*
X65119238Y-63473619D02*
X65452571Y-64473619D01*
X65452571Y-64473619D02*
X65785904Y-63473619D01*
X66119238Y-64092666D02*
X66881143Y-64092666D01*
X66500190Y-64473619D02*
X66500190Y-63711714D01*
D11*
X94837238Y-60853619D02*
X95170571Y-61853619D01*
X95170571Y-61853619D02*
X95503904Y-60853619D01*
X95837238Y-61472666D02*
X96599143Y-61472666D01*
X96218190Y-61853619D02*
X96218190Y-61091714D01*
D10*
X73612285Y-54216253D02*
X73136095Y-54216253D01*
X73136095Y-54216253D02*
X73136095Y-53216253D01*
X73945619Y-53692443D02*
X74278952Y-53692443D01*
X74421809Y-54216253D02*
X73945619Y-54216253D01*
X73945619Y-54216253D02*
X73945619Y-53216253D01*
X73945619Y-53216253D02*
X74421809Y-53216253D01*
X74850381Y-54216253D02*
X74850381Y-53216253D01*
X74850381Y-53216253D02*
X75088476Y-53216253D01*
X75088476Y-53216253D02*
X75231333Y-53263872D01*
X75231333Y-53263872D02*
X75326571Y-53359110D01*
X75326571Y-53359110D02*
X75374190Y-53454348D01*
X75374190Y-53454348D02*
X75421809Y-53644824D01*
X75421809Y-53644824D02*
X75421809Y-53787681D01*
X75421809Y-53787681D02*
X75374190Y-53978157D01*
X75374190Y-53978157D02*
X75326571Y-54073395D01*
X75326571Y-54073395D02*
X75231333Y-54168634D01*
X75231333Y-54168634D02*
X75088476Y-54216253D01*
X75088476Y-54216253D02*
X74850381Y-54216253D01*
X75850381Y-53835300D02*
X76612286Y-53835300D01*
D11*
X95170571Y-63393619D02*
X95361047Y-63393619D01*
X95361047Y-63393619D02*
X95456285Y-63441238D01*
X95456285Y-63441238D02*
X95551523Y-63536476D01*
X95551523Y-63536476D02*
X95599142Y-63726952D01*
X95599142Y-63726952D02*
X95599142Y-64060285D01*
X95599142Y-64060285D02*
X95551523Y-64250761D01*
X95551523Y-64250761D02*
X95456285Y-64346000D01*
X95456285Y-64346000D02*
X95361047Y-64393619D01*
X95361047Y-64393619D02*
X95170571Y-64393619D01*
X95170571Y-64393619D02*
X95075333Y-64346000D01*
X95075333Y-64346000D02*
X94980095Y-64250761D01*
X94980095Y-64250761D02*
X94932476Y-64060285D01*
X94932476Y-64060285D02*
X94932476Y-63726952D01*
X94932476Y-63726952D02*
X94980095Y-63536476D01*
X94980095Y-63536476D02*
X95075333Y-63441238D01*
X95075333Y-63441238D02*
X95170571Y-63393619D01*
X96027714Y-63393619D02*
X96027714Y-64203142D01*
X96027714Y-64203142D02*
X96075333Y-64298380D01*
X96075333Y-64298380D02*
X96122952Y-64346000D01*
X96122952Y-64346000D02*
X96218190Y-64393619D01*
X96218190Y-64393619D02*
X96408666Y-64393619D01*
X96408666Y-64393619D02*
X96503904Y-64346000D01*
X96503904Y-64346000D02*
X96551523Y-64298380D01*
X96551523Y-64298380D02*
X96599142Y-64203142D01*
X96599142Y-64203142D02*
X96599142Y-63393619D01*
X96932476Y-63393619D02*
X97503904Y-63393619D01*
X97218190Y-64393619D02*
X97218190Y-63393619D01*
D13*
X74271333Y-71883952D02*
X74509428Y-72550619D01*
X74509428Y-72550619D02*
X74747523Y-71883952D01*
X75080857Y-71645857D02*
X75128476Y-71598238D01*
X75128476Y-71598238D02*
X75223714Y-71550619D01*
X75223714Y-71550619D02*
X75461809Y-71550619D01*
X75461809Y-71550619D02*
X75557047Y-71598238D01*
X75557047Y-71598238D02*
X75604666Y-71645857D01*
X75604666Y-71645857D02*
X75652285Y-71741095D01*
X75652285Y-71741095D02*
X75652285Y-71836333D01*
X75652285Y-71836333D02*
X75604666Y-71979190D01*
X75604666Y-71979190D02*
X75033238Y-72550619D01*
X75033238Y-72550619D02*
X75652285Y-72550619D01*
X76509428Y-72550619D02*
X76509428Y-72026809D01*
X76509428Y-72026809D02*
X76461809Y-71931571D01*
X76461809Y-71931571D02*
X76366571Y-71883952D01*
X76366571Y-71883952D02*
X76176095Y-71883952D01*
X76176095Y-71883952D02*
X76080857Y-71931571D01*
X76509428Y-72503000D02*
X76414190Y-72550619D01*
X76414190Y-72550619D02*
X76176095Y-72550619D01*
X76176095Y-72550619D02*
X76080857Y-72503000D01*
X76080857Y-72503000D02*
X76033238Y-72407761D01*
X76033238Y-72407761D02*
X76033238Y-72312523D01*
X76033238Y-72312523D02*
X76080857Y-72217285D01*
X76080857Y-72217285D02*
X76176095Y-72169666D01*
X76176095Y-72169666D02*
X76414190Y-72169666D01*
X76414190Y-72169666D02*
X76509428Y-72122047D01*
X70437999Y-74075380D02*
X70390380Y-74123000D01*
X70390380Y-74123000D02*
X70247523Y-74170619D01*
X70247523Y-74170619D02*
X70152285Y-74170619D01*
X70152285Y-74170619D02*
X70009428Y-74123000D01*
X70009428Y-74123000D02*
X69914190Y-74027761D01*
X69914190Y-74027761D02*
X69866571Y-73932523D01*
X69866571Y-73932523D02*
X69818952Y-73742047D01*
X69818952Y-73742047D02*
X69818952Y-73599190D01*
X69818952Y-73599190D02*
X69866571Y-73408714D01*
X69866571Y-73408714D02*
X69914190Y-73313476D01*
X69914190Y-73313476D02*
X70009428Y-73218238D01*
X70009428Y-73218238D02*
X70152285Y-73170619D01*
X70152285Y-73170619D02*
X70247523Y-73170619D01*
X70247523Y-73170619D02*
X70390380Y-73218238D01*
X70390380Y-73218238D02*
X70437999Y-73265857D01*
X71009428Y-74170619D02*
X70914190Y-74123000D01*
X70914190Y-74123000D02*
X70866571Y-74075380D01*
X70866571Y-74075380D02*
X70818952Y-73980142D01*
X70818952Y-73980142D02*
X70818952Y-73694428D01*
X70818952Y-73694428D02*
X70866571Y-73599190D01*
X70866571Y-73599190D02*
X70914190Y-73551571D01*
X70914190Y-73551571D02*
X71009428Y-73503952D01*
X71009428Y-73503952D02*
X71152285Y-73503952D01*
X71152285Y-73503952D02*
X71247523Y-73551571D01*
X71247523Y-73551571D02*
X71295142Y-73599190D01*
X71295142Y-73599190D02*
X71342761Y-73694428D01*
X71342761Y-73694428D02*
X71342761Y-73980142D01*
X71342761Y-73980142D02*
X71295142Y-74075380D01*
X71295142Y-74075380D02*
X71247523Y-74123000D01*
X71247523Y-74123000D02*
X71152285Y-74170619D01*
X71152285Y-74170619D02*
X71009428Y-74170619D01*
X71771333Y-73503952D02*
X71771333Y-74503952D01*
X71771333Y-73551571D02*
X71866571Y-73503952D01*
X71866571Y-73503952D02*
X72057047Y-73503952D01*
X72057047Y-73503952D02*
X72152285Y-73551571D01*
X72152285Y-73551571D02*
X72199904Y-73599190D01*
X72199904Y-73599190D02*
X72247523Y-73694428D01*
X72247523Y-73694428D02*
X72247523Y-73980142D01*
X72247523Y-73980142D02*
X72199904Y-74075380D01*
X72199904Y-74075380D02*
X72152285Y-74123000D01*
X72152285Y-74123000D02*
X72057047Y-74170619D01*
X72057047Y-74170619D02*
X71866571Y-74170619D01*
X71866571Y-74170619D02*
X71771333Y-74123000D01*
X72580857Y-73503952D02*
X72818952Y-74170619D01*
X73057047Y-73503952D02*
X72818952Y-74170619D01*
X72818952Y-74170619D02*
X72723714Y-74408714D01*
X72723714Y-74408714D02*
X72676095Y-74456333D01*
X72676095Y-74456333D02*
X72580857Y-74503952D01*
X73438000Y-74170619D02*
X73438000Y-73503952D01*
X73438000Y-73694428D02*
X73485619Y-73599190D01*
X73485619Y-73599190D02*
X73533238Y-73551571D01*
X73533238Y-73551571D02*
X73628476Y-73503952D01*
X73628476Y-73503952D02*
X73723714Y-73503952D01*
X74057048Y-74170619D02*
X74057048Y-73503952D01*
X74057048Y-73170619D02*
X74009429Y-73218238D01*
X74009429Y-73218238D02*
X74057048Y-73265857D01*
X74057048Y-73265857D02*
X74104667Y-73218238D01*
X74104667Y-73218238D02*
X74057048Y-73170619D01*
X74057048Y-73170619D02*
X74057048Y-73265857D01*
X74961809Y-73503952D02*
X74961809Y-74313476D01*
X74961809Y-74313476D02*
X74914190Y-74408714D01*
X74914190Y-74408714D02*
X74866571Y-74456333D01*
X74866571Y-74456333D02*
X74771333Y-74503952D01*
X74771333Y-74503952D02*
X74628476Y-74503952D01*
X74628476Y-74503952D02*
X74533238Y-74456333D01*
X74961809Y-74123000D02*
X74866571Y-74170619D01*
X74866571Y-74170619D02*
X74676095Y-74170619D01*
X74676095Y-74170619D02*
X74580857Y-74123000D01*
X74580857Y-74123000D02*
X74533238Y-74075380D01*
X74533238Y-74075380D02*
X74485619Y-73980142D01*
X74485619Y-73980142D02*
X74485619Y-73694428D01*
X74485619Y-73694428D02*
X74533238Y-73599190D01*
X74533238Y-73599190D02*
X74580857Y-73551571D01*
X74580857Y-73551571D02*
X74676095Y-73503952D01*
X74676095Y-73503952D02*
X74866571Y-73503952D01*
X74866571Y-73503952D02*
X74961809Y-73551571D01*
X75438000Y-74170619D02*
X75438000Y-73170619D01*
X75866571Y-74170619D02*
X75866571Y-73646809D01*
X75866571Y-73646809D02*
X75818952Y-73551571D01*
X75818952Y-73551571D02*
X75723714Y-73503952D01*
X75723714Y-73503952D02*
X75580857Y-73503952D01*
X75580857Y-73503952D02*
X75485619Y-73551571D01*
X75485619Y-73551571D02*
X75438000Y-73599190D01*
X76199905Y-73503952D02*
X76580857Y-73503952D01*
X76342762Y-73170619D02*
X76342762Y-74027761D01*
X76342762Y-74027761D02*
X76390381Y-74123000D01*
X76390381Y-74123000D02*
X76485619Y-74170619D01*
X76485619Y-74170619D02*
X76580857Y-74170619D01*
X77628477Y-73265857D02*
X77676096Y-73218238D01*
X77676096Y-73218238D02*
X77771334Y-73170619D01*
X77771334Y-73170619D02*
X78009429Y-73170619D01*
X78009429Y-73170619D02*
X78104667Y-73218238D01*
X78104667Y-73218238D02*
X78152286Y-73265857D01*
X78152286Y-73265857D02*
X78199905Y-73361095D01*
X78199905Y-73361095D02*
X78199905Y-73456333D01*
X78199905Y-73456333D02*
X78152286Y-73599190D01*
X78152286Y-73599190D02*
X77580858Y-74170619D01*
X77580858Y-74170619D02*
X78199905Y-74170619D01*
X78818953Y-73170619D02*
X78914191Y-73170619D01*
X78914191Y-73170619D02*
X79009429Y-73218238D01*
X79009429Y-73218238D02*
X79057048Y-73265857D01*
X79057048Y-73265857D02*
X79104667Y-73361095D01*
X79104667Y-73361095D02*
X79152286Y-73551571D01*
X79152286Y-73551571D02*
X79152286Y-73789666D01*
X79152286Y-73789666D02*
X79104667Y-73980142D01*
X79104667Y-73980142D02*
X79057048Y-74075380D01*
X79057048Y-74075380D02*
X79009429Y-74123000D01*
X79009429Y-74123000D02*
X78914191Y-74170619D01*
X78914191Y-74170619D02*
X78818953Y-74170619D01*
X78818953Y-74170619D02*
X78723715Y-74123000D01*
X78723715Y-74123000D02*
X78676096Y-74075380D01*
X78676096Y-74075380D02*
X78628477Y-73980142D01*
X78628477Y-73980142D02*
X78580858Y-73789666D01*
X78580858Y-73789666D02*
X78580858Y-73551571D01*
X78580858Y-73551571D02*
X78628477Y-73361095D01*
X78628477Y-73361095D02*
X78676096Y-73265857D01*
X78676096Y-73265857D02*
X78723715Y-73218238D01*
X78723715Y-73218238D02*
X78818953Y-73170619D01*
X79533239Y-73265857D02*
X79580858Y-73218238D01*
X79580858Y-73218238D02*
X79676096Y-73170619D01*
X79676096Y-73170619D02*
X79914191Y-73170619D01*
X79914191Y-73170619D02*
X80009429Y-73218238D01*
X80009429Y-73218238D02*
X80057048Y-73265857D01*
X80057048Y-73265857D02*
X80104667Y-73361095D01*
X80104667Y-73361095D02*
X80104667Y-73456333D01*
X80104667Y-73456333D02*
X80057048Y-73599190D01*
X80057048Y-73599190D02*
X79485620Y-74170619D01*
X79485620Y-74170619D02*
X80104667Y-74170619D01*
X80438001Y-73170619D02*
X81057048Y-73170619D01*
X81057048Y-73170619D02*
X80723715Y-73551571D01*
X80723715Y-73551571D02*
X80866572Y-73551571D01*
X80866572Y-73551571D02*
X80961810Y-73599190D01*
X80961810Y-73599190D02*
X81009429Y-73646809D01*
X81009429Y-73646809D02*
X81057048Y-73742047D01*
X81057048Y-73742047D02*
X81057048Y-73980142D01*
X81057048Y-73980142D02*
X81009429Y-74075380D01*
X81009429Y-74075380D02*
X80961810Y-74123000D01*
X80961810Y-74123000D02*
X80866572Y-74170619D01*
X80866572Y-74170619D02*
X80580858Y-74170619D01*
X80580858Y-74170619D02*
X80485620Y-74123000D01*
X80485620Y-74123000D02*
X80438001Y-74075380D01*
D10*
X63484095Y-61267753D02*
X63817428Y-61267753D01*
X63960285Y-61791563D02*
X63484095Y-61791563D01*
X63484095Y-61791563D02*
X63484095Y-60791563D01*
X63484095Y-60791563D02*
X63960285Y-60791563D01*
X64388857Y-61791563D02*
X64388857Y-60791563D01*
X64388857Y-60791563D02*
X64960285Y-61791563D01*
X64960285Y-61791563D02*
X64960285Y-60791563D01*
X65769809Y-61267753D02*
X65912666Y-61315372D01*
X65912666Y-61315372D02*
X65960285Y-61362991D01*
X65960285Y-61362991D02*
X66007904Y-61458229D01*
X66007904Y-61458229D02*
X66007904Y-61601086D01*
X66007904Y-61601086D02*
X65960285Y-61696324D01*
X65960285Y-61696324D02*
X65912666Y-61743944D01*
X65912666Y-61743944D02*
X65817428Y-61791563D01*
X65817428Y-61791563D02*
X65436476Y-61791563D01*
X65436476Y-61791563D02*
X65436476Y-60791563D01*
X65436476Y-60791563D02*
X65769809Y-60791563D01*
X65769809Y-60791563D02*
X65865047Y-60839182D01*
X65865047Y-60839182D02*
X65912666Y-60886801D01*
X65912666Y-60886801D02*
X65960285Y-60982039D01*
X65960285Y-60982039D02*
X65960285Y-61077277D01*
X65960285Y-61077277D02*
X65912666Y-61172515D01*
X65912666Y-61172515D02*
X65865047Y-61220134D01*
X65865047Y-61220134D02*
X65769809Y-61267753D01*
X65769809Y-61267753D02*
X65436476Y-61267753D01*
X66912666Y-61791563D02*
X66436476Y-61791563D01*
X66436476Y-61791563D02*
X66436476Y-60791563D01*
D11*
X133842095Y-49661619D02*
X133842095Y-48661619D01*
X133842095Y-48661619D02*
X134080190Y-48661619D01*
X134080190Y-48661619D02*
X134223047Y-48709238D01*
X134223047Y-48709238D02*
X134318285Y-48804476D01*
X134318285Y-48804476D02*
X134365904Y-48899714D01*
X134365904Y-48899714D02*
X134413523Y-49090190D01*
X134413523Y-49090190D02*
X134413523Y-49233047D01*
X134413523Y-49233047D02*
X134365904Y-49423523D01*
X134365904Y-49423523D02*
X134318285Y-49518761D01*
X134318285Y-49518761D02*
X134223047Y-49614000D01*
X134223047Y-49614000D02*
X134080190Y-49661619D01*
X134080190Y-49661619D02*
X133842095Y-49661619D01*
X94980095Y-58789809D02*
X95313428Y-58789809D01*
X95456285Y-59313619D02*
X94980095Y-59313619D01*
X94980095Y-59313619D02*
X94980095Y-58313619D01*
X94980095Y-58313619D02*
X95456285Y-58313619D01*
X96599142Y-58266000D02*
X95742000Y-59551714D01*
X96932476Y-59313619D02*
X96932476Y-58313619D01*
X96932476Y-58313619D02*
X97170571Y-58313619D01*
X97170571Y-58313619D02*
X97313428Y-58361238D01*
X97313428Y-58361238D02*
X97408666Y-58456476D01*
X97408666Y-58456476D02*
X97456285Y-58551714D01*
X97456285Y-58551714D02*
X97503904Y-58742190D01*
X97503904Y-58742190D02*
X97503904Y-58885047D01*
X97503904Y-58885047D02*
X97456285Y-59075523D01*
X97456285Y-59075523D02*
X97408666Y-59170761D01*
X97408666Y-59170761D02*
X97313428Y-59266000D01*
X97313428Y-59266000D02*
X97170571Y-59313619D01*
X97170571Y-59313619D02*
X96932476Y-59313619D01*
%TO.C,C2*%
X123303380Y-68746666D02*
X123351000Y-68794285D01*
X123351000Y-68794285D02*
X123398619Y-68937142D01*
X123398619Y-68937142D02*
X123398619Y-69032380D01*
X123398619Y-69032380D02*
X123351000Y-69175237D01*
X123351000Y-69175237D02*
X123255761Y-69270475D01*
X123255761Y-69270475D02*
X123160523Y-69318094D01*
X123160523Y-69318094D02*
X122970047Y-69365713D01*
X122970047Y-69365713D02*
X122827190Y-69365713D01*
X122827190Y-69365713D02*
X122636714Y-69318094D01*
X122636714Y-69318094D02*
X122541476Y-69270475D01*
X122541476Y-69270475D02*
X122446238Y-69175237D01*
X122446238Y-69175237D02*
X122398619Y-69032380D01*
X122398619Y-69032380D02*
X122398619Y-68937142D01*
X122398619Y-68937142D02*
X122446238Y-68794285D01*
X122446238Y-68794285D02*
X122493857Y-68746666D01*
X122493857Y-68365713D02*
X122446238Y-68318094D01*
X122446238Y-68318094D02*
X122398619Y-68222856D01*
X122398619Y-68222856D02*
X122398619Y-67984761D01*
X122398619Y-67984761D02*
X122446238Y-67889523D01*
X122446238Y-67889523D02*
X122493857Y-67841904D01*
X122493857Y-67841904D02*
X122589095Y-67794285D01*
X122589095Y-67794285D02*
X122684333Y-67794285D01*
X122684333Y-67794285D02*
X122827190Y-67841904D01*
X122827190Y-67841904D02*
X123398619Y-68413332D01*
X123398619Y-68413332D02*
X123398619Y-67794285D01*
X125684619Y-69953047D02*
X125684619Y-70524475D01*
X125684619Y-70238761D02*
X124684619Y-70238761D01*
X124684619Y-70238761D02*
X124827476Y-70333999D01*
X124827476Y-70333999D02*
X124922714Y-70429237D01*
X124922714Y-70429237D02*
X124970333Y-70524475D01*
X124779857Y-69572094D02*
X124732238Y-69524475D01*
X124732238Y-69524475D02*
X124684619Y-69429237D01*
X124684619Y-69429237D02*
X124684619Y-69191142D01*
X124684619Y-69191142D02*
X124732238Y-69095904D01*
X124732238Y-69095904D02*
X124779857Y-69048285D01*
X124779857Y-69048285D02*
X124875095Y-69000666D01*
X124875095Y-69000666D02*
X124970333Y-69000666D01*
X124970333Y-69000666D02*
X125113190Y-69048285D01*
X125113190Y-69048285D02*
X125684619Y-69619713D01*
X125684619Y-69619713D02*
X125684619Y-69000666D01*
X124684619Y-68381618D02*
X124684619Y-68286380D01*
X124684619Y-68286380D02*
X124732238Y-68191142D01*
X124732238Y-68191142D02*
X124779857Y-68143523D01*
X124779857Y-68143523D02*
X124875095Y-68095904D01*
X124875095Y-68095904D02*
X125065571Y-68048285D01*
X125065571Y-68048285D02*
X125303666Y-68048285D01*
X125303666Y-68048285D02*
X125494142Y-68095904D01*
X125494142Y-68095904D02*
X125589380Y-68143523D01*
X125589380Y-68143523D02*
X125637000Y-68191142D01*
X125637000Y-68191142D02*
X125684619Y-68286380D01*
X125684619Y-68286380D02*
X125684619Y-68381618D01*
X125684619Y-68381618D02*
X125637000Y-68476856D01*
X125637000Y-68476856D02*
X125589380Y-68524475D01*
X125589380Y-68524475D02*
X125494142Y-68572094D01*
X125494142Y-68572094D02*
X125303666Y-68619713D01*
X125303666Y-68619713D02*
X125065571Y-68619713D01*
X125065571Y-68619713D02*
X124875095Y-68572094D01*
X124875095Y-68572094D02*
X124779857Y-68524475D01*
X124779857Y-68524475D02*
X124732238Y-68476856D01*
X124732238Y-68476856D02*
X124684619Y-68381618D01*
X125017952Y-67619713D02*
X126017952Y-67619713D01*
X125065571Y-67619713D02*
X125017952Y-67524475D01*
X125017952Y-67524475D02*
X125017952Y-67333999D01*
X125017952Y-67333999D02*
X125065571Y-67238761D01*
X125065571Y-67238761D02*
X125113190Y-67191142D01*
X125113190Y-67191142D02*
X125208428Y-67143523D01*
X125208428Y-67143523D02*
X125494142Y-67143523D01*
X125494142Y-67143523D02*
X125589380Y-67191142D01*
X125589380Y-67191142D02*
X125637000Y-67238761D01*
X125637000Y-67238761D02*
X125684619Y-67333999D01*
X125684619Y-67333999D02*
X125684619Y-67524475D01*
X125684619Y-67524475D02*
X125637000Y-67619713D01*
%TO.C,R1*%
X100163333Y-44658619D02*
X99830000Y-44182428D01*
X99591905Y-44658619D02*
X99591905Y-43658619D01*
X99591905Y-43658619D02*
X99972857Y-43658619D01*
X99972857Y-43658619D02*
X100068095Y-43706238D01*
X100068095Y-43706238D02*
X100115714Y-43753857D01*
X100115714Y-43753857D02*
X100163333Y-43849095D01*
X100163333Y-43849095D02*
X100163333Y-43991952D01*
X100163333Y-43991952D02*
X100115714Y-44087190D01*
X100115714Y-44087190D02*
X100068095Y-44134809D01*
X100068095Y-44134809D02*
X99972857Y-44182428D01*
X99972857Y-44182428D02*
X99591905Y-44182428D01*
X101115714Y-44658619D02*
X100544286Y-44658619D01*
X100830000Y-44658619D02*
X100830000Y-43658619D01*
X100830000Y-43658619D02*
X100734762Y-43801476D01*
X100734762Y-43801476D02*
X100639524Y-43896714D01*
X100639524Y-43896714D02*
X100544286Y-43944333D01*
X99423999Y-47010990D02*
X98852571Y-47010990D01*
X99138285Y-47010990D02*
X99138285Y-46010990D01*
X99138285Y-46010990D02*
X99043047Y-46153847D01*
X99043047Y-46153847D02*
X98947809Y-46249085D01*
X98947809Y-46249085D02*
X98852571Y-46296704D01*
X100328761Y-46010990D02*
X99852571Y-46010990D01*
X99852571Y-46010990D02*
X99804952Y-46487180D01*
X99804952Y-46487180D02*
X99852571Y-46439561D01*
X99852571Y-46439561D02*
X99947809Y-46391942D01*
X99947809Y-46391942D02*
X100185904Y-46391942D01*
X100185904Y-46391942D02*
X100281142Y-46439561D01*
X100281142Y-46439561D02*
X100328761Y-46487180D01*
X100328761Y-46487180D02*
X100376380Y-46582418D01*
X100376380Y-46582418D02*
X100376380Y-46820513D01*
X100376380Y-46820513D02*
X100328761Y-46915751D01*
X100328761Y-46915751D02*
X100281142Y-46963371D01*
X100281142Y-46963371D02*
X100185904Y-47010990D01*
X100185904Y-47010990D02*
X99947809Y-47010990D01*
X99947809Y-47010990D02*
X99852571Y-46963371D01*
X99852571Y-46963371D02*
X99804952Y-46915751D01*
X100995428Y-46010990D02*
X101090666Y-46010990D01*
X101090666Y-46010990D02*
X101185904Y-46058609D01*
X101185904Y-46058609D02*
X101233523Y-46106228D01*
X101233523Y-46106228D02*
X101281142Y-46201466D01*
X101281142Y-46201466D02*
X101328761Y-46391942D01*
X101328761Y-46391942D02*
X101328761Y-46630037D01*
X101328761Y-46630037D02*
X101281142Y-46820513D01*
X101281142Y-46820513D02*
X101233523Y-46915751D01*
X101233523Y-46915751D02*
X101185904Y-46963371D01*
X101185904Y-46963371D02*
X101090666Y-47010990D01*
X101090666Y-47010990D02*
X100995428Y-47010990D01*
X100995428Y-47010990D02*
X100900190Y-46963371D01*
X100900190Y-46963371D02*
X100852571Y-46915751D01*
X100852571Y-46915751D02*
X100804952Y-46820513D01*
X100804952Y-46820513D02*
X100757333Y-46630037D01*
X100757333Y-46630037D02*
X100757333Y-46391942D01*
X100757333Y-46391942D02*
X100804952Y-46201466D01*
X100804952Y-46201466D02*
X100852571Y-46106228D01*
X100852571Y-46106228D02*
X100900190Y-46058609D01*
X100900190Y-46058609D02*
X100995428Y-46010990D01*
X101757333Y-47010990D02*
X101757333Y-46010990D01*
X101852571Y-46630037D02*
X102138285Y-47010990D01*
X102138285Y-46344323D02*
X101757333Y-46725275D01*
%TO.C,U1*%
X89154095Y-55850619D02*
X89154095Y-56660142D01*
X89154095Y-56660142D02*
X89201714Y-56755380D01*
X89201714Y-56755380D02*
X89249333Y-56803000D01*
X89249333Y-56803000D02*
X89344571Y-56850619D01*
X89344571Y-56850619D02*
X89535047Y-56850619D01*
X89535047Y-56850619D02*
X89630285Y-56803000D01*
X89630285Y-56803000D02*
X89677904Y-56755380D01*
X89677904Y-56755380D02*
X89725523Y-56660142D01*
X89725523Y-56660142D02*
X89725523Y-55850619D01*
X90725523Y-56850619D02*
X90154095Y-56850619D01*
X90439809Y-56850619D02*
X90439809Y-55850619D01*
X90439809Y-55850619D02*
X90344571Y-55993476D01*
X90344571Y-55993476D02*
X90249333Y-56088714D01*
X90249333Y-56088714D02*
X90154095Y-56136333D01*
%TO.C,C1*%
X107783333Y-61327380D02*
X107735714Y-61375000D01*
X107735714Y-61375000D02*
X107592857Y-61422619D01*
X107592857Y-61422619D02*
X107497619Y-61422619D01*
X107497619Y-61422619D02*
X107354762Y-61375000D01*
X107354762Y-61375000D02*
X107259524Y-61279761D01*
X107259524Y-61279761D02*
X107211905Y-61184523D01*
X107211905Y-61184523D02*
X107164286Y-60994047D01*
X107164286Y-60994047D02*
X107164286Y-60851190D01*
X107164286Y-60851190D02*
X107211905Y-60660714D01*
X107211905Y-60660714D02*
X107259524Y-60565476D01*
X107259524Y-60565476D02*
X107354762Y-60470238D01*
X107354762Y-60470238D02*
X107497619Y-60422619D01*
X107497619Y-60422619D02*
X107592857Y-60422619D01*
X107592857Y-60422619D02*
X107735714Y-60470238D01*
X107735714Y-60470238D02*
X107783333Y-60517857D01*
X108735714Y-61422619D02*
X108164286Y-61422619D01*
X108450000Y-61422619D02*
X108450000Y-60422619D01*
X108450000Y-60422619D02*
X108354762Y-60565476D01*
X108354762Y-60565476D02*
X108259524Y-60660714D01*
X108259524Y-60660714D02*
X108164286Y-60708333D01*
X106830952Y-63708619D02*
X106259524Y-63708619D01*
X106545238Y-63708619D02*
X106545238Y-62708619D01*
X106545238Y-62708619D02*
X106450000Y-62851476D01*
X106450000Y-62851476D02*
X106354762Y-62946714D01*
X106354762Y-62946714D02*
X106259524Y-62994333D01*
X107211905Y-62803857D02*
X107259524Y-62756238D01*
X107259524Y-62756238D02*
X107354762Y-62708619D01*
X107354762Y-62708619D02*
X107592857Y-62708619D01*
X107592857Y-62708619D02*
X107688095Y-62756238D01*
X107688095Y-62756238D02*
X107735714Y-62803857D01*
X107735714Y-62803857D02*
X107783333Y-62899095D01*
X107783333Y-62899095D02*
X107783333Y-62994333D01*
X107783333Y-62994333D02*
X107735714Y-63137190D01*
X107735714Y-63137190D02*
X107164286Y-63708619D01*
X107164286Y-63708619D02*
X107783333Y-63708619D01*
X108402381Y-62708619D02*
X108497619Y-62708619D01*
X108497619Y-62708619D02*
X108592857Y-62756238D01*
X108592857Y-62756238D02*
X108640476Y-62803857D01*
X108640476Y-62803857D02*
X108688095Y-62899095D01*
X108688095Y-62899095D02*
X108735714Y-63089571D01*
X108735714Y-63089571D02*
X108735714Y-63327666D01*
X108735714Y-63327666D02*
X108688095Y-63518142D01*
X108688095Y-63518142D02*
X108640476Y-63613380D01*
X108640476Y-63613380D02*
X108592857Y-63661000D01*
X108592857Y-63661000D02*
X108497619Y-63708619D01*
X108497619Y-63708619D02*
X108402381Y-63708619D01*
X108402381Y-63708619D02*
X108307143Y-63661000D01*
X108307143Y-63661000D02*
X108259524Y-63613380D01*
X108259524Y-63613380D02*
X108211905Y-63518142D01*
X108211905Y-63518142D02*
X108164286Y-63327666D01*
X108164286Y-63327666D02*
X108164286Y-63089571D01*
X108164286Y-63089571D02*
X108211905Y-62899095D01*
X108211905Y-62899095D02*
X108259524Y-62803857D01*
X108259524Y-62803857D02*
X108307143Y-62756238D01*
X108307143Y-62756238D02*
X108402381Y-62708619D01*
X109164286Y-63041952D02*
X109164286Y-64041952D01*
X109164286Y-63089571D02*
X109259524Y-63041952D01*
X109259524Y-63041952D02*
X109450000Y-63041952D01*
X109450000Y-63041952D02*
X109545238Y-63089571D01*
X109545238Y-63089571D02*
X109592857Y-63137190D01*
X109592857Y-63137190D02*
X109640476Y-63232428D01*
X109640476Y-63232428D02*
X109640476Y-63518142D01*
X109640476Y-63518142D02*
X109592857Y-63613380D01*
X109592857Y-63613380D02*
X109545238Y-63661000D01*
X109545238Y-63661000D02*
X109450000Y-63708619D01*
X109450000Y-63708619D02*
X109259524Y-63708619D01*
X109259524Y-63708619D02*
X109164286Y-63661000D01*
%TO.C,R5*%
X80859333Y-49230619D02*
X80526000Y-48754428D01*
X80287905Y-49230619D02*
X80287905Y-48230619D01*
X80287905Y-48230619D02*
X80668857Y-48230619D01*
X80668857Y-48230619D02*
X80764095Y-48278238D01*
X80764095Y-48278238D02*
X80811714Y-48325857D01*
X80811714Y-48325857D02*
X80859333Y-48421095D01*
X80859333Y-48421095D02*
X80859333Y-48563952D01*
X80859333Y-48563952D02*
X80811714Y-48659190D01*
X80811714Y-48659190D02*
X80764095Y-48706809D01*
X80764095Y-48706809D02*
X80668857Y-48754428D01*
X80668857Y-48754428D02*
X80287905Y-48754428D01*
X81764095Y-48230619D02*
X81287905Y-48230619D01*
X81287905Y-48230619D02*
X81240286Y-48706809D01*
X81240286Y-48706809D02*
X81287905Y-48659190D01*
X81287905Y-48659190D02*
X81383143Y-48611571D01*
X81383143Y-48611571D02*
X81621238Y-48611571D01*
X81621238Y-48611571D02*
X81716476Y-48659190D01*
X81716476Y-48659190D02*
X81764095Y-48706809D01*
X81764095Y-48706809D02*
X81811714Y-48802047D01*
X81811714Y-48802047D02*
X81811714Y-49040142D01*
X81811714Y-49040142D02*
X81764095Y-49135380D01*
X81764095Y-49135380D02*
X81716476Y-49183000D01*
X81716476Y-49183000D02*
X81621238Y-49230619D01*
X81621238Y-49230619D02*
X81383143Y-49230619D01*
X81383143Y-49230619D02*
X81287905Y-49183000D01*
X81287905Y-49183000D02*
X81240286Y-49135380D01*
X79822262Y-47032526D02*
X79250834Y-47032526D01*
X79536548Y-47032526D02*
X79536548Y-46032526D01*
X79536548Y-46032526D02*
X79441310Y-46175383D01*
X79441310Y-46175383D02*
X79346072Y-46270621D01*
X79346072Y-46270621D02*
X79250834Y-46318240D01*
X80441310Y-46032526D02*
X80536548Y-46032526D01*
X80536548Y-46032526D02*
X80631786Y-46080145D01*
X80631786Y-46080145D02*
X80679405Y-46127764D01*
X80679405Y-46127764D02*
X80727024Y-46223002D01*
X80727024Y-46223002D02*
X80774643Y-46413478D01*
X80774643Y-46413478D02*
X80774643Y-46651573D01*
X80774643Y-46651573D02*
X80727024Y-46842049D01*
X80727024Y-46842049D02*
X80679405Y-46937287D01*
X80679405Y-46937287D02*
X80631786Y-46984907D01*
X80631786Y-46984907D02*
X80536548Y-47032526D01*
X80536548Y-47032526D02*
X80441310Y-47032526D01*
X80441310Y-47032526D02*
X80346072Y-46984907D01*
X80346072Y-46984907D02*
X80298453Y-46937287D01*
X80298453Y-46937287D02*
X80250834Y-46842049D01*
X80250834Y-46842049D02*
X80203215Y-46651573D01*
X80203215Y-46651573D02*
X80203215Y-46413478D01*
X80203215Y-46413478D02*
X80250834Y-46223002D01*
X80250834Y-46223002D02*
X80298453Y-46127764D01*
X80298453Y-46127764D02*
X80346072Y-46080145D01*
X80346072Y-46080145D02*
X80441310Y-46032526D01*
X81393691Y-46032526D02*
X81488929Y-46032526D01*
X81488929Y-46032526D02*
X81584167Y-46080145D01*
X81584167Y-46080145D02*
X81631786Y-46127764D01*
X81631786Y-46127764D02*
X81679405Y-46223002D01*
X81679405Y-46223002D02*
X81727024Y-46413478D01*
X81727024Y-46413478D02*
X81727024Y-46651573D01*
X81727024Y-46651573D02*
X81679405Y-46842049D01*
X81679405Y-46842049D02*
X81631786Y-46937287D01*
X81631786Y-46937287D02*
X81584167Y-46984907D01*
X81584167Y-46984907D02*
X81488929Y-47032526D01*
X81488929Y-47032526D02*
X81393691Y-47032526D01*
X81393691Y-47032526D02*
X81298453Y-46984907D01*
X81298453Y-46984907D02*
X81250834Y-46937287D01*
X81250834Y-46937287D02*
X81203215Y-46842049D01*
X81203215Y-46842049D02*
X81155596Y-46651573D01*
X81155596Y-46651573D02*
X81155596Y-46413478D01*
X81155596Y-46413478D02*
X81203215Y-46223002D01*
X81203215Y-46223002D02*
X81250834Y-46127764D01*
X81250834Y-46127764D02*
X81298453Y-46080145D01*
X81298453Y-46080145D02*
X81393691Y-46032526D01*
X82155596Y-47032526D02*
X82155596Y-46032526D01*
X82250834Y-46651573D02*
X82536548Y-47032526D01*
X82536548Y-46365859D02*
X82155596Y-46746811D01*
%TO.C,U2*%
X128778095Y-43912619D02*
X128778095Y-44722142D01*
X128778095Y-44722142D02*
X128825714Y-44817380D01*
X128825714Y-44817380D02*
X128873333Y-44865000D01*
X128873333Y-44865000D02*
X128968571Y-44912619D01*
X128968571Y-44912619D02*
X129159047Y-44912619D01*
X129159047Y-44912619D02*
X129254285Y-44865000D01*
X129254285Y-44865000D02*
X129301904Y-44817380D01*
X129301904Y-44817380D02*
X129349523Y-44722142D01*
X129349523Y-44722142D02*
X129349523Y-43912619D01*
X129778095Y-44007857D02*
X129825714Y-43960238D01*
X129825714Y-43960238D02*
X129920952Y-43912619D01*
X129920952Y-43912619D02*
X130159047Y-43912619D01*
X130159047Y-43912619D02*
X130254285Y-43960238D01*
X130254285Y-43960238D02*
X130301904Y-44007857D01*
X130301904Y-44007857D02*
X130349523Y-44103095D01*
X130349523Y-44103095D02*
X130349523Y-44198333D01*
X130349523Y-44198333D02*
X130301904Y-44341190D01*
X130301904Y-44341190D02*
X129730476Y-44912619D01*
X129730476Y-44912619D02*
X130349523Y-44912619D01*
%TO.C,R3*%
X110323333Y-52532619D02*
X109990000Y-52056428D01*
X109751905Y-52532619D02*
X109751905Y-51532619D01*
X109751905Y-51532619D02*
X110132857Y-51532619D01*
X110132857Y-51532619D02*
X110228095Y-51580238D01*
X110228095Y-51580238D02*
X110275714Y-51627857D01*
X110275714Y-51627857D02*
X110323333Y-51723095D01*
X110323333Y-51723095D02*
X110323333Y-51865952D01*
X110323333Y-51865952D02*
X110275714Y-51961190D01*
X110275714Y-51961190D02*
X110228095Y-52008809D01*
X110228095Y-52008809D02*
X110132857Y-52056428D01*
X110132857Y-52056428D02*
X109751905Y-52056428D01*
X110656667Y-51532619D02*
X111275714Y-51532619D01*
X111275714Y-51532619D02*
X110942381Y-51913571D01*
X110942381Y-51913571D02*
X111085238Y-51913571D01*
X111085238Y-51913571D02*
X111180476Y-51961190D01*
X111180476Y-51961190D02*
X111228095Y-52008809D01*
X111228095Y-52008809D02*
X111275714Y-52104047D01*
X111275714Y-52104047D02*
X111275714Y-52342142D01*
X111275714Y-52342142D02*
X111228095Y-52437380D01*
X111228095Y-52437380D02*
X111180476Y-52485000D01*
X111180476Y-52485000D02*
X111085238Y-52532619D01*
X111085238Y-52532619D02*
X110799524Y-52532619D01*
X110799524Y-52532619D02*
X110704286Y-52485000D01*
X110704286Y-52485000D02*
X110656667Y-52437380D01*
X109406561Y-53888802D02*
X109454180Y-53841183D01*
X109454180Y-53841183D02*
X109549418Y-53793564D01*
X109549418Y-53793564D02*
X109787513Y-53793564D01*
X109787513Y-53793564D02*
X109882751Y-53841183D01*
X109882751Y-53841183D02*
X109930370Y-53888802D01*
X109930370Y-53888802D02*
X109977989Y-53984040D01*
X109977989Y-53984040D02*
X109977989Y-54079278D01*
X109977989Y-54079278D02*
X109930370Y-54222135D01*
X109930370Y-54222135D02*
X109358942Y-54793564D01*
X109358942Y-54793564D02*
X109977989Y-54793564D01*
X110597037Y-53793564D02*
X110692275Y-53793564D01*
X110692275Y-53793564D02*
X110787513Y-53841183D01*
X110787513Y-53841183D02*
X110835132Y-53888802D01*
X110835132Y-53888802D02*
X110882751Y-53984040D01*
X110882751Y-53984040D02*
X110930370Y-54174516D01*
X110930370Y-54174516D02*
X110930370Y-54412611D01*
X110930370Y-54412611D02*
X110882751Y-54603087D01*
X110882751Y-54603087D02*
X110835132Y-54698325D01*
X110835132Y-54698325D02*
X110787513Y-54745945D01*
X110787513Y-54745945D02*
X110692275Y-54793564D01*
X110692275Y-54793564D02*
X110597037Y-54793564D01*
X110597037Y-54793564D02*
X110501799Y-54745945D01*
X110501799Y-54745945D02*
X110454180Y-54698325D01*
X110454180Y-54698325D02*
X110406561Y-54603087D01*
X110406561Y-54603087D02*
X110358942Y-54412611D01*
X110358942Y-54412611D02*
X110358942Y-54174516D01*
X110358942Y-54174516D02*
X110406561Y-53984040D01*
X110406561Y-53984040D02*
X110454180Y-53888802D01*
X110454180Y-53888802D02*
X110501799Y-53841183D01*
X110501799Y-53841183D02*
X110597037Y-53793564D01*
X111358942Y-54793564D02*
X111358942Y-53793564D01*
X111454180Y-54412611D02*
X111739894Y-54793564D01*
X111739894Y-54126897D02*
X111358942Y-54507849D01*
%TO.C,J1*%
X69770666Y-50806619D02*
X69770666Y-51520904D01*
X69770666Y-51520904D02*
X69723047Y-51663761D01*
X69723047Y-51663761D02*
X69627809Y-51759000D01*
X69627809Y-51759000D02*
X69484952Y-51806619D01*
X69484952Y-51806619D02*
X69389714Y-51806619D01*
X70770666Y-51806619D02*
X70199238Y-51806619D01*
X70484952Y-51806619D02*
X70484952Y-50806619D01*
X70484952Y-50806619D02*
X70389714Y-50949476D01*
X70389714Y-50949476D02*
X70294476Y-51044714D01*
X70294476Y-51044714D02*
X70199238Y-51092333D01*
%TO.C,R6*%
X80605333Y-41102619D02*
X80272000Y-40626428D01*
X80033905Y-41102619D02*
X80033905Y-40102619D01*
X80033905Y-40102619D02*
X80414857Y-40102619D01*
X80414857Y-40102619D02*
X80510095Y-40150238D01*
X80510095Y-40150238D02*
X80557714Y-40197857D01*
X80557714Y-40197857D02*
X80605333Y-40293095D01*
X80605333Y-40293095D02*
X80605333Y-40435952D01*
X80605333Y-40435952D02*
X80557714Y-40531190D01*
X80557714Y-40531190D02*
X80510095Y-40578809D01*
X80510095Y-40578809D02*
X80414857Y-40626428D01*
X80414857Y-40626428D02*
X80033905Y-40626428D01*
X81462476Y-40102619D02*
X81272000Y-40102619D01*
X81272000Y-40102619D02*
X81176762Y-40150238D01*
X81176762Y-40150238D02*
X81129143Y-40197857D01*
X81129143Y-40197857D02*
X81033905Y-40340714D01*
X81033905Y-40340714D02*
X80986286Y-40531190D01*
X80986286Y-40531190D02*
X80986286Y-40912142D01*
X80986286Y-40912142D02*
X81033905Y-41007380D01*
X81033905Y-41007380D02*
X81081524Y-41055000D01*
X81081524Y-41055000D02*
X81176762Y-41102619D01*
X81176762Y-41102619D02*
X81367238Y-41102619D01*
X81367238Y-41102619D02*
X81462476Y-41055000D01*
X81462476Y-41055000D02*
X81510095Y-41007380D01*
X81510095Y-41007380D02*
X81557714Y-40912142D01*
X81557714Y-40912142D02*
X81557714Y-40674047D01*
X81557714Y-40674047D02*
X81510095Y-40578809D01*
X81510095Y-40578809D02*
X81462476Y-40531190D01*
X81462476Y-40531190D02*
X81367238Y-40483571D01*
X81367238Y-40483571D02*
X81176762Y-40483571D01*
X81176762Y-40483571D02*
X81081524Y-40531190D01*
X81081524Y-40531190D02*
X81033905Y-40578809D01*
X81033905Y-40578809D02*
X80986286Y-40674047D01*
X79866278Y-43434378D02*
X79294850Y-43434378D01*
X79580564Y-43434378D02*
X79580564Y-42434378D01*
X79580564Y-42434378D02*
X79485326Y-42577235D01*
X79485326Y-42577235D02*
X79390088Y-42672473D01*
X79390088Y-42672473D02*
X79294850Y-42720092D01*
X80771040Y-42434378D02*
X80294850Y-42434378D01*
X80294850Y-42434378D02*
X80247231Y-42910568D01*
X80247231Y-42910568D02*
X80294850Y-42862949D01*
X80294850Y-42862949D02*
X80390088Y-42815330D01*
X80390088Y-42815330D02*
X80628183Y-42815330D01*
X80628183Y-42815330D02*
X80723421Y-42862949D01*
X80723421Y-42862949D02*
X80771040Y-42910568D01*
X80771040Y-42910568D02*
X80818659Y-43005806D01*
X80818659Y-43005806D02*
X80818659Y-43243901D01*
X80818659Y-43243901D02*
X80771040Y-43339139D01*
X80771040Y-43339139D02*
X80723421Y-43386759D01*
X80723421Y-43386759D02*
X80628183Y-43434378D01*
X80628183Y-43434378D02*
X80390088Y-43434378D01*
X80390088Y-43434378D02*
X80294850Y-43386759D01*
X80294850Y-43386759D02*
X80247231Y-43339139D01*
X81437707Y-42434378D02*
X81532945Y-42434378D01*
X81532945Y-42434378D02*
X81628183Y-42481997D01*
X81628183Y-42481997D02*
X81675802Y-42529616D01*
X81675802Y-42529616D02*
X81723421Y-42624854D01*
X81723421Y-42624854D02*
X81771040Y-42815330D01*
X81771040Y-42815330D02*
X81771040Y-43053425D01*
X81771040Y-43053425D02*
X81723421Y-43243901D01*
X81723421Y-43243901D02*
X81675802Y-43339139D01*
X81675802Y-43339139D02*
X81628183Y-43386759D01*
X81628183Y-43386759D02*
X81532945Y-43434378D01*
X81532945Y-43434378D02*
X81437707Y-43434378D01*
X81437707Y-43434378D02*
X81342469Y-43386759D01*
X81342469Y-43386759D02*
X81294850Y-43339139D01*
X81294850Y-43339139D02*
X81247231Y-43243901D01*
X81247231Y-43243901D02*
X81199612Y-43053425D01*
X81199612Y-43053425D02*
X81199612Y-42815330D01*
X81199612Y-42815330D02*
X81247231Y-42624854D01*
X81247231Y-42624854D02*
X81294850Y-42529616D01*
X81294850Y-42529616D02*
X81342469Y-42481997D01*
X81342469Y-42481997D02*
X81437707Y-42434378D01*
X82199612Y-43434378D02*
X82199612Y-42434378D01*
X82294850Y-43053425D02*
X82580564Y-43434378D01*
X82580564Y-42767711D02*
X82199612Y-43148663D01*
%TO.C,R4*%
X114000619Y-66206666D02*
X113524428Y-66539999D01*
X114000619Y-66778094D02*
X113000619Y-66778094D01*
X113000619Y-66778094D02*
X113000619Y-66397142D01*
X113000619Y-66397142D02*
X113048238Y-66301904D01*
X113048238Y-66301904D02*
X113095857Y-66254285D01*
X113095857Y-66254285D02*
X113191095Y-66206666D01*
X113191095Y-66206666D02*
X113333952Y-66206666D01*
X113333952Y-66206666D02*
X113429190Y-66254285D01*
X113429190Y-66254285D02*
X113476809Y-66301904D01*
X113476809Y-66301904D02*
X113524428Y-66397142D01*
X113524428Y-66397142D02*
X113524428Y-66778094D01*
X113333952Y-65349523D02*
X114000619Y-65349523D01*
X112953000Y-65587618D02*
X113667285Y-65825713D01*
X113667285Y-65825713D02*
X113667285Y-65206666D01*
X116019577Y-66657804D02*
X116019577Y-67229232D01*
X116019577Y-66943518D02*
X115019577Y-66943518D01*
X115019577Y-66943518D02*
X115162434Y-67038756D01*
X115162434Y-67038756D02*
X115257672Y-67133994D01*
X115257672Y-67133994D02*
X115305291Y-67229232D01*
X115019577Y-66038756D02*
X115019577Y-65943518D01*
X115019577Y-65943518D02*
X115067196Y-65848280D01*
X115067196Y-65848280D02*
X115114815Y-65800661D01*
X115114815Y-65800661D02*
X115210053Y-65753042D01*
X115210053Y-65753042D02*
X115400529Y-65705423D01*
X115400529Y-65705423D02*
X115638624Y-65705423D01*
X115638624Y-65705423D02*
X115829100Y-65753042D01*
X115829100Y-65753042D02*
X115924338Y-65800661D01*
X115924338Y-65800661D02*
X115971958Y-65848280D01*
X115971958Y-65848280D02*
X116019577Y-65943518D01*
X116019577Y-65943518D02*
X116019577Y-66038756D01*
X116019577Y-66038756D02*
X115971958Y-66133994D01*
X115971958Y-66133994D02*
X115924338Y-66181613D01*
X115924338Y-66181613D02*
X115829100Y-66229232D01*
X115829100Y-66229232D02*
X115638624Y-66276851D01*
X115638624Y-66276851D02*
X115400529Y-66276851D01*
X115400529Y-66276851D02*
X115210053Y-66229232D01*
X115210053Y-66229232D02*
X115114815Y-66181613D01*
X115114815Y-66181613D02*
X115067196Y-66133994D01*
X115067196Y-66133994D02*
X115019577Y-66038756D01*
X116019577Y-65276851D02*
X115019577Y-65276851D01*
X115638624Y-65181613D02*
X116019577Y-64895899D01*
X115352910Y-64895899D02*
X115733862Y-65276851D01*
D14*
%TO.C,C2*%
X121566000Y-72240000D02*
X124306000Y-72240000D01*
X121566000Y-72240000D02*
X121566000Y-65000000D01*
X124306000Y-72240000D02*
X124306000Y-65000000D01*
X121566000Y-65000000D02*
X124306000Y-65000000D01*
%TO.C,R1*%
X96290000Y-46482000D02*
X97060000Y-46482000D01*
X97060000Y-45112000D02*
X97060000Y-47852000D01*
X97060000Y-47852000D02*
X103600000Y-47852000D01*
X103600000Y-45112000D02*
X97060000Y-45112000D01*
X103600000Y-47852000D02*
X103600000Y-45112000D01*
X104370000Y-46482000D02*
X103600000Y-46482000D01*
%TO.C,U1*%
X87266000Y-57344000D02*
X87266000Y-67624000D01*
X87266000Y-67624000D02*
X92566000Y-67624000D01*
X88916000Y-57344000D02*
X87266000Y-57344000D01*
X92566000Y-57344000D02*
X90916000Y-57344000D01*
X92566000Y-67624000D02*
X92566000Y-57344000D01*
X88916000Y-57344000D02*
G75*
G03*
X90916000Y-57344000I1000000J0D01*
G01*
%TO.C,C1*%
X104290000Y-59590000D02*
X104290000Y-62330000D01*
X104290000Y-59590000D02*
X111530000Y-59590000D01*
X104290000Y-62330000D02*
X111530000Y-62330000D01*
X111530000Y-59590000D02*
X111530000Y-62330000D01*
%TO.C,J2*%
X95320000Y-67888000D02*
X97720000Y-67888000D01*
X95320000Y-70288000D02*
X95320000Y-67888000D01*
X97720000Y-67888000D02*
X97720000Y-70288000D01*
X97720000Y-70288000D02*
X95320000Y-70288000D01*
%TO.C,R5*%
X85066000Y-46482000D02*
X84296000Y-46482000D01*
X84296000Y-47852000D02*
X84296000Y-45112000D01*
X84296000Y-45112000D02*
X77756000Y-45112000D01*
X77756000Y-47852000D02*
X84296000Y-47852000D01*
X77756000Y-45112000D02*
X77756000Y-47852000D01*
X76986000Y-46482000D02*
X77756000Y-46482000D01*
%TO.C,U2*%
X125490000Y-45242000D02*
X133590000Y-45242000D01*
X133590000Y-45242000D02*
X133590000Y-53472000D01*
X133590000Y-53472000D02*
X125490000Y-53472000D01*
X125490000Y-53472000D02*
X125490000Y-45242000D01*
%TO.C,R3*%
X114530000Y-54356000D02*
X113760000Y-54356000D01*
X113760000Y-55726000D02*
X113760000Y-52986000D01*
X113760000Y-52986000D02*
X107220000Y-52986000D01*
X107220000Y-55726000D02*
X113760000Y-55726000D01*
X107220000Y-52986000D02*
X107220000Y-55726000D01*
X106450000Y-54356000D02*
X107220000Y-54356000D01*
%TO.C,J1*%
X67584000Y-52424000D02*
X68834000Y-52424000D01*
X67584000Y-53674000D02*
X67584000Y-52424000D01*
X67584000Y-54924000D02*
X67584000Y-64924000D01*
X67584000Y-54924000D02*
X70084000Y-54924000D01*
X67584000Y-64924000D02*
X72584000Y-64924000D01*
X70084000Y-52424000D02*
X72584000Y-52424000D01*
X70084000Y-54924000D02*
X70084000Y-52424000D01*
X72584000Y-52424000D02*
X72584000Y-64924000D01*
%TO.C,R6*%
X85066000Y-42926000D02*
X84296000Y-42926000D01*
X84296000Y-44296000D02*
X84296000Y-41556000D01*
X84296000Y-41556000D02*
X77756000Y-41556000D01*
X77756000Y-44296000D02*
X84296000Y-44296000D01*
X77756000Y-41556000D02*
X77756000Y-44296000D01*
X76986000Y-42926000D02*
X77756000Y-42926000D01*
%TO.C,R4*%
X115570000Y-70080000D02*
X115570000Y-69310000D01*
X114200000Y-69310000D02*
X116940000Y-69310000D01*
X116940000Y-69310000D02*
X116940000Y-62770000D01*
X114200000Y-62770000D02*
X114200000Y-69310000D01*
X116940000Y-62770000D02*
X114200000Y-62770000D01*
X115570000Y-62000000D02*
X115570000Y-62770000D01*
%TD*%
M02*
