%TF.GenerationSoftware,KiCad,Pcbnew,7.0.2*%
%TF.CreationDate,2023-05-31T10:27:28-05:00*%
%TF.ProjectId,LED Driver,4c454420-4472-4697-9665-722e6b696361,v2b*%
%TF.SameCoordinates,Original*%
%TF.FileFunction,Profile,NP*%
%FSLAX46Y46*%
G04 Gerber Fmt 4.6, Leading zero omitted, Abs format (unit mm)*
G04 Created by KiCad (PCBNEW 7.0.2) date 2023-05-31 10:27:28*
%MOMM*%
%LPD*%
G01*
G04 APERTURE LIST*
%ADD10C,0.100000*%
%ADD11C,0.150000*%
%ADD12C,0.300000*%
%ADD13C,0.400000*%
%TA.AperFunction,Profile*%
%ADD14C,0.050000*%
%TD*%
G04 APERTURE END LIST*
D10*
D11*
X90007200Y-104005800D02*
X198007200Y-104005800D01*
X198007200Y-136005800D01*
X90007200Y-136005800D01*
X90007200Y-104005800D01*
D10*
D11*
X10000000Y-10000000D02*
X200007200Y-10000000D01*
X200007200Y-138005800D01*
X10000000Y-138005800D01*
X10000000Y-10000000D01*
D10*
D11*
X12000000Y-12000000D02*
X198007200Y-12000000D01*
X198007200Y-136005800D01*
X12000000Y-136005800D01*
X12000000Y-12000000D01*
D10*
D11*
X60000000Y-12000000D02*
X60000000Y-10000000D01*
D10*
D11*
X110000000Y-12000000D02*
X110000000Y-10000000D01*
D10*
D11*
X160000000Y-12000000D02*
X160000000Y-10000000D01*
D10*
D11*
X35990476Y-11601404D02*
X35247619Y-11601404D01*
X35619047Y-11601404D02*
X35619047Y-10301404D01*
X35619047Y-10301404D02*
X35495238Y-10487119D01*
X35495238Y-10487119D02*
X35371428Y-10610928D01*
X35371428Y-10610928D02*
X35247619Y-10672833D01*
D10*
D11*
X85247619Y-10425214D02*
X85309523Y-10363309D01*
X85309523Y-10363309D02*
X85433333Y-10301404D01*
X85433333Y-10301404D02*
X85742857Y-10301404D01*
X85742857Y-10301404D02*
X85866666Y-10363309D01*
X85866666Y-10363309D02*
X85928571Y-10425214D01*
X85928571Y-10425214D02*
X85990476Y-10549023D01*
X85990476Y-10549023D02*
X85990476Y-10672833D01*
X85990476Y-10672833D02*
X85928571Y-10858547D01*
X85928571Y-10858547D02*
X85185714Y-11601404D01*
X85185714Y-11601404D02*
X85990476Y-11601404D01*
D10*
D11*
X135185714Y-10301404D02*
X135990476Y-10301404D01*
X135990476Y-10301404D02*
X135557142Y-10796642D01*
X135557142Y-10796642D02*
X135742857Y-10796642D01*
X135742857Y-10796642D02*
X135866666Y-10858547D01*
X135866666Y-10858547D02*
X135928571Y-10920452D01*
X135928571Y-10920452D02*
X135990476Y-11044261D01*
X135990476Y-11044261D02*
X135990476Y-11353785D01*
X135990476Y-11353785D02*
X135928571Y-11477595D01*
X135928571Y-11477595D02*
X135866666Y-11539500D01*
X135866666Y-11539500D02*
X135742857Y-11601404D01*
X135742857Y-11601404D02*
X135371428Y-11601404D01*
X135371428Y-11601404D02*
X135247619Y-11539500D01*
X135247619Y-11539500D02*
X135185714Y-11477595D01*
D10*
D11*
X185866666Y-10734738D02*
X185866666Y-11601404D01*
X185557142Y-10239500D02*
X185247619Y-11168071D01*
X185247619Y-11168071D02*
X186052380Y-11168071D01*
D10*
D11*
X60000000Y-136005800D02*
X60000000Y-138005800D01*
D10*
D11*
X110000000Y-136005800D02*
X110000000Y-138005800D01*
D10*
D11*
X160000000Y-136005800D02*
X160000000Y-138005800D01*
D10*
D11*
X35990476Y-137607204D02*
X35247619Y-137607204D01*
X35619047Y-137607204D02*
X35619047Y-136307204D01*
X35619047Y-136307204D02*
X35495238Y-136492919D01*
X35495238Y-136492919D02*
X35371428Y-136616728D01*
X35371428Y-136616728D02*
X35247619Y-136678633D01*
D10*
D11*
X85247619Y-136431014D02*
X85309523Y-136369109D01*
X85309523Y-136369109D02*
X85433333Y-136307204D01*
X85433333Y-136307204D02*
X85742857Y-136307204D01*
X85742857Y-136307204D02*
X85866666Y-136369109D01*
X85866666Y-136369109D02*
X85928571Y-136431014D01*
X85928571Y-136431014D02*
X85990476Y-136554823D01*
X85990476Y-136554823D02*
X85990476Y-136678633D01*
X85990476Y-136678633D02*
X85928571Y-136864347D01*
X85928571Y-136864347D02*
X85185714Y-137607204D01*
X85185714Y-137607204D02*
X85990476Y-137607204D01*
D10*
D11*
X135185714Y-136307204D02*
X135990476Y-136307204D01*
X135990476Y-136307204D02*
X135557142Y-136802442D01*
X135557142Y-136802442D02*
X135742857Y-136802442D01*
X135742857Y-136802442D02*
X135866666Y-136864347D01*
X135866666Y-136864347D02*
X135928571Y-136926252D01*
X135928571Y-136926252D02*
X135990476Y-137050061D01*
X135990476Y-137050061D02*
X135990476Y-137359585D01*
X135990476Y-137359585D02*
X135928571Y-137483395D01*
X135928571Y-137483395D02*
X135866666Y-137545300D01*
X135866666Y-137545300D02*
X135742857Y-137607204D01*
X135742857Y-137607204D02*
X135371428Y-137607204D01*
X135371428Y-137607204D02*
X135247619Y-137545300D01*
X135247619Y-137545300D02*
X135185714Y-137483395D01*
D10*
D11*
X185866666Y-136740538D02*
X185866666Y-137607204D01*
X185557142Y-136245300D02*
X185247619Y-137173871D01*
X185247619Y-137173871D02*
X186052380Y-137173871D01*
D10*
D11*
X10000000Y-60000000D02*
X12000000Y-60000000D01*
D10*
D11*
X10000000Y-110000000D02*
X12000000Y-110000000D01*
D10*
D11*
X10690476Y-35229976D02*
X11309523Y-35229976D01*
X10566666Y-35601404D02*
X10999999Y-34301404D01*
X10999999Y-34301404D02*
X11433333Y-35601404D01*
D10*
D11*
X11092857Y-84920452D02*
X11278571Y-84982357D01*
X11278571Y-84982357D02*
X11340476Y-85044261D01*
X11340476Y-85044261D02*
X11402380Y-85168071D01*
X11402380Y-85168071D02*
X11402380Y-85353785D01*
X11402380Y-85353785D02*
X11340476Y-85477595D01*
X11340476Y-85477595D02*
X11278571Y-85539500D01*
X11278571Y-85539500D02*
X11154761Y-85601404D01*
X11154761Y-85601404D02*
X10659523Y-85601404D01*
X10659523Y-85601404D02*
X10659523Y-84301404D01*
X10659523Y-84301404D02*
X11092857Y-84301404D01*
X11092857Y-84301404D02*
X11216666Y-84363309D01*
X11216666Y-84363309D02*
X11278571Y-84425214D01*
X11278571Y-84425214D02*
X11340476Y-84549023D01*
X11340476Y-84549023D02*
X11340476Y-84672833D01*
X11340476Y-84672833D02*
X11278571Y-84796642D01*
X11278571Y-84796642D02*
X11216666Y-84858547D01*
X11216666Y-84858547D02*
X11092857Y-84920452D01*
X11092857Y-84920452D02*
X10659523Y-84920452D01*
D10*
D11*
X11402380Y-135477595D02*
X11340476Y-135539500D01*
X11340476Y-135539500D02*
X11154761Y-135601404D01*
X11154761Y-135601404D02*
X11030952Y-135601404D01*
X11030952Y-135601404D02*
X10845238Y-135539500D01*
X10845238Y-135539500D02*
X10721428Y-135415690D01*
X10721428Y-135415690D02*
X10659523Y-135291880D01*
X10659523Y-135291880D02*
X10597619Y-135044261D01*
X10597619Y-135044261D02*
X10597619Y-134858547D01*
X10597619Y-134858547D02*
X10659523Y-134610928D01*
X10659523Y-134610928D02*
X10721428Y-134487119D01*
X10721428Y-134487119D02*
X10845238Y-134363309D01*
X10845238Y-134363309D02*
X11030952Y-134301404D01*
X11030952Y-134301404D02*
X11154761Y-134301404D01*
X11154761Y-134301404D02*
X11340476Y-134363309D01*
X11340476Y-134363309D02*
X11402380Y-134425214D01*
D10*
D11*
X200007200Y-60000000D02*
X198007200Y-60000000D01*
D10*
D11*
X200007200Y-110000000D02*
X198007200Y-110000000D01*
D10*
D11*
X198697676Y-35229976D02*
X199316723Y-35229976D01*
X198573866Y-35601404D02*
X199007199Y-34301404D01*
X199007199Y-34301404D02*
X199440533Y-35601404D01*
D10*
D11*
X199100057Y-84920452D02*
X199285771Y-84982357D01*
X199285771Y-84982357D02*
X199347676Y-85044261D01*
X199347676Y-85044261D02*
X199409580Y-85168071D01*
X199409580Y-85168071D02*
X199409580Y-85353785D01*
X199409580Y-85353785D02*
X199347676Y-85477595D01*
X199347676Y-85477595D02*
X199285771Y-85539500D01*
X199285771Y-85539500D02*
X199161961Y-85601404D01*
X199161961Y-85601404D02*
X198666723Y-85601404D01*
X198666723Y-85601404D02*
X198666723Y-84301404D01*
X198666723Y-84301404D02*
X199100057Y-84301404D01*
X199100057Y-84301404D02*
X199223866Y-84363309D01*
X199223866Y-84363309D02*
X199285771Y-84425214D01*
X199285771Y-84425214D02*
X199347676Y-84549023D01*
X199347676Y-84549023D02*
X199347676Y-84672833D01*
X199347676Y-84672833D02*
X199285771Y-84796642D01*
X199285771Y-84796642D02*
X199223866Y-84858547D01*
X199223866Y-84858547D02*
X199100057Y-84920452D01*
X199100057Y-84920452D02*
X198666723Y-84920452D01*
D10*
D11*
X199409580Y-135477595D02*
X199347676Y-135539500D01*
X199347676Y-135539500D02*
X199161961Y-135601404D01*
X199161961Y-135601404D02*
X199038152Y-135601404D01*
X199038152Y-135601404D02*
X198852438Y-135539500D01*
X198852438Y-135539500D02*
X198728628Y-135415690D01*
X198728628Y-135415690D02*
X198666723Y-135291880D01*
X198666723Y-135291880D02*
X198604819Y-135044261D01*
X198604819Y-135044261D02*
X198604819Y-134858547D01*
X198604819Y-134858547D02*
X198666723Y-134610928D01*
X198666723Y-134610928D02*
X198728628Y-134487119D01*
X198728628Y-134487119D02*
X198852438Y-134363309D01*
X198852438Y-134363309D02*
X199038152Y-134301404D01*
X199038152Y-134301404D02*
X199161961Y-134301404D01*
X199161961Y-134301404D02*
X199347676Y-134363309D01*
X199347676Y-134363309D02*
X199409580Y-134425214D01*
D10*
D11*
X113364342Y-131799728D02*
X113364342Y-130299728D01*
X113364342Y-130299728D02*
X113721485Y-130299728D01*
X113721485Y-130299728D02*
X113935771Y-130371157D01*
X113935771Y-130371157D02*
X114078628Y-130514014D01*
X114078628Y-130514014D02*
X114150057Y-130656871D01*
X114150057Y-130656871D02*
X114221485Y-130942585D01*
X114221485Y-130942585D02*
X114221485Y-131156871D01*
X114221485Y-131156871D02*
X114150057Y-131442585D01*
X114150057Y-131442585D02*
X114078628Y-131585442D01*
X114078628Y-131585442D02*
X113935771Y-131728300D01*
X113935771Y-131728300D02*
X113721485Y-131799728D01*
X113721485Y-131799728D02*
X113364342Y-131799728D01*
X115507200Y-131799728D02*
X115507200Y-131014014D01*
X115507200Y-131014014D02*
X115435771Y-130871157D01*
X115435771Y-130871157D02*
X115292914Y-130799728D01*
X115292914Y-130799728D02*
X115007200Y-130799728D01*
X115007200Y-130799728D02*
X114864342Y-130871157D01*
X115507200Y-131728300D02*
X115364342Y-131799728D01*
X115364342Y-131799728D02*
X115007200Y-131799728D01*
X115007200Y-131799728D02*
X114864342Y-131728300D01*
X114864342Y-131728300D02*
X114792914Y-131585442D01*
X114792914Y-131585442D02*
X114792914Y-131442585D01*
X114792914Y-131442585D02*
X114864342Y-131299728D01*
X114864342Y-131299728D02*
X115007200Y-131228300D01*
X115007200Y-131228300D02*
X115364342Y-131228300D01*
X115364342Y-131228300D02*
X115507200Y-131156871D01*
X116007200Y-130799728D02*
X116578628Y-130799728D01*
X116221485Y-130299728D02*
X116221485Y-131585442D01*
X116221485Y-131585442D02*
X116292914Y-131728300D01*
X116292914Y-131728300D02*
X116435771Y-131799728D01*
X116435771Y-131799728D02*
X116578628Y-131799728D01*
X117650057Y-131728300D02*
X117507200Y-131799728D01*
X117507200Y-131799728D02*
X117221486Y-131799728D01*
X117221486Y-131799728D02*
X117078628Y-131728300D01*
X117078628Y-131728300D02*
X117007200Y-131585442D01*
X117007200Y-131585442D02*
X117007200Y-131014014D01*
X117007200Y-131014014D02*
X117078628Y-130871157D01*
X117078628Y-130871157D02*
X117221486Y-130799728D01*
X117221486Y-130799728D02*
X117507200Y-130799728D01*
X117507200Y-130799728D02*
X117650057Y-130871157D01*
X117650057Y-130871157D02*
X117721486Y-131014014D01*
X117721486Y-131014014D02*
X117721486Y-131156871D01*
X117721486Y-131156871D02*
X117007200Y-131299728D01*
X118364342Y-131656871D02*
X118435771Y-131728300D01*
X118435771Y-131728300D02*
X118364342Y-131799728D01*
X118364342Y-131799728D02*
X118292914Y-131728300D01*
X118292914Y-131728300D02*
X118364342Y-131656871D01*
X118364342Y-131656871D02*
X118364342Y-131799728D01*
X118364342Y-130871157D02*
X118435771Y-130942585D01*
X118435771Y-130942585D02*
X118364342Y-131014014D01*
X118364342Y-131014014D02*
X118292914Y-130942585D01*
X118292914Y-130942585D02*
X118364342Y-130871157D01*
X118364342Y-130871157D02*
X118364342Y-131014014D01*
X120150057Y-130442585D02*
X120221485Y-130371157D01*
X120221485Y-130371157D02*
X120364343Y-130299728D01*
X120364343Y-130299728D02*
X120721485Y-130299728D01*
X120721485Y-130299728D02*
X120864343Y-130371157D01*
X120864343Y-130371157D02*
X120935771Y-130442585D01*
X120935771Y-130442585D02*
X121007200Y-130585442D01*
X121007200Y-130585442D02*
X121007200Y-130728300D01*
X121007200Y-130728300D02*
X120935771Y-130942585D01*
X120935771Y-130942585D02*
X120078628Y-131799728D01*
X120078628Y-131799728D02*
X121007200Y-131799728D01*
X121935771Y-130299728D02*
X122078628Y-130299728D01*
X122078628Y-130299728D02*
X122221485Y-130371157D01*
X122221485Y-130371157D02*
X122292914Y-130442585D01*
X122292914Y-130442585D02*
X122364342Y-130585442D01*
X122364342Y-130585442D02*
X122435771Y-130871157D01*
X122435771Y-130871157D02*
X122435771Y-131228300D01*
X122435771Y-131228300D02*
X122364342Y-131514014D01*
X122364342Y-131514014D02*
X122292914Y-131656871D01*
X122292914Y-131656871D02*
X122221485Y-131728300D01*
X122221485Y-131728300D02*
X122078628Y-131799728D01*
X122078628Y-131799728D02*
X121935771Y-131799728D01*
X121935771Y-131799728D02*
X121792914Y-131728300D01*
X121792914Y-131728300D02*
X121721485Y-131656871D01*
X121721485Y-131656871D02*
X121650056Y-131514014D01*
X121650056Y-131514014D02*
X121578628Y-131228300D01*
X121578628Y-131228300D02*
X121578628Y-130871157D01*
X121578628Y-130871157D02*
X121650056Y-130585442D01*
X121650056Y-130585442D02*
X121721485Y-130442585D01*
X121721485Y-130442585D02*
X121792914Y-130371157D01*
X121792914Y-130371157D02*
X121935771Y-130299728D01*
X123007199Y-130442585D02*
X123078627Y-130371157D01*
X123078627Y-130371157D02*
X123221485Y-130299728D01*
X123221485Y-130299728D02*
X123578627Y-130299728D01*
X123578627Y-130299728D02*
X123721485Y-130371157D01*
X123721485Y-130371157D02*
X123792913Y-130442585D01*
X123792913Y-130442585D02*
X123864342Y-130585442D01*
X123864342Y-130585442D02*
X123864342Y-130728300D01*
X123864342Y-130728300D02*
X123792913Y-130942585D01*
X123792913Y-130942585D02*
X122935770Y-131799728D01*
X122935770Y-131799728D02*
X123864342Y-131799728D01*
X124364341Y-130299728D02*
X125292913Y-130299728D01*
X125292913Y-130299728D02*
X124792913Y-130871157D01*
X124792913Y-130871157D02*
X125007198Y-130871157D01*
X125007198Y-130871157D02*
X125150056Y-130942585D01*
X125150056Y-130942585D02*
X125221484Y-131014014D01*
X125221484Y-131014014D02*
X125292913Y-131156871D01*
X125292913Y-131156871D02*
X125292913Y-131514014D01*
X125292913Y-131514014D02*
X125221484Y-131656871D01*
X125221484Y-131656871D02*
X125150056Y-131728300D01*
X125150056Y-131728300D02*
X125007198Y-131799728D01*
X125007198Y-131799728D02*
X124578627Y-131799728D01*
X124578627Y-131799728D02*
X124435770Y-131728300D01*
X124435770Y-131728300D02*
X124364341Y-131656871D01*
X125935769Y-131228300D02*
X127078627Y-131228300D01*
X128078627Y-130299728D02*
X128221484Y-130299728D01*
X128221484Y-130299728D02*
X128364341Y-130371157D01*
X128364341Y-130371157D02*
X128435770Y-130442585D01*
X128435770Y-130442585D02*
X128507198Y-130585442D01*
X128507198Y-130585442D02*
X128578627Y-130871157D01*
X128578627Y-130871157D02*
X128578627Y-131228300D01*
X128578627Y-131228300D02*
X128507198Y-131514014D01*
X128507198Y-131514014D02*
X128435770Y-131656871D01*
X128435770Y-131656871D02*
X128364341Y-131728300D01*
X128364341Y-131728300D02*
X128221484Y-131799728D01*
X128221484Y-131799728D02*
X128078627Y-131799728D01*
X128078627Y-131799728D02*
X127935770Y-131728300D01*
X127935770Y-131728300D02*
X127864341Y-131656871D01*
X127864341Y-131656871D02*
X127792912Y-131514014D01*
X127792912Y-131514014D02*
X127721484Y-131228300D01*
X127721484Y-131228300D02*
X127721484Y-130871157D01*
X127721484Y-130871157D02*
X127792912Y-130585442D01*
X127792912Y-130585442D02*
X127864341Y-130442585D01*
X127864341Y-130442585D02*
X127935770Y-130371157D01*
X127935770Y-130371157D02*
X128078627Y-130299728D01*
X129935769Y-130299728D02*
X129221483Y-130299728D01*
X129221483Y-130299728D02*
X129150055Y-131014014D01*
X129150055Y-131014014D02*
X129221483Y-130942585D01*
X129221483Y-130942585D02*
X129364341Y-130871157D01*
X129364341Y-130871157D02*
X129721483Y-130871157D01*
X129721483Y-130871157D02*
X129864341Y-130942585D01*
X129864341Y-130942585D02*
X129935769Y-131014014D01*
X129935769Y-131014014D02*
X130007198Y-131156871D01*
X130007198Y-131156871D02*
X130007198Y-131514014D01*
X130007198Y-131514014D02*
X129935769Y-131656871D01*
X129935769Y-131656871D02*
X129864341Y-131728300D01*
X129864341Y-131728300D02*
X129721483Y-131799728D01*
X129721483Y-131799728D02*
X129364341Y-131799728D01*
X129364341Y-131799728D02*
X129221483Y-131728300D01*
X129221483Y-131728300D02*
X129150055Y-131656871D01*
X130650054Y-131228300D02*
X131792912Y-131228300D01*
X132364340Y-130299728D02*
X133292912Y-130299728D01*
X133292912Y-130299728D02*
X132792912Y-130871157D01*
X132792912Y-130871157D02*
X133007197Y-130871157D01*
X133007197Y-130871157D02*
X133150055Y-130942585D01*
X133150055Y-130942585D02*
X133221483Y-131014014D01*
X133221483Y-131014014D02*
X133292912Y-131156871D01*
X133292912Y-131156871D02*
X133292912Y-131514014D01*
X133292912Y-131514014D02*
X133221483Y-131656871D01*
X133221483Y-131656871D02*
X133150055Y-131728300D01*
X133150055Y-131728300D02*
X133007197Y-131799728D01*
X133007197Y-131799728D02*
X132578626Y-131799728D01*
X132578626Y-131799728D02*
X132435769Y-131728300D01*
X132435769Y-131728300D02*
X132364340Y-131656871D01*
X134221483Y-130299728D02*
X134364340Y-130299728D01*
X134364340Y-130299728D02*
X134507197Y-130371157D01*
X134507197Y-130371157D02*
X134578626Y-130442585D01*
X134578626Y-130442585D02*
X134650054Y-130585442D01*
X134650054Y-130585442D02*
X134721483Y-130871157D01*
X134721483Y-130871157D02*
X134721483Y-131228300D01*
X134721483Y-131228300D02*
X134650054Y-131514014D01*
X134650054Y-131514014D02*
X134578626Y-131656871D01*
X134578626Y-131656871D02*
X134507197Y-131728300D01*
X134507197Y-131728300D02*
X134364340Y-131799728D01*
X134364340Y-131799728D02*
X134221483Y-131799728D01*
X134221483Y-131799728D02*
X134078626Y-131728300D01*
X134078626Y-131728300D02*
X134007197Y-131656871D01*
X134007197Y-131656871D02*
X133935768Y-131514014D01*
X133935768Y-131514014D02*
X133864340Y-131228300D01*
X133864340Y-131228300D02*
X133864340Y-130871157D01*
X133864340Y-130871157D02*
X133935768Y-130585442D01*
X133935768Y-130585442D02*
X134007197Y-130442585D01*
X134007197Y-130442585D02*
X134078626Y-130371157D01*
X134078626Y-130371157D02*
X134221483Y-130299728D01*
D10*
D11*
X90007200Y-132505800D02*
X198007200Y-132505800D01*
D10*
D11*
X91364342Y-134599728D02*
X91364342Y-133099728D01*
X92221485Y-134599728D02*
X91578628Y-133742585D01*
X92221485Y-133099728D02*
X91364342Y-133956871D01*
X92864342Y-134599728D02*
X92864342Y-133599728D01*
X92864342Y-133099728D02*
X92792914Y-133171157D01*
X92792914Y-133171157D02*
X92864342Y-133242585D01*
X92864342Y-133242585D02*
X92935771Y-133171157D01*
X92935771Y-133171157D02*
X92864342Y-133099728D01*
X92864342Y-133099728D02*
X92864342Y-133242585D01*
X94435771Y-134456871D02*
X94364343Y-134528300D01*
X94364343Y-134528300D02*
X94150057Y-134599728D01*
X94150057Y-134599728D02*
X94007200Y-134599728D01*
X94007200Y-134599728D02*
X93792914Y-134528300D01*
X93792914Y-134528300D02*
X93650057Y-134385442D01*
X93650057Y-134385442D02*
X93578628Y-134242585D01*
X93578628Y-134242585D02*
X93507200Y-133956871D01*
X93507200Y-133956871D02*
X93507200Y-133742585D01*
X93507200Y-133742585D02*
X93578628Y-133456871D01*
X93578628Y-133456871D02*
X93650057Y-133314014D01*
X93650057Y-133314014D02*
X93792914Y-133171157D01*
X93792914Y-133171157D02*
X94007200Y-133099728D01*
X94007200Y-133099728D02*
X94150057Y-133099728D01*
X94150057Y-133099728D02*
X94364343Y-133171157D01*
X94364343Y-133171157D02*
X94435771Y-133242585D01*
X95721486Y-134599728D02*
X95721486Y-133814014D01*
X95721486Y-133814014D02*
X95650057Y-133671157D01*
X95650057Y-133671157D02*
X95507200Y-133599728D01*
X95507200Y-133599728D02*
X95221486Y-133599728D01*
X95221486Y-133599728D02*
X95078628Y-133671157D01*
X95721486Y-134528300D02*
X95578628Y-134599728D01*
X95578628Y-134599728D02*
X95221486Y-134599728D01*
X95221486Y-134599728D02*
X95078628Y-134528300D01*
X95078628Y-134528300D02*
X95007200Y-134385442D01*
X95007200Y-134385442D02*
X95007200Y-134242585D01*
X95007200Y-134242585D02*
X95078628Y-134099728D01*
X95078628Y-134099728D02*
X95221486Y-134028300D01*
X95221486Y-134028300D02*
X95578628Y-134028300D01*
X95578628Y-134028300D02*
X95721486Y-133956871D01*
X97078629Y-134599728D02*
X97078629Y-133099728D01*
X97078629Y-134528300D02*
X96935771Y-134599728D01*
X96935771Y-134599728D02*
X96650057Y-134599728D01*
X96650057Y-134599728D02*
X96507200Y-134528300D01*
X96507200Y-134528300D02*
X96435771Y-134456871D01*
X96435771Y-134456871D02*
X96364343Y-134314014D01*
X96364343Y-134314014D02*
X96364343Y-133885442D01*
X96364343Y-133885442D02*
X96435771Y-133742585D01*
X96435771Y-133742585D02*
X96507200Y-133671157D01*
X96507200Y-133671157D02*
X96650057Y-133599728D01*
X96650057Y-133599728D02*
X96935771Y-133599728D01*
X96935771Y-133599728D02*
X97078629Y-133671157D01*
X98935771Y-133814014D02*
X99435771Y-133814014D01*
X99650057Y-134599728D02*
X98935771Y-134599728D01*
X98935771Y-134599728D02*
X98935771Y-133099728D01*
X98935771Y-133099728D02*
X99650057Y-133099728D01*
X100292914Y-134456871D02*
X100364343Y-134528300D01*
X100364343Y-134528300D02*
X100292914Y-134599728D01*
X100292914Y-134599728D02*
X100221486Y-134528300D01*
X100221486Y-134528300D02*
X100292914Y-134456871D01*
X100292914Y-134456871D02*
X100292914Y-134599728D01*
X101007200Y-134599728D02*
X101007200Y-133099728D01*
X101007200Y-133099728D02*
X101364343Y-133099728D01*
X101364343Y-133099728D02*
X101578629Y-133171157D01*
X101578629Y-133171157D02*
X101721486Y-133314014D01*
X101721486Y-133314014D02*
X101792915Y-133456871D01*
X101792915Y-133456871D02*
X101864343Y-133742585D01*
X101864343Y-133742585D02*
X101864343Y-133956871D01*
X101864343Y-133956871D02*
X101792915Y-134242585D01*
X101792915Y-134242585D02*
X101721486Y-134385442D01*
X101721486Y-134385442D02*
X101578629Y-134528300D01*
X101578629Y-134528300D02*
X101364343Y-134599728D01*
X101364343Y-134599728D02*
X101007200Y-134599728D01*
X102507200Y-134456871D02*
X102578629Y-134528300D01*
X102578629Y-134528300D02*
X102507200Y-134599728D01*
X102507200Y-134599728D02*
X102435772Y-134528300D01*
X102435772Y-134528300D02*
X102507200Y-134456871D01*
X102507200Y-134456871D02*
X102507200Y-134599728D01*
X103150058Y-134171157D02*
X103864344Y-134171157D01*
X103007201Y-134599728D02*
X103507201Y-133099728D01*
X103507201Y-133099728D02*
X104007201Y-134599728D01*
X104507200Y-134456871D02*
X104578629Y-134528300D01*
X104578629Y-134528300D02*
X104507200Y-134599728D01*
X104507200Y-134599728D02*
X104435772Y-134528300D01*
X104435772Y-134528300D02*
X104507200Y-134456871D01*
X104507200Y-134456871D02*
X104507200Y-134599728D01*
X107507200Y-134599728D02*
X107507200Y-133099728D01*
X107650058Y-134028300D02*
X108078629Y-134599728D01*
X108078629Y-133599728D02*
X107507200Y-134171157D01*
X108721486Y-134599728D02*
X108721486Y-133599728D01*
X108721486Y-133099728D02*
X108650058Y-133171157D01*
X108650058Y-133171157D02*
X108721486Y-133242585D01*
X108721486Y-133242585D02*
X108792915Y-133171157D01*
X108792915Y-133171157D02*
X108721486Y-133099728D01*
X108721486Y-133099728D02*
X108721486Y-133242585D01*
X110078630Y-134528300D02*
X109935772Y-134599728D01*
X109935772Y-134599728D02*
X109650058Y-134599728D01*
X109650058Y-134599728D02*
X109507201Y-134528300D01*
X109507201Y-134528300D02*
X109435772Y-134456871D01*
X109435772Y-134456871D02*
X109364344Y-134314014D01*
X109364344Y-134314014D02*
X109364344Y-133885442D01*
X109364344Y-133885442D02*
X109435772Y-133742585D01*
X109435772Y-133742585D02*
X109507201Y-133671157D01*
X109507201Y-133671157D02*
X109650058Y-133599728D01*
X109650058Y-133599728D02*
X109935772Y-133599728D01*
X109935772Y-133599728D02*
X110078630Y-133671157D01*
X111364344Y-134599728D02*
X111364344Y-133814014D01*
X111364344Y-133814014D02*
X111292915Y-133671157D01*
X111292915Y-133671157D02*
X111150058Y-133599728D01*
X111150058Y-133599728D02*
X110864344Y-133599728D01*
X110864344Y-133599728D02*
X110721486Y-133671157D01*
X111364344Y-134528300D02*
X111221486Y-134599728D01*
X111221486Y-134599728D02*
X110864344Y-134599728D01*
X110864344Y-134599728D02*
X110721486Y-134528300D01*
X110721486Y-134528300D02*
X110650058Y-134385442D01*
X110650058Y-134385442D02*
X110650058Y-134242585D01*
X110650058Y-134242585D02*
X110721486Y-134099728D01*
X110721486Y-134099728D02*
X110864344Y-134028300D01*
X110864344Y-134028300D02*
X111221486Y-134028300D01*
X111221486Y-134028300D02*
X111364344Y-133956871D01*
X112721487Y-134599728D02*
X112721487Y-133099728D01*
X112721487Y-134528300D02*
X112578629Y-134599728D01*
X112578629Y-134599728D02*
X112292915Y-134599728D01*
X112292915Y-134599728D02*
X112150058Y-134528300D01*
X112150058Y-134528300D02*
X112078629Y-134456871D01*
X112078629Y-134456871D02*
X112007201Y-134314014D01*
X112007201Y-134314014D02*
X112007201Y-133885442D01*
X112007201Y-133885442D02*
X112078629Y-133742585D01*
X112078629Y-133742585D02*
X112150058Y-133671157D01*
X112150058Y-133671157D02*
X112292915Y-133599728D01*
X112292915Y-133599728D02*
X112578629Y-133599728D01*
X112578629Y-133599728D02*
X112721487Y-133671157D01*
X114435772Y-133099728D02*
X115435772Y-133099728D01*
X115435772Y-133099728D02*
X114792915Y-134599728D01*
X116007200Y-134456871D02*
X116078629Y-134528300D01*
X116078629Y-134528300D02*
X116007200Y-134599728D01*
X116007200Y-134599728D02*
X115935772Y-134528300D01*
X115935772Y-134528300D02*
X116007200Y-134456871D01*
X116007200Y-134456871D02*
X116007200Y-134599728D01*
X117007201Y-133099728D02*
X117150058Y-133099728D01*
X117150058Y-133099728D02*
X117292915Y-133171157D01*
X117292915Y-133171157D02*
X117364344Y-133242585D01*
X117364344Y-133242585D02*
X117435772Y-133385442D01*
X117435772Y-133385442D02*
X117507201Y-133671157D01*
X117507201Y-133671157D02*
X117507201Y-134028300D01*
X117507201Y-134028300D02*
X117435772Y-134314014D01*
X117435772Y-134314014D02*
X117364344Y-134456871D01*
X117364344Y-134456871D02*
X117292915Y-134528300D01*
X117292915Y-134528300D02*
X117150058Y-134599728D01*
X117150058Y-134599728D02*
X117007201Y-134599728D01*
X117007201Y-134599728D02*
X116864344Y-134528300D01*
X116864344Y-134528300D02*
X116792915Y-134456871D01*
X116792915Y-134456871D02*
X116721486Y-134314014D01*
X116721486Y-134314014D02*
X116650058Y-134028300D01*
X116650058Y-134028300D02*
X116650058Y-133671157D01*
X116650058Y-133671157D02*
X116721486Y-133385442D01*
X116721486Y-133385442D02*
X116792915Y-133242585D01*
X116792915Y-133242585D02*
X116864344Y-133171157D01*
X116864344Y-133171157D02*
X117007201Y-133099728D01*
X118150057Y-134456871D02*
X118221486Y-134528300D01*
X118221486Y-134528300D02*
X118150057Y-134599728D01*
X118150057Y-134599728D02*
X118078629Y-134528300D01*
X118078629Y-134528300D02*
X118150057Y-134456871D01*
X118150057Y-134456871D02*
X118150057Y-134599728D01*
X118792915Y-133242585D02*
X118864343Y-133171157D01*
X118864343Y-133171157D02*
X119007201Y-133099728D01*
X119007201Y-133099728D02*
X119364343Y-133099728D01*
X119364343Y-133099728D02*
X119507201Y-133171157D01*
X119507201Y-133171157D02*
X119578629Y-133242585D01*
X119578629Y-133242585D02*
X119650058Y-133385442D01*
X119650058Y-133385442D02*
X119650058Y-133528300D01*
X119650058Y-133528300D02*
X119578629Y-133742585D01*
X119578629Y-133742585D02*
X118721486Y-134599728D01*
X118721486Y-134599728D02*
X119650058Y-134599728D01*
D10*
D11*
X90007200Y-129505800D02*
X198007200Y-129505800D01*
D10*
D12*
X177221485Y-131799728D02*
X176721485Y-131085442D01*
X176364342Y-131799728D02*
X176364342Y-130299728D01*
X176364342Y-130299728D02*
X176935771Y-130299728D01*
X176935771Y-130299728D02*
X177078628Y-130371157D01*
X177078628Y-130371157D02*
X177150057Y-130442585D01*
X177150057Y-130442585D02*
X177221485Y-130585442D01*
X177221485Y-130585442D02*
X177221485Y-130799728D01*
X177221485Y-130799728D02*
X177150057Y-130942585D01*
X177150057Y-130942585D02*
X177078628Y-131014014D01*
X177078628Y-131014014D02*
X176935771Y-131085442D01*
X176935771Y-131085442D02*
X176364342Y-131085442D01*
X178435771Y-131728300D02*
X178292914Y-131799728D01*
X178292914Y-131799728D02*
X178007200Y-131799728D01*
X178007200Y-131799728D02*
X177864342Y-131728300D01*
X177864342Y-131728300D02*
X177792914Y-131585442D01*
X177792914Y-131585442D02*
X177792914Y-131014014D01*
X177792914Y-131014014D02*
X177864342Y-130871157D01*
X177864342Y-130871157D02*
X178007200Y-130799728D01*
X178007200Y-130799728D02*
X178292914Y-130799728D01*
X178292914Y-130799728D02*
X178435771Y-130871157D01*
X178435771Y-130871157D02*
X178507200Y-131014014D01*
X178507200Y-131014014D02*
X178507200Y-131156871D01*
X178507200Y-131156871D02*
X177792914Y-131299728D01*
X179007199Y-130799728D02*
X179364342Y-131799728D01*
X179364342Y-131799728D02*
X179721485Y-130799728D01*
X180292913Y-131656871D02*
X180364342Y-131728300D01*
X180364342Y-131728300D02*
X180292913Y-131799728D01*
X180292913Y-131799728D02*
X180221485Y-131728300D01*
X180221485Y-131728300D02*
X180292913Y-131656871D01*
X180292913Y-131656871D02*
X180292913Y-131799728D01*
X180292913Y-130871157D02*
X180364342Y-130942585D01*
X180364342Y-130942585D02*
X180292913Y-131014014D01*
X180292913Y-131014014D02*
X180221485Y-130942585D01*
X180221485Y-130942585D02*
X180292913Y-130871157D01*
X180292913Y-130871157D02*
X180292913Y-131014014D01*
X182007199Y-130799728D02*
X182364342Y-131799728D01*
X182364342Y-131799728D02*
X182721485Y-130799728D01*
X183221485Y-130442585D02*
X183292913Y-130371157D01*
X183292913Y-130371157D02*
X183435771Y-130299728D01*
X183435771Y-130299728D02*
X183792913Y-130299728D01*
X183792913Y-130299728D02*
X183935771Y-130371157D01*
X183935771Y-130371157D02*
X184007199Y-130442585D01*
X184007199Y-130442585D02*
X184078628Y-130585442D01*
X184078628Y-130585442D02*
X184078628Y-130728300D01*
X184078628Y-130728300D02*
X184007199Y-130942585D01*
X184007199Y-130942585D02*
X183150056Y-131799728D01*
X183150056Y-131799728D02*
X184078628Y-131799728D01*
X184721484Y-131799728D02*
X184721484Y-130299728D01*
X184721484Y-130871157D02*
X184864342Y-130799728D01*
X184864342Y-130799728D02*
X185150056Y-130799728D01*
X185150056Y-130799728D02*
X185292913Y-130871157D01*
X185292913Y-130871157D02*
X185364342Y-130942585D01*
X185364342Y-130942585D02*
X185435770Y-131085442D01*
X185435770Y-131085442D02*
X185435770Y-131514014D01*
X185435770Y-131514014D02*
X185364342Y-131656871D01*
X185364342Y-131656871D02*
X185292913Y-131728300D01*
X185292913Y-131728300D02*
X185150056Y-131799728D01*
X185150056Y-131799728D02*
X184864342Y-131799728D01*
X184864342Y-131799728D02*
X184721484Y-131728300D01*
D10*
D11*
X91292914Y-131728300D02*
X91507200Y-131799728D01*
X91507200Y-131799728D02*
X91864342Y-131799728D01*
X91864342Y-131799728D02*
X92007200Y-131728300D01*
X92007200Y-131728300D02*
X92078628Y-131656871D01*
X92078628Y-131656871D02*
X92150057Y-131514014D01*
X92150057Y-131514014D02*
X92150057Y-131371157D01*
X92150057Y-131371157D02*
X92078628Y-131228300D01*
X92078628Y-131228300D02*
X92007200Y-131156871D01*
X92007200Y-131156871D02*
X91864342Y-131085442D01*
X91864342Y-131085442D02*
X91578628Y-131014014D01*
X91578628Y-131014014D02*
X91435771Y-130942585D01*
X91435771Y-130942585D02*
X91364342Y-130871157D01*
X91364342Y-130871157D02*
X91292914Y-130728300D01*
X91292914Y-130728300D02*
X91292914Y-130585442D01*
X91292914Y-130585442D02*
X91364342Y-130442585D01*
X91364342Y-130442585D02*
X91435771Y-130371157D01*
X91435771Y-130371157D02*
X91578628Y-130299728D01*
X91578628Y-130299728D02*
X91935771Y-130299728D01*
X91935771Y-130299728D02*
X92150057Y-130371157D01*
X92792913Y-131799728D02*
X92792913Y-130799728D01*
X92792913Y-130299728D02*
X92721485Y-130371157D01*
X92721485Y-130371157D02*
X92792913Y-130442585D01*
X92792913Y-130442585D02*
X92864342Y-130371157D01*
X92864342Y-130371157D02*
X92792913Y-130299728D01*
X92792913Y-130299728D02*
X92792913Y-130442585D01*
X93364342Y-130799728D02*
X94150057Y-130799728D01*
X94150057Y-130799728D02*
X93364342Y-131799728D01*
X93364342Y-131799728D02*
X94150057Y-131799728D01*
X95292914Y-131728300D02*
X95150057Y-131799728D01*
X95150057Y-131799728D02*
X94864343Y-131799728D01*
X94864343Y-131799728D02*
X94721485Y-131728300D01*
X94721485Y-131728300D02*
X94650057Y-131585442D01*
X94650057Y-131585442D02*
X94650057Y-131014014D01*
X94650057Y-131014014D02*
X94721485Y-130871157D01*
X94721485Y-130871157D02*
X94864343Y-130799728D01*
X94864343Y-130799728D02*
X95150057Y-130799728D01*
X95150057Y-130799728D02*
X95292914Y-130871157D01*
X95292914Y-130871157D02*
X95364343Y-131014014D01*
X95364343Y-131014014D02*
X95364343Y-131156871D01*
X95364343Y-131156871D02*
X94650057Y-131299728D01*
X96007199Y-131656871D02*
X96078628Y-131728300D01*
X96078628Y-131728300D02*
X96007199Y-131799728D01*
X96007199Y-131799728D02*
X95935771Y-131728300D01*
X95935771Y-131728300D02*
X96007199Y-131656871D01*
X96007199Y-131656871D02*
X96007199Y-131799728D01*
X96007199Y-130871157D02*
X96078628Y-130942585D01*
X96078628Y-130942585D02*
X96007199Y-131014014D01*
X96007199Y-131014014D02*
X95935771Y-130942585D01*
X95935771Y-130942585D02*
X96007199Y-130871157D01*
X96007199Y-130871157D02*
X96007199Y-131014014D01*
X97792914Y-131371157D02*
X98507200Y-131371157D01*
X97650057Y-131799728D02*
X98150057Y-130299728D01*
X98150057Y-130299728D02*
X98650057Y-131799728D01*
X99864342Y-130299728D02*
X99150056Y-130299728D01*
X99150056Y-130299728D02*
X99078628Y-131014014D01*
X99078628Y-131014014D02*
X99150056Y-130942585D01*
X99150056Y-130942585D02*
X99292914Y-130871157D01*
X99292914Y-130871157D02*
X99650056Y-130871157D01*
X99650056Y-130871157D02*
X99792914Y-130942585D01*
X99792914Y-130942585D02*
X99864342Y-131014014D01*
X99864342Y-131014014D02*
X99935771Y-131156871D01*
X99935771Y-131156871D02*
X99935771Y-131514014D01*
X99935771Y-131514014D02*
X99864342Y-131656871D01*
X99864342Y-131656871D02*
X99792914Y-131728300D01*
X99792914Y-131728300D02*
X99650056Y-131799728D01*
X99650056Y-131799728D02*
X99292914Y-131799728D01*
X99292914Y-131799728D02*
X99150056Y-131728300D01*
X99150056Y-131728300D02*
X99078628Y-131656871D01*
D10*
D11*
X176364342Y-134599728D02*
X176364342Y-133099728D01*
X177721486Y-134599728D02*
X177721486Y-133099728D01*
X177721486Y-134528300D02*
X177578628Y-134599728D01*
X177578628Y-134599728D02*
X177292914Y-134599728D01*
X177292914Y-134599728D02*
X177150057Y-134528300D01*
X177150057Y-134528300D02*
X177078628Y-134456871D01*
X177078628Y-134456871D02*
X177007200Y-134314014D01*
X177007200Y-134314014D02*
X177007200Y-133885442D01*
X177007200Y-133885442D02*
X177078628Y-133742585D01*
X177078628Y-133742585D02*
X177150057Y-133671157D01*
X177150057Y-133671157D02*
X177292914Y-133599728D01*
X177292914Y-133599728D02*
X177578628Y-133599728D01*
X177578628Y-133599728D02*
X177721486Y-133671157D01*
X178435771Y-134456871D02*
X178507200Y-134528300D01*
X178507200Y-134528300D02*
X178435771Y-134599728D01*
X178435771Y-134599728D02*
X178364343Y-134528300D01*
X178364343Y-134528300D02*
X178435771Y-134456871D01*
X178435771Y-134456871D02*
X178435771Y-134599728D01*
X178435771Y-133671157D02*
X178507200Y-133742585D01*
X178507200Y-133742585D02*
X178435771Y-133814014D01*
X178435771Y-133814014D02*
X178364343Y-133742585D01*
X178364343Y-133742585D02*
X178435771Y-133671157D01*
X178435771Y-133671157D02*
X178435771Y-133814014D01*
X181078629Y-134599728D02*
X180221486Y-134599728D01*
X180650057Y-134599728D02*
X180650057Y-133099728D01*
X180650057Y-133099728D02*
X180507200Y-133314014D01*
X180507200Y-133314014D02*
X180364343Y-133456871D01*
X180364343Y-133456871D02*
X180221486Y-133528300D01*
X182792914Y-133028300D02*
X181507200Y-134956871D01*
X184078629Y-134599728D02*
X183221486Y-134599728D01*
X183650057Y-134599728D02*
X183650057Y-133099728D01*
X183650057Y-133099728D02*
X183507200Y-133314014D01*
X183507200Y-133314014D02*
X183364343Y-133456871D01*
X183364343Y-133456871D02*
X183221486Y-133528300D01*
D10*
D11*
X90007200Y-125505800D02*
X198007200Y-125505800D01*
D10*
D13*
X91435771Y-126231038D02*
X92578628Y-126231038D01*
X91757200Y-128231038D02*
X92007200Y-126231038D01*
X92983390Y-128231038D02*
X93150057Y-126897704D01*
X93233390Y-126231038D02*
X93126247Y-126326276D01*
X93126247Y-126326276D02*
X93209581Y-126421514D01*
X93209581Y-126421514D02*
X93316724Y-126326276D01*
X93316724Y-126326276D02*
X93233390Y-126231038D01*
X93233390Y-126231038D02*
X93209581Y-126421514D01*
X93804819Y-126897704D02*
X94566723Y-126897704D01*
X94173866Y-126231038D02*
X93959581Y-127945323D01*
X93959581Y-127945323D02*
X94031009Y-128135800D01*
X94031009Y-128135800D02*
X94209581Y-128231038D01*
X94209581Y-128231038D02*
X94400057Y-128231038D01*
X95340533Y-128231038D02*
X95161961Y-128135800D01*
X95161961Y-128135800D02*
X95090533Y-127945323D01*
X95090533Y-127945323D02*
X95304818Y-126231038D01*
X96864342Y-128135800D02*
X96661961Y-128231038D01*
X96661961Y-128231038D02*
X96281008Y-128231038D01*
X96281008Y-128231038D02*
X96102437Y-128135800D01*
X96102437Y-128135800D02*
X96031008Y-127945323D01*
X96031008Y-127945323D02*
X96126247Y-127183419D01*
X96126247Y-127183419D02*
X96245294Y-126992942D01*
X96245294Y-126992942D02*
X96447675Y-126897704D01*
X96447675Y-126897704D02*
X96828627Y-126897704D01*
X96828627Y-126897704D02*
X97007199Y-126992942D01*
X97007199Y-126992942D02*
X97078627Y-127183419D01*
X97078627Y-127183419D02*
X97054818Y-127373895D01*
X97054818Y-127373895D02*
X96078627Y-127564371D01*
X97816723Y-128040561D02*
X97900056Y-128135800D01*
X97900056Y-128135800D02*
X97792913Y-128231038D01*
X97792913Y-128231038D02*
X97709580Y-128135800D01*
X97709580Y-128135800D02*
X97816723Y-128040561D01*
X97816723Y-128040561D02*
X97792913Y-128231038D01*
X97947675Y-126992942D02*
X98031008Y-127088180D01*
X98031008Y-127088180D02*
X97923866Y-127183419D01*
X97923866Y-127183419D02*
X97840532Y-127088180D01*
X97840532Y-127088180D02*
X97947675Y-126992942D01*
X97947675Y-126992942D02*
X97923866Y-127183419D01*
X100173866Y-128135800D02*
X100447675Y-128231038D01*
X100447675Y-128231038D02*
X100923866Y-128231038D01*
X100923866Y-128231038D02*
X101126247Y-128135800D01*
X101126247Y-128135800D02*
X101233390Y-128040561D01*
X101233390Y-128040561D02*
X101352437Y-127850085D01*
X101352437Y-127850085D02*
X101376247Y-127659609D01*
X101376247Y-127659609D02*
X101304818Y-127469133D01*
X101304818Y-127469133D02*
X101221485Y-127373895D01*
X101221485Y-127373895D02*
X101042914Y-127278657D01*
X101042914Y-127278657D02*
X100673866Y-127183419D01*
X100673866Y-127183419D02*
X100495294Y-127088180D01*
X100495294Y-127088180D02*
X100411961Y-126992942D01*
X100411961Y-126992942D02*
X100340533Y-126802466D01*
X100340533Y-126802466D02*
X100364342Y-126611990D01*
X100364342Y-126611990D02*
X100483390Y-126421514D01*
X100483390Y-126421514D02*
X100590533Y-126326276D01*
X100590533Y-126326276D02*
X100792914Y-126231038D01*
X100792914Y-126231038D02*
X101269104Y-126231038D01*
X101269104Y-126231038D02*
X101542914Y-126326276D01*
X102947675Y-127183419D02*
X103221485Y-127278657D01*
X103221485Y-127278657D02*
X103304818Y-127373895D01*
X103304818Y-127373895D02*
X103376247Y-127564371D01*
X103376247Y-127564371D02*
X103340532Y-127850085D01*
X103340532Y-127850085D02*
X103221485Y-128040561D01*
X103221485Y-128040561D02*
X103114342Y-128135800D01*
X103114342Y-128135800D02*
X102911961Y-128231038D01*
X102911961Y-128231038D02*
X102150056Y-128231038D01*
X102150056Y-128231038D02*
X102400056Y-126231038D01*
X102400056Y-126231038D02*
X103066723Y-126231038D01*
X103066723Y-126231038D02*
X103245294Y-126326276D01*
X103245294Y-126326276D02*
X103328628Y-126421514D01*
X103328628Y-126421514D02*
X103400056Y-126611990D01*
X103400056Y-126611990D02*
X103376247Y-126802466D01*
X103376247Y-126802466D02*
X103257199Y-126992942D01*
X103257199Y-126992942D02*
X103150056Y-127088180D01*
X103150056Y-127088180D02*
X102947675Y-127183419D01*
X102947675Y-127183419D02*
X102281009Y-127183419D01*
X105304818Y-128040561D02*
X105197675Y-128135800D01*
X105197675Y-128135800D02*
X104900056Y-128231038D01*
X104900056Y-128231038D02*
X104709580Y-128231038D01*
X104709580Y-128231038D02*
X104435770Y-128135800D01*
X104435770Y-128135800D02*
X104269104Y-127945323D01*
X104269104Y-127945323D02*
X104197675Y-127754847D01*
X104197675Y-127754847D02*
X104150056Y-127373895D01*
X104150056Y-127373895D02*
X104185770Y-127088180D01*
X104185770Y-127088180D02*
X104328627Y-126707228D01*
X104328627Y-126707228D02*
X104447675Y-126516752D01*
X104447675Y-126516752D02*
X104661961Y-126326276D01*
X104661961Y-126326276D02*
X104959580Y-126231038D01*
X104959580Y-126231038D02*
X105150056Y-126231038D01*
X105150056Y-126231038D02*
X105423866Y-126326276D01*
X105423866Y-126326276D02*
X105507199Y-126421514D01*
X108602437Y-128231038D02*
X107650056Y-128231038D01*
X107650056Y-128231038D02*
X107900056Y-126231038D01*
X109388152Y-127183419D02*
X110054818Y-127183419D01*
X110209580Y-128231038D02*
X109257199Y-128231038D01*
X109257199Y-128231038D02*
X109507199Y-126231038D01*
X109507199Y-126231038D02*
X110459580Y-126231038D01*
X111054818Y-128231038D02*
X111304818Y-126231038D01*
X111304818Y-126231038D02*
X111781009Y-126231038D01*
X111781009Y-126231038D02*
X112054818Y-126326276D01*
X112054818Y-126326276D02*
X112221485Y-126516752D01*
X112221485Y-126516752D02*
X112292913Y-126707228D01*
X112292913Y-126707228D02*
X112340533Y-127088180D01*
X112340533Y-127088180D02*
X112304818Y-127373895D01*
X112304818Y-127373895D02*
X112161961Y-127754847D01*
X112161961Y-127754847D02*
X112042913Y-127945323D01*
X112042913Y-127945323D02*
X111828628Y-128135800D01*
X111828628Y-128135800D02*
X111531009Y-128231038D01*
X111531009Y-128231038D02*
X111054818Y-128231038D01*
X115423866Y-128231038D02*
X115673866Y-126231038D01*
X115435771Y-128135800D02*
X115233390Y-128231038D01*
X115233390Y-128231038D02*
X114852438Y-128231038D01*
X114852438Y-128231038D02*
X114673866Y-128135800D01*
X114673866Y-128135800D02*
X114590533Y-128040561D01*
X114590533Y-128040561D02*
X114519104Y-127850085D01*
X114519104Y-127850085D02*
X114590533Y-127278657D01*
X114590533Y-127278657D02*
X114709580Y-127088180D01*
X114709580Y-127088180D02*
X114816723Y-126992942D01*
X114816723Y-126992942D02*
X115019104Y-126897704D01*
X115019104Y-126897704D02*
X115400057Y-126897704D01*
X115400057Y-126897704D02*
X115578628Y-126992942D01*
X116364342Y-128231038D02*
X116531009Y-126897704D01*
X116483390Y-127278657D02*
X116602437Y-127088180D01*
X116602437Y-127088180D02*
X116709580Y-126992942D01*
X116709580Y-126992942D02*
X116911961Y-126897704D01*
X116911961Y-126897704D02*
X117102437Y-126897704D01*
X117590532Y-128231038D02*
X117757199Y-126897704D01*
X117840532Y-126231038D02*
X117733389Y-126326276D01*
X117733389Y-126326276D02*
X117816723Y-126421514D01*
X117816723Y-126421514D02*
X117923866Y-126326276D01*
X117923866Y-126326276D02*
X117840532Y-126231038D01*
X117840532Y-126231038D02*
X117816723Y-126421514D01*
X118507199Y-126897704D02*
X118816723Y-128231038D01*
X118816723Y-128231038D02*
X119459580Y-126897704D01*
X120816723Y-128135800D02*
X120614342Y-128231038D01*
X120614342Y-128231038D02*
X120233389Y-128231038D01*
X120233389Y-128231038D02*
X120054818Y-128135800D01*
X120054818Y-128135800D02*
X119983389Y-127945323D01*
X119983389Y-127945323D02*
X120078628Y-127183419D01*
X120078628Y-127183419D02*
X120197675Y-126992942D01*
X120197675Y-126992942D02*
X120400056Y-126897704D01*
X120400056Y-126897704D02*
X120781008Y-126897704D01*
X120781008Y-126897704D02*
X120959580Y-126992942D01*
X120959580Y-126992942D02*
X121031008Y-127183419D01*
X121031008Y-127183419D02*
X121007199Y-127373895D01*
X121007199Y-127373895D02*
X120031008Y-127564371D01*
X121745294Y-128231038D02*
X121911961Y-126897704D01*
X121864342Y-127278657D02*
X121983389Y-127088180D01*
X121983389Y-127088180D02*
X122090532Y-126992942D01*
X122090532Y-126992942D02*
X122292913Y-126897704D01*
X122292913Y-126897704D02*
X122483389Y-126897704D01*
D10*
D11*
X91864342Y-123614014D02*
X91364342Y-123614014D01*
X91364342Y-124399728D02*
X91364342Y-122899728D01*
X91364342Y-122899728D02*
X92078628Y-122899728D01*
X92650056Y-124399728D02*
X92650056Y-123399728D01*
X92650056Y-122899728D02*
X92578628Y-122971157D01*
X92578628Y-122971157D02*
X92650056Y-123042585D01*
X92650056Y-123042585D02*
X92721485Y-122971157D01*
X92721485Y-122971157D02*
X92650056Y-122899728D01*
X92650056Y-122899728D02*
X92650056Y-123042585D01*
X93578628Y-124399728D02*
X93435771Y-124328300D01*
X93435771Y-124328300D02*
X93364342Y-124185442D01*
X93364342Y-124185442D02*
X93364342Y-122899728D01*
X94721485Y-124328300D02*
X94578628Y-124399728D01*
X94578628Y-124399728D02*
X94292914Y-124399728D01*
X94292914Y-124399728D02*
X94150056Y-124328300D01*
X94150056Y-124328300D02*
X94078628Y-124185442D01*
X94078628Y-124185442D02*
X94078628Y-123614014D01*
X94078628Y-123614014D02*
X94150056Y-123471157D01*
X94150056Y-123471157D02*
X94292914Y-123399728D01*
X94292914Y-123399728D02*
X94578628Y-123399728D01*
X94578628Y-123399728D02*
X94721485Y-123471157D01*
X94721485Y-123471157D02*
X94792914Y-123614014D01*
X94792914Y-123614014D02*
X94792914Y-123756871D01*
X94792914Y-123756871D02*
X94078628Y-123899728D01*
X95435770Y-124256871D02*
X95507199Y-124328300D01*
X95507199Y-124328300D02*
X95435770Y-124399728D01*
X95435770Y-124399728D02*
X95364342Y-124328300D01*
X95364342Y-124328300D02*
X95435770Y-124256871D01*
X95435770Y-124256871D02*
X95435770Y-124399728D01*
X95435770Y-123471157D02*
X95507199Y-123542585D01*
X95507199Y-123542585D02*
X95435770Y-123614014D01*
X95435770Y-123614014D02*
X95364342Y-123542585D01*
X95364342Y-123542585D02*
X95435770Y-123471157D01*
X95435770Y-123471157D02*
X95435770Y-123614014D01*
X98007199Y-124399728D02*
X97292913Y-124399728D01*
X97292913Y-124399728D02*
X97292913Y-122899728D01*
X98507199Y-123614014D02*
X99007199Y-123614014D01*
X99221485Y-124399728D02*
X98507199Y-124399728D01*
X98507199Y-124399728D02*
X98507199Y-122899728D01*
X98507199Y-122899728D02*
X99221485Y-122899728D01*
X99864342Y-124399728D02*
X99864342Y-122899728D01*
X99864342Y-122899728D02*
X100221485Y-122899728D01*
X100221485Y-122899728D02*
X100435771Y-122971157D01*
X100435771Y-122971157D02*
X100578628Y-123114014D01*
X100578628Y-123114014D02*
X100650057Y-123256871D01*
X100650057Y-123256871D02*
X100721485Y-123542585D01*
X100721485Y-123542585D02*
X100721485Y-123756871D01*
X100721485Y-123756871D02*
X100650057Y-124042585D01*
X100650057Y-124042585D02*
X100578628Y-124185442D01*
X100578628Y-124185442D02*
X100435771Y-124328300D01*
X100435771Y-124328300D02*
X100221485Y-124399728D01*
X100221485Y-124399728D02*
X99864342Y-124399728D01*
X102507199Y-124399728D02*
X102507199Y-122899728D01*
X102507199Y-122899728D02*
X102864342Y-122899728D01*
X102864342Y-122899728D02*
X103078628Y-122971157D01*
X103078628Y-122971157D02*
X103221485Y-123114014D01*
X103221485Y-123114014D02*
X103292914Y-123256871D01*
X103292914Y-123256871D02*
X103364342Y-123542585D01*
X103364342Y-123542585D02*
X103364342Y-123756871D01*
X103364342Y-123756871D02*
X103292914Y-124042585D01*
X103292914Y-124042585D02*
X103221485Y-124185442D01*
X103221485Y-124185442D02*
X103078628Y-124328300D01*
X103078628Y-124328300D02*
X102864342Y-124399728D01*
X102864342Y-124399728D02*
X102507199Y-124399728D01*
X104007199Y-124399728D02*
X104007199Y-123399728D01*
X104007199Y-123685442D02*
X104078628Y-123542585D01*
X104078628Y-123542585D02*
X104150057Y-123471157D01*
X104150057Y-123471157D02*
X104292914Y-123399728D01*
X104292914Y-123399728D02*
X104435771Y-123399728D01*
X104935770Y-124399728D02*
X104935770Y-123399728D01*
X104935770Y-122899728D02*
X104864342Y-122971157D01*
X104864342Y-122971157D02*
X104935770Y-123042585D01*
X104935770Y-123042585D02*
X105007199Y-122971157D01*
X105007199Y-122971157D02*
X104935770Y-122899728D01*
X104935770Y-122899728D02*
X104935770Y-123042585D01*
X105507199Y-123399728D02*
X105864342Y-124399728D01*
X105864342Y-124399728D02*
X106221485Y-123399728D01*
X107364342Y-124328300D02*
X107221485Y-124399728D01*
X107221485Y-124399728D02*
X106935771Y-124399728D01*
X106935771Y-124399728D02*
X106792913Y-124328300D01*
X106792913Y-124328300D02*
X106721485Y-124185442D01*
X106721485Y-124185442D02*
X106721485Y-123614014D01*
X106721485Y-123614014D02*
X106792913Y-123471157D01*
X106792913Y-123471157D02*
X106935771Y-123399728D01*
X106935771Y-123399728D02*
X107221485Y-123399728D01*
X107221485Y-123399728D02*
X107364342Y-123471157D01*
X107364342Y-123471157D02*
X107435771Y-123614014D01*
X107435771Y-123614014D02*
X107435771Y-123756871D01*
X107435771Y-123756871D02*
X106721485Y-123899728D01*
X108078627Y-124399728D02*
X108078627Y-123399728D01*
X108078627Y-123685442D02*
X108150056Y-123542585D01*
X108150056Y-123542585D02*
X108221485Y-123471157D01*
X108221485Y-123471157D02*
X108364342Y-123399728D01*
X108364342Y-123399728D02*
X108507199Y-123399728D01*
X109007198Y-124256871D02*
X109078627Y-124328300D01*
X109078627Y-124328300D02*
X109007198Y-124399728D01*
X109007198Y-124399728D02*
X108935770Y-124328300D01*
X108935770Y-124328300D02*
X109007198Y-124256871D01*
X109007198Y-124256871D02*
X109007198Y-124399728D01*
X109721484Y-124399728D02*
X109721484Y-122899728D01*
X109864342Y-123828300D02*
X110292913Y-124399728D01*
X110292913Y-123399728D02*
X109721484Y-123971157D01*
X110935770Y-124399728D02*
X110935770Y-123399728D01*
X110935770Y-122899728D02*
X110864342Y-122971157D01*
X110864342Y-122971157D02*
X110935770Y-123042585D01*
X110935770Y-123042585D02*
X111007199Y-122971157D01*
X111007199Y-122971157D02*
X110935770Y-122899728D01*
X110935770Y-122899728D02*
X110935770Y-123042585D01*
X112292914Y-124328300D02*
X112150056Y-124399728D01*
X112150056Y-124399728D02*
X111864342Y-124399728D01*
X111864342Y-124399728D02*
X111721485Y-124328300D01*
X111721485Y-124328300D02*
X111650056Y-124256871D01*
X111650056Y-124256871D02*
X111578628Y-124114014D01*
X111578628Y-124114014D02*
X111578628Y-123685442D01*
X111578628Y-123685442D02*
X111650056Y-123542585D01*
X111650056Y-123542585D02*
X111721485Y-123471157D01*
X111721485Y-123471157D02*
X111864342Y-123399728D01*
X111864342Y-123399728D02*
X112150056Y-123399728D01*
X112150056Y-123399728D02*
X112292914Y-123471157D01*
X113578628Y-124399728D02*
X113578628Y-123614014D01*
X113578628Y-123614014D02*
X113507199Y-123471157D01*
X113507199Y-123471157D02*
X113364342Y-123399728D01*
X113364342Y-123399728D02*
X113078628Y-123399728D01*
X113078628Y-123399728D02*
X112935770Y-123471157D01*
X113578628Y-124328300D02*
X113435770Y-124399728D01*
X113435770Y-124399728D02*
X113078628Y-124399728D01*
X113078628Y-124399728D02*
X112935770Y-124328300D01*
X112935770Y-124328300D02*
X112864342Y-124185442D01*
X112864342Y-124185442D02*
X112864342Y-124042585D01*
X112864342Y-124042585D02*
X112935770Y-123899728D01*
X112935770Y-123899728D02*
X113078628Y-123828300D01*
X113078628Y-123828300D02*
X113435770Y-123828300D01*
X113435770Y-123828300D02*
X113578628Y-123756871D01*
X114935771Y-124399728D02*
X114935771Y-122899728D01*
X114935771Y-124328300D02*
X114792913Y-124399728D01*
X114792913Y-124399728D02*
X114507199Y-124399728D01*
X114507199Y-124399728D02*
X114364342Y-124328300D01*
X114364342Y-124328300D02*
X114292913Y-124256871D01*
X114292913Y-124256871D02*
X114221485Y-124114014D01*
X114221485Y-124114014D02*
X114221485Y-123685442D01*
X114221485Y-123685442D02*
X114292913Y-123542585D01*
X114292913Y-123542585D02*
X114364342Y-123471157D01*
X114364342Y-123471157D02*
X114507199Y-123399728D01*
X114507199Y-123399728D02*
X114792913Y-123399728D01*
X114792913Y-123399728D02*
X114935771Y-123471157D01*
X115292914Y-124542585D02*
X116435771Y-124542585D01*
X116792913Y-123399728D02*
X116792913Y-124899728D01*
X116792913Y-123471157D02*
X116935771Y-123399728D01*
X116935771Y-123399728D02*
X117221485Y-123399728D01*
X117221485Y-123399728D02*
X117364342Y-123471157D01*
X117364342Y-123471157D02*
X117435771Y-123542585D01*
X117435771Y-123542585D02*
X117507199Y-123685442D01*
X117507199Y-123685442D02*
X117507199Y-124114014D01*
X117507199Y-124114014D02*
X117435771Y-124256871D01*
X117435771Y-124256871D02*
X117364342Y-124328300D01*
X117364342Y-124328300D02*
X117221485Y-124399728D01*
X117221485Y-124399728D02*
X116935771Y-124399728D01*
X116935771Y-124399728D02*
X116792913Y-124328300D01*
X118792914Y-124328300D02*
X118650056Y-124399728D01*
X118650056Y-124399728D02*
X118364342Y-124399728D01*
X118364342Y-124399728D02*
X118221485Y-124328300D01*
X118221485Y-124328300D02*
X118150056Y-124256871D01*
X118150056Y-124256871D02*
X118078628Y-124114014D01*
X118078628Y-124114014D02*
X118078628Y-123685442D01*
X118078628Y-123685442D02*
X118150056Y-123542585D01*
X118150056Y-123542585D02*
X118221485Y-123471157D01*
X118221485Y-123471157D02*
X118364342Y-123399728D01*
X118364342Y-123399728D02*
X118650056Y-123399728D01*
X118650056Y-123399728D02*
X118792914Y-123471157D01*
X119435770Y-124399728D02*
X119435770Y-122899728D01*
X119435770Y-123471157D02*
X119578628Y-123399728D01*
X119578628Y-123399728D02*
X119864342Y-123399728D01*
X119864342Y-123399728D02*
X120007199Y-123471157D01*
X120007199Y-123471157D02*
X120078628Y-123542585D01*
X120078628Y-123542585D02*
X120150056Y-123685442D01*
X120150056Y-123685442D02*
X120150056Y-124114014D01*
X120150056Y-124114014D02*
X120078628Y-124256871D01*
X120078628Y-124256871D02*
X120007199Y-124328300D01*
X120007199Y-124328300D02*
X119864342Y-124399728D01*
X119864342Y-124399728D02*
X119578628Y-124399728D01*
X119578628Y-124399728D02*
X119435770Y-124328300D01*
D10*
D11*
X90007200Y-119505800D02*
X198007200Y-119505800D01*
D10*
D11*
X91292914Y-121628300D02*
X91507200Y-121699728D01*
X91507200Y-121699728D02*
X91864342Y-121699728D01*
X91864342Y-121699728D02*
X92007200Y-121628300D01*
X92007200Y-121628300D02*
X92078628Y-121556871D01*
X92078628Y-121556871D02*
X92150057Y-121414014D01*
X92150057Y-121414014D02*
X92150057Y-121271157D01*
X92150057Y-121271157D02*
X92078628Y-121128300D01*
X92078628Y-121128300D02*
X92007200Y-121056871D01*
X92007200Y-121056871D02*
X91864342Y-120985442D01*
X91864342Y-120985442D02*
X91578628Y-120914014D01*
X91578628Y-120914014D02*
X91435771Y-120842585D01*
X91435771Y-120842585D02*
X91364342Y-120771157D01*
X91364342Y-120771157D02*
X91292914Y-120628300D01*
X91292914Y-120628300D02*
X91292914Y-120485442D01*
X91292914Y-120485442D02*
X91364342Y-120342585D01*
X91364342Y-120342585D02*
X91435771Y-120271157D01*
X91435771Y-120271157D02*
X91578628Y-120199728D01*
X91578628Y-120199728D02*
X91935771Y-120199728D01*
X91935771Y-120199728D02*
X92150057Y-120271157D01*
X92792913Y-121699728D02*
X92792913Y-120199728D01*
X93435771Y-121699728D02*
X93435771Y-120914014D01*
X93435771Y-120914014D02*
X93364342Y-120771157D01*
X93364342Y-120771157D02*
X93221485Y-120699728D01*
X93221485Y-120699728D02*
X93007199Y-120699728D01*
X93007199Y-120699728D02*
X92864342Y-120771157D01*
X92864342Y-120771157D02*
X92792913Y-120842585D01*
X94721485Y-121628300D02*
X94578628Y-121699728D01*
X94578628Y-121699728D02*
X94292914Y-121699728D01*
X94292914Y-121699728D02*
X94150056Y-121628300D01*
X94150056Y-121628300D02*
X94078628Y-121485442D01*
X94078628Y-121485442D02*
X94078628Y-120914014D01*
X94078628Y-120914014D02*
X94150056Y-120771157D01*
X94150056Y-120771157D02*
X94292914Y-120699728D01*
X94292914Y-120699728D02*
X94578628Y-120699728D01*
X94578628Y-120699728D02*
X94721485Y-120771157D01*
X94721485Y-120771157D02*
X94792914Y-120914014D01*
X94792914Y-120914014D02*
X94792914Y-121056871D01*
X94792914Y-121056871D02*
X94078628Y-121199728D01*
X96007199Y-121628300D02*
X95864342Y-121699728D01*
X95864342Y-121699728D02*
X95578628Y-121699728D01*
X95578628Y-121699728D02*
X95435770Y-121628300D01*
X95435770Y-121628300D02*
X95364342Y-121485442D01*
X95364342Y-121485442D02*
X95364342Y-120914014D01*
X95364342Y-120914014D02*
X95435770Y-120771157D01*
X95435770Y-120771157D02*
X95578628Y-120699728D01*
X95578628Y-120699728D02*
X95864342Y-120699728D01*
X95864342Y-120699728D02*
X96007199Y-120771157D01*
X96007199Y-120771157D02*
X96078628Y-120914014D01*
X96078628Y-120914014D02*
X96078628Y-121056871D01*
X96078628Y-121056871D02*
X95364342Y-121199728D01*
X96507199Y-120699728D02*
X97078627Y-120699728D01*
X96721484Y-120199728D02*
X96721484Y-121485442D01*
X96721484Y-121485442D02*
X96792913Y-121628300D01*
X96792913Y-121628300D02*
X96935770Y-121699728D01*
X96935770Y-121699728D02*
X97078627Y-121699728D01*
X97578627Y-121556871D02*
X97650056Y-121628300D01*
X97650056Y-121628300D02*
X97578627Y-121699728D01*
X97578627Y-121699728D02*
X97507199Y-121628300D01*
X97507199Y-121628300D02*
X97578627Y-121556871D01*
X97578627Y-121556871D02*
X97578627Y-121699728D01*
X97578627Y-120771157D02*
X97650056Y-120842585D01*
X97650056Y-120842585D02*
X97578627Y-120914014D01*
X97578627Y-120914014D02*
X97507199Y-120842585D01*
X97507199Y-120842585D02*
X97578627Y-120771157D01*
X97578627Y-120771157D02*
X97578627Y-120914014D01*
D10*
D12*
X91292914Y-118628300D02*
X91507200Y-118699728D01*
X91507200Y-118699728D02*
X91864342Y-118699728D01*
X91864342Y-118699728D02*
X92007200Y-118628300D01*
X92007200Y-118628300D02*
X92078628Y-118556871D01*
X92078628Y-118556871D02*
X92150057Y-118414014D01*
X92150057Y-118414014D02*
X92150057Y-118271157D01*
X92150057Y-118271157D02*
X92078628Y-118128300D01*
X92078628Y-118128300D02*
X92007200Y-118056871D01*
X92007200Y-118056871D02*
X91864342Y-117985442D01*
X91864342Y-117985442D02*
X91578628Y-117914014D01*
X91578628Y-117914014D02*
X91435771Y-117842585D01*
X91435771Y-117842585D02*
X91364342Y-117771157D01*
X91364342Y-117771157D02*
X91292914Y-117628300D01*
X91292914Y-117628300D02*
X91292914Y-117485442D01*
X91292914Y-117485442D02*
X91364342Y-117342585D01*
X91364342Y-117342585D02*
X91435771Y-117271157D01*
X91435771Y-117271157D02*
X91578628Y-117199728D01*
X91578628Y-117199728D02*
X91935771Y-117199728D01*
X91935771Y-117199728D02*
X92150057Y-117271157D01*
X93292913Y-117914014D02*
X93507199Y-117985442D01*
X93507199Y-117985442D02*
X93578628Y-118056871D01*
X93578628Y-118056871D02*
X93650056Y-118199728D01*
X93650056Y-118199728D02*
X93650056Y-118414014D01*
X93650056Y-118414014D02*
X93578628Y-118556871D01*
X93578628Y-118556871D02*
X93507199Y-118628300D01*
X93507199Y-118628300D02*
X93364342Y-118699728D01*
X93364342Y-118699728D02*
X92792913Y-118699728D01*
X92792913Y-118699728D02*
X92792913Y-117199728D01*
X92792913Y-117199728D02*
X93292913Y-117199728D01*
X93292913Y-117199728D02*
X93435771Y-117271157D01*
X93435771Y-117271157D02*
X93507199Y-117342585D01*
X93507199Y-117342585D02*
X93578628Y-117485442D01*
X93578628Y-117485442D02*
X93578628Y-117628300D01*
X93578628Y-117628300D02*
X93507199Y-117771157D01*
X93507199Y-117771157D02*
X93435771Y-117842585D01*
X93435771Y-117842585D02*
X93292913Y-117914014D01*
X93292913Y-117914014D02*
X92792913Y-117914014D01*
X95150056Y-118556871D02*
X95078628Y-118628300D01*
X95078628Y-118628300D02*
X94864342Y-118699728D01*
X94864342Y-118699728D02*
X94721485Y-118699728D01*
X94721485Y-118699728D02*
X94507199Y-118628300D01*
X94507199Y-118628300D02*
X94364342Y-118485442D01*
X94364342Y-118485442D02*
X94292913Y-118342585D01*
X94292913Y-118342585D02*
X94221485Y-118056871D01*
X94221485Y-118056871D02*
X94221485Y-117842585D01*
X94221485Y-117842585D02*
X94292913Y-117556871D01*
X94292913Y-117556871D02*
X94364342Y-117414014D01*
X94364342Y-117414014D02*
X94507199Y-117271157D01*
X94507199Y-117271157D02*
X94721485Y-117199728D01*
X94721485Y-117199728D02*
X94864342Y-117199728D01*
X94864342Y-117199728D02*
X95078628Y-117271157D01*
X95078628Y-117271157D02*
X95150056Y-117342585D01*
X98007199Y-117128300D02*
X96721485Y-119056871D01*
X99650056Y-118699728D02*
X99650056Y-117199728D01*
X99650056Y-117199728D02*
X100507199Y-118699728D01*
X100507199Y-118699728D02*
X100507199Y-117199728D01*
X101435771Y-118699728D02*
X101292914Y-118628300D01*
X101292914Y-118628300D02*
X101221485Y-118556871D01*
X101221485Y-118556871D02*
X101150057Y-118414014D01*
X101150057Y-118414014D02*
X101150057Y-117985442D01*
X101150057Y-117985442D02*
X101221485Y-117842585D01*
X101221485Y-117842585D02*
X101292914Y-117771157D01*
X101292914Y-117771157D02*
X101435771Y-117699728D01*
X101435771Y-117699728D02*
X101650057Y-117699728D01*
X101650057Y-117699728D02*
X101792914Y-117771157D01*
X101792914Y-117771157D02*
X101864343Y-117842585D01*
X101864343Y-117842585D02*
X101935771Y-117985442D01*
X101935771Y-117985442D02*
X101935771Y-118414014D01*
X101935771Y-118414014D02*
X101864343Y-118556871D01*
X101864343Y-118556871D02*
X101792914Y-118628300D01*
X101792914Y-118628300D02*
X101650057Y-118699728D01*
X101650057Y-118699728D02*
X101435771Y-118699728D01*
X102578628Y-118699728D02*
X102578628Y-117699728D01*
X102578628Y-117985442D02*
X102650057Y-117842585D01*
X102650057Y-117842585D02*
X102721486Y-117771157D01*
X102721486Y-117771157D02*
X102864343Y-117699728D01*
X102864343Y-117699728D02*
X103007200Y-117699728D01*
X103292914Y-117699728D02*
X103864342Y-117699728D01*
X103507199Y-117199728D02*
X103507199Y-118485442D01*
X103507199Y-118485442D02*
X103578628Y-118628300D01*
X103578628Y-118628300D02*
X103721485Y-118699728D01*
X103721485Y-118699728D02*
X103864342Y-118699728D01*
X104364342Y-118699728D02*
X104364342Y-117199728D01*
X105007200Y-118699728D02*
X105007200Y-117914014D01*
X105007200Y-117914014D02*
X104935771Y-117771157D01*
X104935771Y-117771157D02*
X104792914Y-117699728D01*
X104792914Y-117699728D02*
X104578628Y-117699728D01*
X104578628Y-117699728D02*
X104435771Y-117771157D01*
X104435771Y-117771157D02*
X104364342Y-117842585D01*
X105578628Y-117699728D02*
X105864343Y-118699728D01*
X105864343Y-118699728D02*
X106150057Y-117985442D01*
X106150057Y-117985442D02*
X106435771Y-118699728D01*
X106435771Y-118699728D02*
X106721485Y-117699728D01*
X107864343Y-118628300D02*
X107721486Y-118699728D01*
X107721486Y-118699728D02*
X107435772Y-118699728D01*
X107435772Y-118699728D02*
X107292914Y-118628300D01*
X107292914Y-118628300D02*
X107221486Y-118485442D01*
X107221486Y-118485442D02*
X107221486Y-117914014D01*
X107221486Y-117914014D02*
X107292914Y-117771157D01*
X107292914Y-117771157D02*
X107435772Y-117699728D01*
X107435772Y-117699728D02*
X107721486Y-117699728D01*
X107721486Y-117699728D02*
X107864343Y-117771157D01*
X107864343Y-117771157D02*
X107935772Y-117914014D01*
X107935772Y-117914014D02*
X107935772Y-118056871D01*
X107935772Y-118056871D02*
X107221486Y-118199728D01*
X108507200Y-118628300D02*
X108650057Y-118699728D01*
X108650057Y-118699728D02*
X108935771Y-118699728D01*
X108935771Y-118699728D02*
X109078628Y-118628300D01*
X109078628Y-118628300D02*
X109150057Y-118485442D01*
X109150057Y-118485442D02*
X109150057Y-118414014D01*
X109150057Y-118414014D02*
X109078628Y-118271157D01*
X109078628Y-118271157D02*
X108935771Y-118199728D01*
X108935771Y-118199728D02*
X108721486Y-118199728D01*
X108721486Y-118199728D02*
X108578628Y-118128300D01*
X108578628Y-118128300D02*
X108507200Y-117985442D01*
X108507200Y-117985442D02*
X108507200Y-117914014D01*
X108507200Y-117914014D02*
X108578628Y-117771157D01*
X108578628Y-117771157D02*
X108721486Y-117699728D01*
X108721486Y-117699728D02*
X108935771Y-117699728D01*
X108935771Y-117699728D02*
X109078628Y-117771157D01*
X109578629Y-117699728D02*
X110150057Y-117699728D01*
X109792914Y-117199728D02*
X109792914Y-118485442D01*
X109792914Y-118485442D02*
X109864343Y-118628300D01*
X109864343Y-118628300D02*
X110007200Y-118699728D01*
X110007200Y-118699728D02*
X110150057Y-118699728D01*
X111221486Y-118628300D02*
X111078629Y-118699728D01*
X111078629Y-118699728D02*
X110792915Y-118699728D01*
X110792915Y-118699728D02*
X110650057Y-118628300D01*
X110650057Y-118628300D02*
X110578629Y-118485442D01*
X110578629Y-118485442D02*
X110578629Y-117914014D01*
X110578629Y-117914014D02*
X110650057Y-117771157D01*
X110650057Y-117771157D02*
X110792915Y-117699728D01*
X110792915Y-117699728D02*
X111078629Y-117699728D01*
X111078629Y-117699728D02*
X111221486Y-117771157D01*
X111221486Y-117771157D02*
X111292915Y-117914014D01*
X111292915Y-117914014D02*
X111292915Y-118056871D01*
X111292915Y-118056871D02*
X110578629Y-118199728D01*
X111935771Y-118699728D02*
X111935771Y-117699728D01*
X111935771Y-117985442D02*
X112007200Y-117842585D01*
X112007200Y-117842585D02*
X112078629Y-117771157D01*
X112078629Y-117771157D02*
X112221486Y-117699728D01*
X112221486Y-117699728D02*
X112364343Y-117699728D01*
X112864342Y-117699728D02*
X112864342Y-118699728D01*
X112864342Y-117842585D02*
X112935771Y-117771157D01*
X112935771Y-117771157D02*
X113078628Y-117699728D01*
X113078628Y-117699728D02*
X113292914Y-117699728D01*
X113292914Y-117699728D02*
X113435771Y-117771157D01*
X113435771Y-117771157D02*
X113507200Y-117914014D01*
X113507200Y-117914014D02*
X113507200Y-118699728D01*
X115364342Y-117199728D02*
X115364342Y-118414014D01*
X115364342Y-118414014D02*
X115435771Y-118556871D01*
X115435771Y-118556871D02*
X115507200Y-118628300D01*
X115507200Y-118628300D02*
X115650057Y-118699728D01*
X115650057Y-118699728D02*
X115935771Y-118699728D01*
X115935771Y-118699728D02*
X116078628Y-118628300D01*
X116078628Y-118628300D02*
X116150057Y-118556871D01*
X116150057Y-118556871D02*
X116221485Y-118414014D01*
X116221485Y-118414014D02*
X116221485Y-117199728D01*
X116935771Y-117699728D02*
X116935771Y-118699728D01*
X116935771Y-117842585D02*
X117007200Y-117771157D01*
X117007200Y-117771157D02*
X117150057Y-117699728D01*
X117150057Y-117699728D02*
X117364343Y-117699728D01*
X117364343Y-117699728D02*
X117507200Y-117771157D01*
X117507200Y-117771157D02*
X117578629Y-117914014D01*
X117578629Y-117914014D02*
X117578629Y-118699728D01*
X118292914Y-118699728D02*
X118292914Y-117699728D01*
X118292914Y-117199728D02*
X118221486Y-117271157D01*
X118221486Y-117271157D02*
X118292914Y-117342585D01*
X118292914Y-117342585D02*
X118364343Y-117271157D01*
X118364343Y-117271157D02*
X118292914Y-117199728D01*
X118292914Y-117199728D02*
X118292914Y-117342585D01*
X118864343Y-117699728D02*
X119221486Y-118699728D01*
X119221486Y-118699728D02*
X119578629Y-117699728D01*
X120721486Y-118628300D02*
X120578629Y-118699728D01*
X120578629Y-118699728D02*
X120292915Y-118699728D01*
X120292915Y-118699728D02*
X120150057Y-118628300D01*
X120150057Y-118628300D02*
X120078629Y-118485442D01*
X120078629Y-118485442D02*
X120078629Y-117914014D01*
X120078629Y-117914014D02*
X120150057Y-117771157D01*
X120150057Y-117771157D02*
X120292915Y-117699728D01*
X120292915Y-117699728D02*
X120578629Y-117699728D01*
X120578629Y-117699728D02*
X120721486Y-117771157D01*
X120721486Y-117771157D02*
X120792915Y-117914014D01*
X120792915Y-117914014D02*
X120792915Y-118056871D01*
X120792915Y-118056871D02*
X120078629Y-118199728D01*
X121435771Y-118699728D02*
X121435771Y-117699728D01*
X121435771Y-117985442D02*
X121507200Y-117842585D01*
X121507200Y-117842585D02*
X121578629Y-117771157D01*
X121578629Y-117771157D02*
X121721486Y-117699728D01*
X121721486Y-117699728D02*
X121864343Y-117699728D01*
X122292914Y-118628300D02*
X122435771Y-118699728D01*
X122435771Y-118699728D02*
X122721485Y-118699728D01*
X122721485Y-118699728D02*
X122864342Y-118628300D01*
X122864342Y-118628300D02*
X122935771Y-118485442D01*
X122935771Y-118485442D02*
X122935771Y-118414014D01*
X122935771Y-118414014D02*
X122864342Y-118271157D01*
X122864342Y-118271157D02*
X122721485Y-118199728D01*
X122721485Y-118199728D02*
X122507200Y-118199728D01*
X122507200Y-118199728D02*
X122364342Y-118128300D01*
X122364342Y-118128300D02*
X122292914Y-117985442D01*
X122292914Y-117985442D02*
X122292914Y-117914014D01*
X122292914Y-117914014D02*
X122364342Y-117771157D01*
X122364342Y-117771157D02*
X122507200Y-117699728D01*
X122507200Y-117699728D02*
X122721485Y-117699728D01*
X122721485Y-117699728D02*
X122864342Y-117771157D01*
X123578628Y-118699728D02*
X123578628Y-117699728D01*
X123578628Y-117199728D02*
X123507200Y-117271157D01*
X123507200Y-117271157D02*
X123578628Y-117342585D01*
X123578628Y-117342585D02*
X123650057Y-117271157D01*
X123650057Y-117271157D02*
X123578628Y-117199728D01*
X123578628Y-117199728D02*
X123578628Y-117342585D01*
X124078629Y-117699728D02*
X124650057Y-117699728D01*
X124292914Y-117199728D02*
X124292914Y-118485442D01*
X124292914Y-118485442D02*
X124364343Y-118628300D01*
X124364343Y-118628300D02*
X124507200Y-118699728D01*
X124507200Y-118699728D02*
X124650057Y-118699728D01*
X125007200Y-117699728D02*
X125364343Y-118699728D01*
X125721486Y-117699728D02*
X125364343Y-118699728D01*
X125364343Y-118699728D02*
X125221486Y-119056871D01*
X125221486Y-119056871D02*
X125150057Y-119128300D01*
X125150057Y-119128300D02*
X125007200Y-119199728D01*
D10*
D11*
D10*
D11*
D10*
D11*
X91364342Y-109699728D02*
X91364342Y-108199728D01*
X91364342Y-108199728D02*
X91864342Y-109271157D01*
X91864342Y-109271157D02*
X92364342Y-108199728D01*
X92364342Y-108199728D02*
X92364342Y-109699728D01*
X93292914Y-109699728D02*
X93150057Y-109628300D01*
X93150057Y-109628300D02*
X93078628Y-109556871D01*
X93078628Y-109556871D02*
X93007200Y-109414014D01*
X93007200Y-109414014D02*
X93007200Y-108985442D01*
X93007200Y-108985442D02*
X93078628Y-108842585D01*
X93078628Y-108842585D02*
X93150057Y-108771157D01*
X93150057Y-108771157D02*
X93292914Y-108699728D01*
X93292914Y-108699728D02*
X93507200Y-108699728D01*
X93507200Y-108699728D02*
X93650057Y-108771157D01*
X93650057Y-108771157D02*
X93721486Y-108842585D01*
X93721486Y-108842585D02*
X93792914Y-108985442D01*
X93792914Y-108985442D02*
X93792914Y-109414014D01*
X93792914Y-109414014D02*
X93721486Y-109556871D01*
X93721486Y-109556871D02*
X93650057Y-109628300D01*
X93650057Y-109628300D02*
X93507200Y-109699728D01*
X93507200Y-109699728D02*
X93292914Y-109699728D01*
X95078629Y-109699728D02*
X95078629Y-108199728D01*
X95078629Y-109628300D02*
X94935771Y-109699728D01*
X94935771Y-109699728D02*
X94650057Y-109699728D01*
X94650057Y-109699728D02*
X94507200Y-109628300D01*
X94507200Y-109628300D02*
X94435771Y-109556871D01*
X94435771Y-109556871D02*
X94364343Y-109414014D01*
X94364343Y-109414014D02*
X94364343Y-108985442D01*
X94364343Y-108985442D02*
X94435771Y-108842585D01*
X94435771Y-108842585D02*
X94507200Y-108771157D01*
X94507200Y-108771157D02*
X94650057Y-108699728D01*
X94650057Y-108699728D02*
X94935771Y-108699728D01*
X94935771Y-108699728D02*
X95078629Y-108771157D01*
X95792914Y-109699728D02*
X95792914Y-108699728D01*
X95792914Y-108199728D02*
X95721486Y-108271157D01*
X95721486Y-108271157D02*
X95792914Y-108342585D01*
X95792914Y-108342585D02*
X95864343Y-108271157D01*
X95864343Y-108271157D02*
X95792914Y-108199728D01*
X95792914Y-108199728D02*
X95792914Y-108342585D01*
X96292915Y-108699728D02*
X96864343Y-108699728D01*
X96507200Y-109699728D02*
X96507200Y-108414014D01*
X96507200Y-108414014D02*
X96578629Y-108271157D01*
X96578629Y-108271157D02*
X96721486Y-108199728D01*
X96721486Y-108199728D02*
X96864343Y-108199728D01*
X97364343Y-109699728D02*
X97364343Y-108699728D01*
X97364343Y-108199728D02*
X97292915Y-108271157D01*
X97292915Y-108271157D02*
X97364343Y-108342585D01*
X97364343Y-108342585D02*
X97435772Y-108271157D01*
X97435772Y-108271157D02*
X97364343Y-108199728D01*
X97364343Y-108199728D02*
X97364343Y-108342585D01*
X98650058Y-109628300D02*
X98507201Y-109699728D01*
X98507201Y-109699728D02*
X98221487Y-109699728D01*
X98221487Y-109699728D02*
X98078629Y-109628300D01*
X98078629Y-109628300D02*
X98007201Y-109485442D01*
X98007201Y-109485442D02*
X98007201Y-108914014D01*
X98007201Y-108914014D02*
X98078629Y-108771157D01*
X98078629Y-108771157D02*
X98221487Y-108699728D01*
X98221487Y-108699728D02*
X98507201Y-108699728D01*
X98507201Y-108699728D02*
X98650058Y-108771157D01*
X98650058Y-108771157D02*
X98721487Y-108914014D01*
X98721487Y-108914014D02*
X98721487Y-109056871D01*
X98721487Y-109056871D02*
X98007201Y-109199728D01*
X100007201Y-109699728D02*
X100007201Y-108199728D01*
X100007201Y-109628300D02*
X99864343Y-109699728D01*
X99864343Y-109699728D02*
X99578629Y-109699728D01*
X99578629Y-109699728D02*
X99435772Y-109628300D01*
X99435772Y-109628300D02*
X99364343Y-109556871D01*
X99364343Y-109556871D02*
X99292915Y-109414014D01*
X99292915Y-109414014D02*
X99292915Y-108985442D01*
X99292915Y-108985442D02*
X99364343Y-108842585D01*
X99364343Y-108842585D02*
X99435772Y-108771157D01*
X99435772Y-108771157D02*
X99578629Y-108699728D01*
X99578629Y-108699728D02*
X99864343Y-108699728D01*
X99864343Y-108699728D02*
X100007201Y-108771157D01*
X101864343Y-109699728D02*
X101864343Y-108199728D01*
X101864343Y-108771157D02*
X102007201Y-108699728D01*
X102007201Y-108699728D02*
X102292915Y-108699728D01*
X102292915Y-108699728D02*
X102435772Y-108771157D01*
X102435772Y-108771157D02*
X102507201Y-108842585D01*
X102507201Y-108842585D02*
X102578629Y-108985442D01*
X102578629Y-108985442D02*
X102578629Y-109414014D01*
X102578629Y-109414014D02*
X102507201Y-109556871D01*
X102507201Y-109556871D02*
X102435772Y-109628300D01*
X102435772Y-109628300D02*
X102292915Y-109699728D01*
X102292915Y-109699728D02*
X102007201Y-109699728D01*
X102007201Y-109699728D02*
X101864343Y-109628300D01*
X103078629Y-108699728D02*
X103435772Y-109699728D01*
X103792915Y-108699728D02*
X103435772Y-109699728D01*
X103435772Y-109699728D02*
X103292915Y-110056871D01*
X103292915Y-110056871D02*
X103221486Y-110128300D01*
X103221486Y-110128300D02*
X103078629Y-110199728D01*
X104364343Y-109556871D02*
X104435772Y-109628300D01*
X104435772Y-109628300D02*
X104364343Y-109699728D01*
X104364343Y-109699728D02*
X104292915Y-109628300D01*
X104292915Y-109628300D02*
X104364343Y-109556871D01*
X104364343Y-109556871D02*
X104364343Y-109699728D01*
X104364343Y-108771157D02*
X104435772Y-108842585D01*
X104435772Y-108842585D02*
X104364343Y-108914014D01*
X104364343Y-108914014D02*
X104292915Y-108842585D01*
X104292915Y-108842585D02*
X104364343Y-108771157D01*
X104364343Y-108771157D02*
X104364343Y-108914014D01*
X106078629Y-108199728D02*
X107078629Y-108199728D01*
X107078629Y-108199728D02*
X106078629Y-109699728D01*
X106078629Y-109699728D02*
X107078629Y-109699728D01*
X107650057Y-109699728D02*
X107650057Y-108199728D01*
X108292915Y-109699728D02*
X108292915Y-108914014D01*
X108292915Y-108914014D02*
X108221486Y-108771157D01*
X108221486Y-108771157D02*
X108078629Y-108699728D01*
X108078629Y-108699728D02*
X107864343Y-108699728D01*
X107864343Y-108699728D02*
X107721486Y-108771157D01*
X107721486Y-108771157D02*
X107650057Y-108842585D01*
X109007200Y-109699728D02*
X109007200Y-108699728D01*
X109007200Y-108199728D02*
X108935772Y-108271157D01*
X108935772Y-108271157D02*
X109007200Y-108342585D01*
X109007200Y-108342585D02*
X109078629Y-108271157D01*
X109078629Y-108271157D02*
X109007200Y-108199728D01*
X109007200Y-108199728D02*
X109007200Y-108342585D01*
X109721486Y-109699728D02*
X109721486Y-108199728D01*
X110364344Y-109699728D02*
X110364344Y-108914014D01*
X110364344Y-108914014D02*
X110292915Y-108771157D01*
X110292915Y-108771157D02*
X110150058Y-108699728D01*
X110150058Y-108699728D02*
X109935772Y-108699728D01*
X109935772Y-108699728D02*
X109792915Y-108771157D01*
X109792915Y-108771157D02*
X109721486Y-108842585D01*
X111650058Y-109628300D02*
X111507201Y-109699728D01*
X111507201Y-109699728D02*
X111221487Y-109699728D01*
X111221487Y-109699728D02*
X111078629Y-109628300D01*
X111078629Y-109628300D02*
X111007201Y-109485442D01*
X111007201Y-109485442D02*
X111007201Y-108914014D01*
X111007201Y-108914014D02*
X111078629Y-108771157D01*
X111078629Y-108771157D02*
X111221487Y-108699728D01*
X111221487Y-108699728D02*
X111507201Y-108699728D01*
X111507201Y-108699728D02*
X111650058Y-108771157D01*
X111650058Y-108771157D02*
X111721487Y-108914014D01*
X111721487Y-108914014D02*
X111721487Y-109056871D01*
X111721487Y-109056871D02*
X111007201Y-109199728D01*
X112364343Y-108699728D02*
X112364343Y-109699728D01*
X112364343Y-108842585D02*
X112435772Y-108771157D01*
X112435772Y-108771157D02*
X112578629Y-108699728D01*
X112578629Y-108699728D02*
X112792915Y-108699728D01*
X112792915Y-108699728D02*
X112935772Y-108771157D01*
X112935772Y-108771157D02*
X113007201Y-108914014D01*
X113007201Y-108914014D02*
X113007201Y-109699728D01*
X114364344Y-108699728D02*
X114364344Y-109914014D01*
X114364344Y-109914014D02*
X114292915Y-110056871D01*
X114292915Y-110056871D02*
X114221486Y-110128300D01*
X114221486Y-110128300D02*
X114078629Y-110199728D01*
X114078629Y-110199728D02*
X113864344Y-110199728D01*
X113864344Y-110199728D02*
X113721486Y-110128300D01*
X114364344Y-109628300D02*
X114221486Y-109699728D01*
X114221486Y-109699728D02*
X113935772Y-109699728D01*
X113935772Y-109699728D02*
X113792915Y-109628300D01*
X113792915Y-109628300D02*
X113721486Y-109556871D01*
X113721486Y-109556871D02*
X113650058Y-109414014D01*
X113650058Y-109414014D02*
X113650058Y-108985442D01*
X113650058Y-108985442D02*
X113721486Y-108842585D01*
X113721486Y-108842585D02*
X113792915Y-108771157D01*
X113792915Y-108771157D02*
X113935772Y-108699728D01*
X113935772Y-108699728D02*
X114221486Y-108699728D01*
X114221486Y-108699728D02*
X114364344Y-108771157D01*
X116150058Y-109628300D02*
X116364344Y-109699728D01*
X116364344Y-109699728D02*
X116721486Y-109699728D01*
X116721486Y-109699728D02*
X116864344Y-109628300D01*
X116864344Y-109628300D02*
X116935772Y-109556871D01*
X116935772Y-109556871D02*
X117007201Y-109414014D01*
X117007201Y-109414014D02*
X117007201Y-109271157D01*
X117007201Y-109271157D02*
X116935772Y-109128300D01*
X116935772Y-109128300D02*
X116864344Y-109056871D01*
X116864344Y-109056871D02*
X116721486Y-108985442D01*
X116721486Y-108985442D02*
X116435772Y-108914014D01*
X116435772Y-108914014D02*
X116292915Y-108842585D01*
X116292915Y-108842585D02*
X116221486Y-108771157D01*
X116221486Y-108771157D02*
X116150058Y-108628300D01*
X116150058Y-108628300D02*
X116150058Y-108485442D01*
X116150058Y-108485442D02*
X116221486Y-108342585D01*
X116221486Y-108342585D02*
X116292915Y-108271157D01*
X116292915Y-108271157D02*
X116435772Y-108199728D01*
X116435772Y-108199728D02*
X116792915Y-108199728D01*
X116792915Y-108199728D02*
X117007201Y-108271157D01*
X117650057Y-109699728D02*
X117650057Y-108199728D01*
X118292915Y-109699728D02*
X118292915Y-108914014D01*
X118292915Y-108914014D02*
X118221486Y-108771157D01*
X118221486Y-108771157D02*
X118078629Y-108699728D01*
X118078629Y-108699728D02*
X117864343Y-108699728D01*
X117864343Y-108699728D02*
X117721486Y-108771157D01*
X117721486Y-108771157D02*
X117650057Y-108842585D01*
X119578629Y-109628300D02*
X119435772Y-109699728D01*
X119435772Y-109699728D02*
X119150058Y-109699728D01*
X119150058Y-109699728D02*
X119007200Y-109628300D01*
X119007200Y-109628300D02*
X118935772Y-109485442D01*
X118935772Y-109485442D02*
X118935772Y-108914014D01*
X118935772Y-108914014D02*
X119007200Y-108771157D01*
X119007200Y-108771157D02*
X119150058Y-108699728D01*
X119150058Y-108699728D02*
X119435772Y-108699728D01*
X119435772Y-108699728D02*
X119578629Y-108771157D01*
X119578629Y-108771157D02*
X119650058Y-108914014D01*
X119650058Y-108914014D02*
X119650058Y-109056871D01*
X119650058Y-109056871D02*
X118935772Y-109199728D01*
X120292914Y-108699728D02*
X120292914Y-109699728D01*
X120292914Y-108842585D02*
X120364343Y-108771157D01*
X120364343Y-108771157D02*
X120507200Y-108699728D01*
X120507200Y-108699728D02*
X120721486Y-108699728D01*
X120721486Y-108699728D02*
X120864343Y-108771157D01*
X120864343Y-108771157D02*
X120935772Y-108914014D01*
X120935772Y-108914014D02*
X120935772Y-109699728D01*
X122292915Y-108699728D02*
X122292915Y-109914014D01*
X122292915Y-109914014D02*
X122221486Y-110056871D01*
X122221486Y-110056871D02*
X122150057Y-110128300D01*
X122150057Y-110128300D02*
X122007200Y-110199728D01*
X122007200Y-110199728D02*
X121792915Y-110199728D01*
X121792915Y-110199728D02*
X121650057Y-110128300D01*
X122292915Y-109628300D02*
X122150057Y-109699728D01*
X122150057Y-109699728D02*
X121864343Y-109699728D01*
X121864343Y-109699728D02*
X121721486Y-109628300D01*
X121721486Y-109628300D02*
X121650057Y-109556871D01*
X121650057Y-109556871D02*
X121578629Y-109414014D01*
X121578629Y-109414014D02*
X121578629Y-108985442D01*
X121578629Y-108985442D02*
X121650057Y-108842585D01*
X121650057Y-108842585D02*
X121721486Y-108771157D01*
X121721486Y-108771157D02*
X121864343Y-108699728D01*
X121864343Y-108699728D02*
X122150057Y-108699728D01*
X122150057Y-108699728D02*
X122292915Y-108771157D01*
D10*
D11*
X91292914Y-106271157D02*
X92007200Y-106271157D01*
X91150057Y-106699728D02*
X91650057Y-105199728D01*
X91650057Y-105199728D02*
X92150057Y-106699728D01*
X93292914Y-105699728D02*
X93292914Y-106699728D01*
X92650056Y-105699728D02*
X92650056Y-106485442D01*
X92650056Y-106485442D02*
X92721485Y-106628300D01*
X92721485Y-106628300D02*
X92864342Y-106699728D01*
X92864342Y-106699728D02*
X93078628Y-106699728D01*
X93078628Y-106699728D02*
X93221485Y-106628300D01*
X93221485Y-106628300D02*
X93292914Y-106556871D01*
X93792914Y-105699728D02*
X94364342Y-105699728D01*
X94007199Y-105199728D02*
X94007199Y-106485442D01*
X94007199Y-106485442D02*
X94078628Y-106628300D01*
X94078628Y-106628300D02*
X94221485Y-106699728D01*
X94221485Y-106699728D02*
X94364342Y-106699728D01*
X94864342Y-106699728D02*
X94864342Y-105199728D01*
X95507200Y-106699728D02*
X95507200Y-105914014D01*
X95507200Y-105914014D02*
X95435771Y-105771157D01*
X95435771Y-105771157D02*
X95292914Y-105699728D01*
X95292914Y-105699728D02*
X95078628Y-105699728D01*
X95078628Y-105699728D02*
X94935771Y-105771157D01*
X94935771Y-105771157D02*
X94864342Y-105842585D01*
X96435771Y-106699728D02*
X96292914Y-106628300D01*
X96292914Y-106628300D02*
X96221485Y-106556871D01*
X96221485Y-106556871D02*
X96150057Y-106414014D01*
X96150057Y-106414014D02*
X96150057Y-105985442D01*
X96150057Y-105985442D02*
X96221485Y-105842585D01*
X96221485Y-105842585D02*
X96292914Y-105771157D01*
X96292914Y-105771157D02*
X96435771Y-105699728D01*
X96435771Y-105699728D02*
X96650057Y-105699728D01*
X96650057Y-105699728D02*
X96792914Y-105771157D01*
X96792914Y-105771157D02*
X96864343Y-105842585D01*
X96864343Y-105842585D02*
X96935771Y-105985442D01*
X96935771Y-105985442D02*
X96935771Y-106414014D01*
X96935771Y-106414014D02*
X96864343Y-106556871D01*
X96864343Y-106556871D02*
X96792914Y-106628300D01*
X96792914Y-106628300D02*
X96650057Y-106699728D01*
X96650057Y-106699728D02*
X96435771Y-106699728D01*
X97578628Y-106699728D02*
X97578628Y-105699728D01*
X97578628Y-105985442D02*
X97650057Y-105842585D01*
X97650057Y-105842585D02*
X97721486Y-105771157D01*
X97721486Y-105771157D02*
X97864343Y-105699728D01*
X97864343Y-105699728D02*
X98007200Y-105699728D01*
X98507199Y-106556871D02*
X98578628Y-106628300D01*
X98578628Y-106628300D02*
X98507199Y-106699728D01*
X98507199Y-106699728D02*
X98435771Y-106628300D01*
X98435771Y-106628300D02*
X98507199Y-106556871D01*
X98507199Y-106556871D02*
X98507199Y-106699728D01*
X98507199Y-105771157D02*
X98578628Y-105842585D01*
X98578628Y-105842585D02*
X98507199Y-105914014D01*
X98507199Y-105914014D02*
X98435771Y-105842585D01*
X98435771Y-105842585D02*
X98507199Y-105771157D01*
X98507199Y-105771157D02*
X98507199Y-105914014D01*
X100292914Y-106628300D02*
X100507200Y-106699728D01*
X100507200Y-106699728D02*
X100864342Y-106699728D01*
X100864342Y-106699728D02*
X101007200Y-106628300D01*
X101007200Y-106628300D02*
X101078628Y-106556871D01*
X101078628Y-106556871D02*
X101150057Y-106414014D01*
X101150057Y-106414014D02*
X101150057Y-106271157D01*
X101150057Y-106271157D02*
X101078628Y-106128300D01*
X101078628Y-106128300D02*
X101007200Y-106056871D01*
X101007200Y-106056871D02*
X100864342Y-105985442D01*
X100864342Y-105985442D02*
X100578628Y-105914014D01*
X100578628Y-105914014D02*
X100435771Y-105842585D01*
X100435771Y-105842585D02*
X100364342Y-105771157D01*
X100364342Y-105771157D02*
X100292914Y-105628300D01*
X100292914Y-105628300D02*
X100292914Y-105485442D01*
X100292914Y-105485442D02*
X100364342Y-105342585D01*
X100364342Y-105342585D02*
X100435771Y-105271157D01*
X100435771Y-105271157D02*
X100578628Y-105199728D01*
X100578628Y-105199728D02*
X100935771Y-105199728D01*
X100935771Y-105199728D02*
X101150057Y-105271157D01*
X101792913Y-106699728D02*
X101792913Y-105199728D01*
X102435771Y-106699728D02*
X102435771Y-105914014D01*
X102435771Y-105914014D02*
X102364342Y-105771157D01*
X102364342Y-105771157D02*
X102221485Y-105699728D01*
X102221485Y-105699728D02*
X102007199Y-105699728D01*
X102007199Y-105699728D02*
X101864342Y-105771157D01*
X101864342Y-105771157D02*
X101792913Y-105842585D01*
X103150056Y-106699728D02*
X103150056Y-105699728D01*
X103150056Y-105199728D02*
X103078628Y-105271157D01*
X103078628Y-105271157D02*
X103150056Y-105342585D01*
X103150056Y-105342585D02*
X103221485Y-105271157D01*
X103221485Y-105271157D02*
X103150056Y-105199728D01*
X103150056Y-105199728D02*
X103150056Y-105342585D01*
X104078628Y-106699728D02*
X103935771Y-106628300D01*
X103935771Y-106628300D02*
X103864342Y-106485442D01*
X103864342Y-106485442D02*
X103864342Y-105199728D01*
X104650056Y-106699728D02*
X104650056Y-105699728D01*
X104650056Y-105199728D02*
X104578628Y-105271157D01*
X104578628Y-105271157D02*
X104650056Y-105342585D01*
X104650056Y-105342585D02*
X104721485Y-105271157D01*
X104721485Y-105271157D02*
X104650056Y-105199728D01*
X104650056Y-105199728D02*
X104650056Y-105342585D01*
X105364342Y-105699728D02*
X105364342Y-106699728D01*
X105364342Y-105842585D02*
X105435771Y-105771157D01*
X105435771Y-105771157D02*
X105578628Y-105699728D01*
X105578628Y-105699728D02*
X105792914Y-105699728D01*
X105792914Y-105699728D02*
X105935771Y-105771157D01*
X105935771Y-105771157D02*
X106007200Y-105914014D01*
X106007200Y-105914014D02*
X106007200Y-106699728D01*
X108721485Y-106699728D02*
X108221485Y-105985442D01*
X107864342Y-106699728D02*
X107864342Y-105199728D01*
X107864342Y-105199728D02*
X108435771Y-105199728D01*
X108435771Y-105199728D02*
X108578628Y-105271157D01*
X108578628Y-105271157D02*
X108650057Y-105342585D01*
X108650057Y-105342585D02*
X108721485Y-105485442D01*
X108721485Y-105485442D02*
X108721485Y-105699728D01*
X108721485Y-105699728D02*
X108650057Y-105842585D01*
X108650057Y-105842585D02*
X108578628Y-105914014D01*
X108578628Y-105914014D02*
X108435771Y-105985442D01*
X108435771Y-105985442D02*
X107864342Y-105985442D01*
X110007200Y-106699728D02*
X110007200Y-105914014D01*
X110007200Y-105914014D02*
X109935771Y-105771157D01*
X109935771Y-105771157D02*
X109792914Y-105699728D01*
X109792914Y-105699728D02*
X109507200Y-105699728D01*
X109507200Y-105699728D02*
X109364342Y-105771157D01*
X110007200Y-106628300D02*
X109864342Y-106699728D01*
X109864342Y-106699728D02*
X109507200Y-106699728D01*
X109507200Y-106699728D02*
X109364342Y-106628300D01*
X109364342Y-106628300D02*
X109292914Y-106485442D01*
X109292914Y-106485442D02*
X109292914Y-106342585D01*
X109292914Y-106342585D02*
X109364342Y-106199728D01*
X109364342Y-106199728D02*
X109507200Y-106128300D01*
X109507200Y-106128300D02*
X109864342Y-106128300D01*
X109864342Y-106128300D02*
X110007200Y-106056871D01*
X110578628Y-105699728D02*
X110935771Y-106699728D01*
X111292914Y-105699728D02*
X110935771Y-106699728D01*
X110935771Y-106699728D02*
X110792914Y-107056871D01*
X110792914Y-107056871D02*
X110721485Y-107128300D01*
X110721485Y-107128300D02*
X110578628Y-107199728D01*
D10*
D11*
X110007200Y-129505800D02*
X110007200Y-132505800D01*
D10*
D11*
X174007200Y-129505800D02*
X174007200Y-136005800D01*
D14*
X58420000Y-33528000D02*
X140970000Y-33528000D01*
X140970000Y-77978000D01*
X58420000Y-77978000D01*
X58420000Y-33528000D01*
M02*
